<?xml version="1.0" encoding="utf-8"?>
<!-- Generator: Adobe Illustrator 24.0.1, SVG Export Plug-In . SVG Version: 6.00 Build 0)  -->
<svg version="1.1" id="Layer_1" xmlns="http://www.w3.org/2000/svg" xmlns:xlink="http://www.w3.org/1999/xlink" x="0px" y="0px"
	 viewBox="0 0 512 512" style="enable-background:new 0 0 512 512;" xml:space="preserve">
<style type="text/css">
	.st0{display:none;}
	.st1{display:inline;fill:#200A7F;stroke:#18E5EA;stroke-width:20;stroke-miterlimit:10;}
	.st2{display:inline;fill:#EF0B79;}
	.st3{display:inline;fill:#18E5EA;}
	.st4{display:inline;}
	.st5{fill:#E9F21C;}
	.st6{display:inline;fill:none;}
	.st7{display:inline;fill:#EF3A24;}
	.st8{font-family:'MyriadPro-Regular';}
	.st9{font-size:250px;}
	.st10{display:inline;fill:#FFFFFF;}
	.st11{opacity:0.67;fill:#0086FF;enable-background:new    ;}
	.st12{fill:#FFFFFF;}
	.st13{display:none;opacity:8.000000e-02;fill:#EFEFEF;enable-background:new    ;}
	.st14{fill:none;}
	.st15{display:none;opacity:0.67;enable-background:new    ;}
	.st16{display:inline;fill:#0086FF;}
	.st17{display:none;enable-background:new    ;}
	.st18{opacity:2.999998e-02;fill:#FFFFFF;stroke:#009EFF;stroke-miterlimit:10;enable-background:new    ;}
	.st19{fill:#FFFFFF;stroke:#009EFF;stroke-miterlimit:10;}
	.st20{opacity:0.8;fill:#FFFFFF;stroke:#009EFF;stroke-miterlimit:10;enable-background:new    ;}
	.st21{enable-background:new    ;}
	.st22{fill:#0086FF;}
</style>
<g id="Layer_3" class="st0">
	<path class="st1" d="M401.1,212.2c5.1,15.3,7.9,31.7,7.9,48.8c0,85.3-69.2,154.5-154.5,154.5S100,346.3,100,261
		s69.2-154.5,154.5-154.5c51.2,0,96.6,24.9,124.7,63.3"/>
	<path class="st2" d="M333.4,255.2c0,4.2-3.3,7.7-7.4,7.7H174.9c-4.1,0-7.4-3.4-7.4-7.7l0,0c0-4.2,3.3-7.7,7.4-7.7H326
		C330.1,247.5,333.4,250.9,333.4,255.2L333.4,255.2z"/>
	<path class="st2" d="M333.4,284.8c0,4.2-3.3,7.6-7.4,7.6H174.9c-4.1,0-7.4-3.4-7.4-7.6l0,0c0-4.2,3.3-7.6,7.4-7.6H326
		C330.1,277.1,333.4,280.6,333.4,284.8L333.4,284.8z"/>
	<path class="st2" d="M333.4,313c0,4.2-3.3,7.7-7.4,7.7H174.9c-4.1,0-7.4-3.4-7.4-7.7l0,0c0-4.2,3.3-7.6,7.4-7.6H326
		C330.1,305.4,333.4,308.8,333.4,313L333.4,313z"/>
	<path class="st2" d="M333.4,338.4c0,4.2-3.3,7.7-7.4,7.7H174.9c-4.1,0-7.4-3.4-7.4-7.7l0,0c0-4.2,3.3-7.6,7.4-7.6H326
		C330.1,330.7,333.4,334.1,333.4,338.4L333.4,338.4z"/>
	<polygon class="st3" points="395,191.5 320.2,165.2 380.4,113.5 	"/>
	<g class="st4">
		<g>
			<g>
				<path class="st5" d="M241.5,239.2c-2.3,0-4.4-1.1-5.8-2.9l-18.8-24.8c-2.4-3.2-1.8-7.8,1.4-10.3c3.2-2.4,7.8-1.8,10.3,1.4
					l12.3,16.3l31-49.8c2.1-3.4,6.6-4.5,10.1-2.3c3.4,2.1,4.5,6.6,2.3,10.1l-36.7,58.9c-1.3,2-3.5,3.3-5.9,3.4
					C241.7,239.2,241.6,239.2,241.5,239.2z"/>
			</g>
		</g>
	</g>
</g>
<g id="Layer_2_2_" class="st0">
	<rect x="121" y="171.5" class="st6" width="298" height="251"/>
	<text transform="matrix(1 0 0 1 121 348.9979)" class="st7 st8 st9">24</text>
	<circle class="st10" cx="138.3" cy="91.8" r="17.3"/>
	<circle class="st10" cx="185.3" cy="91.8" r="17.3"/>
	<circle class="st10" cx="232.3" cy="91.8" r="17.3"/>
	<circle class="st10" cx="278.3" cy="91.8" r="17.3"/>
	<circle class="st10" cx="323.3" cy="91.8" r="17.3"/>
	<circle class="st10" cx="368.3" cy="91.8" r="17.3"/>
</g>
<path class="st11" d="M371.3,495.1H142c-73.7,0-133.5-59.8-133.5-133.5v-218C8.5,69.9,68.3,10.1,142,10.1h229.2
	c73.7,0,133.5,59.8,133.5,133.5v218C504.8,435.4,445,495.1,371.3,495.1z"/>
<path class="st12" d="M365.5,489.9h-218C73.8,489.9,14,430.1,14,356.4v-207C14,75.7,73.8,15.9,147.5,15.9h218
	c73.7,0,133.5,59.8,133.5,133.5v207C499,430.1,439.2,489.9,365.5,489.9z"/>
<path class="st13" d="M502,156.5v207c0,73.7-59.8,133.5-133.5,133.5h-218c-51.4,0-96.1-29.1-118.4-71.7c-3.3-11.7-5.1-24-5.1-36.8
	v-207C27,107.8,86.8,48,160.5,48h218c51.4,0,96.1,29.1,118.4,71.7C500.2,131.4,502,143.8,502,156.5z"/>
<path class="st13" d="M510,158.5v207c0,73.7-59.8,133.5-133.5,133.5h-218c-61,0-112.4-40.9-128.4-96.7c-3.3-11.7-5.1-24-5.1-36.8
	v-207C25,84.8,84.8,25,158.5,25h218c51.4,0,96.1,29.1,118.4,71.7C504.5,115.2,510,136.2,510,158.5z"/>
<rect x="156.2" y="343.2" class="st14" width="423" height="129.7"/>
<g class="st15">
	<path class="st16" d="M207.8,435.1l-8.9,26.9h-11.4l29.1-85.6h13.3l29.2,85.6h-11.8l-9.1-26.9H207.8z M235.8,426.4l-8.4-24.6
		c-1.9-5.6-3.2-10.7-4.4-15.6h-0.3c-1.3,5.1-2.7,10.3-4.3,15.5l-8.4,24.8L235.8,426.4L235.8,426.4z"/>
	<path class="st16" d="M282.7,376.4V462h-11v-85.6H282.7z"/>
</g>
<g class="st17">
	<path class="st16" d="M181.4,456.6L170.6,438c-4.4-7.1-7.1-11.8-9.8-16.6h-0.3c-2.4,4.9-4.8,9.4-9.1,16.8l-10.1,18.5h-12.5
		l25.8-42.6l-24.8-41.6h12.6l11.1,19.8c3.1,5.5,5.5,9.8,7.8,14.3h0.4c2.4-5,4.5-8.9,7.6-14.3l11.5-19.8h12.5l-25.6,41l26.3,43.3
		H181.4z"/>
	<path class="st16" d="M206.6,372.4h10.9v75.1h36v9.1h-46.9V372.4z"/>
	<path class="st16" d="M264.1,443.4c4.9,3,12,5.5,19.5,5.5c11.1,0,17.6-5.9,17.6-14.4c0-7.9-4.5-12.4-15.9-16.8
		c-13.8-4.9-22.3-12-22.3-23.9c0-13.1,10.9-22.9,27.3-22.9c8.6,0,14.9,2,18.6,4.1l-3,8.9c-2.8-1.5-8.4-4-16-4
		c-11.5,0-15.9,6.9-15.9,12.6c0,7.9,5.1,11.8,16.8,16.3c14.3,5.5,21.5,12.4,21.5,24.8c0,13-9.6,24.3-29.5,24.3
		c-8.1,0-17-2.4-21.5-5.4L264.1,443.4z"/>
	<path class="st16" d="M373.4,456.6L362.6,438c-4.4-7.1-7.1-11.8-9.8-16.6h-0.3c-2.4,4.9-4.8,9.4-9.1,16.8l-10.1,18.5h-12.5
		l25.8-42.6l-24.8-41.6h12.6l11.1,19.8c3.1,5.5,5.5,9.8,7.8,14.3h0.4c2.4-5,4.5-8.9,7.6-14.3l11.5-19.8h12.5l-25.6,41l26.3,43.3
		H373.4z"/>
</g>
<g id="g4484" transform="translate(0.03125,0.2939197)">
	<g id="g4454" transform="translate(-10,-4)">
		<g id="g4456" transform="matrix(1,0,0,0.99718653,0,-25.821238)">
			<path id="path4458" class="st18" d="M142.9,147.2c-5.8,0-10.5,4.7-10.5,10.5v122c0,5.8,4.7,10.5,10.5,10.5h137.9
				c5.8,0,10.5-4.7,10.5-10.5v-122c0-5.8-4.7-10.5-10.5-10.5C280.7,147.2,142.9,147.2,142.9,147.2z M152.2,178.4h118.7
				c3.5,0,6.3,2.8,6.3,6.3v68c0,3.5-2.8,6.3-6.3,6.3H152.2c-3.5,0-6.3-2.8-6.3-6.3v-68C145.9,181.2,148.7,178.4,152.2,178.4z"/>
			<path id="path4460" class="st18" d="M143.4,147.8c-5.8,0-10.4,4.7-10.4,10.4v121.1c0,5.8,4.7,10.4,10.4,10.4h136.9
				c5.8,0,10.4-4.7,10.4-10.4V158.2c0-5.8-4.7-10.4-10.4-10.4H143.4z M152.6,178.7h117.9c3.4,0,6.2,2.8,6.2,6.2v67.6
				c0,3.4-2.8,6.2-6.2,6.2H152.6c-3.4,0-6.2-2.8-6.2-6.2V185C146.3,181.5,149.1,178.7,152.6,178.7z"/>
			<path id="path4462" class="st18" d="M143.8,148.3c-5.7,0-10.3,4.6-10.3,10.3v120.3c0,5.7,4.6,10.3,10.3,10.3h135.9
				c5.7,0,10.3-4.6,10.3-10.3V158.6c0-5.7-4.6-10.3-10.3-10.3C279.8,148.3,143.8,148.3,143.8,148.3z M153,179h117
				c3.4,0,6.2,2.8,6.2,6.2v67.1c0,3.4-2.8,6.2-6.2,6.2H153c-3.4,0-6.2-2.8-6.2-6.2v-67.1C146.8,181.8,149.6,179,153,179z"/>
			<path id="path4464" class="st18" d="M144.3,148.8c-5.7,0-10.3,4.6-10.3,10.3v119.4c0,5.7,4.6,10.3,10.3,10.3h135
				c5.7,0,10.3-4.6,10.3-10.3V159c0-5.7-4.6-10.3-10.3-10.3C279.3,148.8,144.3,148.8,144.3,148.8z M153.4,179.3h116.2
				c3.4,0,6.2,2.8,6.2,6.2V252c0,3.4-2.8,6.2-6.2,6.2H153.4c-3.4,0-6.2-2.8-6.2-6.2v-66.6C147.3,182,150,179.3,153.4,179.3z"/>
			<path id="path4466" class="st18" d="M144.8,149.3c-5.6,0-10.2,4.6-10.2,10.2V278c0,5.6,4.6,10.2,10.2,10.2h134
				c5.6,0,10.2-4.6,10.2-10.2V159.5c0-5.6-4.6-10.2-10.2-10.2H144.8z M153.8,179.6h115.4c3.4,0,6.1,2.7,6.1,6.1v66.1
				c0,3.4-2.7,6.1-6.1,6.1H153.8c-3.4,0-6.1-2.7-6.1-6.1v-66.1C147.7,182.3,150.5,179.6,153.8,179.6z"/>
			<path id="path4468" class="st18" d="M145.3,149.8c-5.6,0-10.1,4.5-10.1,10.1v117.7c0,5.6,4.5,10.1,10.1,10.1h133
				c5.6,0,10.1-4.5,10.1-10.1V159.9c0-5.6-4.5-10.1-10.1-10.1C278.3,149.8,145.3,149.8,145.3,149.8z M154.3,179.8h114.5
				c3.3,0,6.1,2.7,6.1,6.1v65.6c0,3.3-2.7,6.1-6.1,6.1H154.3c-3.3,0-6.1-2.7-6.1-6.1v-65.6C148.2,182.6,150.9,179.8,154.3,179.8z"/>
			<path id="path4470" class="st18" d="M145.8,150.3c-5.6,0-10,4.5-10,10v116.8c0,5.6,4.5,10,10,10h132c5.6,0,10-4.5,10-10V160.3
				c0-5.6-4.5-10-10-10H145.8z M154.7,180.1h113.6c3.3,0,6,2.7,6,6v65.1c0,3.3-2.7,6-6,6H154.7c-3.3,0-6-2.7-6-6v-65.1
				C148.7,182.8,151.4,180.1,154.7,180.1z"/>
		</g>
		<path id="path4472" class="st19" d="M146.4,124.3c-5.5,0-10,4.4-10,10V250c0,5.5,4.4,10,10,10h130.8c5.5,0,10-4.4,10-10V134.2
			c0-5.5-4.4-10-10-10C277.2,124.3,146.4,124.3,146.4,124.3z M155.2,153.8h112.6c3.3,0,6,2.7,6,6v64.6c0,3.3-2.7,6-6,6H155.2
			c-3.3,0-6-2.7-6-6v-64.6C149.2,156.5,151.9,153.8,155.2,153.8z"/>
		<path id="rect4474" class="st20" d="M155.2,153.9H268c3.3,0,5.9,2.7,5.9,5.9v64.5c0,3.3-2.7,5.9-5.9,5.9H155.2
			c-3.3,0-5.9-2.7-5.9-5.9v-64.5C149.2,156.6,151.9,153.9,155.2,153.9z"/>
		<path id="rect4476" class="st19" d="M156.3,157.3h110.8c2.1,0,3.7,1.7,3.7,3.7v62.3c0,2.1-1.7,3.7-3.7,3.7H156.3
			c-2.1,0-3.7-1.7-3.7-3.7V161C152.6,158.9,154.2,157.3,156.3,157.3z"/>
	</g>
	<g id="g4441">
		<g id="g4432" transform="matrix(1,0,0,0.99718653,0,-25.821238)">
			<path id="path4430" class="st18" d="M223.9,179.7c-5.8,0-10.5,4.7-10.5,10.5v122c0,5.8,4.7,10.5,10.5,10.5h137.9
				c5.8,0,10.5-4.7,10.5-10.5v-122c0-5.8-4.7-10.5-10.5-10.5C361.8,179.7,223.9,179.7,223.9,179.7z M233.2,210.9h118.7
				c3.5,0,6.3,2.8,6.3,6.3v68c0,3.5-2.8,6.3-6.3,6.3H233.2c-3.5,0-6.3-2.8-6.3-6.3v-68C226.9,213.7,229.7,210.9,233.2,210.9z"/>
			<path id="path4428" class="st18" d="M224.4,180.2c-5.8,0-10.4,4.7-10.4,10.4v121.1c0,5.8,4.7,10.4,10.4,10.4h136.9
				c5.8,0,10.4-4.7,10.4-10.4V190.7c0-5.8-4.7-10.4-10.4-10.4H224.4z M233.6,211.2h117.9c3.4,0,6.2,2.8,6.2,6.2V285
				c0,3.4-2.8,6.2-6.2,6.2H233.6c-3.4,0-6.2-2.8-6.2-6.2v-67.6C227.3,214,230.2,211.2,233.6,211.2z"/>
			<path id="path4426" class="st18" d="M224.9,180.8c-5.7,0-10.3,4.6-10.3,10.3v120.3c0,5.7,4.6,10.3,10.3,10.3h135.9
				c5.7,0,10.3-4.6,10.3-10.3V191.1c0-5.7-4.6-10.3-10.3-10.3C360.8,180.8,224.9,180.8,224.9,180.8z M234,211.5h117
				c3.4,0,6.2,2.8,6.2,6.2v67.1c0,3.4-2.8,6.2-6.2,6.2H234c-3.4,0-6.2-2.8-6.2-6.2v-67.1C227.8,214.3,230.6,211.5,234,211.5z"/>
			<path id="path4424" class="st18" d="M225.3,181.3c-5.7,0-10.3,4.6-10.3,10.3v119.4c0,5.7,4.6,10.3,10.3,10.3h135
				c5.7,0,10.3-4.6,10.3-10.3V191.5c0-5.7-4.6-10.3-10.3-10.3C360.3,181.3,225.3,181.3,225.3,181.3z M234.4,211.8h116.2
				c3.4,0,6.2,2.8,6.2,6.2v66.6c0,3.4-2.8,6.2-6.2,6.2H234.4c-3.4,0-6.2-2.8-6.2-6.2v-66.6C228.3,214.5,231,211.8,234.4,211.8z"/>
			<path id="path4422" class="st18" d="M225.8,181.8c-5.6,0-10.2,4.6-10.2,10.2v118.6c0,5.6,4.6,10.2,10.2,10.2h134
				c5.6,0,10.2-4.6,10.2-10.2V192c0-5.6-4.6-10.2-10.2-10.2H225.8z M234.9,212.1h115.4c3.4,0,6.1,2.7,6.1,6.1v66.1
				c0,3.4-2.7,6.1-6.1,6.1H234.9c-3.4,0-6.1-2.7-6.1-6.1v-66.1C228.7,214.8,231.5,212.1,234.9,212.1z"/>
			<path id="path4420" class="st18" d="M226.3,182.3c-5.6,0-10.1,4.5-10.1,10.1v117.7c0,5.6,4.5,10.1,10.1,10.1h133
				c5.6,0,10.1-4.5,10.1-10.1V192.4c0-5.6-4.5-10.1-10.1-10.1C359.3,182.3,226.3,182.3,226.3,182.3z M235.3,212.3h114.5
				c3.3,0,6.1,2.7,6.1,6.1v65.6c0,3.3-2.7,6.1-6.1,6.1H235.3c-3.3,0-6.1-2.7-6.1-6.1v-65.6C229.2,215.1,231.9,212.3,235.3,212.3z"/>
			<path id="path4416" class="st18" d="M226.8,182.8c-5.6,0-10,4.5-10,10v116.8c0,5.6,4.5,10,10,10h132c5.6,0,10-4.5,10-10V192.8
				c0-5.6-4.5-10-10-10H226.8z M235.7,212.6h113.6c3.3,0,6,2.7,6,6v65.1c0,3.3-2.7,6-6,6H235.7c-3.3,0-6-2.7-6-6v-65.1
				C229.7,215.3,232.4,212.6,235.7,212.6z"/>
		</g>
		<path id="rect4326" class="st19" d="M227.4,156.7c-5.5,0-10,4.4-10,10v115.8c0,5.5,4.4,10,10,10h130.8c5.5,0,10-4.4,10-10V166.6
			c0-5.5-4.4-10-10-10C358.2,156.7,227.4,156.7,227.4,156.7z M236.2,186.2h112.6c3.3,0,6,2.7,6,6v64.6c0,3.3-2.7,6-6,6H236.2
			c-3.3,0-6-2.7-6-6v-64.6C230.3,188.9,232.9,186.2,236.2,186.2z"/>
		<path id="rect4336" class="st20" d="M236.2,186.3H349c3.3,0,5.9,2.7,5.9,5.9v64.5c0,3.3-2.7,5.9-5.9,5.9H236.2
			c-3.3,0-5.9-2.7-5.9-5.9v-64.5C230.3,189,232.9,186.3,236.2,186.3z"/>
		<path id="rect4346" class="st19" d="M237.3,189.7h110.8c2.1,0,3.7,1.7,3.7,3.7v62.3c0,2.1-1.7,3.7-3.7,3.7H237.3
			c-2.1,0-3.7-1.7-3.7-3.7v-62.3C233.6,191.3,235.3,189.7,237.3,189.7z"/>
	</g>
</g>
<g class="st21">
	<path class="st22" d="M120.3,364c5.3-0.9,12.1-1.6,20.9-1.6c10.8,0,18.6,2.5,23.6,7c4.6,4,7.4,10.1,7.4,17.6c0,7.6-2.3,13.6-6.5,18
		c-5.8,6.1-15.1,9.3-25.8,9.3c-3.3,0-6.3-0.1-8.8-0.8v33.8h-10.9V364z M131.1,404.7c2.4,0.6,5.4,0.9,9,0.9c13.1,0,21.1-6.4,21.1-18
		c0-11.1-7.9-16.5-19.9-16.5c-4.8,0-8.4,0.4-10.3,0.9V404.7z"/>
	<path class="st22" d="M186.8,364c5.3-0.9,12.1-1.6,20.9-1.6c10.8,0,18.6,2.5,23.6,7c4.6,4,7.4,10.1,7.4,17.6c0,7.6-2.3,13.6-6.5,18
		c-5.8,6.1-15.1,9.3-25.8,9.3c-3.3,0-6.3-0.1-8.8-0.8v33.8h-10.9V364z M197.6,404.7c2.4,0.6,5.4,0.9,9,0.9c13.1,0,21.1-6.4,21.1-18
		c0-11.1-7.9-16.5-19.9-16.5c-4.8,0-8.4,0.4-10.3,0.9V404.7z"/>
	<path class="st22" d="M251.8,434c4.9,3,12,5.5,19.5,5.5c11.1,0,17.6-5.9,17.6-14.4c0-7.9-4.5-12.4-15.9-16.8
		c-13.8-4.9-22.3-12-22.3-23.9c0-13.1,10.9-22.9,27.3-22.9c8.6,0,14.9,2,18.6,4.1l-3,8.9c-2.8-1.5-8.4-4-16-4
		c-11.5,0-15.9,6.9-15.9,12.6c0,7.9,5.1,11.8,16.8,16.3c14.3,5.5,21.5,12.4,21.5,24.8c0,13-9.6,24.3-29.5,24.3
		c-8.1,0-17-2.4-21.5-5.4L251.8,434z"/>
	<path class="st22" d="M361,447.3l-10.8-18.6c-4.4-7.1-7.1-11.8-9.8-16.6h-0.3c-2.4,4.9-4.8,9.4-9.1,16.8L321,447.3h-12.5l25.8-42.6
		L309.5,363h12.6l11.1,19.8c3.1,5.5,5.5,9.8,7.8,14.3h0.4c2.4-5,4.5-8.9,7.6-14.3l11.5-19.8H373l-25.6,41l26.3,43.3H361z"/>
</g>
</svg>
