<?xml version="1.0" encoding="utf-8"?>
<!-- Generator: Adobe Illustrator 24.0.1, SVG Export Plug-In . SVG Version: 6.00 Build 0)  -->
<svg version="1.1" id="Layer_1" xmlns="http://www.w3.org/2000/svg" xmlns:xlink="http://www.w3.org/1999/xlink" x="0px" y="0px"
	 viewBox="0 0 512 512" style="enable-background:new 0 0 512 512;" xml:space="preserve">
<style type="text/css">
	.st0{display:none;}
	.st1{display:inline;fill:#200A7F;stroke:#18E5EA;stroke-width:20;stroke-miterlimit:10;}
	.st2{display:inline;fill:#EF0B79;}
	.st3{display:inline;fill:#18E5EA;}
	.st4{display:inline;}
	.st5{fill:#E9F21C;}
	.st6{display:inline;fill:none;}
	.st7{display:inline;fill:#EF3A24;}
	.st8{font-family:'MyriadPro-Regular';}
	.st9{font-size:250px;}
	.st10{display:inline;fill:#FFFFFF;}
	.st11{opacity:0.67;fill:#0086FF;enable-background:new    ;}
	.st12{fill:#FFFFFF;}
	.st13{display:none;opacity:8.000000e-02;fill:#EFEFEF;enable-background:new    ;}
	.st14{display:inline;fill:#0086FF;}
	.st15{fill:none;stroke:#0086FF;stroke-miterlimit:10;}
	.st16{enable-background:new    ;}
	.st17{fill:#0086FF;}
</style>
<g id="Layer_3" class="st0">
	<path class="st1" d="M401.1,212.2c5.1,15.3,7.9,31.7,7.9,48.8c0,85.3-69.2,154.5-154.5,154.5S100,346.3,100,261
		s69.2-154.5,154.5-154.5c51.2,0,96.6,24.9,124.7,63.3"/>
	<path class="st2" d="M333.4,255.2c0,4.2-3.3,7.7-7.4,7.7H174.9c-4.1,0-7.4-3.4-7.4-7.7l0,0c0-4.2,3.3-7.7,7.4-7.7H326
		C330.1,247.5,333.4,250.9,333.4,255.2L333.4,255.2z"/>
	<path class="st2" d="M333.4,284.8c0,4.2-3.3,7.6-7.4,7.6H174.9c-4.1,0-7.4-3.4-7.4-7.6l0,0c0-4.2,3.3-7.6,7.4-7.6H326
		C330.1,277.1,333.4,280.6,333.4,284.8L333.4,284.8z"/>
	<path class="st2" d="M333.4,313c0,4.2-3.3,7.7-7.4,7.7H174.9c-4.1,0-7.4-3.4-7.4-7.7l0,0c0-4.2,3.3-7.6,7.4-7.6H326
		C330.1,305.4,333.4,308.8,333.4,313L333.4,313z"/>
	<path class="st2" d="M333.4,338.4c0,4.2-3.3,7.7-7.4,7.7H174.9c-4.1,0-7.4-3.4-7.4-7.7l0,0c0-4.2,3.3-7.6,7.4-7.6H326
		C330.1,330.7,333.4,334.1,333.4,338.4L333.4,338.4z"/>
	<polygon class="st3" points="395,191.5 320.2,165.2 380.4,113.5 	"/>
	<g class="st4">
		<g>
			<g>
				<path class="st5" d="M241.5,239.2c-2.3,0-4.4-1.1-5.8-2.9l-18.8-24.8c-2.4-3.2-1.8-7.8,1.4-10.3c3.2-2.4,7.8-1.8,10.3,1.4
					l12.3,16.3l31-49.8c2.1-3.4,6.6-4.5,10.1-2.3c3.4,2.1,4.5,6.6,2.3,10.1l-36.7,58.9c-1.3,2-3.5,3.3-5.9,3.4
					C241.7,239.2,241.6,239.2,241.5,239.2z"/>
			</g>
		</g>
	</g>
</g>
<g id="Layer_2_2_" class="st0">
	<rect x="121" y="171.5" class="st6" width="298" height="251"/>
	<text transform="matrix(1 0 0 1 121 348.9979)" class="st7 st8 st9">24</text>
	<circle class="st10" cx="138.3" cy="91.8" r="17.3"/>
	<circle class="st10" cx="185.3" cy="91.8" r="17.3"/>
	<circle class="st10" cx="232.3" cy="91.8" r="17.3"/>
	<circle class="st10" cx="278.3" cy="91.8" r="17.3"/>
	<circle class="st10" cx="323.3" cy="91.8" r="17.3"/>
	<circle class="st10" cx="368.3" cy="91.8" r="17.3"/>
</g>
<path class="st11" d="M371.3,495.1H142c-73.7,0-133.5-59.8-133.5-133.5v-218C8.5,69.9,68.3,10.1,142,10.1h229.2
	c73.7,0,133.5,59.8,133.5,133.5v218C504.8,435.4,445,495.1,371.3,495.1z"/>
<path class="st12" d="M365.5,489.9h-218C73.8,489.9,14,430.1,14,356.4v-207C14,75.7,73.8,15.9,147.5,15.9h218
	c73.7,0,133.5,59.8,133.5,133.5v207C499,430.1,439.2,489.9,365.5,489.9z"/>
<path class="st13" d="M502,156.5v207c0,73.7-59.8,133.5-133.5,133.5h-218c-51.4,0-96.1-29.1-118.4-71.7c-3.3-11.7-5.1-24-5.1-36.8
	v-207C27,107.8,86.8,48,160.5,48h218c51.4,0,96.1,29.1,118.4,71.7C500.2,131.4,502,143.8,502,156.5z"/>
<path class="st13" d="M510,158.5v207c0,73.7-59.8,133.5-133.5,133.5h-218c-61,0-112.4-40.9-128.4-96.7c-3.3-11.7-5.1-24-5.1-36.8
	v-207C25,84.8,84.8,25,158.5,25h218c51.4,0,96.1,29.1,118.4,71.7C504.5,115.2,510,136.2,510,158.5z"/>
<g class="st0">
	<path class="st14" d="M143.7,357.2h-26v-9.4H181v9.4h-26.2v76.2h-11.2L143.7,357.2L143.7,357.2z"/>
	<path class="st14" d="M234.8,393.3h-33.3v30.9h37.1v9.3h-48.1v-85.6h46.2v9.3h-35.2v27.1h33.3V393.3z"/>
	<path class="st14" d="M299.9,433.4L289,414.5c-4.4-7.2-7.2-11.9-9.9-16.9h-0.3c-2.4,5-4.8,9.5-9.3,17l-10.3,18.8h-12.7l26.2-43.3
		l-25.1-42.3h12.8l11.3,20.1c3.2,5.6,5.6,9.9,7.9,14.5h0.4c2.4-5.1,4.6-9,7.7-14.5l11.7-20.1h12.7l-26,41.7l26.7,43.9L299.9,433.4
		L299.9,433.4z"/>
	<path class="st14" d="M342.8,357.2h-26v-9.4h63.4v9.4H354v76.2h-11.2V357.2z"/>
</g>
<line class="st15" x1="88.8" y1="136.5" x2="403.7" y2="136.5"/>
<line class="st15" x1="88.8" y1="186.5" x2="403.7" y2="186.5"/>
<line class="st15" x1="88.8" y1="233.1" x2="403.7" y2="233.1"/>
<line class="st15" x1="88.8" y1="280.8" x2="403.7" y2="280.8"/>
<g class="st16">
	<path class="st17" d="M141.5,344.5c6.6-1,14.5-1.8,23.1-1.8c15.6,0,26.8,3.6,34.1,10.5c7.5,6.9,11.9,16.6,11.9,30.3
		c0,13.8-4.3,25-12.1,32.8c-7.9,7.9-20.9,12.1-37.3,12.1c-7.8,0-14.3-0.4-19.8-1V344.5z M152.4,419c2.8,0.5,6.8,0.6,11,0.6
		c23.3,0,35.9-13,35.9-35.8c0.1-19.9-11.1-32.5-34.1-32.5c-5.6,0-9.9,0.5-12.8,1.1V419z"/>
	<path class="st17" d="M296.7,384.6c0,29-17.6,44.4-39.1,44.4c-22.3,0-37.9-17.3-37.9-42.8c0-26.8,16.6-44.3,39.1-44.3
		C281.9,342,296.7,359.6,296.7,384.6z M231.4,386c0,18,9.8,34.1,26.9,34.1c17.3,0,27-15.9,27-35c0-16.8-8.8-34.3-26.9-34.3
		C240.4,350.9,231.4,367.5,231.4,386z"/>
	<path class="st17" d="M369.7,424.9c-4,2-12,4-22.3,4c-23.8,0-41.6-15-41.6-42.6c0-26.4,17.9-44.3,44-44.3c10.5,0,17.1,2.3,20,3.8
		l-2.6,8.9c-4.1-2-10-3.5-17-3.5c-19.8,0-32.9,12.6-32.9,34.8c0,20.6,11.9,33.9,32.4,33.9c6.6,0,13.4-1.4,17.8-3.5L369.7,424.9z"/>
</g>
</svg>
