<?xml version="1.0" encoding="utf-8"?>
<!-- Generator: Adobe Illustrator 24.0.1, SVG Export Plug-In . SVG Version: 6.00 Build 0)  -->
<svg version="1.1" id="Layer_1" xmlns="http://www.w3.org/2000/svg" xmlns:xlink="http://www.w3.org/1999/xlink" x="0px" y="0px"
	 viewBox="0 0 512 512" style="enable-background:new 0 0 512 512;" xml:space="preserve">
<style type="text/css">
	.st0{display:none;}
	.st1{display:inline;fill:#200A7F;stroke:#18E5EA;stroke-width:20;stroke-miterlimit:10;}
	.st2{display:inline;fill:#EF0B79;}
	.st3{display:inline;fill:#18E5EA;}
	.st4{display:inline;}
	.st5{fill:#E9F21C;}
	.st6{display:inline;fill:none;}
	.st7{display:inline;fill:#EF3A24;}
	.st8{font-family:'MyriadPro-Regular';}
	.st9{font-size:250px;}
	.st10{display:inline;fill:#FFFFFF;}
	.st11{opacity:0.12;fill:#ABABAB;enable-background:new    ;}
	.st12{fill:url(#SVGID_1_);}
	.st13{fill:url(#SVGID_2_);}
	.st14{display:none;opacity:8.000000e-02;fill:#EFEFEF;enable-background:new    ;}
	.st15{fill:none;}
	.st16{enable-background:new    ;}
	.st17{fill:#FFFFFF;}
</style>
<g id="Layer_3" class="st0">
	<path class="st1" d="M401.1,212.2c5.1,15.3,7.9,31.7,7.9,48.8c0,85.3-69.2,154.5-154.5,154.5S100,346.3,100,261
		s69.2-154.5,154.5-154.5c51.2,0,96.6,24.9,124.7,63.3"/>
	<path class="st2" d="M333.4,255.2c0,4.2-3.3,7.7-7.4,7.7H174.9c-4.1,0-7.4-3.4-7.4-7.7l0,0c0-4.2,3.3-7.7,7.4-7.7H326
		C330.1,247.5,333.4,250.9,333.4,255.2L333.4,255.2z"/>
	<path class="st2" d="M333.4,284.8c0,4.2-3.3,7.6-7.4,7.6H174.9c-4.1,0-7.4-3.4-7.4-7.6l0,0c0-4.2,3.3-7.6,7.4-7.6H326
		C330.1,277.1,333.4,280.6,333.4,284.8L333.4,284.8z"/>
	<path class="st2" d="M333.4,313c0,4.2-3.3,7.7-7.4,7.7H174.9c-4.1,0-7.4-3.4-7.4-7.7l0,0c0-4.2,3.3-7.6,7.4-7.6H326
		C330.1,305.4,333.4,308.8,333.4,313L333.4,313z"/>
	<path class="st2" d="M333.4,338.4c0,4.2-3.3,7.7-7.4,7.7H174.9c-4.1,0-7.4-3.4-7.4-7.7l0,0c0-4.2,3.3-7.6,7.4-7.6H326
		C330.1,330.7,333.4,334.1,333.4,338.4L333.4,338.4z"/>
	<polygon class="st3" points="395,191.5 320.2,165.2 380.4,113.5 	"/>
	<g class="st4">
		<g>
			<g>
				<path class="st5" d="M241.5,239.2c-2.3,0-4.4-1.1-5.8-2.9l-18.8-24.8c-2.4-3.2-1.8-7.8,1.4-10.3c3.2-2.4,7.8-1.8,10.3,1.4
					l12.3,16.3l31-49.8c2.1-3.4,6.6-4.5,10.1-2.3c3.4,2.1,4.5,6.6,2.3,10.1l-36.7,58.9c-1.3,2-3.5,3.3-5.9,3.4
					C241.7,239.2,241.6,239.2,241.5,239.2z"/>
			</g>
		</g>
	</g>
</g>
<g id="Layer_2_2_" class="st0">
	<rect x="121" y="171.5" class="st6" width="298" height="251"/>
	<text transform="matrix(1 0 0 1 121 348.9979)" class="st7 st8 st9">24</text>
	<circle class="st10" cx="138.3" cy="91.8" r="17.3"/>
	<circle class="st10" cx="185.3" cy="91.8" r="17.3"/>
	<circle class="st10" cx="232.3" cy="91.8" r="17.3"/>
	<circle class="st10" cx="278.3" cy="91.8" r="17.3"/>
	<circle class="st10" cx="323.3" cy="91.8" r="17.3"/>
	<circle class="st10" cx="368.3" cy="91.8" r="17.3"/>
</g>
<path class="st11" d="M371.3,495.1H142c-73.7,0-133.5-59.8-133.5-133.5v-218C8.5,69.9,68.3,10.1,142,10.1h229.2
	c73.7,0,133.5,59.8,133.5,133.5v218C504.8,435.4,445,495.1,371.3,495.1z"/>
<g>
	
		<linearGradient id="SVGID_1_" gradientUnits="userSpaceOnUse" x1="261.722" y1="91.8408" x2="250.722" y2="603.8408" gradientTransform="matrix(1 0 0 1 0 -82)">
		<stop  offset="0" style="stop-color:#89744C"/>
		<stop  offset="0.5" style="stop-color:#574109"/>
		<stop  offset="1" style="stop-color:#3A2600"/>
	</linearGradient>
	<path class="st12" d="M365.5,489.9h-218C73.8,489.9,14,430.1,14,356.4v-207C14,75.7,73.8,15.9,147.5,15.9h218
		c73.7,0,133.5,59.8,133.5,133.5v207C499,430.1,439.2,489.9,365.5,489.9z"/>
	
		<linearGradient id="SVGID_2_" gradientUnits="userSpaceOnUse" x1="261.722" y1="91.8408" x2="250.722" y2="603.8408" gradientTransform="matrix(1 0 0 1 0 -82)">
		<stop  offset="0" style="stop-color:#2BC4F3"/>
		<stop  offset="0.5" style="stop-color:#00AEEE"/>
		<stop  offset="1" style="stop-color:#0095DA"/>
	</linearGradient>
	<path class="st13" d="M365.5,489.9h-218C73.8,489.9,14,430.1,14,356.4v-207C14,75.7,73.8,15.9,147.5,15.9h218
		c73.7,0,133.5,59.8,133.5,133.5v207C499,430.1,439.2,489.9,365.5,489.9z"/>
</g>
<path class="st14" d="M502,156.5v207c0,73.7-59.8,133.5-133.5,133.5h-218c-51.4,0-96.1-29.1-118.4-71.7c-3.3-11.7-5.1-24-5.1-36.8
	v-207C27,107.8,86.8,48,160.5,48h218c51.4,0,96.1,29.1,118.4,71.7C500.2,131.4,502,143.8,502,156.5z"/>
<path class="st14" d="M510,158.5v207c0,73.7-59.8,133.5-133.5,133.5h-218c-61,0-112.4-40.9-128.4-96.7c-3.3-11.7-5.1-24-5.1-36.8
	v-207C25,84.8,84.8,25,158.5,25h218c51.4,0,96.1,29.1,118.4,71.7C504.5,115.2,510,136.2,510,158.5z"/>
<image style="display:none;overflow:visible;enable-background:new    ;" width="696" height="428" xlink:href="C:\Users\win10\Downloads\macOSBigSur-696x428.png"  transform="matrix(0.75 0 0 0.75 -31 244.3898)">
</image>
<rect x="54" y="156.5" class="st15" width="587" height="199"/>
<g class="st16">
	<path class="st17" d="M63,298.5v-10.8l13.8-13.4c33.2-31.6,48.2-48.4,48.4-68c0-13.2-6.4-25.4-25.8-25.4c-11.8,0-21.6,6-27.6,11
		l-5.6-12.4c9-7.6,21.8-13.2,36.8-13.2c28,0,39.8,19.2,39.8,37.8c0,24-17.4,43.4-44.8,69.8l-10.4,9.6v0.4H146v14.6H63z"/>
	<path class="st17" d="M252,232.1c0,44.2-16.4,68.6-45.2,68.6c-25.4,0-42.6-23.8-43-66.8c0-43.6,18.8-67.6,45.2-67.6
		C236.4,166.3,252,190.7,252,232.1z M181.4,234.1c0,33.8,10.4,53,26.4,53c18,0,26.6-21,26.6-54.2c0-32-8.2-53-26.4-53
		C192.6,179.9,181.4,198.7,181.4,234.1z"/>
	<path class="st17" d="M322.6,298.5v-35.4h-60.4v-11.6l58-83h19v80.8h18.2v13.8h-18.2v35.4H322.6z M322.6,249.3v-43.4
		c0-6.8,0.2-13.6,0.6-20.4h-0.6c-4,7.6-7.2,13.2-10.8,19.2L280,248.9v0.4H322.6z"/>
	<path class="st17" d="M369.2,265.5c0-16.4,9.8-28,25.8-34.8l-0.2-0.6c-14.4-6.8-20.6-18-20.6-29.2c0-20.6,17.4-34.6,40.2-34.6
		c25.2,0,37.8,15.8,37.8,32c0,11-5.4,22.8-21.4,30.4v0.6c16.2,6.4,26.2,17.8,26.2,33.6c0,22.6-19.4,37.8-44.2,37.8
		C385.6,300.7,369.2,284.5,369.2,265.5z M439.2,264.7c0-15.8-11-23.4-28.6-28.4c-15.2,4.4-23.4,14.4-23.4,26.8
		c-0.6,13.2,9.4,24.8,26,24.8C429,287.9,439.2,278.1,439.2,264.7z M390.8,199.7c0,13,9.8,20,24.8,24c11.2-3.8,19.8-11.8,19.8-23.6
		c0-10.4-6.2-21.2-22-21.2C398.8,178.9,390.8,188.5,390.8,199.7z"/>
</g>
</svg>
