<?xml version="1.0" encoding="utf-8"?>
<!-- Generator: Adobe Illustrator 24.0.1, SVG Export Plug-In . SVG Version: 6.00 Build 0)  -->
<svg version="1.1" id="Layer_1" xmlns="http://www.w3.org/2000/svg" xmlns:xlink="http://www.w3.org/1999/xlink" x="0px" y="0px"
	 viewBox="0 0 512 512" style="enable-background:new 0 0 512 512;" xml:space="preserve">
<style type="text/css">
	.st0{display:none;}
	.st1{display:inline;fill:#200A7F;stroke:#18E5EA;stroke-width:20;stroke-miterlimit:10;}
	.st2{display:inline;fill:#EF0B79;}
	.st3{display:inline;fill:#18E5EA;}
	.st4{display:inline;}
	.st5{fill:#E9F21C;}
	.st6{display:inline;fill:none;}
	.st7{display:inline;fill:#EF3A24;}
	.st8{font-family:'MyriadPro-Regular';}
	.st9{font-size:250px;}
	.st10{display:inline;fill:#FFFFFF;}
	.st11{opacity:0.12;fill:#606060;enable-background:new    ;}
	.st12{fill:url(#SVGID_1_);}
	.st13{display:none;fill:url(#SVGID_2_);}
	.st14{display:none;opacity:8.000000e-02;fill:#EFEFEF;enable-background:new    ;}
	.st15{fill:none;}
	.st16{fill:url(#SVGID_3_);}
	.st17{fill:url(#SVGID_4_);}
	.st18{fill:url(#SVGID_5_);}
	.st19{fill:url(#SVGID_6_);}
	.st20{fill:url(#SVGID_7_);}
	.st21{fill:url(#SVGID_8_);}
</style>
<g id="Layer_3" class="st0">
	<path class="st1" d="M401.1,212.2c5.1,15.3,7.9,31.7,7.9,48.8c0,85.3-69.2,154.5-154.5,154.5S100,346.3,100,261
		s69.2-154.5,154.5-154.5c51.2,0,96.6,24.9,124.7,63.3"/>
	<path class="st2" d="M333.4,255.2c0,4.2-3.3,7.7-7.4,7.7H174.9c-4.1,0-7.4-3.4-7.4-7.7l0,0c0-4.2,3.3-7.7,7.4-7.7H326
		C330.1,247.5,333.4,250.9,333.4,255.2L333.4,255.2z"/>
	<path class="st2" d="M333.4,284.8c0,4.2-3.3,7.6-7.4,7.6H174.9c-4.1,0-7.4-3.4-7.4-7.6l0,0c0-4.2,3.3-7.6,7.4-7.6H326
		C330.1,277.1,333.4,280.6,333.4,284.8L333.4,284.8z"/>
	<path class="st2" d="M333.4,313c0,4.2-3.3,7.7-7.4,7.7H174.9c-4.1,0-7.4-3.4-7.4-7.7l0,0c0-4.2,3.3-7.6,7.4-7.6H326
		C330.1,305.4,333.4,308.8,333.4,313L333.4,313z"/>
	<path class="st2" d="M333.4,338.4c0,4.2-3.3,7.7-7.4,7.7H174.9c-4.1,0-7.4-3.4-7.4-7.7l0,0c0-4.2,3.3-7.6,7.4-7.6H326
		C330.1,330.7,333.4,334.1,333.4,338.4L333.4,338.4z"/>
	<polygon class="st3" points="395,191.5 320.2,165.2 380.4,113.5 	"/>
	<g class="st4">
		<g>
			<g>
				<path class="st5" d="M241.5,239.2c-2.3,0-4.4-1.1-5.8-2.9l-18.8-24.8c-2.4-3.2-1.8-7.8,1.4-10.3c3.2-2.4,7.8-1.8,10.3,1.4
					l12.3,16.3l31-49.8c2.1-3.4,6.6-4.5,10.1-2.3c3.4,2.1,4.5,6.6,2.3,10.1l-36.7,58.9c-1.3,2-3.5,3.3-5.9,3.4
					C241.7,239.2,241.6,239.2,241.5,239.2z"/>
			</g>
		</g>
	</g>
</g>
<g id="Layer_2_2_" class="st0">
	<rect x="121" y="171.5" class="st6" width="298" height="251"/>
	<text transform="matrix(1 0 0 1 121 348.9979)" class="st7 st8 st9">24</text>
	<circle class="st10" cx="138.3" cy="91.8" r="17.3"/>
	<circle class="st10" cx="185.3" cy="91.8" r="17.3"/>
	<circle class="st10" cx="232.3" cy="91.8" r="17.3"/>
	<circle class="st10" cx="278.3" cy="91.8" r="17.3"/>
	<circle class="st10" cx="323.3" cy="91.8" r="17.3"/>
	<circle class="st10" cx="368.3" cy="91.8" r="17.3"/>
</g>
<path class="st11" d="M371.3,495.1H142c-73.7,0-133.5-59.8-133.5-133.5v-218C8.5,69.9,68.3,10.1,142,10.1h229.2
	c73.7,0,133.5,59.8,133.5,133.5v218C504.8,435.4,445,495.1,371.3,495.1z"/>
<g>
	<linearGradient id="SVGID_1_" gradientUnits="userSpaceOnUse" x1="258.642" y1="18.6996" x2="254.0947" y2="515.8785">
		<stop  offset="5.618000e-03" style="stop-color:#D3EDF0"/>
		<stop  offset="0.4494" style="stop-color:#AEDFE6"/>
		<stop  offset="1" style="stop-color:#7CCFDA"/>
	</linearGradient>
	<path class="st12" d="M499,149.4v207c0,73.7-59.8,133.5-133.5,133.5h-218c-14.1,0-27.6-2.2-40.3-6.2
		C60.7,469,25.3,429.6,16.3,380.9c-1.5-8-2.3-16.2-2.3-24.5v-207c0-33.2,12.1-63.5,32.2-86.9C70.7,34,107,15.9,147.5,15.9h218
		C439.2,15.9,499,75.7,499,149.4z"/>
	<linearGradient id="SVGID_2_" gradientUnits="userSpaceOnUse" x1="14" y1="252.8956" x2="499" y2="252.8956">
		<stop  offset="5.618000e-03" style="stop-color:#D3EDF0"/>
		<stop  offset="0.4494" style="stop-color:#AEDFE6"/>
		<stop  offset="1" style="stop-color:#7CCFDA"/>
	</linearGradient>
	<path class="st13" d="M499,149.4v207c0,73.7-59.8,133.5-133.5,133.5h-218c-14.1,0-27.6-2.2-40.3-6.2
		C60.7,469,25.3,429.6,16.3,380.9c-1.5-8-2.3-16.2-2.3-24.5v-207c0-33.2,12.1-63.5,32.2-86.9C70.7,34,107,15.9,147.5,15.9h218
		C439.2,15.9,499,75.7,499,149.4z"/>
</g>
<path class="st14" d="M502,156.5v207c0,73.7-59.8,133.5-133.5,133.5h-218c-51.4,0-96.1-29.1-118.4-71.7c-3.3-11.7-5.1-24-5.1-36.8
	v-207C27,107.8,86.8,48,160.5,48h218c51.4,0,96.1,29.1,118.4,71.7C500.2,131.4,502,143.8,502,156.5z"/>
<path class="st14" d="M510,158.5v207c0,73.7-59.8,133.5-133.5,133.5h-218c-61,0-112.4-40.9-128.4-96.7c-3.3-11.7-5.1-24-5.1-36.8
	v-207C25,84.8,84.8,25,158.5,25h218c51.4,0,96.1,29.1,118.4,71.7C504.5,115.2,510,136.2,510,158.5z"/>
<image style="display:none;overflow:visible;enable-background:new    ;" width="696" height="428" xlink:href="C:\Users\win10\Downloads\macOSBigSur-696x428.png"  transform="matrix(0.75 0 0 0.75 -31 244.3898)">
</image>
<rect x="54" y="156.5" class="st15" width="587" height="199"/>
<title>001 - Accessibility</title>
<desc>Created with Sketch.</desc>
<image style="display:none;overflow:visible;enable-background:new    ;" width="128" height="128" xlink:href="../adobe/AdobeBridge.png"  transform="matrix(0.999 0 0 0.999 163.4 512)">
</image>
<image style="display:none;overflow:visible;enable-background:new    ;" width="128" height="128" xlink:href="../adobe/AdobeDreamweaver.png"  transform="matrix(0.999 0 0 0.999 163.4 512)">
</image>
<image style="display:none;overflow:visible;enable-background:new    ;" width="128" height="128" xlink:href="../adobe/AdobeEncore.png"  transform="matrix(0.999 0 0 0.999 163.4 512)">
</image>
<image style="display:none;overflow:visible;enable-background:new    ;" width="128" height="128" xlink:href="../adobe/AdobeFirework.png"  transform="matrix(0.999 0 0 0.999 163.4 512)">
</image>
<image style="display:none;overflow:visible;enable-background:new    ;" width="128" height="128" xlink:href="../adobe/AdobeFlash.png"  transform="matrix(0.999 0 0 0.999 163.4 512)">
</image>
<image style="display:none;overflow:visible;enable-background:new    ;" width="128" height="128" xlink:href="../adobe/AdobeFlashBuilder.png"  transform="matrix(0.999 0 0 0.999 163.4 512)">
</image>
<image style="display:none;overflow:visible;enable-background:new    ;" width="128" height="128" xlink:href="../adobe/Adobeillustrator.png"  transform="matrix(0.999 0 0 0.999 163.4 512)">
</image>
<image style="display:none;overflow:visible;enable-background:new    ;" width="128" height="128" xlink:href="../adobe/AdobeIndesign.png"  transform="matrix(0.999 0 0 0.999 163.4 512)">
</image>
<image style="display:none;overflow:visible;enable-background:new    ;" width="128" height="128" xlink:href="../adobe/AdobeLightroom.png"  transform="matrix(0.999 0 0 0.999 163.4 512)">
</image>
<image style="display:none;overflow:visible;enable-background:new    ;" width="128" height="128" xlink:href="../adobe/AdobePhotoshop.png"  transform="matrix(0.999 0 0 0.999 163.4 512)">
</image>
<image style="display:none;overflow:visible;enable-background:new    ;" width="128" height="128" xlink:href="../adobe/AdobePrelude.png"  transform="matrix(0.999 0 0 0.999 163.4 512)">
</image>
<image style="display:none;overflow:visible;enable-background:new    ;" width="128" height="128" xlink:href="../adobe/AdobePremierePro.png"  transform="matrix(0.999 0 0 0.999 163.4 512)">
</image>
<linearGradient id="SVGID_3_" gradientUnits="userSpaceOnUse" x1="46.8" y1="517.6306" x2="47.87" y2="517.6306">
	<stop  offset="0" style="stop-color:#5B57A5"/>
	<stop  offset="0.5" style="stop-color:#2E3092"/>
	<stop  offset="1" style="stop-color:#474374"/>
</linearGradient>
<path class="st16" d="M47.8,518l0.1,0.1c-0.4-0.4-0.7-0.7-1.1-1.1C47.1,517.4,47.4,517.7,47.8,518z"/>
<linearGradient id="SVGID_4_" gradientUnits="userSpaceOnUse" x1="47.99" y1="518.4006" x2="48.29" y2="518.4006">
	<stop  offset="0" style="stop-color:#5B57A5"/>
	<stop  offset="0.5" style="stop-color:#2E3092"/>
	<stop  offset="1" style="stop-color:#474374"/>
</linearGradient>
<path class="st17" d="M48,518.3c0.1,0,0.2,0.1,0.3,0.2c-0.1,0-0.1-0.1-0.2-0.1L48,518.3z"/>
<linearGradient id="SVGID_5_" gradientUnits="userSpaceOnUse" x1="48.35" y1="518.6306" x2="48.59" y2="518.6306">
	<stop  offset="0" style="stop-color:#5B57A5"/>
	<stop  offset="0.5" style="stop-color:#2E3092"/>
	<stop  offset="1" style="stop-color:#474374"/>
</linearGradient>
<path class="st18" d="M48.5,518.6l0.1,0.1c0,0,0,0-0.1,0c0,0-0.1-0.1-0.1-0.1C48.5,518.6,48.5,518.6,48.5,518.6z"/>
<linearGradient id="SVGID_6_" gradientUnits="userSpaceOnUse" x1="48.59" y1="526.0656" x2="64.48" y2="526.0656">
	<stop  offset="0" style="stop-color:#5B57A5"/>
	<stop  offset="0.5" style="stop-color:#2E3092"/>
	<stop  offset="1" style="stop-color:#474374"/>
</linearGradient>
<path class="st19" d="M64.3,533.3c0,0,0.1,0.1,0.1,0.1c0,0,0,0,0,0c-2.8-2.4-5.6-4.9-8.2-7.4c-2.5-2.4-5-4.7-7.5-7.2l-0.1-0.1
	c2.5,2.5,5,4.9,7.5,7.2C58.8,528.4,61.5,530.9,64.3,533.3z"/>
<linearGradient id="SVGID_7_" gradientUnits="userSpaceOnUse" x1="14" y1="273.0956" x2="152.01" y2="273.0956">
	<stop  offset="5.618000e-03" style="stop-color:#E2E5F4"/>
	<stop  offset="0.4494" style="stop-color:#C7CEE9"/>
	<stop  offset="1" style="stop-color:#A8B5DC"/>
</linearGradient>
<path class="st20" d="M152,303.9c0,70.3-17.2,133.9-44.9,179.8C60.7,469,25.3,429.6,16.3,380.9c-1.5-8-2.3-16.2-2.3-24.5v-207
	c0-33.2,12.1-63.5,32.2-86.9C73.6,77,97.7,104.2,115.9,140c20.3,39.9,33.4,90.5,35.7,146v0.1C151.9,291.9,152,297.8,152,303.9z"/>
<linearGradient id="SVGID_8_" gradientUnits="userSpaceOnUse" x1="16.26" y1="378.0056" x2="499" y2="378.0056">
	<stop  offset="5.618000e-03" style="stop-color:#E2E5F4"/>
	<stop  offset="0.4494" style="stop-color:#C7CEE9"/>
	<stop  offset="1" style="stop-color:#A8B5DC"/>
</linearGradient>
<path class="st21" d="M499,310.8v45.6c0,73.7-59.8,133.5-133.5,133.5h-218c-14.1,0-27.6-2.2-40.3-6.2
	C60.7,469,25.3,429.6,16.3,380.9c29-44.2,78.8-76,135.1-94.8c0.1,0,0.2-0.1,0.2-0.1c39.6-13.2,82.7-19.9,124-19.9
	C349.2,266.1,438.8,278.6,499,310.8z"/>
</svg>
