<?xml version="1.0" encoding="utf-8"?>
<!-- Generator: Adobe Illustrator 24.0.1, SVG Export Plug-In . SVG Version: 6.00 Build 0)  -->
<svg version="1.1" id="Layer_1" xmlns="http://www.w3.org/2000/svg" xmlns:xlink="http://www.w3.org/1999/xlink" x="0px" y="0px"
	 viewBox="0 0 512 512" style="enable-background:new 0 0 512 512;" xml:space="preserve">
<style type="text/css">
	.st0{display:none;}
	.st1{display:inline;fill:#200A7F;stroke:#18E5EA;stroke-width:20;stroke-miterlimit:10;}
	.st2{display:inline;fill:#EF0B79;}
	.st3{display:inline;fill:#18E5EA;}
	.st4{display:inline;}
	.st5{fill:#E9F21C;}
	.st6{display:inline;fill:none;}
	.st7{display:inline;fill:#EF3A24;}
	.st8{font-family:'MyriadPro-Regular';}
	.st9{font-size:250px;}
	.st10{display:inline;fill:#FFFFFF;}
	.st11{opacity:0.12;fill:#ABABAB;enable-background:new    ;}
	.st12{fill:url(#SVGID_1_);}
	.st13{display:none;opacity:8.000000e-02;fill:#EFEFEF;enable-background:new    ;}
	.st14{fill:#FFFFFF;}
</style>
<g id="Layer_3" class="st0">
	<path class="st1" d="M401.1,212.2c5.1,15.3,7.9,31.7,7.9,48.8c0,85.3-69.2,154.5-154.5,154.5S100,346.3,100,261
		s69.2-154.5,154.5-154.5c51.2,0,96.6,24.9,124.7,63.3"/>
	<path class="st2" d="M333.4,255.2c0,4.2-3.3,7.7-7.4,7.7H174.9c-4.1,0-7.4-3.4-7.4-7.7l0,0c0-4.2,3.3-7.7,7.4-7.7H326
		C330.1,247.5,333.4,250.9,333.4,255.2L333.4,255.2z"/>
	<path class="st2" d="M333.4,284.8c0,4.2-3.3,7.6-7.4,7.6H174.9c-4.1,0-7.4-3.4-7.4-7.6l0,0c0-4.2,3.3-7.6,7.4-7.6H326
		C330.1,277.1,333.4,280.6,333.4,284.8L333.4,284.8z"/>
	<path class="st2" d="M333.4,313c0,4.2-3.3,7.7-7.4,7.7H174.9c-4.1,0-7.4-3.4-7.4-7.7l0,0c0-4.2,3.3-7.6,7.4-7.6H326
		C330.1,305.4,333.4,308.8,333.4,313L333.4,313z"/>
	<path class="st2" d="M333.4,338.4c0,4.2-3.3,7.7-7.4,7.7H174.9c-4.1,0-7.4-3.4-7.4-7.7l0,0c0-4.2,3.3-7.6,7.4-7.6H326
		C330.1,330.7,333.4,334.1,333.4,338.4L333.4,338.4z"/>
	<polygon class="st3" points="395,191.5 320.2,165.2 380.4,113.5 	"/>
	<g class="st4">
		<g>
			<g>
				<path class="st5" d="M241.5,239.2c-2.3,0-4.4-1.1-5.8-2.9l-18.8-24.8c-2.4-3.2-1.8-7.8,1.4-10.3c3.2-2.4,7.8-1.8,10.3,1.4
					l12.3,16.3l31-49.8c2.1-3.4,6.6-4.5,10.1-2.3c3.4,2.1,4.5,6.6,2.3,10.1l-36.7,58.9c-1.3,2-3.5,3.3-5.9,3.4
					C241.7,239.2,241.6,239.2,241.5,239.2z"/>
			</g>
		</g>
	</g>
</g>
<g id="Layer_2_2_" class="st0">
	<rect x="121" y="171.5" class="st6" width="298" height="251"/>
	<text transform="matrix(1 0 0 1 121 348.9979)" class="st7 st8 st9">24</text>
	<circle class="st10" cx="138.3" cy="91.8" r="17.3"/>
	<circle class="st10" cx="185.3" cy="91.8" r="17.3"/>
	<circle class="st10" cx="232.3" cy="91.8" r="17.3"/>
	<circle class="st10" cx="278.3" cy="91.8" r="17.3"/>
	<circle class="st10" cx="323.3" cy="91.8" r="17.3"/>
	<circle class="st10" cx="368.3" cy="91.8" r="17.3"/>
</g>
<path class="st11" d="M371.3,495.1H142c-73.7,0-133.5-59.8-133.5-133.5v-218C8.5,69.9,68.3,10.1,142,10.1h229.2
	c73.7,0,133.5,59.8,133.5,133.5v218C504.8,435.4,445,495.1,371.3,495.1z"/>
<linearGradient id="SVGID_1_" gradientUnits="userSpaceOnUse" x1="256.5" y1="23.8898" x2="256.5" y2="483.9289">
	<stop  offset="0" style="stop-color:#FFE7A3"/>
	<stop  offset="0.4065" style="stop-color:#FFCA05"/>
	<stop  offset="1" style="stop-color:#FAAC18"/>
</linearGradient>
<path class="st12" d="M365.5,489.9h-218C73.8,489.9,14,430.1,14,356.4v-207C14,75.7,73.8,15.9,147.5,15.9h218
	c73.7,0,133.5,59.8,133.5,133.5v207C499,430.1,439.2,489.9,365.5,489.9z"/>
<path class="st13" d="M502,156.5v207c0,73.7-59.8,133.5-133.5,133.5h-218c-51.4,0-96.1-29.1-118.4-71.7c-3.3-11.7-5.1-24-5.1-36.8
	v-207C27,107.8,86.8,48,160.5,48h218c51.4,0,96.1,29.1,118.4,71.7C500.2,131.4,502,143.8,502,156.5z"/>
<path class="st13" d="M510,158.5v207c0,73.7-59.8,133.5-133.5,133.5h-218c-61,0-112.4-40.9-128.4-96.7c-3.3-11.7-5.1-24-5.1-36.8
	v-207C25,84.8,84.8,25,158.5,25h218c51.4,0,96.1,29.1,118.4,71.7C504.5,115.2,510,136.2,510,158.5z"/>
<image style="display:none;overflow:visible;enable-background:new    ;" width="696" height="428" xlink:href="../../../Downloads/macOSBigSur-696x428.png"  transform="matrix(0.75 0 0 0.75 -31 244.3898)">
</image>
<path class="st14" d="M272.8,185c-8.1-0.7-25.6-0.8-52.7,4.8c-38.5,8.1-56.2,43.6-56.2,71.4s26.7,60,66.6,60
	c30.6,0,47.8-18.3,54.2-27.1c1.5-2,4.4-1.8,5.7,0.1c1.6,2.5,3.8,5.8,6.7,9.4c3.2,3.8,7.3,7.8,10.7,10.7c3.3,2.8,8.2,2.6,11.2-0.3
	l26.5-25.2c3-2.9,3.4-7.7,0.9-11.1c-1.5-2-3.3-4.5-5.5-7.8c-7.1-10-6.9-18.1-6.9-18.1v-93.6c0-11.2-6.9-57.4-78.4-57.4
	c-58.5,0-76.3,41.7-80.9,56.9c-0.9,2.9,1.1,5.9,4.1,6.5l36.3,6.2c2.2,0.4,4.4-0.8,5.4-2.8c4-8.1,15.6-27.7,33.7-27.7
	c22.8,0,23.8,18.6,23.8,18.6v21.5C278,183,275.6,185.1,272.8,185z M278.6,219.5v27.3c0,14.3-9.8,26.8-23.8,29.8
	c-3.6,0.8-7.7,1.3-12.4,1.3c-30.2,0-24.5-38.8-10.7-50.3c10.6-8.7,31.9-11.7,41.7-12.7C276.3,214.7,278.6,216.8,278.6,219.5z"/>
<path class="st14" d="M363.4,333c14.6-1.7,21.1-3.6,25.5,0.3c4.5,4,2.9,11.9,0,21c-2.9,9.1-10,16.6-3.2,20.5
	c8.1,4.4,39.1-35.8,26.3-55.7c-10.7-16.6-55.7,2-59.1,4.2c-3.3,2.2-3.3,4.9-3.3,4.9S348.7,334.8,363.4,333z"/>
<path class="st14" d="M252.2,398.6c54.1,0,76.9-11.2,100.3-24.3c23.4-13.1,27.8-22.8,24.5-28.9c-3.3-6.1-16.6,0.1-28.4,5.3
	c-11.9,5-48.3,19-100.7,19s-105.1-37-116.4-44.9c-11.2-7.8-15.3,0-15.3,0s-3.4,6.5,7,19.3C133.9,356.8,186.4,398.6,252.2,398.6z"/>
</svg>
