<?xml version="1.0" encoding="utf-8"?>
<!-- Generator: Adobe Illustrator 24.0.1, SVG Export Plug-In . SVG Version: 6.00 Build 0)  -->
<svg version="1.1" id="Layer_1" xmlns="http://www.w3.org/2000/svg" xmlns:xlink="http://www.w3.org/1999/xlink" x="0px" y="0px"
	 viewBox="0 0 512 512" style="enable-background:new 0 0 512 512;" xml:space="preserve">
<style type="text/css">
	.st0{display:none;}
	.st1{display:inline;fill:#200A7F;stroke:#18E5EA;stroke-width:20;stroke-miterlimit:10;}
	.st2{display:inline;fill:#EF0B79;}
	.st3{display:inline;fill:#18E5EA;}
	.st4{display:inline;}
	.st5{fill:#E9F21C;}
	.st6{display:inline;fill:none;}
	.st7{display:inline;fill:#EF3A24;}
	.st8{font-family:'MyriadPro-Regular';}
	.st9{font-size:250px;}
	.st10{display:inline;fill:#FFFFFF;}
	.st11{opacity:0.12;fill:#ABABAB;enable-background:new    ;}
	.st12{fill:url(#SVGID_1_);}
	.st13{display:none;opacity:8.000000e-02;fill:#EFEFEF;enable-background:new    ;}
	.st14{fill-rule:evenodd;clip-rule:evenodd;fill:#BB58BB;}
	.st15{fill-rule:evenodd;clip-rule:evenodd;fill:url(#SVGID_2_);}
	.st16{fill-rule:evenodd;clip-rule:evenodd;fill:url(#SVGID_3_);}
	.st17{fill-rule:evenodd;clip-rule:evenodd;fill:url(#SVGID_4_);}
	.st18{fill-rule:evenodd;clip-rule:evenodd;fill:#FFFFFF;}
</style>
<g id="Layer_3" class="st0">
	<path class="st1" d="M401.1,212.2c5.1,15.3,7.9,31.7,7.9,48.8c0,85.3-69.2,154.5-154.5,154.5S100,346.3,100,261
		s69.2-154.5,154.5-154.5c51.2,0,96.6,24.9,124.7,63.3"/>
	<path class="st2" d="M333.4,255.2c0,4.2-3.3,7.7-7.4,7.7H174.9c-4.1,0-7.4-3.4-7.4-7.7l0,0c0-4.2,3.3-7.7,7.4-7.7H326
		C330.1,247.5,333.4,250.9,333.4,255.2L333.4,255.2z"/>
	<path class="st2" d="M333.4,284.8c0,4.2-3.3,7.6-7.4,7.6H174.9c-4.1,0-7.4-3.4-7.4-7.6l0,0c0-4.2,3.3-7.6,7.4-7.6H326
		C330.1,277.1,333.4,280.6,333.4,284.8L333.4,284.8z"/>
	<path class="st2" d="M333.4,313c0,4.2-3.3,7.7-7.4,7.7H174.9c-4.1,0-7.4-3.4-7.4-7.7l0,0c0-4.2,3.3-7.6,7.4-7.6H326
		C330.1,305.4,333.4,308.8,333.4,313L333.4,313z"/>
	<path class="st2" d="M333.4,338.4c0,4.2-3.3,7.7-7.4,7.7H174.9c-4.1,0-7.4-3.4-7.4-7.7l0,0c0-4.2,3.3-7.6,7.4-7.6H326
		C330.1,330.7,333.4,334.1,333.4,338.4L333.4,338.4z"/>
	<polygon class="st3" points="395,191.5 320.2,165.2 380.4,113.5 	"/>
	<g class="st4">
		<g>
			<g>
				<path class="st5" d="M241.5,239.2c-2.3,0-4.4-1.1-5.8-2.9l-18.8-24.8c-2.4-3.2-1.8-7.8,1.4-10.3c3.2-2.4,7.8-1.8,10.3,1.4
					l12.3,16.3l31-49.8c2.1-3.4,6.6-4.5,10.1-2.3c3.4,2.1,4.5,6.6,2.3,10.1l-36.7,58.9c-1.3,2-3.5,3.3-5.9,3.4
					C241.7,239.2,241.6,239.2,241.5,239.2z"/>
			</g>
		</g>
	</g>
</g>
<g id="Layer_2_2_" class="st0">
	<rect x="121" y="171.5" class="st6" width="298" height="251"/>
	<text transform="matrix(1 0 0 1 121 348.9979)" class="st7 st8 st9">24</text>
	<circle class="st10" cx="138.3" cy="91.8" r="17.3"/>
	<circle class="st10" cx="185.3" cy="91.8" r="17.3"/>
	<circle class="st10" cx="232.3" cy="91.8" r="17.3"/>
	<circle class="st10" cx="278.3" cy="91.8" r="17.3"/>
	<circle class="st10" cx="323.3" cy="91.8" r="17.3"/>
	<circle class="st10" cx="368.3" cy="91.8" r="17.3"/>
</g>
<path class="st11" d="M371.3,495.1H142c-73.7,0-133.5-59.8-133.5-133.5v-218C8.5,69.9,68.3,10.1,142,10.1h229.2
	c73.7,0,133.5,59.8,133.5,133.5v218C504.8,435.4,445,495.1,371.3,495.1z"/>
<linearGradient id="SVGID_1_" gradientUnits="userSpaceOnUse" x1="255.0943" y1="-0.5918" x2="258.0943" y2="540.4081">
	<stop  offset="0" style="stop-color:#8F9194"/>
	<stop  offset="1.066044e-02" style="stop-color:#8C8E91"/>
	<stop  offset="0.1094" style="stop-color:#76787A"/>
	<stop  offset="0.2158" style="stop-color:#66686A"/>
	<stop  offset="0.3342" style="stop-color:#5D5E60"/>
	<stop  offset="0.4888" style="stop-color:#5A5B5D"/>
	<stop  offset="0.7136" style="stop-color:#57585A"/>
	<stop  offset="0.8859" style="stop-color:#4E4E50"/>
	<stop  offset="1" style="stop-color:#434345"/>
</linearGradient>
<path class="st12" d="M365.5,489.9h-218C73.8,489.9,14,430.1,14,356.4v-207C14,75.7,73.8,15.9,147.5,15.9h218
	c73.7,0,133.5,59.8,133.5,133.5v207C499,430.1,439.2,489.9,365.5,489.9z"/>
<path class="st13" d="M502,156.5v207c0,73.7-59.8,133.5-133.5,133.5h-218c-51.4,0-96.1-29.1-118.4-71.7c-3.3-11.7-5.1-24-5.1-36.8
	v-207C27,107.8,86.8,48,160.5,48h218c51.4,0,96.1,29.1,118.4,71.7C500.2,131.4,502,143.8,502,156.5z"/>
<path class="st13" d="M510,158.5v207c0,73.7-59.8,133.5-133.5,133.5h-218c-61,0-112.4-40.9-128.4-96.7c-3.3-11.7-5.1-24-5.1-36.8
	v-207C25,84.8,84.8,25,158.5,25h218c51.4,0,96.1,29.1,118.4,71.7C504.5,115.2,510,136.2,510,158.5z"/>
<g>
	<path class="st14" d="M365,322.3v14.3c0,9.2-0.8,18.3-2.4,27.3c-1.6,9.3-6.9,17.5-14.7,22.9h-0.4c-8.1,6.2-18,9.7-28.2,10.2
		l-7.8,0.8c-12.3,0.8-24.3-4.4-32.2-13.9c-8.3-10-10.5-23.8-5.7-35.9v-0.4c4.3-11.8,14.3-20.7,26.5-23.7l30.6-8.2
		c7.9-1.9,13.5-9,13.5-17.1v-20.8l0,0v-87.7c0.1-2.1-0.8-4-2.4-5.3c-1.6-1.2-3.7-1.7-5.7-1.2l-130.6,26.5c-4.8,0.8-8.3,4.9-8.2,9.8
		v139.6l0,0v10.2c0,9.2-0.8,18.3-2.4,27.3c-1.6,9.3-6.9,17.5-14.7,22.9h-0.4c-8.1,6.2-18,9.7-28.2,10.2l-7.3,0.4
		c-12.3,0.8-24.3-4.4-32.2-13.9c-8.3-10-10.5-23.8-5.7-35.9v-0.4c4.3-11.8,14.3-20.7,26.5-23.7l30.6-8.2c7.9-1.9,13.5-9,13.5-17.1
		v-20.8l0,0v-162c0.1-7.2,5.2-13.3,12.2-14.7L352.8,104c3-0.4,6,0.4,8.6,2c2.3,1.9,3.7,4.8,3.7,7.8v208.5H365z"/>
	
		<radialGradient id="SVGID_2_" cx="-589.15" cy="-1096.4354" r="6.477" gradientTransform="matrix(0 31.8923 31.8923 0 35127.2266 19184.6836)" gradientUnits="userSpaceOnUse">
		<stop  offset="0" style="stop-color:#7470F9"/>
		<stop  offset="1" style="stop-color:#7A70FE;stop-opacity:0"/>
	</radialGradient>
	<path class="st15" d="M365,322.3v14.3c0,9.2-0.8,18.3-2.4,27.3c-1.6,9.3-6.9,17.5-14.7,22.9h-0.4c-8.1,6.2-18,9.7-28.2,10.2
		l-7.8,0.8c-12.3,0.8-24.3-4.4-32.2-13.9c-8.3-10-10.5-23.8-5.7-35.9v-0.4c4.3-11.8,14.3-20.7,26.5-23.7l30.6-8.2
		c7.9-1.9,13.5-9,13.5-17.1v-20.8l0,0v-87.7c0.1-2.1-0.8-4-2.4-5.3c-1.6-1.2-3.7-1.7-5.7-1.2l-130.6,26.5c-4.8,0.8-8.3,4.9-8.2,9.8
		v139.6l0,0v10.2c0,9.2-0.8,18.3-2.4,27.3c-1.6,9.3-6.9,17.5-14.7,22.9h-0.4c-8.1,6.2-18,9.7-28.2,10.2l-7.3,0.4
		c-12.3,0.8-24.3-4.4-32.2-13.9c-8.3-10-10.5-23.8-5.7-35.9v-0.4c4.3-11.8,14.3-20.7,26.5-23.7l30.6-8.2c7.9-1.9,13.5-9,13.5-17.1
		v-20.8l0,0v-162c0.1-7.2,5.2-13.3,12.2-14.7L352.8,104c3-0.4,6,0.4,8.6,2c2.3,1.9,3.7,4.8,3.7,7.8v208.5H365z"/>
	
		<radialGradient id="SVGID_3_" cx="-712.3203" cy="-1152.1938" r="5.2281" gradientTransform="matrix(-8.5432 -30.7267 -30.7267 8.5432 -41166.3242 -11695.6104)" gradientUnits="userSpaceOnUse">
		<stop  offset="0" style="stop-color:#4CA3F8"/>
		<stop  offset="0.362" style="stop-color:#4CA4F7"/>
		<stop  offset="1" style="stop-color:#4AA2F9;stop-opacity:0"/>
	</radialGradient>
	<path class="st16" d="M365,322.3v14.3c0,9.2-0.8,18.3-2.4,27.3c-1.6,9.3-6.9,17.5-14.7,22.9h-0.4c-8.1,6.2-18,9.7-28.2,10.2
		l-7.8,0.8c-12.3,0.8-24.3-4.4-32.2-13.9c-8.3-10-10.5-23.8-5.7-35.9v-0.4c4.3-11.8,14.3-20.7,26.5-23.7l30.6-8.2
		c7.9-1.9,13.5-9,13.5-17.1v-20.8l0,0v-87.7c0.1-2.1-0.8-4-2.4-5.3c-1.6-1.2-3.7-1.7-5.7-1.2l-130.6,26.5c-4.8,0.8-8.3,4.9-8.2,9.8
		v139.6l0,0v10.2c0,9.2-0.8,18.3-2.4,27.3c-1.6,9.3-6.9,17.5-14.7,22.9h-0.4c-8.1,6.2-18,9.7-28.2,10.2l-7.3,0.4
		c-12.3,0.8-24.3-4.4-32.2-13.9c-8.3-10-10.5-23.8-5.7-35.9v-0.4c4.3-11.8,14.3-20.7,26.5-23.7l30.6-8.2c7.9-1.9,13.5-9,13.5-17.1
		v-20.8l0,0v-162c0.1-7.2,5.2-13.3,12.2-14.7L352.8,104c3-0.4,6,0.4,8.6,2c2.3,1.9,3.7,4.8,3.7,7.8v208.5H365z"/>
	
		<linearGradient id="SVGID_4_" gradientUnits="userSpaceOnUse" x1="-612.1409" y1="-1171.5028" x2="-610.5654" y2="-1175.0779" gradientTransform="matrix(31.8923 0 0 -39.8681 19725.5996 -46538.8594)">
		<stop  offset="0" style="stop-color:#FF6380"/>
		<stop  offset="1" style="stop-color:#F65E79;stop-opacity:0"/>
	</linearGradient>
	<path class="st17" d="M365,322.3v14.3c0,9.2-0.8,18.3-2.4,27.3c-1.6,9.3-6.9,17.5-14.7,22.9h-0.4c-8.1,6.2-18,9.7-28.2,10.2
		l-7.8,0.8c-12.3,0.8-24.3-4.4-32.2-13.9c-8.3-10-10.5-23.8-5.7-35.9v-0.4c4.3-11.8,14.3-20.7,26.5-23.7l30.6-8.2
		c7.9-1.9,13.5-9,13.5-17.1v-20.8l0,0v-87.7c0.1-2.1-0.8-4-2.4-5.3c-1.6-1.2-3.7-1.7-5.7-1.2l-130.6,26.5c-4.8,0.8-8.3,4.9-8.2,9.8
		v139.6l0,0v10.2c0,9.2-0.8,18.3-2.4,27.3c-1.6,9.3-6.9,17.5-14.7,22.9h-0.4c-8.1,6.2-18,9.7-28.2,10.2l-7.3,0.4
		c-12.3,0.8-24.3-4.4-32.2-13.9c-8.3-10-10.5-23.8-5.7-35.9v-0.4c4.3-11.8,14.3-20.7,26.5-23.7l30.6-8.2c7.9-1.9,13.5-9,13.5-17.1
		v-20.8l0,0v-162c0.1-7.2,5.2-13.3,12.2-14.7L352.8,104c3-0.4,6,0.4,8.6,2c2.3,1.9,3.7,4.8,3.7,7.8v208.5H365z"/>
	<path class="st18" d="M365,322.3v14.3c0,9.2-0.8,18.3-2.4,27.3c-1.6,9.3-6.9,17.5-14.7,22.9h-0.4c-8.1,6.2-18,9.7-28.2,10.2
		l-7.8,0.8c-12.3,0.8-24.3-4.4-32.2-13.9c-8.3-10-10.5-23.8-5.7-35.9v-0.4c4.3-11.8,14.3-20.7,26.5-23.7l30.6-8.2
		c7.9-1.9,13.5-9,13.5-17.1v-20.8l0,0v-87.7c0.1-2.1-0.8-4-2.4-5.3c-1.6-1.2-3.7-1.7-5.7-1.2l-130.6,26.5c-4.8,0.8-8.3,4.9-8.2,9.8
		v139.6l0,0v10.2c0,9.2-0.8,18.3-2.4,27.3c-1.6,9.3-6.9,17.5-14.7,22.9h-0.4c-8.1,6.2-18,9.7-28.2,10.2l-7.3,0.4
		c-12.3,0.8-24.3-4.4-32.2-13.9c-8.3-10-10.5-23.8-5.7-35.9v-0.4c4.3-11.8,14.3-20.7,26.5-23.7l30.6-8.2c7.9-1.9,13.5-9,13.5-17.1
		v-20.8l0,0v-162c0.1-7.2,5.2-13.3,12.2-14.7L352.8,104c3-0.4,6,0.4,8.6,2c2.3,1.9,3.7,4.8,3.7,7.8v208.5H365z"/>
</g>
</svg>
