<?xml version="1.0" encoding="utf-8"?>
<!-- Generator: Adobe Illustrator 24.0.1, SVG Export Plug-In . SVG Version: 6.00 Build 0)  -->
<svg version="1.1" id="Layer_1" xmlns="http://www.w3.org/2000/svg" xmlns:xlink="http://www.w3.org/1999/xlink" x="0px" y="0px"
	 viewBox="0 0 512 512" style="enable-background:new 0 0 512 512;" xml:space="preserve">
<style type="text/css">
	.st0{display:none;}
	.st1{display:inline;fill:#200A7F;stroke:#18E5EA;stroke-width:20;stroke-miterlimit:10;}
	.st2{display:inline;fill:#EF0B79;}
	.st3{display:inline;fill:#18E5EA;}
	.st4{display:inline;}
	.st5{fill:#E9F21C;}
	.st6{display:inline;fill:none;}
	.st7{display:inline;fill:#EF3A24;}
	.st8{font-family:'MyriadPro-Regular';}
	.st9{font-size:250px;}
	.st10{display:inline;fill:#FFFFFF;}
	.st11{opacity:0.12;fill:#606060;enable-background:new    ;}
	.st12{fill:url(#SVGID_1_);}
	.st13{display:none;fill:url(#SVGID_2_);}
	.st14{display:none;opacity:8.000000e-02;fill:#EFEFEF;enable-background:new    ;}
	.st15{fill:none;}
	.st16{fill:url(#SVGID_3_);}
	.st17{fill:url(#SVGID_4_);}
	.st18{fill:url(#SVGID_5_);}
	.st19{fill:url(#SVGID_6_);}
	.st20{fill:#1C11F7;}
	.st21{fill:#FFFFFF;}
</style>
<g id="Layer_3" class="st0">
	<path class="st1" d="M401.1,212.2c5.1,15.3,7.9,31.7,7.9,48.8c0,85.3-69.2,154.5-154.5,154.5S100,346.3,100,261
		s69.2-154.5,154.5-154.5c51.2,0,96.6,24.9,124.7,63.3"/>
	<path class="st2" d="M333.4,255.2c0,4.2-3.3,7.7-7.4,7.7H174.9c-4.1,0-7.4-3.4-7.4-7.7l0,0c0-4.2,3.3-7.7,7.4-7.7H326
		C330.1,247.5,333.4,250.9,333.4,255.2L333.4,255.2z"/>
	<path class="st2" d="M333.4,284.8c0,4.2-3.3,7.6-7.4,7.6H174.9c-4.1,0-7.4-3.4-7.4-7.6l0,0c0-4.2,3.3-7.6,7.4-7.6H326
		C330.1,277.1,333.4,280.6,333.4,284.8L333.4,284.8z"/>
	<path class="st2" d="M333.4,313c0,4.2-3.3,7.7-7.4,7.7H174.9c-4.1,0-7.4-3.4-7.4-7.7l0,0c0-4.2,3.3-7.6,7.4-7.6H326
		C330.1,305.4,333.4,308.8,333.4,313L333.4,313z"/>
	<path class="st2" d="M333.4,338.4c0,4.2-3.3,7.7-7.4,7.7H174.9c-4.1,0-7.4-3.4-7.4-7.7l0,0c0-4.2,3.3-7.6,7.4-7.6H326
		C330.1,330.7,333.4,334.1,333.4,338.4L333.4,338.4z"/>
	<polygon class="st3" points="395,191.5 320.2,165.2 380.4,113.5 	"/>
	<g class="st4">
		<g>
			<g>
				<path class="st5" d="M241.5,239.2c-2.3,0-4.4-1.1-5.8-2.9l-18.8-24.8c-2.4-3.2-1.8-7.8,1.4-10.3c3.2-2.4,7.8-1.8,10.3,1.4
					l12.3,16.3l31-49.8c2.1-3.4,6.6-4.5,10.1-2.3c3.4,2.1,4.5,6.6,2.3,10.1l-36.7,58.9c-1.3,2-3.5,3.3-5.9,3.4
					C241.7,239.2,241.6,239.2,241.5,239.2z"/>
			</g>
		</g>
	</g>
</g>
<g id="Layer_2_2_" class="st0">
	<rect x="121" y="171.5" class="st6" width="298" height="251"/>
	<text transform="matrix(1 0 0 1 121 348.9979)" class="st7 st8 st9">24</text>
	<circle class="st10" cx="138.3" cy="91.8" r="17.3"/>
	<circle class="st10" cx="185.3" cy="91.8" r="17.3"/>
	<circle class="st10" cx="232.3" cy="91.8" r="17.3"/>
	<circle class="st10" cx="278.3" cy="91.8" r="17.3"/>
	<circle class="st10" cx="323.3" cy="91.8" r="17.3"/>
	<circle class="st10" cx="368.3" cy="91.8" r="17.3"/>
</g>
<path class="st11" d="M371.3,495.1H142c-73.7,0-133.5-59.8-133.5-133.5v-218C8.5,69.9,68.3,10.1,142,10.1h229.2
	c73.7,0,133.5,59.8,133.5,133.5v218C504.8,435.4,445,495.1,371.3,495.1z"/>
<g>
	<linearGradient id="SVGID_1_" gradientUnits="userSpaceOnUse" x1="255.102" y1="9.6485" x2="258.1336" y2="537.1432">
		<stop  offset="0" style="stop-color:#FCF3DD"/>
		<stop  offset="0" style="stop-color:#FDEDC1"/>
		<stop  offset="0" style="stop-color:#FFE18A"/>
		<stop  offset="0.5506" style="stop-color:#FFCD03"/>
		<stop  offset="0.668" style="stop-color:#F7C50D"/>
		<stop  offset="1" style="stop-color:#E2B124"/>
	</linearGradient>
	<path class="st12" d="M499,149.4v207c0,73.7-59.8,133.5-133.5,133.5h-218c-14.1,0-27.6-2.2-40.3-6.2
		C60.7,469,25.3,429.6,16.3,380.9c-0.8-4-1.3-8-1.7-12.1c-0.4-4.1-0.6-8.2-0.6-12.4v-207c0-33.2,12.1-63.5,32.2-86.9
		C70.7,34,107,15.9,147.5,15.9h218C439.2,15.9,499,75.7,499,149.4z"/>
	<linearGradient id="SVGID_2_" gradientUnits="userSpaceOnUse" x1="14" y1="252.8956" x2="499" y2="252.8956">
		<stop  offset="0" style="stop-color:#FCF3DD"/>
		<stop  offset="0" style="stop-color:#FDEDC1"/>
		<stop  offset="0" style="stop-color:#FFE18A"/>
		<stop  offset="0.5506" style="stop-color:#FFCD03"/>
		<stop  offset="0.668" style="stop-color:#F7C50D"/>
		<stop  offset="1" style="stop-color:#E2B124"/>
	</linearGradient>
	<path class="st13" d="M499,149.4v207c0,73.7-59.8,133.5-133.5,133.5h-218c-14.1,0-27.6-2.2-40.3-6.2
		C60.7,469,25.3,429.6,16.3,380.9c-1.5-8-2.3-16.2-2.3-24.5v-207c0-33.2,12.1-63.5,32.2-86.9C70.7,34,107,15.9,147.5,15.9h218
		C439.2,15.9,499,75.7,499,149.4z"/>
</g>
<path class="st14" d="M502,156.5v207c0,73.7-59.8,133.5-133.5,133.5h-218c-51.4,0-96.1-29.1-118.4-71.7c-3.3-11.7-5.1-24-5.1-36.8
	v-207C27,107.8,86.8,48,160.5,48h218c51.4,0,96.1,29.1,118.4,71.7C500.2,131.4,502,143.8,502,156.5z"/>
<path class="st14" d="M510,158.5v207c0,73.7-59.8,133.5-133.5,133.5h-218c-61,0-112.4-40.9-128.4-96.7c-3.3-11.7-5.1-24-5.1-36.8
	v-207C25,84.8,84.8,25,158.5,25h218c51.4,0,96.1,29.1,118.4,71.7C504.5,115.2,510,136.2,510,158.5z"/>
<image style="display:none;overflow:visible;enable-background:new    ;" width="696" height="428" xlink:href="C:\Users\win10\Downloads\macOSBigSur-696x428.png"  transform="matrix(0.75 0 0 0.75 -31 244.3898)">
</image>
<rect x="54" y="156.5" class="st15" width="587" height="199"/>
<title>001 - Accessibility</title>
<desc>Created with Sketch.</desc>
<image style="display:none;overflow:visible;enable-background:new    ;" width="128" height="128" xlink:href="../adobe/AdobeBridge.png"  transform="matrix(0.999 0 0 0.999 163.4 512)">
</image>
<image style="display:none;overflow:visible;enable-background:new    ;" width="128" height="128" xlink:href="../adobe/AdobeDreamweaver.png"  transform="matrix(0.999 0 0 0.999 163.4 512)">
</image>
<image style="display:none;overflow:visible;enable-background:new    ;" width="128" height="128" xlink:href="../adobe/AdobeEncore.png"  transform="matrix(0.999 0 0 0.999 163.4 512)">
</image>
<image style="display:none;overflow:visible;enable-background:new    ;" width="128" height="128" xlink:href="../adobe/AdobeFirework.png"  transform="matrix(0.999 0 0 0.999 163.4 512)">
</image>
<image style="display:none;overflow:visible;enable-background:new    ;" width="128" height="128" xlink:href="../adobe/AdobeFlash.png"  transform="matrix(0.999 0 0 0.999 163.4 512)">
</image>
<image style="display:none;overflow:visible;enable-background:new    ;" width="128" height="128" xlink:href="../adobe/AdobeFlashBuilder.png"  transform="matrix(0.999 0 0 0.999 163.4 512)">
</image>
<image style="display:none;overflow:visible;enable-background:new    ;" width="128" height="128" xlink:href="../adobe/Adobeillustrator.png"  transform="matrix(0.999 0 0 0.999 163.4 512)">
</image>
<image style="display:none;overflow:visible;enable-background:new    ;" width="128" height="128" xlink:href="../adobe/AdobeIndesign.png"  transform="matrix(0.999 0 0 0.999 163.4 512)">
</image>
<image style="display:none;overflow:visible;enable-background:new    ;" width="128" height="128" xlink:href="../adobe/AdobeLightroom.png"  transform="matrix(0.999 0 0 0.999 163.4 512)">
</image>
<image style="display:none;overflow:visible;enable-background:new    ;" width="128" height="128" xlink:href="../adobe/AdobePhotoshop.png"  transform="matrix(0.999 0 0 0.999 163.4 512)">
</image>
<image style="display:none;overflow:visible;enable-background:new    ;" width="128" height="128" xlink:href="../adobe/AdobePrelude.png"  transform="matrix(0.999 0 0 0.999 163.4 512)">
</image>
<image style="display:none;overflow:visible;enable-background:new    ;" width="128" height="128" xlink:href="../adobe/AdobePremierePro.png"  transform="matrix(0.999 0 0 0.999 163.4 512)">
</image>
<linearGradient id="SVGID_3_" gradientUnits="userSpaceOnUse" x1="46.8" y1="517.6306" x2="47.87" y2="517.6306">
	<stop  offset="0" style="stop-color:#5B57A5"/>
	<stop  offset="0.5" style="stop-color:#2E3092"/>
	<stop  offset="1" style="stop-color:#474374"/>
</linearGradient>
<path class="st16" d="M47.8,518l0.1,0.1c-0.4-0.4-0.7-0.7-1.1-1.1C47.1,517.4,47.4,517.7,47.8,518z"/>
<linearGradient id="SVGID_4_" gradientUnits="userSpaceOnUse" x1="47.99" y1="518.4006" x2="48.29" y2="518.4006">
	<stop  offset="0" style="stop-color:#5B57A5"/>
	<stop  offset="0.5" style="stop-color:#2E3092"/>
	<stop  offset="1" style="stop-color:#474374"/>
</linearGradient>
<path class="st17" d="M48,518.3c0.1,0,0.2,0.1,0.3,0.2c-0.1,0-0.1-0.1-0.2-0.1L48,518.3z"/>
<linearGradient id="SVGID_5_" gradientUnits="userSpaceOnUse" x1="48.35" y1="518.6306" x2="48.59" y2="518.6306">
	<stop  offset="0" style="stop-color:#5B57A5"/>
	<stop  offset="0.5" style="stop-color:#2E3092"/>
	<stop  offset="1" style="stop-color:#474374"/>
</linearGradient>
<path class="st18" d="M48.5,518.6l0.1,0.1c0,0,0,0-0.1,0c0,0-0.1-0.1-0.1-0.1C48.5,518.6,48.5,518.6,48.5,518.6z"/>
<linearGradient id="SVGID_6_" gradientUnits="userSpaceOnUse" x1="48.59" y1="526.0656" x2="64.48" y2="526.0656">
	<stop  offset="0" style="stop-color:#5B57A5"/>
	<stop  offset="0.5" style="stop-color:#2E3092"/>
	<stop  offset="1" style="stop-color:#474374"/>
</linearGradient>
<path class="st19" d="M64.3,533.3c0,0,0.1,0.1,0.1,0.1c0,0,0,0,0,0c-2.8-2.4-5.6-4.9-8.2-7.4c-2.5-2.4-5-4.7-7.5-7.2l-0.1-0.1
	c2.5,2.5,5,4.9,7.5,7.2C58.8,528.4,61.5,530.9,64.3,533.3z"/>
<g>
	<path class="st20" d="M419.2,239H392c-6.7,0-12.4-5-13.1-11.6c-5.9-60.1-60.7-107.3-122.4-107.3s-116.4,47.1-122.3,107.3
		c-0.6,6.7-6.4,11.6-13.1,11.6h-27c0-87.5,75-158.6,162.5-158.6C344.2,80.4,419.2,151.5,419.2,239z"/>
	<path class="st20" d="M392.8,239h26.4c0,17.5-3.5,34.3-8.7,50l0,0c-0.3-0.1-0.6-0.2-0.9-0.3l-24.7-6.6
		C389.8,268.7,392.8,254.1,392.8,239z"/>
	<path class="st20" d="M418.9,305l-17.1,63.8c-1.9,7.1-9.1,11.3-16.2,9.4l-25.6-6.9c0,0,23.8-86.5,24.9-89.1l24.7,6.6
		C416.9,290.8,420.8,298.2,418.9,305z"/>
	<path class="st20" d="M318.4,373.7c-7.1-1.9-11.3-9.1-9.4-16.2l24-89.3c1.9-7.1,9.2-11.3,16.2-9.4l25.6,6.8
		c7.1,1.9,11.3,9.1,9.4,16.2l-2.2,8.1l-21.7,81.3c-1.9,7.1-9.1,11.3-16.2,9.4C335,378.3,327.4,376.2,318.4,373.7z"/>
	<path class="st20" d="M169.5,380.6c-7.1,1.9-14.2-2.3-16.2-9.4l-24-89.3c-1.9-7.1,2.3-14.2,9.4-16.2l25.6-6.8
		c7.1-1.9,14.2,2.3,16.2,9.4l23.9,89.4c1.9,7.1-2.3,14.2-9.4,16.2C186.1,376.2,178.4,378.3,169.5,380.6z"/>
	<path class="st20" d="M153.3,371.3l-25.6,6.9c-7.1,1.9-14.2-2.3-16.2-9.4L94.5,305c-1.8-6.8,1.9-13.7,8.3-15.9
		c0.3-0.1,0.6-0.2,0.9-0.3l24.7-6.6C129.4,284.8,153.3,371.3,153.3,371.3z"/>
	<path class="st20" d="M128.5,282.1l-24.7,6.6c-0.3,0.1-0.6,0.2-0.9,0.3l0,0c-5.2-15.8-8.7-32.5-8.7-50h26.4
		C120.6,254.1,123.6,268.7,128.5,282.1z"/>
	<path class="st20" d="M353.4,294.2c-3.5-0.9-7.2,1.1-8.1,4.7c-0.9,3.5,1.1,7.2,4.7,8.1c3.5,0.9,7.2-1.2,8.1-4.7
		S357,295.2,353.4,294.2z"/>
	<path class="st20" d="M163.4,307c3.5-0.9,5.6-4.6,4.7-8.1s-4.6-5.6-8.1-4.7c-3.5,0.9-5.6,4.6-4.7,8.1
		C156.3,305.9,159.9,308,163.4,307z"/>
</g>
<path class="st21" d="M418.5,286c5-16.4,7.4-31.9,7.4-46.9c0-43.9-17.8-85.5-50.4-116.9c-31.7-30.6-74.1-48.3-118.7-48.3
	c-91.1,0-169.2,73.7-169.2,165.2c0,15.2,2.4,30.6,7.4,46.9c-6.1,4.8-9,12.9-6.9,20.7l17.1,63.8c2.8,10.5,13.7,16.8,24.3,14.1
	l20.3-5.4c4.6,6.8,13.2,10.2,21.4,7.9l25.6-6.9c10.6-2.8,16.8-13.7,13.9-24.3l-24-89.3c-2.8-10.6-13.8-16.8-24.3-13.9l-25.6,6.9
	c-2.7,0.7-5.1,2-7.2,3.6c-1.3-6.2-2.1-12.3-2.5-18.3c7.3-2.3,12.8-8.7,13.6-16.7c5.5-55.9,57.4-101.3,115.8-101.3
	s110.3,45.4,115.8,101.3c0.8,8,6.3,14.4,13.6,16.7c-0.3,6-1.1,12.1-2.5,18.3c-2.1-1.6-4.5-2.9-7.2-3.6l-25.6-6.9
	c-10.6-2.8-21.4,3.5-24.3,13.9l-23.7,89.2c-2.8,10.6,3.5,21.4,13.9,24.3l25.6,6.9c8.3,2.2,16.8-1.2,21.4-7.9l20.3,5.4
	c10.6,2.9,21.4-3.6,24.3-13.9l17.1-63.8C427.4,298.8,424.5,290.7,418.5,286z M140.5,272.2l25.6-6.9c3.5-0.9,7.2,1.2,8.1,4.7l24,89.3
	c0.9,3.5-1.2,7.2-4.7,8.1l-6.4,1.7l-11.9-44.7c-0.9-3.5-4.6-5.6-8.1-4.7c-3.5,0.9-5.6,4.6-4.7,8.1l11.9,44.7l-6.4,1.7
	c-3.5,0.9-7.2-1.2-8.1-4.7l0,0l-24-89.3C134.8,276.8,136.9,273,140.5,272.2z M145.3,366.6l-19.1,5.1c-3.5,0.9-7.2-1.1-8.1-4.7
	l-17.1-63.8c-0.9-3.3,1-6.8,4.3-8c0.2-0.1,0.3-0.1,0.4-0.1l18.8-5.1C126.4,294.9,122.8,283.9,145.3,366.6z M100.9,245.6h13.2
	c0.6,10.5,2.5,21.3,5.8,31.9l-12.7,3.4C103.6,268.7,101.6,257,100.9,245.6z M385.6,226.8c-6.2-63.9-64.3-113.3-128.9-113.3
	s-122.6,49.2-128.8,113.3c-0.3,3.2-3.2,5.7-6.5,5.7H101c3.7-79.4,73.6-145.3,155.8-145.3S409,153,412.6,232.4h-20.4
	C388.8,232.4,385.9,229.9,385.6,226.8z M412.5,245.6c-0.6,11.4-2.7,23.1-6.3,35.5l-12.7-3.4c3.3-10.8,5.2-21.4,5.8-31.9h13.2V245.6z
	 M353.7,369.6L353.7,369.6c-0.9,3.5-4.6,5.6-8.1,4.7l-6.4-1.7l11.9-44.7c0.9-3.5-1.1-7.2-4.7-8.1c-3.5-0.9-7.2,1.2-8.1,4.7
	l-11.9,44.7l-6.4-1.7c-3.5-0.9-5.6-4.6-4.7-8.1l24-89.3c0.8-3,3.5-4.9,6.4-4.9c0.6,0,1.1,0.1,1.7,0.2l25.6,6.9
	c3.5,0.9,5.6,4.6,4.7,8.1L353.7,369.6z M412.6,303.3l-17.1,63.8c-0.9,3.5-4.6,5.6-8.1,4.7l-19.1-5.1c22.4-82.7,18.8-71.7,20.8-76.6
	c20.1,5.4,19,5.1,19.4,5.2C411.6,296.4,413.5,299.9,412.6,303.3z"/>
</svg>
