<?xml version="1.0" encoding="utf-8"?>
<!-- Generator: Adobe Illustrator 24.0.1, SVG Export Plug-In . SVG Version: 6.00 Build 0)  -->
<svg version="1.1" id="Layer_1" xmlns="http://www.w3.org/2000/svg" xmlns:xlink="http://www.w3.org/1999/xlink" x="0px" y="0px"
	 viewBox="0 0 512 512" style="enable-background:new 0 0 512 512;" xml:space="preserve">
<style type="text/css">
	.st0{display:none;}
	.st1{display:inline;fill:#200A7F;stroke:#18E5EA;stroke-width:20;stroke-miterlimit:10;}
	.st2{display:inline;fill:#EF0B79;}
	.st3{display:inline;fill:#18E5EA;}
	.st4{display:inline;}
	.st5{fill:#E9F21C;}
	.st6{display:inline;fill:none;}
	.st7{display:inline;fill:#EF3A24;}
	.st8{font-family:'MyriadPro-Regular';}
	.st9{font-size:250px;}
	.st10{display:inline;fill:#FFFFFF;}
	.st11{opacity:0.12;fill:#606060;enable-background:new    ;}
	.st12{fill:url(#SVGID_1_);}
	.st13{display:none;fill:url(#SVGID_2_);}
	.st14{display:none;opacity:8.000000e-02;fill:#EFEFEF;enable-background:new    ;}
	.st15{fill:none;}
	.st16{fill:url(#SVGID_3_);}
	.st17{fill:url(#SVGID_4_);}
	.st18{fill:url(#SVGID_5_);}
	.st19{fill:url(#SVGID_6_);}
	.st20{fill:#FEFEFE;}
	.st21{fill:#464D59;}
	.st22{opacity:0.1;enable-background:new    ;}
	.st23{fill:#FFFFFF;}
	.st24{fill:#F7D88B;}
	.st25{fill:#F4CF7A;}
	.st26{fill:#F27281;}
</style>
<g id="Layer_3" class="st0">
	<path class="st1" d="M401.1,212.2c5.1,15.3,7.9,31.7,7.9,48.8c0,85.3-69.2,154.5-154.5,154.5S100,346.3,100,261
		s69.2-154.5,154.5-154.5c51.2,0,96.6,24.9,124.7,63.3"/>
	<path class="st2" d="M333.4,255.2c0,4.2-3.3,7.7-7.4,7.7H174.9c-4.1,0-7.4-3.4-7.4-7.7l0,0c0-4.2,3.3-7.7,7.4-7.7H326
		C330.1,247.5,333.4,250.9,333.4,255.2L333.4,255.2z"/>
	<path class="st2" d="M333.4,284.8c0,4.2-3.3,7.6-7.4,7.6H174.9c-4.1,0-7.4-3.4-7.4-7.6l0,0c0-4.2,3.3-7.6,7.4-7.6H326
		C330.1,277.1,333.4,280.6,333.4,284.8L333.4,284.8z"/>
	<path class="st2" d="M333.4,313c0,4.2-3.3,7.7-7.4,7.7H174.9c-4.1,0-7.4-3.4-7.4-7.7l0,0c0-4.2,3.3-7.6,7.4-7.6H326
		C330.1,305.4,333.4,308.8,333.4,313L333.4,313z"/>
	<path class="st2" d="M333.4,338.4c0,4.2-3.3,7.7-7.4,7.7H174.9c-4.1,0-7.4-3.4-7.4-7.7l0,0c0-4.2,3.3-7.6,7.4-7.6H326
		C330.1,330.7,333.4,334.1,333.4,338.4L333.4,338.4z"/>
	<polygon class="st3" points="395,191.5 320.2,165.2 380.4,113.5 	"/>
	<g class="st4">
		<g>
			<g>
				<path class="st5" d="M241.5,239.2c-2.3,0-4.4-1.1-5.8-2.9l-18.8-24.8c-2.4-3.2-1.8-7.8,1.4-10.3c3.2-2.4,7.8-1.8,10.3,1.4
					l12.3,16.3l31-49.8c2.1-3.4,6.6-4.5,10.1-2.3c3.4,2.1,4.5,6.6,2.3,10.1l-36.7,58.9c-1.3,2-3.5,3.3-5.9,3.4
					C241.7,239.2,241.6,239.2,241.5,239.2z"/>
			</g>
		</g>
	</g>
</g>
<g id="Layer_2_2_" class="st0">
	<rect x="121" y="171.5" class="st6" width="298" height="251"/>
	<text transform="matrix(1 0 0 1 121 348.9979)" class="st7 st8 st9">24</text>
	<circle class="st10" cx="138.3" cy="91.8" r="17.3"/>
	<circle class="st10" cx="185.3" cy="91.8" r="17.3"/>
	<circle class="st10" cx="232.3" cy="91.8" r="17.3"/>
	<circle class="st10" cx="278.3" cy="91.8" r="17.3"/>
	<circle class="st10" cx="323.3" cy="91.8" r="17.3"/>
	<circle class="st10" cx="368.3" cy="91.8" r="17.3"/>
</g>
<path class="st11" d="M371.3,495.1H142c-73.7,0-133.5-59.8-133.5-133.5v-218C8.5,69.9,68.3,10.1,142,10.1h229.2
	c73.7,0,133.5,59.8,133.5,133.5v218C504.8,435.4,445,495.1,371.3,495.1z"/>
<g>
	<linearGradient id="SVGID_1_" gradientUnits="userSpaceOnUse" x1="256.5" y1="-7.1455" x2="256.5" y2="520.8391">
		<stop  offset="1.123600e-02" style="stop-color:#F5E19A"/>
		<stop  offset="0.5112" style="stop-color:#ECC91A"/>
		<stop  offset="1" style="stop-color:#BF9D17"/>
	</linearGradient>
	<path class="st12" d="M499,149.4v207c0,73.7-59.8,133.5-133.5,133.5h-218c-14.1,0-27.6-2.2-40.3-6.2
		C60.7,469,25.3,429.6,16.3,380.9c-0.8-4-1.3-8-1.7-12.1c-0.4-4.1-0.6-8.2-0.6-12.4v-207c0-33.2,12.1-63.5,32.2-86.9
		C70.7,34,107,15.9,147.5,15.9h218C439.2,15.9,499,75.7,499,149.4z"/>
	<linearGradient id="SVGID_2_" gradientUnits="userSpaceOnUse" x1="14" y1="252.8956" x2="499" y2="252.8956">
		<stop  offset="1.123600e-02" style="stop-color:#F5E19A"/>
		<stop  offset="0.5112" style="stop-color:#ECC91A"/>
		<stop  offset="1" style="stop-color:#BF9D17"/>
	</linearGradient>
	<path class="st13" d="M499,149.4v207c0,73.7-59.8,133.5-133.5,133.5h-218c-14.1,0-27.6-2.2-40.3-6.2
		C60.7,469,25.3,429.6,16.3,380.9c-1.5-8-2.3-16.2-2.3-24.5v-207c0-33.2,12.1-63.5,32.2-86.9C70.7,34,107,15.9,147.5,15.9h218
		C439.2,15.9,499,75.7,499,149.4z"/>
</g>
<path class="st14" d="M502,156.5v207c0,73.7-59.8,133.5-133.5,133.5h-218c-51.4,0-96.1-29.1-118.4-71.7c-3.3-11.7-5.1-24-5.1-36.8
	v-207C27,107.8,86.8,48,160.5,48h218c51.4,0,96.1,29.1,118.4,71.7C500.2,131.4,502,143.8,502,156.5z"/>
<path class="st14" d="M510,158.5v207c0,73.7-59.8,133.5-133.5,133.5h-218c-61,0-112.4-40.9-128.4-96.7c-3.3-11.7-5.1-24-5.1-36.8
	v-207C25,84.8,84.8,25,158.5,25h218c51.4,0,96.1,29.1,118.4,71.7C504.5,115.2,510,136.2,510,158.5z"/>
<image style="display:none;overflow:visible;enable-background:new    ;" width="696" height="428" xlink:href="C:\Users\win10\Downloads\macOSBigSur-696x428.png"  transform="matrix(0.75 0 0 0.75 -31 244.3898)">
</image>
<rect x="54" y="156.5" class="st15" width="587" height="199"/>
<title>001 - Accessibility</title>
<desc>Created with Sketch.</desc>
<image style="display:none;overflow:visible;enable-background:new    ;" width="128" height="128" xlink:href="../adobe/AdobeBridge.png"  transform="matrix(0.999 0 0 0.999 163.4 512)">
</image>
<image style="display:none;overflow:visible;enable-background:new    ;" width="128" height="128" xlink:href="../adobe/AdobeDreamweaver.png"  transform="matrix(0.999 0 0 0.999 163.4 512)">
</image>
<image style="display:none;overflow:visible;enable-background:new    ;" width="128" height="128" xlink:href="../adobe/AdobeEncore.png"  transform="matrix(0.999 0 0 0.999 163.4 512)">
</image>
<image style="display:none;overflow:visible;enable-background:new    ;" width="128" height="128" xlink:href="../adobe/AdobeFirework.png"  transform="matrix(0.999 0 0 0.999 163.4 512)">
</image>
<image style="display:none;overflow:visible;enable-background:new    ;" width="128" height="128" xlink:href="../adobe/AdobeFlash.png"  transform="matrix(0.999 0 0 0.999 163.4 512)">
</image>
<image style="display:none;overflow:visible;enable-background:new    ;" width="128" height="128" xlink:href="../adobe/AdobeFlashBuilder.png"  transform="matrix(0.999 0 0 0.999 163.4 512)">
</image>
<image style="display:none;overflow:visible;enable-background:new    ;" width="128" height="128" xlink:href="../adobe/Adobeillustrator.png"  transform="matrix(0.999 0 0 0.999 163.4 512)">
</image>
<image style="display:none;overflow:visible;enable-background:new    ;" width="128" height="128" xlink:href="../adobe/AdobeIndesign.png"  transform="matrix(0.999 0 0 0.999 163.4 512)">
</image>
<image style="display:none;overflow:visible;enable-background:new    ;" width="128" height="128" xlink:href="../adobe/AdobeLightroom.png"  transform="matrix(0.999 0 0 0.999 163.4 512)">
</image>
<image style="display:none;overflow:visible;enable-background:new    ;" width="128" height="128" xlink:href="../adobe/AdobePhotoshop.png"  transform="matrix(0.999 0 0 0.999 163.4 512)">
</image>
<image style="display:none;overflow:visible;enable-background:new    ;" width="128" height="128" xlink:href="../adobe/AdobePrelude.png"  transform="matrix(0.999 0 0 0.999 163.4 512)">
</image>
<image style="display:none;overflow:visible;enable-background:new    ;" width="128" height="128" xlink:href="../adobe/AdobePremierePro.png"  transform="matrix(0.999 0 0 0.999 163.4 512)">
</image>
<linearGradient id="SVGID_3_" gradientUnits="userSpaceOnUse" x1="46.8" y1="517.6306" x2="47.87" y2="517.6306">
	<stop  offset="0" style="stop-color:#5B57A5"/>
	<stop  offset="0.5" style="stop-color:#2E3092"/>
	<stop  offset="1" style="stop-color:#474374"/>
</linearGradient>
<path class="st16" d="M47.8,518l0.1,0.1c-0.4-0.4-0.7-0.7-1.1-1.1C47.1,517.4,47.4,517.7,47.8,518z"/>
<linearGradient id="SVGID_4_" gradientUnits="userSpaceOnUse" x1="47.99" y1="518.4006" x2="48.29" y2="518.4006">
	<stop  offset="0" style="stop-color:#5B57A5"/>
	<stop  offset="0.5" style="stop-color:#2E3092"/>
	<stop  offset="1" style="stop-color:#474374"/>
</linearGradient>
<path class="st17" d="M48,518.3c0.1,0,0.2,0.1,0.3,0.2c-0.1,0-0.1-0.1-0.2-0.1L48,518.3z"/>
<linearGradient id="SVGID_5_" gradientUnits="userSpaceOnUse" x1="48.35" y1="518.6306" x2="48.59" y2="518.6306">
	<stop  offset="0" style="stop-color:#5B57A5"/>
	<stop  offset="0.5" style="stop-color:#2E3092"/>
	<stop  offset="1" style="stop-color:#474374"/>
</linearGradient>
<path class="st18" d="M48.5,518.6l0.1,0.1c0,0,0,0-0.1,0c0,0-0.1-0.1-0.1-0.1C48.5,518.6,48.5,518.6,48.5,518.6z"/>
<linearGradient id="SVGID_6_" gradientUnits="userSpaceOnUse" x1="48.59" y1="526.0656" x2="64.48" y2="526.0656">
	<stop  offset="0" style="stop-color:#5B57A5"/>
	<stop  offset="0.5" style="stop-color:#2E3092"/>
	<stop  offset="1" style="stop-color:#474374"/>
</linearGradient>
<path class="st19" d="M64.3,533.3c0,0,0.1,0.1,0.1,0.1c0,0,0,0,0,0c-2.8-2.4-5.6-4.9-8.2-7.4c-2.5-2.4-5-4.7-7.5-7.2l-0.1-0.1
	c2.5,2.5,5,4.9,7.5,7.2C58.8,528.4,61.5,530.9,64.3,533.3z"/>
<path class="st20" d="M76.9,316.8V195.2c0-33.5,18.1-51.8,52-51.8h148.5c33.7,0,52,18.3,52,51.8v121.5c0,33.5-18.3,51.8-52,51.8
	H128.9C95.2,368.6,76.9,350.3,76.9,316.8z M339.4,219.9l65.3-53.2c4.5-4.3,10.5-6.9,16.7-7.3c8.9,0,14.9,6.2,14.9,17.2v163.2
	c0,11.1-6,17.2-14.9,17.2c-6.3-0.4-12.2-2.9-16.7-7.3l-65.3-53.7V219.9z"/>
<path class="st21" d="M90.2,370.3C78.3,366,61.7,351,65.3,341.2c3.6-9.8,25.9-10.6,37.8-6.3c11.9,4.3,16.1,14.8,12.6,24.6
	C112.1,369.3,102.1,374.7,90.2,370.3z"/>
<path class="st22" d="M90.2,370.3C78.3,366,61.7,351,65.3,341.2c3.6-9.8,25.9-10.6,37.8-6.3c11.9,4.3,16.1,14.8,12.6,24.6
	C112.1,369.3,102.1,374.7,90.2,370.3z"/>
<path class="st22" d="M103.1,334.9c-4.4-1.6-10.2-2.5-15.9-2.5c-2.1,13.1-2.2,25.6-0.4,36.4c1.2,0.6,2.3,1.1,3.4,1.5
	c11.9,4.3,21.9-1,25.4-10.8C119.2,349.8,114.9,339.3,103.1,334.9z"/>
<path class="st21" d="M256.5,370.3c11.9-4.3,28.5-19.3,24.9-29.1c-3.6-9.8-25.9-10.6-37.8-6.3c-11.9,4.3-16.1,14.8-12.6,24.6
	C234.7,369.3,244.7,374.7,256.5,370.3z"/>
<path class="st22" d="M256.5,370.3c11.9-4.3,28.5-19.3,24.9-29.1c-3.6-9.8-25.9-10.6-37.8-6.3c-11.9,4.3-16.1,14.8-12.6,24.6
	C234.7,369.3,244.7,374.7,256.5,370.3z"/>
<path class="st22" d="M243.7,334.9c4.4-1.6,10.2-2.5,15.9-2.5c2.1,13.1,2.2,25.6,0.4,36.4c-1.2,0.6-2.3,1.1-3.4,1.5
	c-11.9,4.3-21.9-1-25.4-10.8C227.5,349.8,231.8,339.3,243.7,334.9z"/>
<path class="st21" d="M173.4,414.4c37.9,0,68.5-7.6,77.8-38.4c12.2-40.3-11.8-126.9-77.8-126.9s-90,86.6-77.8,126.9
	C104.8,406.8,135.5,414.4,173.4,414.4z"/>
<path class="st23" d="M220.1,355.1c-2.3-4.7-1.3-10.4,2.4-14.1c6.3-6.4,10.2-15.3,9.9-25.1c-0.4-18.2-15.3-33.1-33.4-33.6
	c-8.2-0.2-15.7,2.4-21.7,6.9c-2.3,1.7-5.4,1.7-7.7,0c-6-4.5-13.5-7.1-21.7-6.9c-18.2,0.5-33,15.4-33.4,33.6
	c-0.2,9.8,3.6,18.7,9.9,25.1c3.7,3.7,4.7,9.4,2.4,14.1c-6.9,14-11.2,30.4-13.1,46.1c14.6,10.1,35.7,13.2,59.8,13.2
	s45.2-3.1,59.8-13.2C231.3,385.5,226.9,369,220.1,355.1z"/>
<path class="st24" d="M173.4,338.7c5.4,0,11.2-4.9,12.4-13.2c1.4-10.1-5.5-12.3-12.4-12.3c-6.8,0-13.8,2.2-12.4,12.3
	C162.2,333.8,168,338.7,173.4,338.7z"/>
<path class="st25" d="M175.9,338.3c-8.6-3.2-11.3-19-7.5-24.6c-4.8,1.1-8.4,4.2-7.4,11.8c1.2,8.3,7,13.2,12.4,13.2
	C174.2,338.7,175.1,338.6,175.9,338.3z"/>
<g>
	<ellipse class="st26" cx="138.3" cy="319.2" rx="11.6" ry="9.2"/>
	<ellipse class="st26" cx="208.5" cy="319.2" rx="11.6" ry="9.2"/>
</g>
<g>
	<path class="st21" d="M150.5,312.3c-1.8,0-3.2-1.4-3.2-3.2c0-1.3-1-2.3-2.3-2.3s-2.3,1-2.3,2.3c0,1.8-1.4,3.2-3.2,3.2
		s-3.2-1.4-3.2-3.2c0-4.8,3.9-8.7,8.7-8.7s8.7,3.9,8.7,8.7C153.7,310.9,152.3,312.3,150.5,312.3z"/>
	<path class="st21" d="M207.2,312.3c-1.8,0-3.2-1.4-3.2-3.2c0-1.3-1-2.3-2.3-2.3c-1.3,0-2.3,1-2.3,2.3c0,1.8-1.4,3.2-3.2,3.2
		s-3.2-1.4-3.2-3.2c0-4.8,3.9-8.7,8.7-8.7c4.8,0,8.7,3.9,8.7,8.7C210.4,310.9,209,312.3,207.2,312.3z"/>
</g>
<path class="st22" d="M144.1,255.6c-43.8,20.8-58.8,86.8-48.6,120.4c9.3,30.7,39.9,38.4,77.8,38.4c15.1,0,29.1-1.2,41-4.6
	C123.9,413.4,122.9,297.1,144.1,255.6z"/>
<g>
	<path class="st24" d="M157.4,421.5h-13.9c-4.2,0-7.6-3.4-7.6-7.6l0,0c0-4.2,3.4-7.6,7.6-7.6h13.9c4.2,0,7.6,3.4,7.6,7.6l0,0
		C165,418.1,161.6,421.5,157.4,421.5z"/>
	<path class="st24" d="M189.3,421.5h13.9c4.2,0,7.6-3.4,7.6-7.6l0,0c0-4.2-3.4-7.6-7.6-7.6h-13.9c-4.2,0-7.6,3.4-7.6,7.6l0,0
		C181.7,418.1,185.1,421.5,189.3,421.5z"/>
</g>
</svg>
