<?xml version="1.0" encoding="utf-8"?>
<!-- Generator: Adobe Illustrator 24.0.1, SVG Export Plug-In . SVG Version: 6.00 Build 0)  -->
<svg version="1.1" id="Layer_1" xmlns="http://www.w3.org/2000/svg" xmlns:xlink="http://www.w3.org/1999/xlink" x="0px" y="0px"
	 viewBox="0 0 512 512" style="enable-background:new 0 0 512 512;" xml:space="preserve">
<style type="text/css">
	.st0{display:none;}
	.st1{display:inline;fill:#200A7F;stroke:#18E5EA;stroke-width:20;stroke-miterlimit:10;}
	.st2{display:inline;fill:#EF0B79;}
	.st3{display:inline;fill:#18E5EA;}
	.st4{display:inline;}
	.st5{fill:#E9F21C;}
	.st6{display:inline;fill:none;}
	.st7{display:inline;fill:#EF3A24;}
	.st8{font-family:'MyriadPro-Regular';}
	.st9{font-size:250px;}
	.st10{display:inline;fill:#FFFFFF;}
	.st11{opacity:0.12;fill:#ABABAB;enable-background:new    ;}
	.st12{fill:url(#SVGID_1_);}
	.st13{fill:url(#SVGID_2_);stroke:url(#SVGID_3_);stroke-miterlimit:10;}
	.st14{display:none;opacity:8.000000e-02;fill:#EFEFEF;enable-background:new    ;}
	.st15{fill:none;}
	.st16{fill-rule:evenodd;clip-rule:evenodd;fill:url(#SVGID_4_);stroke:#FFFFFF;stroke-width:6;stroke-miterlimit:10;}
	.st17{fill-rule:evenodd;clip-rule:evenodd;fill:url(#SVGID_5_);stroke:#FFFFFF;stroke-width:6;stroke-miterlimit:10;}
	.st18{fill-rule:evenodd;clip-rule:evenodd;fill:url(#SVGID_6_);stroke:#FFFFFF;stroke-width:6;stroke-miterlimit:10;}
	.st19{fill-rule:evenodd;clip-rule:evenodd;fill:url(#SVGID_7_);stroke:#FFFFFF;stroke-width:6;stroke-miterlimit:10;}
	.st20{fill-rule:evenodd;clip-rule:evenodd;fill:url(#SVGID_8_);stroke:#FFFFFF;stroke-width:6;stroke-miterlimit:10;}
	.st21{fill-rule:evenodd;clip-rule:evenodd;fill:url(#SVGID_9_);stroke:#FFFFFF;stroke-width:6;stroke-miterlimit:10;}
</style>
<g id="Layer_3" class="st0">
	<path class="st1" d="M401.1,212.2c5.1,15.3,7.9,31.7,7.9,48.8c0,85.3-69.2,154.5-154.5,154.5S100,346.3,100,261
		s69.2-154.5,154.5-154.5c51.2,0,96.6,24.9,124.7,63.3"/>
	<path class="st2" d="M333.4,255.2c0,4.2-3.3,7.7-7.4,7.7H174.9c-4.1,0-7.4-3.4-7.4-7.7l0,0c0-4.2,3.3-7.7,7.4-7.7H326
		C330.1,247.5,333.4,250.9,333.4,255.2L333.4,255.2z"/>
	<path class="st2" d="M333.4,284.8c0,4.2-3.3,7.6-7.4,7.6H174.9c-4.1,0-7.4-3.4-7.4-7.6l0,0c0-4.2,3.3-7.6,7.4-7.6H326
		C330.1,277.1,333.4,280.6,333.4,284.8L333.4,284.8z"/>
	<path class="st2" d="M333.4,313c0,4.2-3.3,7.7-7.4,7.7H174.9c-4.1,0-7.4-3.4-7.4-7.7l0,0c0-4.2,3.3-7.6,7.4-7.6H326
		C330.1,305.4,333.4,308.8,333.4,313L333.4,313z"/>
	<path class="st2" d="M333.4,338.4c0,4.2-3.3,7.7-7.4,7.7H174.9c-4.1,0-7.4-3.4-7.4-7.7l0,0c0-4.2,3.3-7.6,7.4-7.6H326
		C330.1,330.7,333.4,334.1,333.4,338.4L333.4,338.4z"/>
	<polygon class="st3" points="395,191.5 320.2,165.2 380.4,113.5 	"/>
	<g class="st4">
		<g>
			<g>
				<path class="st5" d="M241.5,239.2c-2.3,0-4.4-1.1-5.8-2.9l-18.8-24.8c-2.4-3.2-1.8-7.8,1.4-10.3c3.2-2.4,7.8-1.8,10.3,1.4
					l12.3,16.3l31-49.8c2.1-3.4,6.6-4.5,10.1-2.3c3.4,2.1,4.5,6.6,2.3,10.1l-36.7,58.9c-1.3,2-3.5,3.3-5.9,3.4
					C241.7,239.2,241.6,239.2,241.5,239.2z"/>
			</g>
		</g>
	</g>
</g>
<g id="Layer_2_2_" class="st0">
	<rect x="121" y="171.5" class="st6" width="298" height="251"/>
	<text transform="matrix(1 0 0 1 121 348.9979)" class="st7 st8 st9">24</text>
	<circle class="st10" cx="138.3" cy="91.8" r="17.3"/>
	<circle class="st10" cx="185.3" cy="91.8" r="17.3"/>
	<circle class="st10" cx="232.3" cy="91.8" r="17.3"/>
	<circle class="st10" cx="278.3" cy="91.8" r="17.3"/>
	<circle class="st10" cx="323.3" cy="91.8" r="17.3"/>
	<circle class="st10" cx="368.3" cy="91.8" r="17.3"/>
</g>
<path class="st11" d="M371.3,495.1H142c-73.7,0-133.5-59.8-133.5-133.5v-218C8.5,69.9,68.3,10.1,142,10.1h229.2
	c73.7,0,133.5,59.8,133.5,133.5v218C504.8,435.4,445,495.1,371.3,495.1z"/>
<g>
	
		<linearGradient id="SVGID_1_" gradientUnits="userSpaceOnUse" x1="261.722" y1="421.4348" x2="250.722" y2="-90.5652" gradientTransform="matrix(1 0 0 -1 0 431.2756)">
		<stop  offset="0" style="stop-color:#FFE7A3"/>
		<stop  offset="0.5" style="stop-color:#FFCA05"/>
		<stop  offset="1" style="stop-color:#FAAC18"/>
	</linearGradient>
	<path class="st12" d="M365.5,489.9h-218C73.8,489.9,14,430.1,14,356.4v-207C14,75.7,73.8,15.9,147.5,15.9h218
		c73.7,0,133.5,59.8,133.5,133.5v207C499,430.1,439.2,489.9,365.5,489.9z"/>
	
		<radialGradient id="SVGID_2_" cx="256.5" cy="178.3756" r="239.7658" gradientTransform="matrix(1 0 0 -1 0 431.2756)" gradientUnits="userSpaceOnUse">
		<stop  offset="0" style="stop-color:#FFE7A3"/>
		<stop  offset="0.5" style="stop-color:#FFCA05"/>
		<stop  offset="1" style="stop-color:#FAAC18"/>
	</radialGradient>
	<radialGradient id="SVGID_3_" cx="256.5" cy="252.9" r="240.2657" gradientUnits="userSpaceOnUse">
		<stop  offset="0" style="stop-color:#FFE7A3"/>
		<stop  offset="0.5" style="stop-color:#FFCA05"/>
		<stop  offset="1" style="stop-color:#FAAC18"/>
	</radialGradient>
	<path class="st13" d="M365.5,489.9h-218C73.8,489.9,14,430.1,14,356.4v-207C14,75.7,73.8,15.9,147.5,15.9h218
		c73.7,0,133.5,59.8,133.5,133.5v207C499,430.1,439.2,489.9,365.5,489.9z"/>
</g>
<path class="st14" d="M502,156.5v207c0,73.7-59.8,133.5-133.5,133.5h-218c-51.4,0-96.1-29.1-118.4-71.7c-3.3-11.7-5.1-24-5.1-36.8
	v-207C27,107.8,86.8,48,160.5,48h218c51.4,0,96.1,29.1,118.4,71.7C500.2,131.4,502,143.8,502,156.5z"/>
<path class="st14" d="M510,158.5v207c0,73.7-59.8,133.5-133.5,133.5h-218c-61,0-112.4-40.9-128.4-96.7c-3.3-11.7-5.1-24-5.1-36.8
	v-207C25,84.8,84.8,25,158.5,25h218c51.4,0,96.1,29.1,118.4,71.7C504.5,115.2,510,136.2,510,158.5z"/>
<image style="display:none;overflow:visible;enable-background:new    ;" width="696" height="428" xlink:href="C:\Users\win10\Downloads\macOSBigSur-696x428.png"  transform="matrix(0.75 0 0 0.75 -31 244.3898)">
</image>
<rect x="54" y="156.5" class="st15" width="587" height="199"/>
<title>001 - Accessibility</title>
<desc>Created with Sketch.</desc>
<radialGradient id="SVGID_4_" cx="145.3651" cy="175.1207" r="77.6581" gradientTransform="matrix(0.9983 5.810041e-02 -5.810041e-02 0.9983 14.9295 -14.421)" gradientUnits="userSpaceOnUse">
	<stop  offset="0" style="stop-color:#FFE7A3"/>
	<stop  offset="0.5" style="stop-color:#FFCA05"/>
	<stop  offset="1" style="stop-color:#FAAC18"/>
</radialGradient>
<path class="st16" d="M224.6,201.9c10.2,18.8-3.8,41.6-25.2,41.1l-52.9-1.4l-52.9-1.4c-21.4-0.6-34.2-24.1-23-42.4l27.7-45.1
	l27.7-45.1c11.2-18.2,38-17.5,48.2,1.3l25.2,46.5L224.6,201.9z"/>
<radialGradient id="SVGID_5_" cx="148.2609" cy="336.2801" r="78.1993" gradientTransform="matrix(0.9983 5.810041e-02 -5.810041e-02 0.9983 14.9295 -14.421)" gradientUnits="userSpaceOnUse">
	<stop  offset="0" style="stop-color:#FFE7A3"/>
	<stop  offset="0.5" style="stop-color:#FFCA05"/>
	<stop  offset="1" style="stop-color:#FAAC18"/>
</radialGradient>
<path class="st17" d="M198,257.3c21.4-0.6,35.4,22.2,25.2,41l-25.2,46.5L173,391.4c-10.2,18.8-36.9,19.6-48.2,1.3l-27.7-45.1
	l-27.7-45.1c-11.2-18.2,1.5-41.8,22.9-42.4l52.9-1.5L198,257.3z"/>
<radialGradient id="SVGID_6_" cx="363.8235" cy="167.6886" r="77.8077" gradientTransform="matrix(0.9983 5.810041e-02 -5.810041e-02 0.9983 14.9295 -14.421)" gradientUnits="userSpaceOnUse">
	<stop  offset="0" style="stop-color:#FFE7A3"/>
	<stop  offset="0.5" style="stop-color:#FFCA05"/>
	<stop  offset="1" style="stop-color:#FAAC18"/>
</radialGradient>
<path class="st18" d="M312.5,245.8c-21.4-0.3-34.5-23.6-23.5-42l27.1-45.5l27.1-45.5c10.9-18.4,37.7-18,48.2,0.6l25.9,46.2
	l25.9,46.2c10.5,18.7-3.2,41.7-24.6,41.4l-52.9-0.7L312.5,245.8z"/>
<radialGradient id="SVGID_7_" cx="367.7046" cy="327.5419" r="77.8106" gradientTransform="matrix(0.9983 5.810041e-02 -5.810041e-02 0.9983 14.9295 -14.421)" gradientUnits="userSpaceOnUse">
	<stop  offset="0" style="stop-color:#FFE7A3"/>
	<stop  offset="0.5" style="stop-color:#FFCA05"/>
	<stop  offset="1" style="stop-color:#FAAC18"/>
</radialGradient>
<path class="st19" d="M288.4,302.3c-10.5-18.7,3.2-41.7,24.6-41.4l52.9,0.7l52.9,0.7c21.4,0.3,34.5,23.6,23.5,42l-27,45.5l-27,45.5
	c-10.9,18.4-37.7,18.1-48.2-0.6l-25.9-46.2L288.4,302.3z"/>
<radialGradient id="SVGID_8_" cx="266.7082" cy="369.7401" r="78.0096" gradientTransform="matrix(0.9983 5.810041e-02 -5.810041e-02 0.9983 14.9295 -14.421)" gradientUnits="userSpaceOnUse">
	<stop  offset="0" style="stop-color:#FFE7A3"/>
	<stop  offset="0.5" style="stop-color:#FFCA05"/>
	<stop  offset="1" style="stop-color:#FAAC18"/>
</radialGradient>
<path class="st20" d="M232.3,308.7c10.6-18.6,37.3-18.8,48.2-0.3l26.8,45.6l26.8,45.6c10.8,18.5-2.4,41.7-23.8,41.9l-52.9,0.4
	l-52.9,0.4c-21.4,0.1-35-22.9-24.4-41.6l26.1-46L232.3,308.7z"/>
<radialGradient id="SVGID_9_" cx="248.2342" cy="128.8809" r="77.8239" gradientTransform="matrix(0.9983 5.810041e-02 -5.810041e-02 0.9983 14.9295 -14.421)" gradientUnits="userSpaceOnUse">
	<stop  offset="0" style="stop-color:#FFE7A3"/>
	<stop  offset="0.5" style="stop-color:#FFCA05"/>
	<stop  offset="1" style="stop-color:#FAAC18"/>
</radialGradient>
<path class="st21" d="M280.7,190c-10.9,18.4-37.7,18.1-48.2-0.6l-25.9-46.1l-25.9-46.1c-10.5-18.7,3.2-41.7,24.6-41.4l52.9,0.6
	l52.9,0.6c21.4,0.2,34.5,23.6,23.6,42l-27,45.5L280.7,190z"/>
</svg>
