<?xml version="1.0" encoding="utf-8"?>
<!-- Generator: Adobe Illustrator 24.0.1, SVG Export Plug-In . SVG Version: 6.00 Build 0)  -->
<svg version="1.1" id="Layer_1" xmlns="http://www.w3.org/2000/svg" xmlns:xlink="http://www.w3.org/1999/xlink" x="0px" y="0px"
	 viewBox="0 0 512 512" style="enable-background:new 0 0 512 512;" xml:space="preserve">
<style type="text/css">
	.st0{display:none;}
	.st1{display:inline;fill:#200A7F;stroke:#18E5EA;stroke-width:20;stroke-miterlimit:10;}
	.st2{display:inline;fill:#EF0B79;}
	.st3{display:inline;fill:#18E5EA;}
	.st4{display:inline;}
	.st5{fill:#E9F21C;}
	.st6{display:inline;fill:none;}
	.st7{display:inline;fill:#EF3A24;}
	.st8{font-family:'MyriadPro-Regular';}
	.st9{font-size:250px;}
	.st10{display:inline;fill:#FFFFFF;}
	.st11{opacity:0.12;fill:#ABABAB;enable-background:new    ;}
	.st12{fill:url(#SVGID_1_);}
	.st13{fill:url(#SVGID_2_);}
	.st14{display:none;opacity:8.000000e-02;fill:#EFEFEF;enable-background:new    ;}
	.st15{fill:none;}
	.st16{fill:url(#Shape_1_);}
	.st17{fill:url(#Shape_2_);}
	.st18{fill:url(#Shape_3_);}
	.st19{fill:url(#Shape_4_);}
	.st20{fill:url(#Shape_5_);}
	.st21{fill:url(#Shape_6_);}
	.st22{fill:url(#Shape_7_);}
</style>
<g id="Layer_3" class="st0">
	<path class="st1" d="M401.1,212.2c5.1,15.3,7.9,31.7,7.9,48.8c0,85.3-69.2,154.5-154.5,154.5S100,346.3,100,261
		s69.2-154.5,154.5-154.5c51.2,0,96.6,24.9,124.7,63.3"/>
	<path class="st2" d="M333.4,255.2c0,4.2-3.3,7.7-7.4,7.7H174.9c-4.1,0-7.4-3.4-7.4-7.7l0,0c0-4.2,3.3-7.7,7.4-7.7H326
		C330.1,247.5,333.4,250.9,333.4,255.2L333.4,255.2z"/>
	<path class="st2" d="M333.4,284.8c0,4.2-3.3,7.6-7.4,7.6H174.9c-4.1,0-7.4-3.4-7.4-7.6l0,0c0-4.2,3.3-7.6,7.4-7.6H326
		C330.1,277.1,333.4,280.6,333.4,284.8L333.4,284.8z"/>
	<path class="st2" d="M333.4,313c0,4.2-3.3,7.7-7.4,7.7H174.9c-4.1,0-7.4-3.4-7.4-7.7l0,0c0-4.2,3.3-7.6,7.4-7.6H326
		C330.1,305.4,333.4,308.8,333.4,313L333.4,313z"/>
	<path class="st2" d="M333.4,338.4c0,4.2-3.3,7.7-7.4,7.7H174.9c-4.1,0-7.4-3.4-7.4-7.7l0,0c0-4.2,3.3-7.6,7.4-7.6H326
		C330.1,330.7,333.4,334.1,333.4,338.4L333.4,338.4z"/>
	<polygon class="st3" points="395,191.5 320.2,165.2 380.4,113.5 	"/>
	<g class="st4">
		<g>
			<g>
				<path class="st5" d="M241.5,239.2c-2.3,0-4.4-1.1-5.8-2.9l-18.8-24.8c-2.4-3.2-1.8-7.8,1.4-10.3c3.2-2.4,7.8-1.8,10.3,1.4
					l12.3,16.3l31-49.8c2.1-3.4,6.6-4.5,10.1-2.3c3.4,2.1,4.5,6.6,2.3,10.1l-36.7,58.9c-1.3,2-3.5,3.3-5.9,3.4
					C241.7,239.2,241.6,239.2,241.5,239.2z"/>
			</g>
		</g>
	</g>
</g>
<g id="Layer_2_2_" class="st0">
	<rect x="121" y="171.5" class="st6" width="298" height="251"/>
	<text transform="matrix(1 0 0 1 121 348.9979)" class="st7 st8 st9">24</text>
	<circle class="st10" cx="138.3" cy="91.8" r="17.3"/>
	<circle class="st10" cx="185.3" cy="91.8" r="17.3"/>
	<circle class="st10" cx="232.3" cy="91.8" r="17.3"/>
	<circle class="st10" cx="278.3" cy="91.8" r="17.3"/>
	<circle class="st10" cx="323.3" cy="91.8" r="17.3"/>
	<circle class="st10" cx="368.3" cy="91.8" r="17.3"/>
</g>
<path class="st11" d="M371.3,495.1H142c-73.7,0-133.5-59.8-133.5-133.5v-218C8.5,69.9,68.3,10.1,142,10.1h229.2
	c73.7,0,133.5,59.8,133.5,133.5v218C504.8,435.4,445,495.1,371.3,495.1z"/>
<g>
	
		<linearGradient id="SVGID_1_" gradientUnits="userSpaceOnUse" x1="261.722" y1="421.4348" x2="250.722" y2="-90.5652" gradientTransform="matrix(1 0 0 -1 0 431.2756)">
		<stop  offset="0" style="stop-color:#FFF7A9"/>
		<stop  offset="0.5" style="stop-color:#FFF100"/>
		<stop  offset="1" style="stop-color:#FFD700"/>
	</linearGradient>
	<path class="st12" d="M365.5,489.9h-218C73.8,489.9,14,430.1,14,356.4v-207C14,75.7,73.8,15.9,147.5,15.9h218
		c73.7,0,133.5,59.8,133.5,133.5v207C499,430.1,439.2,489.9,365.5,489.9z"/>
	<linearGradient id="SVGID_2_" gradientUnits="userSpaceOnUse" x1="257.4808" y1="5.2537" x2="255.4808" y2="510.2537">
		<stop  offset="0" style="stop-color:#FFF7A9"/>
		<stop  offset="0.5" style="stop-color:#FFF100"/>
		<stop  offset="1" style="stop-color:#FFD700"/>
	</linearGradient>
	<path class="st13" d="M365.5,489.9h-218C73.8,489.9,14,430.1,14,356.4v-207C14,75.7,73.8,15.9,147.5,15.9h218
		c73.7,0,133.5,59.8,133.5,133.5v207C499,430.1,439.2,489.9,365.5,489.9z"/>
</g>
<path class="st14" d="M502,156.5v207c0,73.7-59.8,133.5-133.5,133.5h-218c-51.4,0-96.1-29.1-118.4-71.7c-3.3-11.7-5.1-24-5.1-36.8
	v-207C27,107.8,86.8,48,160.5,48h218c51.4,0,96.1,29.1,118.4,71.7C500.2,131.4,502,143.8,502,156.5z"/>
<path class="st14" d="M510,158.5v207c0,73.7-59.8,133.5-133.5,133.5h-218c-61,0-112.4-40.9-128.4-96.7c-3.3-11.7-5.1-24-5.1-36.8
	v-207C25,84.8,84.8,25,158.5,25h218c51.4,0,96.1,29.1,118.4,71.7C504.5,115.2,510,136.2,510,158.5z"/>
<image style="display:none;overflow:visible;enable-background:new    ;" width="696" height="428" xlink:href="C:\Users\win10\Downloads\macOSBigSur-696x428.png"  transform="matrix(0.75 0 0 0.75 -31 244.3898)">
</image>
<rect x="54" y="156.5" class="st15" width="587" height="199"/>
<title>001 - Accessibility</title>
<desc>Created with Sketch.</desc>
<g id="Page-1">
	<g id="_x30_06---Gems">
		<linearGradient id="Shape_1_" gradientUnits="userSpaceOnUse" x1="78.0334" y1="268.0333" x2="436.4335" y2="268.0333">
			<stop  offset="0" style="stop-color:#D1E4A5"/>
			<stop  offset="0.5" style="stop-color:#ACD479"/>
			<stop  offset="1" style="stop-color:#76B83F"/>
		</linearGradient>
		<path id="Shape" class="st16" d="M376.7,105.9H257.2H137.8L78,199.8l179.2,230.4l179.2-230.4L376.7,105.9z"/>
		<linearGradient id="Shape_2_" gradientUnits="userSpaceOnUse" x1="78.0334" y1="152.8333" x2="197.5001" y2="152.8333">
			<stop  offset="0" style="stop-color:#D1E4A5"/>
			<stop  offset="0.5" style="stop-color:#ACD479"/>
			<stop  offset="1" style="stop-color:#76B83F"/>
		</linearGradient>
		<path id="Shape_9_" class="st17" d="M197.5,199.8H78l59.7-93.9L197.5,199.8z"/>
		<linearGradient id="Shape_3_" gradientUnits="userSpaceOnUse" x1="316.9668" y1="152.8333" x2="436.4335" y2="152.8333">
			<stop  offset="0" style="stop-color:#D1E4A5"/>
			<stop  offset="0.5" style="stop-color:#ACD479"/>
			<stop  offset="1" style="stop-color:#76B83F"/>
		</linearGradient>
		<path id="Shape_10_" class="st18" d="M436.4,199.8H317l59.7-93.9L436.4,199.8z"/>
		<linearGradient id="Shape_4_" gradientUnits="userSpaceOnUse" x1="257.2335" y1="152.8333" x2="376.7001" y2="152.8333">
			<stop  offset="0" style="stop-color:#D1E4A5"/>
			<stop  offset="0.5" style="stop-color:#ACD479"/>
			<stop  offset="1" style="stop-color:#76B83F"/>
		</linearGradient>
		<path id="Shape_11_" class="st19" d="M376.7,105.9L317,199.8l-59.7-93.9H376.7z"/>
		<linearGradient id="Shape_5_" gradientUnits="userSpaceOnUse" x1="137.7668" y1="152.8333" x2="257.2335" y2="152.8333">
			<stop  offset="0" style="stop-color:#D1E4A5"/>
			<stop  offset="0.5" style="stop-color:#ACD479"/>
			<stop  offset="1" style="stop-color:#76B83F"/>
		</linearGradient>
		<path id="Shape_12_" class="st20" d="M257.2,105.9l-59.7,93.9l-59.7-93.9H257.2z"/>
		<linearGradient id="Shape_6_" gradientUnits="userSpaceOnUse" x1="197.5001" y1="152.8333" x2="316.9668" y2="152.8333">
			<stop  offset="0" style="stop-color:#D1E4A5"/>
			<stop  offset="0.5" style="stop-color:#ACD479"/>
			<stop  offset="1" style="stop-color:#76B83F"/>
		</linearGradient>
		<path id="Shape_13_" class="st21" d="M317,199.8H197.5l59.7-93.9L317,199.8z"/>
		<linearGradient id="Shape_7_" gradientUnits="userSpaceOnUse" x1="197.5001" y1="314.9667" x2="316.9668" y2="314.9667">
			<stop  offset="0" style="stop-color:#D1E4A5"/>
			<stop  offset="0.5" style="stop-color:#ACD479"/>
			<stop  offset="1" style="stop-color:#76B83F"/>
		</linearGradient>
		<path id="Shape_14_" class="st22" d="M317,199.8L303.7,251l-11.1,43l-35.3,136.2l-59.7-230.4H317z"/>
	</g>
</g>
</svg>
