<?xml version="1.0" encoding="utf-8"?>
<!-- Generator: Adobe Illustrator 24.0.1, SVG Export Plug-In . SVG Version: 6.00 Build 0)  -->
<svg version="1.1" id="Layer_1" xmlns="http://www.w3.org/2000/svg" xmlns:xlink="http://www.w3.org/1999/xlink" x="0px" y="0px"
	 viewBox="0 0 512 512" style="enable-background:new 0 0 512 512;" xml:space="preserve">
<style type="text/css">
	.st0{display:none;}
	.st1{display:inline;fill:#200A7F;stroke:#18E5EA;stroke-width:20;stroke-miterlimit:10;}
	.st2{display:inline;fill:#EF0B79;}
	.st3{display:inline;fill:#18E5EA;}
	.st4{display:inline;}
	.st5{fill:#E9F21C;}
	.st6{display:inline;fill:none;}
	.st7{display:inline;fill:#EF3A24;}
	.st8{font-family:'MyriadPro-Regular';}
	.st9{font-size:250px;}
	.st10{display:inline;fill:#FFFFFF;}
	.st11{opacity:0.12;fill:#ABABAB;enable-background:new    ;}
	.st12{fill:url(#SVGID_1_);}
	.st13{display:none;opacity:8.000000e-02;fill:#EFEFEF;enable-background:new    ;}
	.st14{display:none;fill:#FFFFFF;}
	.st15{fill:#E78244;}
</style>
<g id="Layer_3" class="st0">
	<path class="st1" d="M401.1,212.2c5.1,15.3,7.9,31.7,7.9,48.8c0,85.3-69.2,154.5-154.5,154.5S100,346.3,100,261
		s69.2-154.5,154.5-154.5c51.2,0,96.6,24.9,124.7,63.3"/>
	<path class="st2" d="M333.4,255.2c0,4.2-3.3,7.7-7.4,7.7H174.9c-4.1,0-7.4-3.4-7.4-7.7l0,0c0-4.2,3.3-7.7,7.4-7.7H326
		C330.1,247.5,333.4,250.9,333.4,255.2L333.4,255.2z"/>
	<path class="st2" d="M333.4,284.8c0,4.2-3.3,7.6-7.4,7.6H174.9c-4.1,0-7.4-3.4-7.4-7.6l0,0c0-4.2,3.3-7.6,7.4-7.6H326
		C330.1,277.1,333.4,280.6,333.4,284.8L333.4,284.8z"/>
	<path class="st2" d="M333.4,313c0,4.2-3.3,7.7-7.4,7.7H174.9c-4.1,0-7.4-3.4-7.4-7.7l0,0c0-4.2,3.3-7.6,7.4-7.6H326
		C330.1,305.4,333.4,308.8,333.4,313L333.4,313z"/>
	<path class="st2" d="M333.4,338.4c0,4.2-3.3,7.7-7.4,7.7H174.9c-4.1,0-7.4-3.4-7.4-7.7l0,0c0-4.2,3.3-7.6,7.4-7.6H326
		C330.1,330.7,333.4,334.1,333.4,338.4L333.4,338.4z"/>
	<polygon class="st3" points="395,191.5 320.2,165.2 380.4,113.5 	"/>
	<g class="st4">
		<g>
			<g>
				<path class="st5" d="M241.5,239.2c-2.3,0-4.4-1.1-5.8-2.9l-18.8-24.8c-2.4-3.2-1.8-7.8,1.4-10.3c3.2-2.4,7.8-1.8,10.3,1.4
					l12.3,16.3l31-49.8c2.1-3.4,6.6-4.5,10.1-2.3c3.4,2.1,4.5,6.6,2.3,10.1l-36.7,58.9c-1.3,2-3.5,3.3-5.9,3.4
					C241.7,239.2,241.6,239.2,241.5,239.2z"/>
			</g>
		</g>
	</g>
</g>
<g id="Layer_2_2_" class="st0">
	<rect x="121" y="171.5" class="st6" width="298" height="251"/>
	<text transform="matrix(1 0 0 1 121 348.9979)" class="st7 st8 st9">24</text>
	<circle class="st10" cx="138.3" cy="91.8" r="17.3"/>
	<circle class="st10" cx="185.3" cy="91.8" r="17.3"/>
	<circle class="st10" cx="232.3" cy="91.8" r="17.3"/>
	<circle class="st10" cx="278.3" cy="91.8" r="17.3"/>
	<circle class="st10" cx="323.3" cy="91.8" r="17.3"/>
	<circle class="st10" cx="368.3" cy="91.8" r="17.3"/>
</g>
<path class="st11" d="M371.3,495.1H142c-73.7,0-133.5-59.8-133.5-133.5v-218C8.5,69.9,68.3,10.1,142,10.1h229.2
	c73.7,0,133.5,59.8,133.5,133.5v218C504.8,435.4,445,495.1,371.3,495.1z"/>
<linearGradient id="SVGID_1_" gradientUnits="userSpaceOnUse" x1="256.5" y1="490.9732" x2="256.5" y2="15.3804">
	<stop  offset="0" style="stop-color:#6CB5E4"/>
	<stop  offset="9.145045e-02" style="stop-color:#63B0E1"/>
	<stop  offset="0.2435" style="stop-color:#49A3D9"/>
	<stop  offset="0.4362" style="stop-color:#208DCC"/>
	<stop  offset="0.5674" style="stop-color:#007CC2"/>
	<stop  offset="1" style="stop-color:#0059A9"/>
</linearGradient>
<path class="st12" d="M499,149.4v207c0,50.1-27.7,93.9-68.6,116.7c-19.2,10.7-41.4,16.8-64.9,16.8h-218
	C73.8,489.9,14,430.1,14,356.4v-207C14,75.7,73.8,15.9,147.5,15.9h218C439.2,15.9,499,75.7,499,149.4z"/>
<path class="st13" d="M502,156.5v207c0,73.7-59.8,133.5-133.5,133.5h-218c-51.4,0-96.1-29.1-118.4-71.7c-3.3-11.7-5.1-24-5.1-36.8
	v-207C27,107.8,86.8,48,160.5,48h218c51.4,0,96.1,29.1,118.4,71.7C500.2,131.4,502,143.8,502,156.5z"/>
<path class="st13" d="M510,158.5v207c0,73.7-59.8,133.5-133.5,133.5h-218c-61,0-112.4-40.9-128.4-96.7c-3.3-11.7-5.1-24-5.1-36.8
	v-207C25,84.8,84.8,25,158.5,25h218c51.4,0,96.1,29.1,118.4,71.7C504.5,115.2,510,136.2,510,158.5z"/>
<image style="display:none;overflow:visible;enable-background:new    ;" width="696" height="428" xlink:href="../../Downloads/macOSBigSur-696x428.png"  transform="matrix(0.75 0 0 0.75 -31 244.3898)">
</image>
<path class="st14" d="M129,277.4c68.7,15.7,137.4,31.3,206.1,47"/>
<path class="st15" d="M477.5,395.2c-2.8,18.1-5.5,37.5-30.7,63c-5.5,5.6-11,10.5-16.4,14.8c-19.2,10.7-41.4,16.8-64.9,16.8h-218
	C73.8,489.9,14,430.1,14,356.4v-159c1.8-3,4-6.5,6.6-10.1c0-1.3-0.2-2.7-0.2-4.1c-1.2-17.6,0.8-31.5,2.8-41.6
	c1.4-6.4,11.7-38.6,23-46.6C47,107,55,135,75,144.9c16.3-5.4,35.8-6.8,58.8-0.9c0,0,0.1-0.1,0.1-0.1C143,131,175,107,201.2,115.4
	c-14.2,7.6-29.8,32.4-34.5,49.9c0.5,1.2,1.1,2.7,2,4.4c0.7,1.1,1.5,2.4,2.3,3.7c4.2,6.1,11.2,12.5,22,12.5
	c39.3-0.3,42.2,2.6,42.4,7.5c0.3,6.7-0.9,11.4-2.7,14.7c-2.4,5.2-6.3,9.6-10.1,12.5c-2.8,2.1-39.7,21.9-41,28.3c0,0,0,0,0,0.1
	c0.7,1.3,5.5,22-1,34.4c-5.5-4.5-15.8-8.8-18.6-9.8c-0.2,0.1-0.5,0.1-0.7,0.2c1,1.3,2.7,3.8,2.7,3.8s-2.2-1.2-5.7-2.5
	c-6.5,3.7-10,11.7-10,17.6c0,7.4-1.6,19.3,22.9,34.2c0.4,0.3-3.7-0.8-3.3-0.5c2.2,1.6,11.3,5.9,16.2,7.7c1.7,1.1-5.3-0.8-3.7,0.1
	c1.7,0.8,3.3,1.6,4.8,2.2c25.8,10.5,41.5-4.6,59.9-9.3c24-6.2,41.7,5.4,49,13.9c7.3,8.6,1,18.2-8.3,16.1
	c-9.4-2.2-19.9,6.9-37.5,19.3c-17.5,12.3-47.8,17.4-76.2,10.3c7,6.8,19.1,20.1,28.4,23.1c10.7,3.5,25.5,2,31.7,8.9
	c-6.2-3.7-14.2-1.8-19.6-1.1c37,19,64.9,13.8,71.4,12.8c16-2.4,23.1-7.9,25.9-9.9c-0.7,4-3.2,8.1-6.3,9.1c3.3,2.4,9.8-6.1,17-13.7
	c2-2.1,3.9-3.8,5.7-5.4c0,0,0,0,0,0c0,0.1-3.4,4.9-3.1,4.6c2.1-1.6,3.6-3.3,4.8-5c3-4.3,7.7-6,7.7-6c0.8,2.2,0.5,5.5,0.2,8.7
	c0,0.1,0.7,0.7,2.1,0.8c5,0.9,16.5-6.8,27.5-31.6c14.6-32.8,15.4-55.8,15.4-55.8c1.8,4.1,5,10.8,6,19.8c4.8-19.6,11.7-35.4,3.8-109
	c7.3,6.6,17.6,25.5,23.2,37.6c3.9-75-32.7-124.5-54.6-141.2c14.6,1.1,36.2,14.9,48.8,28.2c-11.2-24.1-28.8-51.2-76-83.2
	c60.8,17.2,101,57.9,125.6,100.4c0.3-14.9-9.2-47.3-21-56.4c12.8,9,32.4,37.8,38.6,69.9c9.5,49.5,3.7,104.4-5.5,129.4
	c28.6-18.1,31.4-54.2,22.4-89.8c5,14.6,7,30,7,45.4c0,44.5-17,88.1-27.2,106.7c-10.4,18.8-29.5,34.7-43.6,61.9
	C451.3,433.2,473.3,419,477.5,395.2z"/>
</svg>
