<?xml version="1.0" encoding="utf-8"?>
<!-- Generator: Adobe Illustrator 24.0.1, SVG Export Plug-In . SVG Version: 6.00 Build 0)  -->
<svg version="1.1" id="Layer_1" xmlns="http://www.w3.org/2000/svg" xmlns:xlink="http://www.w3.org/1999/xlink" x="0px" y="0px"
	 viewBox="0 0 512 512" style="enable-background:new 0 0 512 512;" xml:space="preserve">
<style type="text/css">
	.st0{display:none;}
	.st1{display:inline;fill:#200A7F;stroke:#18E5EA;stroke-width:20;stroke-miterlimit:10;}
	.st2{display:inline;fill:#EF0B79;}
	.st3{display:inline;fill:#18E5EA;}
	.st4{display:inline;}
	.st5{fill:#E9F21C;}
	.st6{display:inline;fill:none;}
	.st7{display:inline;fill:#EF3A24;}
	.st8{font-family:'MyriadPro-Regular';}
	.st9{font-size:250px;}
	.st10{display:inline;fill:#FFFFFF;}
	.st11{opacity:0.12;fill:#ABABAB;enable-background:new    ;}
	.st12{fill:url(#SVGID_1_);}
	.st13{display:none;opacity:8.000000e-02;fill:#EFEFEF;enable-background:new    ;}
	.st14{fill:#FFFFFF;}
</style>
<g id="Layer_3" class="st0">
	<path class="st1" d="M401.1,212.2c5.1,15.3,7.9,31.7,7.9,48.8c0,85.3-69.2,154.5-154.5,154.5S100,346.3,100,261
		s69.2-154.5,154.5-154.5c51.2,0,96.6,24.9,124.7,63.3"/>
	<path class="st2" d="M333.4,255.2c0,4.2-3.3,7.7-7.4,7.7H174.9c-4.1,0-7.4-3.4-7.4-7.7l0,0c0-4.2,3.3-7.7,7.4-7.7H326
		C330.1,247.5,333.4,250.9,333.4,255.2L333.4,255.2z"/>
	<path class="st2" d="M333.4,284.8c0,4.2-3.3,7.6-7.4,7.6H174.9c-4.1,0-7.4-3.4-7.4-7.6l0,0c0-4.2,3.3-7.6,7.4-7.6H326
		C330.1,277.1,333.4,280.6,333.4,284.8L333.4,284.8z"/>
	<path class="st2" d="M333.4,313c0,4.2-3.3,7.7-7.4,7.7H174.9c-4.1,0-7.4-3.4-7.4-7.7l0,0c0-4.2,3.3-7.6,7.4-7.6H326
		C330.1,305.4,333.4,308.8,333.4,313L333.4,313z"/>
	<path class="st2" d="M333.4,338.4c0,4.2-3.3,7.7-7.4,7.7H174.9c-4.1,0-7.4-3.4-7.4-7.7l0,0c0-4.2,3.3-7.6,7.4-7.6H326
		C330.1,330.7,333.4,334.1,333.4,338.4L333.4,338.4z"/>
	<polygon class="st3" points="395,191.5 320.2,165.2 380.4,113.5 	"/>
	<g class="st4">
		<g>
			<g>
				<path class="st5" d="M241.5,239.2c-2.3,0-4.4-1.1-5.8-2.9l-18.8-24.8c-2.4-3.2-1.8-7.8,1.4-10.3c3.2-2.4,7.8-1.8,10.3,1.4
					l12.3,16.3l31-49.8c2.1-3.4,6.6-4.5,10.1-2.3c3.4,2.1,4.5,6.6,2.3,10.1l-36.7,58.9c-1.3,2-3.5,3.3-5.9,3.4
					C241.7,239.2,241.6,239.2,241.5,239.2z"/>
			</g>
		</g>
	</g>
</g>
<g id="Layer_2_2_" class="st0">
	<rect x="121" y="171.5" class="st6" width="298" height="251"/>
	<text transform="matrix(1 0 0 1 121 348.9979)" class="st7 st8 st9">24</text>
	<circle class="st10" cx="138.3" cy="91.8" r="17.3"/>
	<circle class="st10" cx="185.3" cy="91.8" r="17.3"/>
	<circle class="st10" cx="232.3" cy="91.8" r="17.3"/>
	<circle class="st10" cx="278.3" cy="91.8" r="17.3"/>
	<circle class="st10" cx="323.3" cy="91.8" r="17.3"/>
	<circle class="st10" cx="368.3" cy="91.8" r="17.3"/>
</g>
<path class="st11" d="M371.3,495.1H142c-73.7,0-133.5-59.8-133.5-133.5v-218C8.5,69.9,68.3,10.1,142,10.1h229.2
	c73.7,0,133.5,59.8,133.5,133.5v218C504.8,435.4,445,495.1,371.3,495.1z"/>
<linearGradient id="SVGID_1_" gradientUnits="userSpaceOnUse" x1="261.722" y1="503.4348" x2="250.722" y2="-8.5652" gradientTransform="matrix(1 0 0 -1 0 513.2756)">
	<stop  offset="0" style="stop-color:#FFF33B"/>
	<stop  offset="4.010540e-02" style="stop-color:#FEE72E"/>
	<stop  offset="0.1171" style="stop-color:#FED51B"/>
	<stop  offset="0.1964" style="stop-color:#FDCA10"/>
	<stop  offset="0.2809" style="stop-color:#FDC70C"/>
	<stop  offset="0.6685" style="stop-color:#F3903F"/>
	<stop  offset="0.8876" style="stop-color:#ED683C"/>
	<stop  offset="1" style="stop-color:#E93E3A"/>
</linearGradient>
<path class="st12" d="M365.5,489.9h-218C73.8,489.9,14,430.1,14,356.4v-207C14,75.7,73.8,15.9,147.5,15.9h218
	c73.7,0,133.5,59.8,133.5,133.5v207C499,430.1,439.2,489.9,365.5,489.9z"/>
<path class="st13" d="M502,156.5v207c0,73.7-59.8,133.5-133.5,133.5h-218c-51.4,0-96.1-29.1-118.4-71.7c-3.3-11.7-5.1-24-5.1-36.8
	v-207C27,107.8,86.8,48,160.5,48h218c51.4,0,96.1,29.1,118.4,71.7C500.2,131.4,502,143.8,502,156.5z"/>
<path class="st13" d="M510,158.5v207c0,73.7-59.8,133.5-133.5,133.5h-218c-61,0-112.4-40.9-128.4-96.7c-3.3-11.7-5.1-24-5.1-36.8
	v-207C25,84.8,84.8,25,158.5,25h218c51.4,0,96.1,29.1,118.4,71.7C504.5,115.2,510,136.2,510,158.5z"/>
<g>
	<g>
		<path class="st14" d="M239.5,245c-2.1,0-3.9,1.7-3.9,3.9v60.4c0,2.1,1.7,3.9,3.9,3.9h23.9c2.1,0,3.9-1.7,3.9-3.9v-60.4
			c0-2.1-1.7-3.9-3.9-3.9h-2.3v13.9c0,5.3-4.3,9.7-9.7,9.7c-5.3,0-9.7-4.3-9.7-9.7V245H239.5z M242.8,292.5c0-3.6,2.9-6.5,6.5-6.5
			h4.5c3.6,0,6.5,2.9,6.5,6.5v5.8c0,3.6-2.9,6.5-6.5,6.5h-4.5c-3.6,0-6.5-2.9-6.5-6.5L242.8,292.5L242.8,292.5z"/>
		<path class="st14" d="M251.5,266c3.9,0,7.1-3.2,7.1-7.1v-23.6c0-3.9-3.2-7.1-7.1-7.1c-3.9,0-7.1,3.2-7.1,7.1v23.6
			C244.4,262.8,247.6,266,251.5,266z"/>
		<path class="st14" d="M225.1,69.5c-1.4-3.6-2.7-6.9-4.1-10.1l-14.7,6.2c1.3,3,2.6,6.2,3.8,9.6L225.1,69.5z"/>
		<path class="st14" d="M216.6,49.4c-1.7-3.6-3.3-6.9-4.8-9.8L197.7,47c1.4,2.8,3,5.8,4.5,9.2L216.6,49.4z"/>
		<path class="st14" d="M228.5,145.2c0.5,3.4,1,6.8,1.5,10.3l15.8-2c-0.5-3.6-1-7.2-1.5-10.7L228.5,145.2z"/>
		<path class="st14" d="M249.1,196.6c-0.1-3.6-0.2-7.3-0.4-10.8l-15.9,0.8c0.2,3.4,0.3,6.9,0.4,10.4L249.1,196.6z"/>
		<path class="st14" d="M231.2,165.8c0.3,3.4,0.7,6.8,0.9,10.4L248,175c-0.3-3.6-0.6-7.2-1-10.8L231.2,165.8z"/>
		<path class="st14" d="M232.2,90c-1.1-3.6-2.2-7-3.4-10.3l-15,5.2c1.1,3.2,2.2,6.4,3.2,9.8L232.2,90z"/>
		<path class="st14" d="M187.5,29.7c0,0,2.1,2.8,5.3,8.3l13.7-8.1c-3.7-6.2-6.1-9.5-6.2-9.7L187.5,29.7z"/>
		<path class="st14" d="M224.8,124.8c0.7,3.3,1.4,6.7,2,10.2l15.6-2.8c-0.7-3.6-1.4-7.2-2.1-10.6L224.8,124.8z"/>
		<path class="st14" d="M237.9,110.9c-0.9-3.6-1.8-7.1-2.7-10.5l-15.3,4.2c0.9,3.2,1.8,6.6,2.6,10L237.9,110.9z"/>
		<path class="st14" d="M316.6,29.7l-6.4-4.7l-6.4-4.7c-0.1,0.1-2.5,3.4-6.2,9.7l13.7,8.1C314.6,32.6,316.6,29.7,316.6,29.7z"/>
		<path class="st14" d="M255.1,196.6L271,197c0.1-3.5,0.2-7,0.4-10.4l-15.9-0.8C255.3,189.3,255.1,192.9,255.1,196.6z"/>
		<path class="st14" d="M256.2,175l15.9,1.2c0.3-3.5,0.6-7,0.9-10.4l-15.8-1.6C256.8,167.7,256.5,171.3,256.2,175z"/>
		<path class="st14" d="M306.4,46.9l-14.1-7.4c-1.5,2.9-3.2,6.2-4.8,9.8l14.4,6.8C303.5,52.7,305,49.6,306.4,46.9z"/>
		<path class="st14" d="M275.6,145.2l-15.7-2.4c-0.5,3.5-1,7.1-1.5,10.7l15.8,2C274.6,152,275.1,148.6,275.6,145.2z"/>
		<path class="st14" d="M297.7,65.5L283,59.3c-1.3,3.2-2.7,6.5-4.1,10.1l14.9,5.7C295.2,71.7,296.4,68.5,297.7,65.5z"/>
		<path class="st14" d="M263.8,121.5c-0.7,3.5-1.4,7-2.1,10.6l15.6,2.8c0.6-3.5,1.3-6.9,2-10.2L263.8,121.5z"/>
		<path class="st14" d="M279,241.9c0-9.4-3.1-18-8.1-24.2c-0.1-2.7-0.1-5.4-0.1-8.1v-2.2l-15.9-0.1v0.8c-1.1-0.2-2.2-0.3-3.4-0.3
			c-0.7,0-1.5,0.1-2.2,0.1v-0.6l-15.9,0.1v2.2c0,2.3,0,4.5-0.1,6.8c-5.7,6.2-9.3,15.3-9.3,25.5c0,10,3.5,19,9,25.3v-18.3
			c0-3.6,2.9-6.5,6.5-6.5h2.3v-7.1c0-5.3,4.4-9.7,9.7-9.7c5.4,0,9.7,4.4,9.7,9.7v7.1h2.3c3.6,0,6.5,2.9,6.5,6.5v18.3
			C275.5,260.9,279,251.9,279,241.9z"/>
		<path class="st14" d="M290.4,84.8l-15-5.2C274.2,83,273,86.4,272,90l15.2,4.7C288.2,91.3,289.3,88,290.4,84.8z"/>
		<path class="st14" d="M284.3,104.6l-15.3-4.2c-0.9,3.4-1.8,6.9-2.7,10.5l15.5,3.7C282.5,111.2,283.4,107.9,284.3,104.6z"/>
	</g>
</g>
</svg>
