<?xml version="1.0" encoding="utf-8"?>
<!-- Generator: Adobe Illustrator 24.0.1, SVG Export Plug-In . SVG Version: 6.00 Build 0)  -->
<svg version="1.1" id="Layer_1" xmlns="http://www.w3.org/2000/svg" xmlns:xlink="http://www.w3.org/1999/xlink" x="0px" y="0px"
	 viewBox="0 0 512 512" style="enable-background:new 0 0 512 512;" xml:space="preserve">
<style type="text/css">
	.st0{display:none;}
	.st1{display:inline;fill:#200A7F;stroke:#18E5EA;stroke-width:20;stroke-miterlimit:10;}
	.st2{display:inline;fill:#EF0B79;}
	.st3{display:inline;fill:#18E5EA;}
	.st4{display:inline;}
	.st5{fill:#E9F21C;}
	.st6{display:inline;fill:none;}
	.st7{display:inline;fill:#EF3A24;}
	.st8{font-family:'MyriadPro-Regular';}
	.st9{font-size:250px;}
	.st10{display:inline;fill:#FFFFFF;}
	.st11{opacity:0.12;fill:url(#SVGID_1_);enable-background:new    ;}
	.st12{fill:url(#SVGID_2_);}
	.st13{display:none;opacity:8.000000e-02;fill:#EFEFEF;enable-background:new    ;}
	.st14{fill:#FFFFFF;}
</style>
<g id="Layer_3" class="st0">
	<path class="st1" d="M401.1,212.2c5.1,15.3,7.9,31.7,7.9,48.8c0,85.3-69.2,154.5-154.5,154.5S100,346.3,100,261
		s69.2-154.5,154.5-154.5c51.2,0,96.6,24.9,124.7,63.3"/>
	<path class="st2" d="M333.4,255.2c0,4.2-3.3,7.7-7.4,7.7H174.9c-4.1,0-7.4-3.4-7.4-7.7l0,0c0-4.2,3.3-7.7,7.4-7.7H326
		C330.1,247.5,333.4,250.9,333.4,255.2L333.4,255.2z"/>
	<path class="st2" d="M333.4,284.8c0,4.2-3.3,7.6-7.4,7.6H174.9c-4.1,0-7.4-3.4-7.4-7.6l0,0c0-4.2,3.3-7.6,7.4-7.6H326
		C330.1,277.1,333.4,280.6,333.4,284.8L333.4,284.8z"/>
	<path class="st2" d="M333.4,313c0,4.2-3.3,7.7-7.4,7.7H174.9c-4.1,0-7.4-3.4-7.4-7.7l0,0c0-4.2,3.3-7.6,7.4-7.6H326
		C330.1,305.4,333.4,308.8,333.4,313L333.4,313z"/>
	<path class="st2" d="M333.4,338.4c0,4.2-3.3,7.7-7.4,7.7H174.9c-4.1,0-7.4-3.4-7.4-7.7l0,0c0-4.2,3.3-7.6,7.4-7.6H326
		C330.1,330.7,333.4,334.1,333.4,338.4L333.4,338.4z"/>
	<polygon class="st3" points="395,191.5 320.2,165.2 380.4,113.5 	"/>
	<g class="st4">
		<g>
			<g>
				<path class="st5" d="M241.5,239.2c-2.3,0-4.4-1.1-5.8-2.9l-18.8-24.8c-2.4-3.2-1.8-7.8,1.4-10.3c3.2-2.4,7.8-1.8,10.3,1.4
					l12.3,16.3l31-49.8c2.1-3.4,6.6-4.5,10.1-2.3c3.4,2.1,4.5,6.6,2.3,10.1l-36.7,58.9c-1.3,2-3.5,3.3-5.9,3.4
					C241.7,239.2,241.6,239.2,241.5,239.2z"/>
			</g>
		</g>
	</g>
</g>
<g id="Layer_2_2_" class="st0">
	<rect x="121" y="171.5" class="st6" width="298" height="251"/>
	<text transform="matrix(1 0 0 1 121 348.9979)" class="st7 st8 st9">24</text>
	<circle class="st10" cx="138.3" cy="91.8" r="17.3"/>
	<circle class="st10" cx="185.3" cy="91.8" r="17.3"/>
	<circle class="st10" cx="232.3" cy="91.8" r="17.3"/>
	<circle class="st10" cx="278.3" cy="91.8" r="17.3"/>
	<circle class="st10" cx="323.3" cy="91.8" r="17.3"/>
	<circle class="st10" cx="368.3" cy="91.8" r="17.3"/>
</g>
<linearGradient id="SVGID_1_" gradientUnits="userSpaceOnUse" x1="259.9693" y1="500.8192" x2="252.9693" y2="-1.1809" gradientTransform="matrix(1 0 0 -1 0 511.8898)">
	<stop  offset="0" style="stop-color:#707070"/>
	<stop  offset="0.5095" style="stop-color:#474747"/>
	<stop  offset="1" style="stop-color:#262626"/>
</linearGradient>
<path class="st11" d="M371.3,495.1H142c-73.7,0-133.5-59.8-133.5-133.5v-218C8.5,69.9,68.3,10.1,142,10.1h229.2
	c73.7,0,133.5,59.8,133.5,133.5v218C504.8,435.4,445,495.1,371.3,495.1z"/>
<linearGradient id="SVGID_2_" gradientUnits="userSpaceOnUse" x1="249.2911" y1="496.4036" x2="264.2911" y2="2.4036" gradientTransform="matrix(1 0 0 -1 0 511.8898)">
	<stop  offset="5.618000e-03" style="stop-color:#E2E5F4"/>
	<stop  offset="0.4494" style="stop-color:#C7CEE9"/>
	<stop  offset="1" style="stop-color:#A8B5DC"/>
</linearGradient>
<path class="st12" d="M365.5,489.9h-218C73.8,489.9,14,430.1,14,356.4v-207C14,75.7,73.8,15.9,147.5,15.9h218
	c73.7,0,133.5,59.8,133.5,133.5v207C499,430.1,439.2,489.9,365.5,489.9z"/>
<path class="st13" d="M502,156.5v207c0,73.7-59.8,133.5-133.5,133.5h-218c-51.4,0-96.1-29.1-118.4-71.7c-3.3-11.7-5.1-24-5.1-36.8
	v-207C27,107.8,86.8,48,160.5,48h218c51.4,0,96.1,29.1,118.4,71.7C500.2,131.4,502,143.8,502,156.5z"/>
<path class="st13" d="M510,158.5v207c0,73.7-59.8,133.5-133.5,133.5h-218c-61,0-112.4-40.9-128.4-96.7c-3.3-11.7-5.1-24-5.1-36.8
	v-207C25,84.8,84.8,25,158.5,25h218c51.4,0,96.1,29.1,118.4,71.7C504.5,115.2,510,136.2,510,158.5z"/>
<image style="display:none;overflow:visible;enable-background:new    ;" width="696" height="428" xlink:href="../../Downloads/macOSBigSur-696x428.png"  transform="matrix(0.75 0 0 0.75 -31 244.3898)">
</image>
<path id="XMLID_176_" class="st14" d="M133.1,143.6c-2.5-2.7-2.4-6.9,0.3-9.4l19.9-18.6c1.9-1.8,4.7-2.3,7.2-1.2
	c2.4,1.1,4,3.4,4,6.1v52.2c0,3.7-3,6.6-6.6,6.6c-3.7,0-6.6-3-6.6-6.6v-37l-8.7,8.1C139.8,146.4,135.6,146.3,133.1,143.6z M414,96
	v125.3c0,3.7-3,6.6-6.6,6.6c-3.7,0-6.6-3-6.6-6.6v-17.5h-88v88h18.7c3.7,0,6.6,3,6.6,6.6c0,3.7-3,6.6-6.6,6.6h-18.7v88h18.7
	c3.7,0,6.6,3,6.6,6.6c0,3.7-3,6.6-6.6,6.6h-25.2c0,0-0.1,0-0.1,0c0,0-0.1,0-0.1,0H205c-0.1,0-0.2,0-0.3,0H103.6
	c-3.7,0-6.6-3-6.6-6.6l0-100.8c0-0.1,0-0.3,0-0.4c0-0.1,0-0.3,0-0.4l0-100.5c0-0.1,0-0.2,0-0.3c0-0.1,0-0.2,0-0.3L97,96
	c0-1.8,0.7-3.4,1.9-4.7c1.2-1.2,2.9-1.9,4.7-1.9h303.7C411,89.4,414,92.3,414,96z M198.2,305.1h-88l0,88h88L198.2,305.1L198.2,305.1
	z M198.2,203.9h-88l0,88h88V203.9z M198.2,102.6h-88l0,88h88L198.2,102.6L198.2,102.6z M299.4,305.1h-88v88h88V305.1z M299.4,203.9
	h-88v88h88V203.9z M299.4,102.6h-88v88h88V102.6z M400.7,102.6h-88v88h88L400.7,102.6L400.7,102.6z M412.4,260.2
	c1,1.2,1.6,2.7,1.6,4.3v146.3c0,3.7-3,6.6-6.6,6.6h-41.8c-3.7,0-6.6-3-6.6-6.6V264.5c0-1.6,0.6-3.1,1.6-4.3l20.9-24.5
	c1.3-1.5,3.1-2.3,5-2.3c1.9,0,3.8,0.8,5,2.3L412.4,260.2z M400.7,390.2h-28.6v14h28.6V390.2z M400.7,281.9h-28.6v94.9h28.6V281.9z
	 M400.7,266.9l-14.3-16.7l-14.3,16.7v1.8h28.6V266.9z M267.5,265.3h-36c-3.7,0-6.6,3-6.6,6.6s3,6.6,6.6,6.6h36
	c10.3,0,18.7-8.4,18.7-18.7c0-4.6-1.7-8.8-4.4-12c2.8-3.3,4.4-7.5,4.4-12c0-10.3-8.4-18.7-18.7-18.7h-36c-3.7,0-6.6,3-6.6,6.6
	s3,6.6,6.6,6.6h36c3,0,5.4,2.4,5.4,5.4c0,3-2.4,5.4-5.4,5.4h-21.2c-3.7,0-6.6,3-6.6,6.6s3,6.6,6.6,6.6h21.2c3,0,5.4,2.4,5.4,5.4
	C272.9,262.9,270.4,265.3,267.5,265.3z"/>
</svg>
