<?xml version="1.0" encoding="utf-8"?>
<!-- Generator: Adobe Illustrator 24.0.1, SVG Export Plug-In . SVG Version: 6.00 Build 0)  -->
<svg version="1.1" id="Layer_1" xmlns="http://www.w3.org/2000/svg" xmlns:xlink="http://www.w3.org/1999/xlink" x="0px" y="0px"
	 viewBox="0 0 512 512" style="enable-background:new 0 0 512 512;" xml:space="preserve">
<style type="text/css">
	.st0{display:none;}
	.st1{display:inline;fill:#200A7F;stroke:#18E5EA;stroke-width:20;stroke-miterlimit:10;}
	.st2{display:inline;fill:#EF0B79;}
	.st3{display:inline;fill:#18E5EA;}
	.st4{display:inline;}
	.st5{fill:#E9F21C;}
	.st6{display:inline;fill:none;}
	.st7{display:inline;fill:#EF3A24;}
	.st8{font-family:'MyriadPro-Regular';}
	.st9{font-size:250px;}
	.st10{display:inline;fill:#FFFFFF;}
	.st11{opacity:0.12;fill:#ABABAB;enable-background:new    ;}
	.st12{fill:url(#SVGID_1_);}
	.st13{display:none;opacity:8.000000e-02;fill:#EFEFEF;enable-background:new    ;}
	.st14{fill:url(#SVGID_2_);}
	.st15{fill:#FCFCFC;}
</style>
<g id="Layer_3" class="st0">
	<path class="st1" d="M401.1,212.2c5.1,15.3,7.9,31.7,7.9,48.8c0,85.3-69.2,154.5-154.5,154.5S100,346.3,100,261
		s69.2-154.5,154.5-154.5c51.2,0,96.6,24.9,124.7,63.3"/>
	<path class="st2" d="M333.4,255.2c0,4.2-3.3,7.7-7.4,7.7H174.9c-4.1,0-7.4-3.4-7.4-7.7l0,0c0-4.2,3.3-7.7,7.4-7.7H326
		C330.1,247.5,333.4,250.9,333.4,255.2L333.4,255.2z"/>
	<path class="st2" d="M333.4,284.8c0,4.2-3.3,7.6-7.4,7.6H174.9c-4.1,0-7.4-3.4-7.4-7.6l0,0c0-4.2,3.3-7.6,7.4-7.6H326
		C330.1,277.1,333.4,280.6,333.4,284.8L333.4,284.8z"/>
	<path class="st2" d="M333.4,313c0,4.2-3.3,7.7-7.4,7.7H174.9c-4.1,0-7.4-3.4-7.4-7.7l0,0c0-4.2,3.3-7.6,7.4-7.6H326
		C330.1,305.4,333.4,308.8,333.4,313L333.4,313z"/>
	<path class="st2" d="M333.4,338.4c0,4.2-3.3,7.7-7.4,7.7H174.9c-4.1,0-7.4-3.4-7.4-7.7l0,0c0-4.2,3.3-7.6,7.4-7.6H326
		C330.1,330.7,333.4,334.1,333.4,338.4L333.4,338.4z"/>
	<polygon class="st3" points="395,191.5 320.2,165.2 380.4,113.5 	"/>
	<g class="st4">
		<g>
			<g>
				<path class="st5" d="M241.5,239.2c-2.3,0-4.4-1.1-5.8-2.9l-18.8-24.8c-2.4-3.2-1.8-7.8,1.4-10.3c3.2-2.4,7.8-1.8,10.3,1.4
					l12.3,16.3l31-49.8c2.1-3.4,6.6-4.5,10.1-2.3c3.4,2.1,4.5,6.6,2.3,10.1l-36.7,58.9c-1.3,2-3.5,3.3-5.9,3.4
					C241.7,239.2,241.6,239.2,241.5,239.2z"/>
			</g>
		</g>
	</g>
</g>
<g id="Layer_2_2_" class="st0">
	<rect x="121" y="171.5" class="st6" width="298" height="251"/>
	<text transform="matrix(1 0 0 1 121 348.9979)" class="st7 st8 st9">24</text>
	<circle class="st10" cx="138.3" cy="91.8" r="17.3"/>
	<circle class="st10" cx="185.3" cy="91.8" r="17.3"/>
	<circle class="st10" cx="232.3" cy="91.8" r="17.3"/>
	<circle class="st10" cx="278.3" cy="91.8" r="17.3"/>
	<circle class="st10" cx="323.3" cy="91.8" r="17.3"/>
	<circle class="st10" cx="368.3" cy="91.8" r="17.3"/>
</g>
<path class="st11" d="M371.3,495.1H142c-73.7,0-133.5-59.8-133.5-133.5v-218C8.5,69.9,68.3,10.1,142,10.1h229.2
	c73.7,0,133.5,59.8,133.5,133.5v218C504.8,435.4,445,495.1,371.3,495.1z"/>
<linearGradient id="SVGID_1_" gradientUnits="userSpaceOnUse" x1="258.0095" y1="11.9211" x2="255.0095" y2="490.9211">
	<stop  offset="0" style="stop-color:#F37F7B"/>
	<stop  offset="0.5" style="stop-color:#ED3D57"/>
	<stop  offset="1" style="stop-color:#DD1E47"/>
</linearGradient>
<path class="st12" d="M365.5,489.9h-218C73.8,489.9,14,430.1,14,356.4c0-34.5,0-69,0-103.5c0-34.5,0-69,0-103.5
	c0-8.9,0.9-56.2,39.1-94.4c24.2-24.2,57.5-39.1,94.4-39.1h218c73.7,0,133.5,59.8,133.5,133.5v207C499,430.1,439.2,489.9,365.5,489.9
	z"/>
<path class="st13" d="M502,156.5v207c0,73.7-59.8,133.5-133.5,133.5h-218c-51.4,0-96.1-29.1-118.4-71.7c-3.3-11.7-5.1-24-5.1-36.8
	v-207C27,107.8,86.8,48,160.5,48h218c51.4,0,96.1,29.1,118.4,71.7C500.2,131.4,502,143.8,502,156.5z"/>
<path class="st13" d="M510,158.5v207c0,73.7-59.8,133.5-133.5,133.5h-218c-61,0-112.4-40.9-128.4-96.7c-3.3-11.7-5.1-24-5.1-36.8
	v-207C25,84.8,84.8,25,158.5,25h218c51.4,0,96.1,29.1,118.4,71.7C504.5,115.2,510,136.2,510,158.5z"/>
<image style="display:none;overflow:visible;enable-background:new    ;" width="696" height="428" xlink:href="../../Downloads/macOSBigSur-696x428.png"  transform="matrix(0.75 0 0 0.75 -31 244.3898)">
</image>
<linearGradient id="SVGID_2_" gradientUnits="userSpaceOnUse" x1="145" y1="155.8898" x2="145" y2="155.8898">
	<stop  offset="0" style="stop-color:#7C76B7"/>
	<stop  offset="0.5" style="stop-color:#6561AB"/>
	<stop  offset="1" style="stop-color:#483F99"/>
</linearGradient>
<path class="st14" d="M145,155.9"/>
<g id="Filled_outline">
	<path class="st15" d="M344.2,148.9l20.6,20.6c3.8,3.8,3.8,9.9,0,13.7l-20.6,20.6l0,0l-34.4-34.4l0,0l20.6-20.6
		C334.3,145.1,340.4,145.1,344.2,148.9z"/>
	<g>
		<path class="st15" d="M309.9,169.5l34.4,34.4l0,0l-13.7,13.7c-3.8,3.8-9.9,3.8-13.7,0L296.1,197c-3.8-3.8-3.8-9.9,0-13.7
			L309.9,169.5L309.9,169.5z"/>
		<path class="st15" d="M330.5,148.9l-18.4-18.4c-12.4-12.4-29.3-19.4-46.9-19.4v20.6c17.8,0.8,33.7,11.4,41.2,27.5l3.4,10.3
			L330.5,148.9z"/>
		<path class="st15" d="M364.9,183.3c18.9,19.4,29.9,45.1,30.9,72.2v13.7l-51.5-65.3L364.9,183.3z"/>
	</g>
	<path class="st15" d="M296.1,197l20.6,20.6l0,0L175.8,358.5c-5.7,5.7-14.9,5.7-20.6,0l0,0c-5.7-5.7-5.7-14.9,0-20.6l0,0L296.1,197
		L296.1,197z"/>
	<path class="st15" d="M400.6,255.4c-1-27-11.5-52.7-29.6-72.7c2.7-5.6,1.6-12.3-2.7-16.7l-20.6-20.6c-4.4-4.3-11-5.5-16.5-2.8
		l-15.6-15.6c-13.3-13.4-31.5-20.9-50.4-20.9c-2.7,0-4.9,2.2-4.9,4.9v20.6c0,2.7,2.2,4.9,4.9,4.9c15.7,0.7,29.8,10,36.6,24.2
		l2.5,7.4l-11.6,11.6c-4.3,4.4-5.5,11-2.8,16.5L151.8,334.5c-7.6,7.6-7.6,19.9,0,27.5c7.6,7.6,19.9,7.6,27.5,0l138.1-138.1
		c5.6,2.7,12.2,1.5,16.5-2.8l9.9-9.9l48.2,61c0.1,0.1,0.2,0.3,0.4,0.4c1.9,1.9,5,1.9,6.9,0c0.9-0.9,1.4-2.1,1.4-3.4L400.6,255.4z
		 M312,160.5l-1.1-3.2c-7.6-16.3-23-27.7-40.8-30.1v-11c14.6,1.1,28.3,7.4,38.6,17.8l14.9,14.9L312,160.5z M172.4,355.1
		c-3.8,3.8-9.9,3.8-13.7,0c-3.8-3.8-3.8-9.9,0-13.7l137.5-137.5l13.7,13.7L172.4,355.1z M327,214.2c-1.9,1.9-5,1.9-6.9,0l-20.6-20.6
		c-1.9-1.9-1.9-5,0-6.9l10.3-10.3l27.5,27.5L327,214.2z M344.2,197l-10.3-10.3l13.7-13.7l-6.9-6.9L327,179.8l-10.3-10.3l17.2-17.2
		c1.9-1.9,5-1.9,6.9,0l20.6,20.6c1.9,1.9,1.9,5,0,6.9L344.2,197z M350.7,204.3l14-14c15.9,18,25.2,40.9,26.2,64.9L350.7,204.3z"/>
</g>
</svg>
