<?xml version="1.0" encoding="utf-8"?>
<!-- Generator: Adobe Illustrator 24.0.1, SVG Export Plug-In . SVG Version: 6.00 Build 0)  -->
<svg version="1.1" id="Layer_1" xmlns="http://www.w3.org/2000/svg" xmlns:xlink="http://www.w3.org/1999/xlink" x="0px" y="0px"
	 viewBox="0 0 512 512" style="enable-background:new 0 0 512 512;" xml:space="preserve">
<style type="text/css">
	.st0{display:none;}
	.st1{display:inline;fill:#200A7F;stroke:#18E5EA;stroke-width:20;stroke-miterlimit:10;}
	.st2{display:inline;fill:#EF0B79;}
	.st3{display:inline;fill:#18E5EA;}
	.st4{display:inline;}
	.st5{fill:#E9F21C;}
	.st6{display:inline;fill:none;}
	.st7{fill:#EF3A24;enable-background:new    ;}
	.st8{font-family:'MyriadPro-Regular';}
	.st9{font-size:250px;}
	.st10{display:inline;fill:#FFFFFF;}
	.st11{opacity:0.67;fill:#0086FF;enable-background:new    ;}
	.st12{fill:#FFFFFF;}
	.st13{display:none;opacity:8.000000e-02;fill:#EFEFEF;enable-background:new    ;}
	.st14{fill:none;}
	.st15{display:none;opacity:0.67;enable-background:new    ;}
	.st16{display:inline;fill:#0086FF;}
	.st17{display:none;enable-background:new    ;}
	.st18{fill:none;stroke:#0086FF;stroke-miterlimit:10;}
	.st19{enable-background:new    ;}
	.st20{fill:#0086FF;}
</style>
<g id="Layer_3" class="st0">
	<path class="st1" d="M401.1,212.2c5.1,15.3,7.9,31.7,7.9,48.8c0,85.3-69.2,154.5-154.5,154.5S100,346.3,100,261
		s69.2-154.5,154.5-154.5c51.2,0,96.6,24.9,124.7,63.3"/>
	<path class="st2" d="M333.4,255.2c0,4.2-3.3,7.7-7.4,7.7H174.9c-4.1,0-7.4-3.4-7.4-7.7l0,0c0-4.2,3.3-7.7,7.4-7.7H326
		C330.1,247.5,333.4,250.9,333.4,255.2L333.4,255.2z"/>
	<path class="st2" d="M333.4,284.8c0,4.2-3.3,7.6-7.4,7.6H174.9c-4.1,0-7.4-3.4-7.4-7.6l0,0c0-4.2,3.3-7.6,7.4-7.6H326
		C330.1,277.1,333.4,280.6,333.4,284.8L333.4,284.8z"/>
	<path class="st2" d="M333.4,313c0,4.2-3.3,7.7-7.4,7.7H174.9c-4.1,0-7.4-3.4-7.4-7.7l0,0c0-4.2,3.3-7.6,7.4-7.6H326
		C330.1,305.4,333.4,308.8,333.4,313L333.4,313z"/>
	<path class="st2" d="M333.4,338.4c0,4.2-3.3,7.7-7.4,7.7H174.9c-4.1,0-7.4-3.4-7.4-7.7l0,0c0-4.2,3.3-7.6,7.4-7.6H326
		C330.1,330.7,333.4,334.1,333.4,338.4L333.4,338.4z"/>
	<polygon class="st3" points="395,191.5 320.2,165.2 380.4,113.5 	"/>
	<g class="st4">
		<g>
			<g>
				<path class="st5" d="M241.5,239.2c-2.3,0-4.4-1.1-5.8-2.9l-18.8-24.8c-2.4-3.2-1.8-7.8,1.4-10.3c3.2-2.4,7.8-1.8,10.3,1.4
					l12.3,16.3l31-49.8c2.1-3.4,6.6-4.5,10.1-2.3c3.4,2.1,4.5,6.6,2.3,10.1l-36.7,58.9c-1.3,2-3.5,3.3-5.9,3.4
					C241.7,239.2,241.6,239.2,241.5,239.2z"/>
			</g>
		</g>
	</g>
</g>
<g id="Layer_2_2_" class="st0">
	<rect x="121" y="171.5" class="st6" width="298" height="251"/>
	<text transform="matrix(1 0 0 1 121 348.9979)" class="st7 st8 st9">24</text>
	<circle class="st10" cx="138.3" cy="91.8" r="17.3"/>
	<circle class="st10" cx="185.3" cy="91.8" r="17.3"/>
	<circle class="st10" cx="232.3" cy="91.8" r="17.3"/>
	<circle class="st10" cx="278.3" cy="91.8" r="17.3"/>
	<circle class="st10" cx="323.3" cy="91.8" r="17.3"/>
	<circle class="st10" cx="368.3" cy="91.8" r="17.3"/>
</g>
<path class="st11" d="M371.3,495.1H142c-73.7,0-133.5-59.8-133.5-133.5v-218C8.5,69.9,68.3,10.1,142,10.1h229.2
	c73.7,0,133.5,59.8,133.5,133.5v218C504.8,435.4,445,495.1,371.3,495.1z"/>
<path class="st12" d="M365.6,489.9h-218c-73.7,0-133.5-59.8-133.5-133.5v-207c0-73.7,59.8-133.5,133.5-133.5h218
	c73.7,0,133.5,59.8,133.5,133.5v207C499.1,430.1,439.3,489.9,365.6,489.9z"/>
<path class="st13" d="M502,156.5v207c0,73.7-59.8,133.5-133.5,133.5h-218c-51.4,0-96.1-29.1-118.4-71.7c-3.3-11.7-5.1-24-5.1-36.8
	v-207C27,107.8,86.8,48,160.5,48h218c51.4,0,96.1,29.1,118.4,71.7C500.2,131.4,502,143.8,502,156.5z"/>
<path class="st13" d="M510,158.5v207c0,73.7-59.8,133.5-133.5,133.5h-218c-61,0-112.4-40.9-128.4-96.7c-3.3-11.7-5.1-24-5.1-36.8
	v-207C25,84.8,84.8,25,158.5,25h218c51.4,0,96.1,29.1,118.4,71.7C504.5,115.2,510,136.2,510,158.5z"/>
<rect x="156.2" y="343.2" class="st14" width="423" height="129.7"/>
<g class="st15">
	<path class="st16" d="M207.8,435.1l-8.9,26.9h-11.4l29.1-85.6h13.3l29.2,85.6h-11.8l-9.1-26.9H207.8z M235.8,426.4l-8.4-24.6
		c-1.9-5.6-3.2-10.7-4.4-15.6h-0.3c-1.3,5.1-2.7,10.3-4.3,15.5l-8.4,24.8L235.8,426.4L235.8,426.4z"/>
	<path class="st16" d="M282.7,376.4V462h-11v-85.6H282.7z"/>
</g>
<g class="st17">
	<path class="st16" d="M181.4,456.6L170.6,438c-4.4-7.1-7.1-11.8-9.8-16.6h-0.3c-2.4,4.9-4.8,9.4-9.1,16.8l-10.1,18.5h-12.5
		l25.8-42.6l-24.8-41.6h12.6l11.1,19.8c3.1,5.5,5.5,9.8,7.8,14.3h0.4c2.4-5,4.5-8.9,7.6-14.3l11.5-19.8h12.5l-25.6,41l26.3,43.3
		H181.4z"/>
	<path class="st16" d="M206.6,372.4h10.9v75.1h36v9.1h-46.9V372.4z"/>
	<path class="st16" d="M264.1,443.4c4.9,3,12,5.5,19.5,5.5c11.1,0,17.6-5.9,17.6-14.4c0-7.9-4.5-12.4-15.9-16.8
		c-13.8-4.9-22.3-12-22.3-23.9c0-13.1,10.9-22.9,27.3-22.9c8.6,0,14.9,2,18.6,4.1l-3,8.9c-2.8-1.5-8.4-4-16-4
		c-11.5,0-15.9,6.9-15.9,12.6c0,7.9,5.1,11.8,16.8,16.3c14.3,5.5,21.5,12.4,21.5,24.8c0,13-9.6,24.3-29.5,24.3
		c-8.1,0-17-2.4-21.5-5.4L264.1,443.4z"/>
	<path class="st16" d="M373.4,456.6L362.6,438c-4.4-7.1-7.1-11.8-9.8-16.6h-0.3c-2.4,4.9-4.8,9.4-9.1,16.8l-10.1,18.5h-12.5
		l25.8-42.6l-24.8-41.6h12.6l11.1,19.8c3.1,5.5,5.5,9.8,7.8,14.3h0.4c2.4-5,4.5-8.9,7.6-14.3l11.5-19.8h12.5l-25.6,41l26.3,43.3
		H373.4z"/>
</g>
<g class="st17">
	<path class="st16" d="M213.8,404.7c0,29-17.6,44.4-39.1,44.4c-22.3,0-37.9-17.3-37.9-42.8c0-26.8,16.6-44.3,39.1-44.3
		C198.9,362,213.8,379.7,213.8,404.7z M148.4,406c0,18,9.8,34.1,26.9,34.1c17.3,0,27-15.9,27-35c0-16.8-8.8-34.3-26.9-34.3
		C157.4,370.9,148.4,387.5,148.4,406z"/>
	<path class="st16" d="M227.9,364.5c6.6-1,14.5-1.8,23.1-1.8c15.6,0,26.8,3.6,34.1,10.5c7.5,6.9,11.9,16.6,11.9,30.3
		c0,13.8-4.3,25-12.1,32.8c-7.9,7.9-20.9,12.1-37.3,12.1c-7.8,0-14.3-0.4-19.8-1V364.5z M238.8,439c2.8,0.5,6.8,0.6,11,0.6
		c23.3,0,35.9-13,35.9-35.8c0.1-19.9-11.1-32.5-34.1-32.5c-5.6,0-9.9,0.5-12.8,1.1V439z"/>
	<path class="st16" d="M311.2,364.4c5.3-0.9,12.1-1.6,20.9-1.6c10.8,0,18.6,2.5,23.6,7c4.6,4,7.4,10.1,7.4,17.6
		c0,7.6-2.3,13.6-6.5,18c-5.8,6.1-15.1,9.3-25.8,9.3c-3.3,0-6.3-0.1-8.8-0.8v33.8h-10.9V364.4z M322,405c2.4,0.6,5.4,0.9,9,0.9
		c13.1,0,21.1-6.4,21.1-18c0-11.1-7.9-16.5-19.9-16.5c-4.8,0-8.4,0.4-10.3,0.9V405z"/>
</g>
<g class="st17">
	<path class="st16" d="M162.6,441.9l-27.5-84.3h11.8l13.1,41.5c3.6,11.4,6.8,21.6,9,31.5h0.3c2.4-9.8,5.9-20.4,9.6-31.4l14.3-41.6
		h11.6l-30.1,84.3H162.6z"/>
	<path class="st16" d="M285.9,398.9c0,29-17.6,44.4-39.1,44.4c-22.3,0-37.9-17.3-37.9-42.8c0-26.8,16.6-44.3,39.1-44.3
		C271,356.3,285.9,373.9,285.9,398.9z M220.5,400.3c0,18,9.8,34.1,26.9,34.1c17.2,0,27-15.9,27-35c0-16.8-8.8-34.3-26.9-34.3
		C229.5,365.2,220.5,381.8,220.5,400.3z"/>
	<path class="st16" d="M358.9,439.2c-4,2-12,4-22.3,4c-23.8,0-41.6-15-41.6-42.6c0-26.4,17.9-44.3,44-44.3c10.5,0,17.1,2.3,20,3.8
		l-2.6,8.9c-4.1-2-10-3.5-17-3.5c-19.8,0-32.9,12.6-32.9,34.8c0,20.6,11.9,33.9,32.4,33.9c6.6,0,13.4-1.4,17.8-3.5L358.9,439.2z"/>
</g>
<path class="st18" d="M138.4,256"/>
<path class="st18" d="M342.9,127.8"/>
<path class="st18" d="M342.9,256"/>
<g>
	<polyline class="st18" points="138.4,190.4 109.2,201.6 163.7,343.4 360.1,268 	"/>
	<polyline class="st18" points="301.4,127.8 340.6,112.7 379.9,215 	"/>
	<polygon class="st18" points="301.4,127.8 138.4,190.4 138.4,127.8 	"/>
	<path class="st18" d="M362.7,247c0,7,3.8,13.1,9.4,16.4l-12.1,4.6c-5.9-5.6-9.5-13.5-9.5-22.3c0-16.5,13-30,29.4-30.7l5.2,13.4
		c-1.1-0.2-2.3-0.3-3.4-0.3C371.2,228.1,362.7,236.5,362.7,247z"/>
	<path class="st18" d="M412.1,245.7c0,17-13.8,30.8-30.8,30.8c-8.2,0-15.7-3.2-21.3-8.5l12.1-4.6c2.8,1.6,6,2.6,9.5,2.6
		c10.4,0,18.9-8.5,18.9-18.9c0-9.3-6.7-17-15.5-18.6l-5.2-13.4c0.5,0,0.9,0,1.4,0C398.3,215,412.1,228.7,412.1,245.7z"/>
</g>
<g class="st19">
	<path class="st20" d="M159.3,361.7h-25.6v-9.3h62.4v9.3h-25.8v75h-11V361.7z"/>
	<path class="st20" d="M216.3,352.4v84.3h-10.9v-84.3H216.3z"/>
	<path class="st20" d="M235.3,352.4h45.4v9.1h-34.5v28h31.9v9h-31.9v38.1h-10.9V352.4z"/>
	<path class="st20" d="M296.2,352.4h45.4v9.1h-34.5v28H339v9h-31.9v38.1h-10.9V352.4z"/>
</g>
</svg>
