<?xml version="1.0" encoding="utf-8"?>
<!-- Generator: Adobe Illustrator 24.0.1, SVG Export Plug-In . SVG Version: 6.00 Build 0)  -->
<svg version="1.1" id="Layer_1" xmlns="http://www.w3.org/2000/svg" xmlns:xlink="http://www.w3.org/1999/xlink" x="0px" y="0px"
	 viewBox="0 0 512 512" style="enable-background:new 0 0 512 512;" xml:space="preserve">
<style type="text/css">
	.st0{display:none;}
	.st1{display:inline;fill:#200A7F;stroke:#18E5EA;stroke-width:20;stroke-miterlimit:10;}
	.st2{display:inline;fill:#EF0B79;}
	.st3{display:inline;fill:#18E5EA;}
	.st4{display:inline;}
	.st5{fill:#E9F21C;}
	.st6{display:inline;fill:none;}
	.st7{display:inline;fill:#EF3A24;}
	.st8{font-family:'MyriadPro-Regular';}
	.st9{font-size:250px;}
	.st10{display:inline;fill:#FFFFFF;}
	.st11{opacity:0.12;fill:#ABABAB;enable-background:new    ;}
	.st12{fill:#FFFFFF;}
	.st13{display:none;opacity:8.000000e-02;fill:#EFEFEF;enable-background:new    ;}
	.st14{display:inline;fill:url(#SVGID_1_);}
	.st15{display:inline;fill:url(#SVGID_2_);}
	.st16{display:inline;fill:#FAFAFA;}
	.st17{fill:#1565C0;}
	.st18{fill:#ECEFF1;}
	.st19{fill:#388E3C;}
	.st20{fill:#2E7D32;}
	.st21{fill:#FF5722;}
</style>
<g id="Layer_3" class="st0">
	<path class="st1" d="M401.1,212.2c5.1,15.3,7.9,31.7,7.9,48.8c0,85.3-69.2,154.5-154.5,154.5S100,346.3,100,261
		s69.2-154.5,154.5-154.5c51.2,0,96.6,24.9,124.7,63.3"/>
	<path class="st2" d="M333.4,255.2c0,4.2-3.3,7.7-7.4,7.7H174.9c-4.1,0-7.4-3.4-7.4-7.7l0,0c0-4.2,3.3-7.7,7.4-7.7H326
		C330.1,247.5,333.4,250.9,333.4,255.2L333.4,255.2z"/>
	<path class="st2" d="M333.4,284.8c0,4.2-3.3,7.6-7.4,7.6H174.9c-4.1,0-7.4-3.4-7.4-7.6l0,0c0-4.2,3.3-7.6,7.4-7.6H326
		C330.1,277.1,333.4,280.6,333.4,284.8L333.4,284.8z"/>
	<path class="st2" d="M333.4,313c0,4.2-3.3,7.7-7.4,7.7H174.9c-4.1,0-7.4-3.4-7.4-7.7l0,0c0-4.2,3.3-7.6,7.4-7.6H326
		C330.1,305.4,333.4,308.8,333.4,313L333.4,313z"/>
	<path class="st2" d="M333.4,338.4c0,4.2-3.3,7.7-7.4,7.7H174.9c-4.1,0-7.4-3.4-7.4-7.7l0,0c0-4.2,3.3-7.6,7.4-7.6H326
		C330.1,330.7,333.4,334.1,333.4,338.4L333.4,338.4z"/>
	<polygon class="st3" points="395,191.5 320.2,165.2 380.4,113.5 	"/>
	<g class="st4">
		<g>
			<g>
				<path class="st5" d="M241.5,239.2c-2.3,0-4.4-1.1-5.8-2.9l-18.8-24.8c-2.4-3.2-1.8-7.8,1.4-10.3c3.2-2.4,7.8-1.8,10.3,1.4
					l12.3,16.3l31-49.8c2.1-3.4,6.6-4.5,10.1-2.3c3.4,2.1,4.5,6.6,2.3,10.1l-36.7,58.9c-1.3,2-3.5,3.3-5.9,3.4
					C241.7,239.2,241.6,239.2,241.5,239.2z"/>
			</g>
		</g>
	</g>
</g>
<g id="Layer_2_2_" class="st0">
	<rect x="121" y="171.5" class="st6" width="298" height="251"/>
	<text transform="matrix(1 0 0 1 121 348.9979)" class="st7 st8 st9">24</text>
	<circle class="st10" cx="138.3" cy="91.8" r="17.3"/>
	<circle class="st10" cx="185.3" cy="91.8" r="17.3"/>
	<circle class="st10" cx="232.3" cy="91.8" r="17.3"/>
	<circle class="st10" cx="278.3" cy="91.8" r="17.3"/>
	<circle class="st10" cx="323.3" cy="91.8" r="17.3"/>
	<circle class="st10" cx="368.3" cy="91.8" r="17.3"/>
</g>
<path class="st11" d="M371.3,495.1H142c-73.7,0-133.5-59.8-133.5-133.5v-218C8.5,69.9,68.3,10.1,142,10.1h229.2
	c73.7,0,133.5,59.8,133.5,133.5v218C504.8,435.4,445,495.1,371.3,495.1z"/>
<path class="st12" d="M365.5,489.9h-218C73.8,489.9,14,430.1,14,356.4v-207C14,75.7,73.8,15.9,147.5,15.9h218
	c73.7,0,133.5,59.8,133.5,133.5v207C499,430.1,439.2,489.9,365.5,489.9z"/>
<path class="st13" d="M502,156.5v207c0,73.7-59.8,133.5-133.5,133.5h-218c-51.4,0-96.1-29.1-118.4-71.7c-3.3-11.7-5.1-24-5.1-36.8
	v-207C27,107.8,86.8,48,160.5,48h218c51.4,0,96.1,29.1,118.4,71.7C500.2,131.4,502,143.8,502,156.5z"/>
<path class="st13" d="M510,158.5v207c0,73.7-59.8,133.5-133.5,133.5h-218c-61,0-112.4-40.9-128.4-96.7c-3.3-11.7-5.1-24-5.1-36.8
	v-207C25,84.8,84.8,25,158.5,25h218c51.4,0,96.1,29.1,118.4,71.7C504.5,115.2,510,136.2,510,158.5z"/>
<image style="display:none;overflow:visible;enable-background:new    ;" width="696" height="428" xlink:href="../../Downloads/macOSBigSur-696x428.png"  transform="matrix(0.75 0 0 0.75 -31 244.3898)">
</image>
<g class="st0">
	<linearGradient id="SVGID_1_" gradientUnits="userSpaceOnUse" x1="328.2525" y1="1.5434" x2="334.2525" y2="323.5435">
		<stop  offset="0" style="stop-color:#F37E5F"/>
		<stop  offset="0.5" style="stop-color:#EC1C24"/>
		<stop  offset="1" style="stop-color:#CF232A"/>
	</linearGradient>
	<path class="st14" d="M313.1,138.5c-16,0-31.2,1.6-43.9,4.6l3.8,16.3c11.5-2.7,25.3-4.1,40-4.1c44,0,67.1,12.5,67.1,16.8
		s-23.1,16.8-67.1,16.8c-14.7,0-28.5-1.4-40-4.1l-3.9,16.3c12.7,3,27.9,4.6,43.9,4.6c24.8,0,50.7-4,67.1-12.4v29.1
		c0,4.3-23.1,16.8-67.1,16.8c-14.7,0-28.5-1.4-40-4.1l-3.9,16.3c12.7,3,27.9,4.6,43.9,4.6c24.8,0,50.7-4,67.1-12.4v29.1
		c0,4.3-23.1,16.8-67.1,16.8c-14.7,0-28.5-1.4-40-4.1l-3.8,16.3c12.7,3,27.8,4.6,43.8,4.6c24.8,0,50.7-4,67.1-12.4V323
		c0,4.3-23.1,16.8-67.1,16.8c-14.7,0-28.5-1.4-40-4.1l-3.8,16.3c12.7,3,27.8,4.6,43.8,4.6c40.4,0,83.9-10.5,83.9-33.5V172
		C396.9,149,353.5,138.5,313.1,138.5z"/>
	<linearGradient id="SVGID_2_" gradientUnits="userSpaceOnUse" x1="199.7881" y1="3.9372" x2="205.7881" y2="325.9372">
		<stop  offset="0" style="stop-color:#F37E5F"/>
		<stop  offset="0.5" style="stop-color:#EC1C24"/>
		<stop  offset="1" style="stop-color:#CF232A"/>
	</linearGradient>
	<path class="st15" d="M276.5,123.6c-1.9-1.6-4.5-2.3-6.9-1.8L135.5,147c-4,0.7-6.8,4.2-6.8,8.2v184.5c0,4,2.9,7.5,6.8,8.2
		l134.2,25.2c0.5,0.1,1,0.2,1.5,0.2c1.9,0,3.8-0.7,5.3-1.9c1.9-1.6,3-4,3-6.5V130.1C279.6,127.6,278.5,125.2,276.5,123.6z"/>
	<path class="st16" d="M245.5,286.6L212,194.3c-2.4-6.6-13.3-6.6-15.7,0l-33.5,92.2c-1.6,4.4,0.7,9.2,5,10.7c4.4,1.6,9.2-0.7,10.7-5
		l7.1-19.6h37l7.1,19.6c1.2,3.4,4.4,5.5,7.9,5.5c1,0,1.9-0.2,2.9-0.5C244.8,295.7,247.1,290.9,245.5,286.6z M191.7,255.9l12.4-34.2
		l12.4,34.2H191.7z"/>
</g>
<g class="st0">
	<g class="st4">
		<path class="st17" d="M288.8,115.5c-1.4-1.1-3.3-1.6-5-1.2l-154,35.5c-2.7,0.6-4.6,3-4.6,5.8v201.4c0,2.9,2.1,5.4,5,5.9l154,23.7
			c3.2,0.5,6.3-1.7,6.8-5c0-0.3,0.1-0.6,0.1-0.9V120.2C291,118.4,290.2,116.6,288.8,115.5z"/>
		<path class="st17" d="M403.5,363H285.1c-3.3,0-5.9-2.7-5.9-5.9c0-3.3,2.7-5.9,5.9-5.9h112.5V149.8H285.1c-3.3,0-5.9-2.7-5.9-5.9
			c0-3.3,2.7-5.9,5.9-5.9h118.5c3.3,0,5.9,2.7,5.9,5.9v213.2C409.5,360.3,406.8,363,403.5,363z"/>
	</g>
	<path class="st16" d="M225.8,303.8c-2.6,0-5-1.8-5.7-4.3l-18-63l-18,63c-1.3,3.1-4.9,4.6-8,3.3c-1.5-0.6-2.7-1.8-3.3-3.3
		l-23.7-82.9c-1-3.1,0.7-6.4,3.8-7.4c3.1-1,6.4,0.7,7.4,3.8c0,0.1,0.1,0.2,0.1,0.3l18,63l18-63c1.3-3.1,4.9-4.6,8-3.3
		c1.5,0.6,2.7,1.8,3.3,3.3l18,63l18-63c0.9-3.1,4.1-5,7.2-4.1c0,0,0.1,0,0.1,0c3.1,0.9,5,4.2,4.1,7.3l-23.7,82.9
		C230.8,302,228.5,303.8,225.8,303.8z"/>
	<g class="st4">
		<path class="st17" d="M379.8,185.3h-94.8c-3.3,0-5.9-2.7-5.9-5.9c0-3.3,2.7-5.9,5.9-5.9h94.8c3.3,0,5.9,2.7,5.9,5.9
			C385.8,182.7,383.1,185.3,379.8,185.3z"/>
		<path class="st17" d="M379.8,220.8h-94.8c-3.3,0-5.9-2.7-5.9-5.9c0-3.3,2.7-5.9,5.9-5.9h94.8c3.3,0,5.9,2.7,5.9,5.9
			C385.8,218.2,383.1,220.8,379.8,220.8z"/>
		<path class="st17" d="M379.8,256.4h-94.8c-3.3,0-5.9-2.7-5.9-5.9c0-3.3,2.7-5.9,5.9-5.9h94.8c3.3,0,5.9,2.7,5.9,5.9
			C385.8,253.7,383.1,256.4,379.8,256.4z"/>
		<path class="st17" d="M379.8,291.9h-94.8c-3.3,0-5.9-2.7-5.9-5.9c0-3.3,2.7-5.9,5.9-5.9h94.8c3.3,0,5.9,2.7,5.9,5.9
			C385.8,289.3,383.1,291.9,379.8,291.9z"/>
		<path class="st17" d="M379.8,327.5h-94.8c-3.3,0-5.9-2.7-5.9-5.9c0-3.3,2.7-5.9,5.9-5.9h94.8c3.3,0,5.9,2.7,5.9,5.9
			C385.8,324.8,383.1,327.5,379.8,327.5z"/>
	</g>
</g>
<g>
	<path class="st18" d="M404.4,351.2H280.1c-4.9,0-8.9-4-8.9-8.9s0-172.8,0-177.7c0-4.9,4-8.9,8.9-8.9h124.4c4.9,0,8.9,4,8.9,8.9
		v177.7C413.3,347.2,409.4,351.2,404.4,351.2z"/>
	<g>
		<path class="st19" d="M315.6,209h-35.5c-4.9,0-8.9-4-8.9-8.9c0-4.9,4-8.9,8.9-8.9h35.5c4.9,0,8.9,4,8.9,8.9
			C324.5,205,320.5,209,315.6,209z"/>
		<path class="st19" d="M315.6,244.5h-35.5c-4.9,0-8.9-4-8.9-8.9c0-4.9,4-8.9,8.9-8.9h35.5c4.9,0,8.9,4,8.9,8.9
			C324.5,240.6,320.5,244.5,315.6,244.5z"/>
		<path class="st19" d="M315.6,280.1h-35.5c-4.9,0-8.9-4-8.9-8.9s4-8.9,8.9-8.9h35.5c4.9,0,8.9,4,8.9,8.9S320.5,280.1,315.6,280.1z"
			/>
		<path class="st19" d="M315.6,315.6h-35.5c-4.9,0-8.9-4-8.9-8.9s4-8.9,8.9-8.9h35.5c4.9,0,8.9,4,8.9,8.9S320.5,315.6,315.6,315.6z"
			/>
		<path class="st19" d="M368.9,209h-17.8c-4.9,0-8.9-4-8.9-8.9c0-4.9,4-8.9,8.9-8.9h17.8c4.9,0,8.9,4,8.9,8.9
			C377.8,205,373.8,209,368.9,209z"/>
		<path class="st19" d="M368.9,244.5h-17.8c-4.9,0-8.9-4-8.9-8.9c0-4.9,4-8.9,8.9-8.9h17.8c4.9,0,8.9,4,8.9,8.9
			C377.8,240.6,373.8,244.5,368.9,244.5z"/>
		<path class="st19" d="M368.9,280.1h-17.8c-4.9,0-8.9-4-8.9-8.9s4-8.9,8.9-8.9h17.8c4.9,0,8.9,4,8.9,8.9S373.8,280.1,368.9,280.1z"
			/>
		<path class="st19" d="M368.9,315.6h-17.8c-4.9,0-8.9-4-8.9-8.9s4-8.9,8.9-8.9h17.8c4.9,0,8.9,4,8.9,8.9S373.8,315.6,368.9,315.6z"
			/>
	</g>
	<path class="st20" d="M285.7,122.2c-2-1.7-4.7-2.4-7.3-1.9L136.3,147c-4.2,0.8-7.2,4.4-7.2,8.7v195.5c0,4.3,3,7.9,7.2,8.7
		l142.2,26.7c0.5,0.1,1.1,0.2,1.6,0.2c2.1,0,4.1-0.7,5.7-2c2-1.7,3.2-4.2,3.2-6.8V129C288.9,126.4,287.8,123.9,285.7,122.2z"/>
</g>
<g class="st0">
	<g class="st4">
		<path class="st21" d="M332.5,167.6c-3.3,0-5.9,2.7-5.9,5.9V209c0,3.3,2.7,5.9,5.9,5.9H368c3.3,0,5.9-2.7,5.9-5.9
			C373.9,186.1,355.4,167.6,332.5,167.6z"/>
		<path class="st21" d="M332.5,226.8c-9.8,0-17.8-8-17.8-17.8v-29c-22.6,3.2-38.3,24.2-35.1,46.8s24.2,38.3,46.8,35.1
			c18.2-2.6,32.5-16.9,35.1-35.1H332.5z"/>
		<path class="st21" d="M288.8,109.6c-1.4-1.1-3.3-1.6-5-1.2l-154,35.5c-2.7,0.6-4.6,3-4.6,5.8v201.4c0,2.9,2.1,5.4,5,5.9l154,23.7
			c3.2,0.5,6.3-1.7,6.8-5c0-0.3,0.1-0.6,0.1-0.9V114.3C291,112.5,290.2,110.7,288.8,109.6z"/>
		<path class="st21" d="M403.5,357.1H285.1c-3.3,0-5.9-2.7-5.9-5.9c0-3.3,2.7-5.9,5.9-5.9h112.5V143.9H285.1c-3.3,0-5.9-2.7-5.9-5.9
			c0-3.3,2.7-5.9,5.9-5.9h118.5c3.3,0,5.9,2.7,5.9,5.9v213.2C409.5,354.4,406.8,357.1,403.5,357.1z"/>
		<path class="st21" d="M368,321.6h-82.9c-3.3,0-5.9-2.7-5.9-5.9c0-3.3,2.7-5.9,5.9-5.9H368c3.3,0,5.9,2.7,5.9,5.9
			C373.9,318.9,371.3,321.6,368,321.6z"/>
		<path class="st21" d="M368,286h-82.9c-3.3,0-5.9-2.7-5.9-5.9c0-3.3,2.7-5.9,5.9-5.9H368c3.3,0,5.9,2.7,5.9,5.9
			C373.9,283.4,371.3,286,368,286z"/>
	</g>
</g>
<g>
	<path class="st12" d="M228.3,300.2c-2.8,1.3-8.4,2.4-15.3,2.4c-25.8,0-38.1-21.3-38.1-49.9c0-38.1,21.1-52.9,40.8-52.9
		c6.9,0,11.7,1.4,13.6,2.7l-3.3,16.5c-2.3-1-4.8-1.9-9.1-1.9c-11.1,0-21.1,9.6-21.1,34.6c0,24.1,9.1,33.6,21.1,33.6
		c3.3,0,7-0.8,9.4-1.5L228.3,300.2z"/>
</g>
</svg>
