<?xml version="1.0" encoding="utf-8"?>
<!-- Generator: Adobe Illustrator 24.0.1, SVG Export Plug-In . SVG Version: 6.00 Build 0)  -->
<svg version="1.1" id="Layer_1" xmlns="http://www.w3.org/2000/svg" xmlns:xlink="http://www.w3.org/1999/xlink" x="0px" y="0px"
	 viewBox="0 0 512 512" style="enable-background:new 0 0 512 512;" xml:space="preserve">
<style type="text/css">
	.st0{display:none;}
	.st1{display:inline;fill:#200A7F;stroke:#18E5EA;stroke-width:20;stroke-miterlimit:10;}
	.st2{display:inline;fill:#EF0B79;}
	.st3{display:inline;fill:#18E5EA;}
	.st4{display:inline;}
	.st5{fill:#E9F21C;}
	.st6{display:inline;fill:none;}
	.st7{display:inline;fill:#EF3A24;}
	.st8{font-family:'MyriadPro-Regular';}
	.st9{font-size:250px;}
	.st10{display:inline;fill:#FFFFFF;}
	.st11{opacity:0.12;fill:#ABABAB;enable-background:new    ;}
	.st12{fill:#FFFFFF;}
	.st13{display:none;opacity:8.000000e-02;fill:#EFEFEF;enable-background:new    ;}
	.st14{display:inline;fill:url(#SVGID_1_);}
	.st15{display:inline;fill:url(#SVGID_2_);}
	.st16{display:inline;fill:#FAFAFA;}
	.st17{display:inline;fill:#ECEFF1;}
	.st18{fill:#388E3C;}
	.st19{display:inline;fill:#2E7D32;}
	.st20{fill:#FF5722;}
	.st21{display:none;fill:url(#SVGID_3_);}
	.st22{display:none;fill:url(#SVGID_4_);}
	.st23{display:none;fill:url(#SVGID_5_);}
	.st24{display:none;fill:url(#SVGID_6_);}
	.st25{fill:url(#SVGID_7_);}
	.st26{fill:url(#SVGID_8_);}
	.st27{fill:url(#SVGID_9_);}
	.st28{fill:url(#SVGID_10_);}
	.st29{fill:url(#SVGID_11_);}
</style>
<g id="Layer_3" class="st0">
	<path class="st1" d="M401.1,212.2c5.1,15.3,7.9,31.7,7.9,48.8c0,85.3-69.2,154.5-154.5,154.5S100,346.3,100,261
		s69.2-154.5,154.5-154.5c51.2,0,96.6,24.9,124.7,63.3"/>
	<path class="st2" d="M333.4,255.2c0,4.2-3.3,7.7-7.4,7.7H174.9c-4.1,0-7.4-3.4-7.4-7.7l0,0c0-4.2,3.3-7.7,7.4-7.7H326
		C330.1,247.5,333.4,250.9,333.4,255.2L333.4,255.2z"/>
	<path class="st2" d="M333.4,284.8c0,4.2-3.3,7.6-7.4,7.6H174.9c-4.1,0-7.4-3.4-7.4-7.6l0,0c0-4.2,3.3-7.6,7.4-7.6H326
		C330.1,277.1,333.4,280.6,333.4,284.8L333.4,284.8z"/>
	<path class="st2" d="M333.4,313c0,4.2-3.3,7.7-7.4,7.7H174.9c-4.1,0-7.4-3.4-7.4-7.7l0,0c0-4.2,3.3-7.6,7.4-7.6H326
		C330.1,305.4,333.4,308.8,333.4,313L333.4,313z"/>
	<path class="st2" d="M333.4,338.4c0,4.2-3.3,7.7-7.4,7.7H174.9c-4.1,0-7.4-3.4-7.4-7.7l0,0c0-4.2,3.3-7.6,7.4-7.6H326
		C330.1,330.7,333.4,334.1,333.4,338.4L333.4,338.4z"/>
	<polygon class="st3" points="395,191.5 320.2,165.2 380.4,113.5 	"/>
	<g class="st4">
		<g>
			<g>
				<path class="st5" d="M241.5,239.2c-2.3,0-4.4-1.1-5.8-2.9l-18.8-24.8c-2.4-3.2-1.8-7.8,1.4-10.3c3.2-2.4,7.8-1.8,10.3,1.4
					l12.3,16.3l31-49.8c2.1-3.4,6.6-4.5,10.1-2.3c3.4,2.1,4.5,6.6,2.3,10.1l-36.7,58.9c-1.3,2-3.5,3.3-5.9,3.4
					C241.7,239.2,241.6,239.2,241.5,239.2z"/>
			</g>
		</g>
	</g>
</g>
<g id="Layer_2_2_" class="st0">
	<rect x="121" y="171.5" class="st6" width="298" height="251"/>
	<text transform="matrix(1 0 0 1 121 348.9979)" class="st7 st8 st9">24</text>
	<circle class="st10" cx="138.3" cy="91.8" r="17.3"/>
	<circle class="st10" cx="185.3" cy="91.8" r="17.3"/>
	<circle class="st10" cx="232.3" cy="91.8" r="17.3"/>
	<circle class="st10" cx="278.3" cy="91.8" r="17.3"/>
	<circle class="st10" cx="323.3" cy="91.8" r="17.3"/>
	<circle class="st10" cx="368.3" cy="91.8" r="17.3"/>
</g>
<path class="st11" d="M371.3,495.1H142c-73.7,0-133.5-59.8-133.5-133.5v-218C8.5,69.9,68.3,10.1,142,10.1h229.2
	c73.7,0,133.5,59.8,133.5,133.5v218C504.8,435.4,445,495.1,371.3,495.1z"/>
<path class="st12" d="M365.5,489.9h-218C73.8,489.9,14,430.1,14,356.4v-207C14,75.7,73.8,15.9,147.5,15.9h218
	c73.7,0,133.5,59.8,133.5,133.5v207C499,430.1,439.2,489.9,365.5,489.9z"/>
<path class="st13" d="M502,156.5v207c0,73.7-59.8,133.5-133.5,133.5h-218c-51.4,0-96.1-29.1-118.4-71.7c-3.3-11.7-5.1-24-5.1-36.8
	v-207C27,107.8,86.8,48,160.5,48h218c51.4,0,96.1,29.1,118.4,71.7C500.2,131.4,502,143.8,502,156.5z"/>
<path class="st13" d="M510,158.5v207c0,73.7-59.8,133.5-133.5,133.5h-218c-61,0-112.4-40.9-128.4-96.7c-3.3-11.7-5.1-24-5.1-36.8
	v-207C25,84.8,84.8,25,158.5,25h218c51.4,0,96.1,29.1,118.4,71.7C504.5,115.2,510,136.2,510,158.5z"/>
<image style="display:none;overflow:visible;enable-background:new    ;" width="696" height="428" xlink:href="../../Downloads/macOSBigSur-696x428.png"  transform="matrix(0.75 0 0 0.75 -31 244.3898)">
</image>
<g class="st0">
	<linearGradient id="SVGID_1_" gradientUnits="userSpaceOnUse" x1="328.2525" y1="1.5434" x2="334.2525" y2="323.5435">
		<stop  offset="0" style="stop-color:#F37E5F"/>
		<stop  offset="0.5" style="stop-color:#EC1C24"/>
		<stop  offset="1" style="stop-color:#CF232A"/>
	</linearGradient>
	<path class="st14" d="M313.1,138.5c-16,0-31.2,1.6-43.9,4.6l3.8,16.3c11.5-2.7,25.3-4.1,40-4.1c44,0,67.1,12.5,67.1,16.8
		s-23.1,16.8-67.1,16.8c-14.7,0-28.5-1.4-40-4.1l-3.9,16.3c12.7,3,27.9,4.6,43.9,4.6c24.8,0,50.7-4,67.1-12.4v29.1
		c0,4.3-23.1,16.8-67.1,16.8c-14.7,0-28.5-1.4-40-4.1l-3.9,16.3c12.7,3,27.9,4.6,43.9,4.6c24.8,0,50.7-4,67.1-12.4v29.1
		c0,4.3-23.1,16.8-67.1,16.8c-14.7,0-28.5-1.4-40-4.1l-3.8,16.3c12.7,3,27.8,4.6,43.8,4.6c24.8,0,50.7-4,67.1-12.4V323
		c0,4.3-23.1,16.8-67.1,16.8c-14.7,0-28.5-1.4-40-4.1l-3.8,16.3c12.7,3,27.8,4.6,43.8,4.6c40.4,0,83.9-10.5,83.9-33.5V172
		C396.9,149,353.5,138.5,313.1,138.5z"/>
	<linearGradient id="SVGID_2_" gradientUnits="userSpaceOnUse" x1="199.7881" y1="3.9372" x2="205.7881" y2="325.9372">
		<stop  offset="0" style="stop-color:#F37E5F"/>
		<stop  offset="0.5" style="stop-color:#EC1C24"/>
		<stop  offset="1" style="stop-color:#CF232A"/>
	</linearGradient>
	<path class="st15" d="M276.5,123.6c-1.9-1.6-4.5-2.3-6.9-1.8L135.5,147c-4,0.7-6.8,4.2-6.8,8.2v184.5c0,4,2.9,7.5,6.8,8.2
		l134.2,25.2c0.5,0.1,1,0.2,1.5,0.2c1.9,0,3.8-0.7,5.3-1.9c1.9-1.6,3-4,3-6.5V130.1C279.6,127.6,278.5,125.2,276.5,123.6z"/>
	<path class="st16" d="M245.5,286.6L212,194.3c-2.4-6.6-13.3-6.6-15.7,0l-33.5,92.2c-1.6,4.4,0.7,9.2,5,10.7c4.4,1.6,9.2-0.7,10.7-5
		l7.1-19.6h37l7.1,19.6c1.2,3.4,4.4,5.5,7.9,5.5c1,0,1.9-0.2,2.9-0.5C244.8,295.7,247.1,290.9,245.5,286.6z M191.7,255.9l12.4-34.2
		l12.4,34.2H191.7z"/>
</g>
<g class="st0">
	<path class="st17" d="M404.4,351.2H280.1c-4.9,0-8.9-4-8.9-8.9s0-172.8,0-177.7c0-4.9,4-8.9,8.9-8.9h124.4c4.9,0,8.9,4,8.9,8.9
		v177.7C413.3,347.2,409.4,351.2,404.4,351.2z"/>
	<g class="st4">
		<path class="st18" d="M315.6,209h-35.5c-4.9,0-8.9-4-8.9-8.9c0-4.9,4-8.9,8.9-8.9h35.5c4.9,0,8.9,4,8.9,8.9
			C324.5,205,320.5,209,315.6,209z"/>
		<path class="st18" d="M315.6,244.5h-35.5c-4.9,0-8.9-4-8.9-8.9c0-4.9,4-8.9,8.9-8.9h35.5c4.9,0,8.9,4,8.9,8.9
			C324.5,240.6,320.5,244.5,315.6,244.5z"/>
		<path class="st18" d="M315.6,280.1h-35.5c-4.9,0-8.9-4-8.9-8.9s4-8.9,8.9-8.9h35.5c4.9,0,8.9,4,8.9,8.9S320.5,280.1,315.6,280.1z"
			/>
		<path class="st18" d="M315.6,315.6h-35.5c-4.9,0-8.9-4-8.9-8.9s4-8.9,8.9-8.9h35.5c4.9,0,8.9,4,8.9,8.9S320.5,315.6,315.6,315.6z"
			/>
		<path class="st18" d="M368.9,209h-17.8c-4.9,0-8.9-4-8.9-8.9c0-4.9,4-8.9,8.9-8.9h17.8c4.9,0,8.9,4,8.9,8.9
			C377.8,205,373.8,209,368.9,209z"/>
		<path class="st18" d="M368.9,244.5h-17.8c-4.9,0-8.9-4-8.9-8.9c0-4.9,4-8.9,8.9-8.9h17.8c4.9,0,8.9,4,8.9,8.9
			C377.8,240.6,373.8,244.5,368.9,244.5z"/>
		<path class="st18" d="M368.9,280.1h-17.8c-4.9,0-8.9-4-8.9-8.9s4-8.9,8.9-8.9h17.8c4.9,0,8.9,4,8.9,8.9S373.8,280.1,368.9,280.1z"
			/>
		<path class="st18" d="M368.9,315.6h-17.8c-4.9,0-8.9-4-8.9-8.9s4-8.9,8.9-8.9h17.8c4.9,0,8.9,4,8.9,8.9S373.8,315.6,368.9,315.6z"
			/>
	</g>
	<path class="st19" d="M285.7,122.2c-2-1.7-4.7-2.4-7.3-1.9L136.3,147c-4.2,0.8-7.2,4.4-7.2,8.7v195.5c0,4.3,3,7.9,7.2,8.7
		l142.2,26.7c0.5,0.1,1.1,0.2,1.6,0.2c2.1,0,4.1-0.7,5.7-2c2-1.7,3.2-4.2,3.2-6.8V129C288.9,126.4,287.8,123.9,285.7,122.2z"/>
</g>
<g class="st0">
	<g class="st4">
		<path class="st20" d="M332.5,167.6c-3.3,0-5.9,2.7-5.9,5.9V209c0,3.3,2.7,5.9,5.9,5.9H368c3.3,0,5.9-2.7,5.9-5.9
			C373.9,186.1,355.4,167.6,332.5,167.6z"/>
		<path class="st20" d="M332.5,226.8c-9.8,0-17.8-8-17.8-17.8v-29c-22.6,3.2-38.3,24.2-35.1,46.8s24.2,38.3,46.8,35.1
			c18.2-2.6,32.5-16.9,35.1-35.1H332.5z"/>
		<path class="st20" d="M288.8,109.6c-1.4-1.1-3.3-1.6-5-1.2l-154,35.5c-2.7,0.6-4.6,3-4.6,5.8v201.4c0,2.9,2.1,5.4,5,5.9l154,23.7
			c3.2,0.5,6.3-1.7,6.8-5c0-0.3,0.1-0.6,0.1-0.9V114.3C291,112.5,290.2,110.7,288.8,109.6z"/>
		<path class="st20" d="M368,321.6h-82.9c-3.3,0-5.9-2.7-5.9-5.9c0-3.3,2.7-5.9,5.9-5.9H368c3.3,0,5.9,2.7,5.9,5.9
			C373.9,318.9,371.3,321.6,368,321.6z"/>
		<path class="st20" d="M368,286h-82.9c-3.3,0-5.9-2.7-5.9-5.9c0-3.3,2.7-5.9,5.9-5.9H368c3.3,0,5.9,2.7,5.9,5.9
			C373.9,283.4,371.3,286,368,286z"/>
	</g>
</g>
<linearGradient id="SVGID_3_" gradientUnits="userSpaceOnUse" x1="299" y1="199.2925" x2="382" y2="199.2925">
	<stop  offset="0" style="stop-color:#FFF7A9"/>
	<stop  offset="0.5" style="stop-color:#FFF100"/>
	<stop  offset="1" style="stop-color:#FFD700"/>
</linearGradient>
<circle class="st21" cx="340.5" cy="199.3" r="41.5"/>
<linearGradient id="SVGID_4_" gradientUnits="userSpaceOnUse" x1="299" y1="320.9205" x2="370.1296" y2="320.9205">
	<stop  offset="0" style="stop-color:#FFF7A9"/>
	<stop  offset="0.5" style="stop-color:#FFF100"/>
	<stop  offset="1" style="stop-color:#FFD700"/>
</linearGradient>
<polygon class="st22" points="370.1,361.3 334.6,342.1 299,323 333.4,301.8 367.8,280.5 368.9,320.9 "/>
<linearGradient id="SVGID_5_" gradientUnits="userSpaceOnUse" x1="129.319" y1="250.1336" x2="408.8496" y2="250.1336">
	<stop  offset="5.618000e-03" style="stop-color:#D6E1F2"/>
	<stop  offset="0.5112" style="stop-color:#BBD0EC"/>
	<stop  offset="1" style="stop-color:#A2BCE2"/>
</linearGradient>
<path class="st23" d="M403.6,232c-0.1-0.8-1.1-0.9-5.4-1.2h-2.3c-2.1,0-3.9,0.1-4.6,0.3c-0.9,0.3-3.4,3-6.6,7.5
	c-2.8,3.8-5.4,7-5.5,7c-0.3,0-2.8-3.2-5.8-7c-3-4-6-7-6.7-7.3c-0.8-0.1-3.3-0.3-5.8-0.1c-4.1,0.1-4.6,0.3-4.7,1.4
	c-0.1,0.8,1.5,4,3.4,7.6c2,3.5,4.4,7.7,5.2,9.3l1.7,2.9l-5.5,7c-7.2,9-7.2,9.2,0.9,9.4l6.2,0.1l11-10l11.7,10.7l5.6-0.3
	c3-0.3,5.8-0.5,6-0.7c1.1-0.8,0.1-2.4-5-8.9c-2.9-4-5.3-7.1-5.3-7.3c0-0.3,2.7-4.6,5.8-9.8C401.2,237.3,403.8,232.5,403.6,232z"/>
<linearGradient id="SVGID_6_" gradientUnits="userSpaceOnUse" x1="129.319" y1="254.783" x2="408.8496" y2="254.783">
	<stop  offset="5.618000e-03" style="stop-color:#D6E1F2"/>
	<stop  offset="0.5112" style="stop-color:#BBD0EC"/>
	<stop  offset="1" style="stop-color:#A2BCE2"/>
</linearGradient>
<path class="st24" d="M408.1,200.7c-0.8-0.9-80.3-0.9-80.8-0.1c-0.3,0.3-2.2,12.7-4.4,27.5c-2.1,14.8-4.1,27.1-4.1,27.3
	s-1.4-2.9-2.7-7.2c-1.4-4.3-2.8-8.1-3.1-8.5c-0.3-0.5-2.1-0.8-4.9-0.8h-4.3v-78.3h1.6c-0.1-0.9-0.3-1.8-0.3-2.7
	c-0.1-2.3,0.3-4.5,1-6.6h-1.8v-12.7c0-10.7-0.2-12.8-0.9-13.4c-0.3-0.3-0.9-0.3-1.6-0.3c-1.4,0-3.7,0.3-8.3,1.2
	c-7,1.2-128.7,20-154.9,24c-3.7,0.5-7.3,1.2-7.9,1.5l-1.4,0.5v102.5c0,81.2,0.1,102.6,0.8,103c0.3,0.3,22.1,3.8,48.1,7.7
	c71.4,10.7,105.3,16.1,113.8,18c4.3,0.9,8.7,1.7,9.9,1.5l2.1-0.1l0.2-27.1l0.8,0c-1-2.4-1.6-4.9-1.7-7.6c-0.1-1.8,0.1-3.5,0.6-5.2
	v-83.3l3.5,13.7c2,7.6,3.8,14,4.1,14.5c0.3,0.6,2.1,0.8,8.3,0.5c4.6-0.3,8.1-0.6,8.5-0.9c0.3-0.3,4.3-16,8.8-34.8l8.2-34.2l9.3-0.3
	c5.2-0.3,19.1-0.3,31.1-0.5c16.1,0,22-0.3,22.6-0.8c0.5-0.5,0.8-3.3,0.8-8.9C408.8,204,408.6,201.2,408.1,200.7z M234.9,293.8
	l-3.5-0.3l-4.3-21.6c-2.3-11.9-4.4-22.1-4.6-22.6c-0.2-0.5-0.8-0.9-1.4-0.9c-1.4,0-1.1-0.9-6.7,24c-2.4,10.8-4.6,19.9-4.6,19.9
	s-3-0.1-6.7-0.3l-6.7-0.3l-5.4-21.5c-4.6-18.5-5.5-21.5-6.4-21.5s-1.2,0.7-1.8,4c-2.2,12.1-6.6,35.6-7,36.5c-0.3,0.9-1.1,0.9-6,0.9
	h-5.8l1.4-6.6c4.6-21,11.4-50.8,12.1-51.4c0.3-0.3,3.2-0.7,7-0.9l6.3-0.3l0.5,2.1c0.3,1.1,2.2,9.3,4.4,18
	c5.6,23.3,5.2,21.8,6.4,21.8c0.9,0,1.4-1.2,3.1-8.4c1.1-4.6,3.3-14.3,5-21.5l3.2-13.1l3.2-0.3c2.2-0.5,4.7-0.6,6.7-0.6
	c2.1,0,3.7,0.1,4,0.3c0.9,0.6,3.3,9.2,11,39.1c3.4,13.3,6.2,24.4,6.4,24.9C245,294.3,243.3,294.3,234.9,293.8z"/>
<g>
	<linearGradient id="SVGID_7_" gradientUnits="userSpaceOnUse" x1="286.6865" y1="237.235" x2="362.8899" y2="237.235">
		<stop  offset="5.618000e-03" style="stop-color:#D6E1F2"/>
		<stop  offset="0.5112" style="stop-color:#BBD0EC"/>
		<stop  offset="1" style="stop-color:#A2BCE2"/>
	</linearGradient>
	<path class="st25" d="M362.9,173.7V161c-17.8,0-33,12.7-36.2,30.2l-7.2,39.6h-16.9v12.7h14.6l-6.8,37.4
		c-2.1,11.5-12,19.8-23.7,19.8v12.7c17.8,0,33-12.7,36.2-30.2l7.2-39.6h13.8v-12.7h-11.4l6.8-37.4
		C341.3,182,351.2,173.7,362.9,173.7z"/>
	<linearGradient id="SVGID_8_" gradientUnits="userSpaceOnUse" x1="353.3644" y1="237.235" x2="374.3486" y2="237.235">
		<stop  offset="5.618000e-03" style="stop-color:#D6E1F2"/>
		<stop  offset="0.5112" style="stop-color:#BBD0EC"/>
		<stop  offset="1" style="stop-color:#A2BCE2"/>
	</linearGradient>
	<path class="st26" d="M369.2,199.1l-5.1-3.8c-0.4,0.6-10.8,14.7-10.8,41.9s10.4,41.3,10.8,41.9l10.2-7.6
		c-0.1-0.1-8.3-11.6-8.3-34.3c0-22.6,8.2-34.2,8.3-34.3L369.2,199.1z"/>
	<linearGradient id="SVGID_9_" gradientUnits="userSpaceOnUse" x1="418.1091" y1="237.235" x2="439.0932" y2="237.235">
		<stop  offset="5.618000e-03" style="stop-color:#D6E1F2"/>
		<stop  offset="0.5112" style="stop-color:#BBD0EC"/>
		<stop  offset="1" style="stop-color:#A2BCE2"/>
	</linearGradient>
	<path class="st27" d="M418.1,202.9c0.1,0.1,8.3,11.6,8.3,34.3c0,22.6-8.2,34.2-8.3,34.3l5.1,3.8l5.1,3.8
		c0.4-0.6,10.8-14.7,10.8-41.9s-10.4-41.3-10.8-41.9L418.1,202.9z"/>
	<linearGradient id="SVGID_10_" gradientUnits="userSpaceOnUse" x1="376.8059" y1="238.8226" x2="412.4766" y2="238.8226">
		<stop  offset="5.618000e-03" style="stop-color:#D6E1F2"/>
		<stop  offset="0.5112" style="stop-color:#BBD0EC"/>
		<stop  offset="1" style="stop-color:#A2BCE2"/>
	</linearGradient>
	<path class="st28" d="M402.2,217.6l-7.6,10.4l-7.6-10.4l-10.3,7.5l10,13.7l-10,13.7l10.3,7.5l7.6-10.4l7.6,10.4l10.3-7.5l-10-13.7
		l10-13.7L402.2,217.6z"/>
	<g>
		<linearGradient id="SVGID_11_" gradientUnits="userSpaceOnUse" x1="125.1553" y1="250.4402" x2="290.9983" y2="250.4402">
			<stop  offset="5.618000e-03" style="stop-color:#D6E1F2"/>
			<stop  offset="0.5112" style="stop-color:#BBD0EC"/>
			<stop  offset="1" style="stop-color:#A2BCE2"/>
		</linearGradient>
		<path class="st29" d="M288.8,115.5c-1.4-1.1-3.3-1.6-5-1.2l-154,35.5c-2.7,0.6-4.6,3-4.6,5.8v201.4c0,2.9,2.1,5.4,5,5.9l154,23.7
			c3.2,0.5,6.3-1.7,6.8-5c0-0.3,0.1-0.6,0.1-0.9V120.2C291,118.4,290.2,116.6,288.8,115.5z"/>
	</g>
</g>
<g>
	<path class="st12" d="M238.5,265.3c-0.4-9.6-1.2-22.6-0.9-33.4h-0.5c-1.8,10.8-4.5,23.2-6.4,31L222,299H208l-8.4-35.5
		c-2-8.1-4.6-20.7-6.1-31.6H193c-0.3,10.9-0.9,23.7-1.5,33.7l-1.6,35.1h-16.9l7.3-101.1H201l8.1,36.6c2.9,12.7,5.4,24,7.2,35.4h0.3
		c1.5-11.3,3.7-22.6,6.4-35.4l7.9-36.6h20.7l6.1,101.1h-17.5L238.5,265.3z"/>
</g>
</svg>
