<?xml version="1.0" encoding="utf-8"?>
<!-- Generator: Adobe Illustrator 24.0.1, SVG Export Plug-In . SVG Version: 6.00 Build 0)  -->
<svg version="1.1" id="Layer_1" xmlns="http://www.w3.org/2000/svg" xmlns:xlink="http://www.w3.org/1999/xlink" x="0px" y="0px"
	 viewBox="0 0 512 512" style="enable-background:new 0 0 512 512;" xml:space="preserve">
<style type="text/css">
	.st0{display:none;}
	.st1{display:inline;fill:#200A7F;stroke:#18E5EA;stroke-width:20;stroke-miterlimit:10;}
	.st2{display:inline;fill:#EF0B79;}
	.st3{display:inline;fill:#18E5EA;}
	.st4{display:inline;}
	.st5{fill:#E9F21C;}
	.st6{display:inline;fill:none;}
	.st7{display:inline;fill:#EF3A24;}
	.st8{font-family:'MyriadPro-Regular';}
	.st9{font-size:250px;}
	.st10{display:inline;fill:#FFFFFF;}
	.st11{opacity:0.12;fill:#606060;enable-background:new    ;}
	.st12{fill:url(#SVGID_1_);}
	.st13{display:none;fill:url(#SVGID_2_);}
	.st14{display:none;opacity:8.000000e-02;fill:#EFEFEF;enable-background:new    ;}
	.st15{fill:none;}
	.st16{fill:url(#SVGID_3_);}
	.st17{fill:url(#SVGID_4_);}
	.st18{fill:url(#SVGID_5_);}
	.st19{fill:url(#SVGID_6_);}
	.st20{fill:#FFFFFF;}
</style>
<g id="Layer_3" class="st0">
	<path class="st1" d="M401.1,212.2c5.1,15.3,7.9,31.7,7.9,48.8c0,85.3-69.2,154.5-154.5,154.5S100,346.3,100,261
		s69.2-154.5,154.5-154.5c51.2,0,96.6,24.9,124.7,63.3"/>
	<path class="st2" d="M333.4,255.2c0,4.2-3.3,7.7-7.4,7.7H174.9c-4.1,0-7.4-3.4-7.4-7.7l0,0c0-4.2,3.3-7.7,7.4-7.7H326
		C330.1,247.5,333.4,250.9,333.4,255.2L333.4,255.2z"/>
	<path class="st2" d="M333.4,284.8c0,4.2-3.3,7.6-7.4,7.6H174.9c-4.1,0-7.4-3.4-7.4-7.6l0,0c0-4.2,3.3-7.6,7.4-7.6H326
		C330.1,277.1,333.4,280.6,333.4,284.8L333.4,284.8z"/>
	<path class="st2" d="M333.4,313c0,4.2-3.3,7.7-7.4,7.7H174.9c-4.1,0-7.4-3.4-7.4-7.7l0,0c0-4.2,3.3-7.6,7.4-7.6H326
		C330.1,305.4,333.4,308.8,333.4,313L333.4,313z"/>
	<path class="st2" d="M333.4,338.4c0,4.2-3.3,7.7-7.4,7.7H174.9c-4.1,0-7.4-3.4-7.4-7.7l0,0c0-4.2,3.3-7.6,7.4-7.6H326
		C330.1,330.7,333.4,334.1,333.4,338.4L333.4,338.4z"/>
	<polygon class="st3" points="395,191.5 320.2,165.2 380.4,113.5 	"/>
	<g class="st4">
		<g>
			<g>
				<path class="st5" d="M241.5,239.2c-2.3,0-4.4-1.1-5.8-2.9l-18.8-24.8c-2.4-3.2-1.8-7.8,1.4-10.3c3.2-2.4,7.8-1.8,10.3,1.4
					l12.3,16.3l31-49.8c2.1-3.4,6.6-4.5,10.1-2.3c3.4,2.1,4.5,6.6,2.3,10.1l-36.7,58.9c-1.3,2-3.5,3.3-5.9,3.4
					C241.7,239.2,241.6,239.2,241.5,239.2z"/>
			</g>
		</g>
	</g>
</g>
<g id="Layer_2_2_" class="st0">
	<rect x="121" y="171.5" class="st6" width="298" height="251"/>
	<text transform="matrix(1 0 0 1 121 348.9979)" class="st7 st8 st9">24</text>
	<circle class="st10" cx="138.3" cy="91.8" r="17.3"/>
	<circle class="st10" cx="185.3" cy="91.8" r="17.3"/>
	<circle class="st10" cx="232.3" cy="91.8" r="17.3"/>
	<circle class="st10" cx="278.3" cy="91.8" r="17.3"/>
	<circle class="st10" cx="323.3" cy="91.8" r="17.3"/>
	<circle class="st10" cx="368.3" cy="91.8" r="17.3"/>
</g>
<path class="st11" d="M371.3,495.1H142c-73.7,0-133.5-59.8-133.5-133.5v-218C8.5,69.9,68.3,10.1,142,10.1h229.2
	c73.7,0,133.5,59.8,133.5,133.5v218C504.8,435.4,445,495.1,371.3,495.1z"/>
<g>
	<linearGradient id="SVGID_1_" gradientUnits="userSpaceOnUse" x1="256.5" y1="-7.1455" x2="256.5" y2="520.8391">
		<stop  offset="0" style="stop-color:#7C76B7"/>
		<stop  offset="0.5" style="stop-color:#6561AB"/>
		<stop  offset="1" style="stop-color:#483F99"/>
	</linearGradient>
	<path class="st12" d="M499,149.4v207c0,73.7-59.8,133.5-133.5,133.5h-218c-14.1,0-27.6-2.2-40.3-6.2
		C60.7,469,25.3,429.6,16.3,380.9c-0.8-4-1.3-8-1.7-12.1c-0.4-4.1-0.6-8.2-0.6-12.4v-207c0-33.2,12.1-63.5,32.2-86.9
		C70.7,34,107,15.9,147.5,15.9h218C439.2,15.9,499,75.7,499,149.4z"/>
	<linearGradient id="SVGID_2_" gradientUnits="userSpaceOnUse" x1="14" y1="252.8956" x2="499" y2="252.8956">
		<stop  offset="0" style="stop-color:#7C76B7"/>
		<stop  offset="0.5" style="stop-color:#6561AB"/>
		<stop  offset="1" style="stop-color:#483F99"/>
	</linearGradient>
	<path class="st13" d="M499,149.4v207c0,73.7-59.8,133.5-133.5,133.5h-218c-14.1,0-27.6-2.2-40.3-6.2
		C60.7,469,25.3,429.6,16.3,380.9c-1.5-8-2.3-16.2-2.3-24.5v-207c0-33.2,12.1-63.5,32.2-86.9C70.7,34,107,15.9,147.5,15.9h218
		C439.2,15.9,499,75.7,499,149.4z"/>
</g>
<path class="st14" d="M502,156.5v207c0,73.7-59.8,133.5-133.5,133.5h-218c-51.4,0-96.1-29.1-118.4-71.7c-3.3-11.7-5.1-24-5.1-36.8
	v-207C27,107.8,86.8,48,160.5,48h218c51.4,0,96.1,29.1,118.4,71.7C500.2,131.4,502,143.8,502,156.5z"/>
<path class="st14" d="M510,158.5v207c0,73.7-59.8,133.5-133.5,133.5h-218c-61,0-112.4-40.9-128.4-96.7c-3.3-11.7-5.1-24-5.1-36.8
	v-207C25,84.8,84.8,25,158.5,25h218c51.4,0,96.1,29.1,118.4,71.7C504.5,115.2,510,136.2,510,158.5z"/>
<image style="display:none;overflow:visible;enable-background:new    ;" width="696" height="428" xlink:href="C:\Users\win10\Downloads\macOSBigSur-696x428.png"  transform="matrix(0.75 0 0 0.75 -31 244.3898)">
</image>
<rect x="54" y="156.5" class="st15" width="587" height="199"/>
<title>001 - Accessibility</title>
<desc>Created with Sketch.</desc>
<image style="display:none;overflow:visible;enable-background:new    ;" width="128" height="128" xlink:href="../adobe/AdobeBridge.png"  transform="matrix(0.999 0 0 0.999 163.4 512)">
</image>
<image style="display:none;overflow:visible;enable-background:new    ;" width="128" height="128" xlink:href="../adobe/AdobeDreamweaver.png"  transform="matrix(0.999 0 0 0.999 163.4 512)">
</image>
<image style="display:none;overflow:visible;enable-background:new    ;" width="128" height="128" xlink:href="../adobe/AdobeEncore.png"  transform="matrix(0.999 0 0 0.999 163.4 512)">
</image>
<image style="display:none;overflow:visible;enable-background:new    ;" width="128" height="128" xlink:href="../adobe/AdobeFirework.png"  transform="matrix(0.999 0 0 0.999 163.4 512)">
</image>
<image style="display:none;overflow:visible;enable-background:new    ;" width="128" height="128" xlink:href="../adobe/AdobeFlash.png"  transform="matrix(0.999 0 0 0.999 163.4 512)">
</image>
<image style="display:none;overflow:visible;enable-background:new    ;" width="128" height="128" xlink:href="../adobe/AdobeFlashBuilder.png"  transform="matrix(0.999 0 0 0.999 163.4 512)">
</image>
<image style="display:none;overflow:visible;enable-background:new    ;" width="128" height="128" xlink:href="../adobe/Adobeillustrator.png"  transform="matrix(0.999 0 0 0.999 163.4 512)">
</image>
<image style="display:none;overflow:visible;enable-background:new    ;" width="128" height="128" xlink:href="../adobe/AdobeIndesign.png"  transform="matrix(0.999 0 0 0.999 163.4 512)">
</image>
<image style="display:none;overflow:visible;enable-background:new    ;" width="128" height="128" xlink:href="../adobe/AdobeLightroom.png"  transform="matrix(0.999 0 0 0.999 163.4 512)">
</image>
<image style="display:none;overflow:visible;enable-background:new    ;" width="128" height="128" xlink:href="../adobe/AdobePhotoshop.png"  transform="matrix(0.999 0 0 0.999 163.4 512)">
</image>
<image style="display:none;overflow:visible;enable-background:new    ;" width="128" height="128" xlink:href="../adobe/AdobePrelude.png"  transform="matrix(0.999 0 0 0.999 163.4 512)">
</image>
<image style="display:none;overflow:visible;enable-background:new    ;" width="128" height="128" xlink:href="../adobe/AdobePremierePro.png"  transform="matrix(0.999 0 0 0.999 163.4 512)">
</image>
<linearGradient id="SVGID_3_" gradientUnits="userSpaceOnUse" x1="46.8" y1="517.6306" x2="47.87" y2="517.6306">
	<stop  offset="0" style="stop-color:#5B57A5"/>
	<stop  offset="0.5" style="stop-color:#2E3092"/>
	<stop  offset="1" style="stop-color:#474374"/>
</linearGradient>
<path class="st16" d="M47.8,518l0.1,0.1c-0.4-0.4-0.7-0.7-1.1-1.1C47.1,517.4,47.4,517.7,47.8,518z"/>
<linearGradient id="SVGID_4_" gradientUnits="userSpaceOnUse" x1="47.99" y1="518.4006" x2="48.29" y2="518.4006">
	<stop  offset="0" style="stop-color:#5B57A5"/>
	<stop  offset="0.5" style="stop-color:#2E3092"/>
	<stop  offset="1" style="stop-color:#474374"/>
</linearGradient>
<path class="st17" d="M48,518.3c0.1,0,0.2,0.1,0.3,0.2c-0.1,0-0.1-0.1-0.2-0.1L48,518.3z"/>
<linearGradient id="SVGID_5_" gradientUnits="userSpaceOnUse" x1="48.35" y1="518.6306" x2="48.59" y2="518.6306">
	<stop  offset="0" style="stop-color:#5B57A5"/>
	<stop  offset="0.5" style="stop-color:#2E3092"/>
	<stop  offset="1" style="stop-color:#474374"/>
</linearGradient>
<path class="st18" d="M48.5,518.6l0.1,0.1c0,0,0,0-0.1,0c0,0-0.1-0.1-0.1-0.1C48.5,518.6,48.5,518.6,48.5,518.6z"/>
<linearGradient id="SVGID_6_" gradientUnits="userSpaceOnUse" x1="48.59" y1="526.0656" x2="64.48" y2="526.0656">
	<stop  offset="0" style="stop-color:#5B57A5"/>
	<stop  offset="0.5" style="stop-color:#2E3092"/>
	<stop  offset="1" style="stop-color:#474374"/>
</linearGradient>
<path class="st19" d="M64.3,533.3c0,0,0.1,0.1,0.1,0.1c0,0,0,0,0,0c-2.8-2.4-5.6-4.9-8.2-7.4c-2.5-2.4-5-4.7-7.5-7.2l-0.1-0.1
	c2.5,2.5,5,4.9,7.5,7.2C58.8,528.4,61.5,530.9,64.3,533.3z"/>
<g>
	<g transform="translate(0.000000,227.000000) scale(0.100000,-0.100000)">
		<path class="st20" d="M2964.1,912.7l-8.8-69c-5.9-39.6-13.2-113-19.1-165.9l-8.8-95.5l-120.4-1.5
			c-584.4-5.9-1114.6-443.5-1309.8-1082.2c-29.3-95.5-39.6-164.5-45.5-333.4c-16.2-417.1,57.3-672.6,293.7-1017.7
			c95.4-140.9,308.4-365.6,440.5-465.5c3.8-2.7,7.5-5.4,11.1-8.1c-5.4,1.2-10.7,2.5-16.1,3.8c-30.3,7.4-60.4,15.3-90.3,23.9
			c-77.2,21.9-152.8,47.6-226.8,76.9c-52,20-103,43-153,67c-1,0-2,1-3,1c-40.6,19.7-80.8,40.1-120.4,61.8
			c-24.8,13.5-49.4,27.6-73.6,42.2c-1,0-1,1-2,1c-14.1,8.2-28.1,16.6-41.9,25.3c-0.8,0.5-1.6,1-2.4,1.5c-0.4,0.6-0.8,1.2-1.2,1.8
			C1174-1582.3,1063.9-1140.3,1130-673.3c48.4,336.3,205.6,696,406.8,932.5c295.2,348,610.9,541.9,1011.8,625.6
			c69,13.1,189.4,26.4,270.1,26.4L2964.1,912.7z"/>
		<path class="st20" d="M1927.3-582.4c-39.7-114.5-44.1-145.4-44.1-311.3c0-715.2,512.5-1220.3,1364.2-1345.1
			c61.6-8.8,181.3-15.7,310.7-19.9c-40.1-13.9-80.8-26.7-121.9-38.5c-31.3-9-62.9-17.4-94.8-25.1c-186.2-45.3-380.6-69.2-580.6-69.2
			h-200.6l-20,9.9h-0.1l-95.9,47.4c-309.8,155.7-571.2,414.1-723.9,713.7c-211.4,415.6-229.1,912-45.5,1296.7
			C1876,100.6,2271,398.7,2732.1,473.6c41.1,5.8,166,8.8,278.9,5.8c213-5.8,359.8-35.2,550.7-110.1c129.2-50,129.2-50,51.4-207.1
			c-36.7-74.9-69.1-139.5-72-141c-1.5-1.5-52.9,16.1-113.1,41.1c-151.2,61.7-289.3,89.6-461.1,89.6c-234.9,2.9-419.9-50-612.3-173.3
			C2159.3-146.2,2009.5-343,1927.3-582.4z"/>
		<path class="st20" d="M4365.7-1792.2c-4.8-4.2-9.6-8.3-14.4-12.5c-0.3-0.3-0.7-0.6-1-0.9c-1.8-1.6-3.7-3.2-5.5-4.9
			c-28.2-23.5-56.3-46.5-85.1-69.1c-14.1-11-28.4-22-42.9-32.9c-23-17-47-34-71-50c0,0,0,0-1,0c-0.5-0.5-1-1-1.7-1.6
			c-0.6-0.4-1.3-0.9-2.3-1.4c-9.6-6.5-19.2-13-28.8-19.4c-19.7-13.1-39.6-25.9-59.6-38.3c-12.2-7.6-24.4-15-36.6-22.3
			c-17-10.3-34.2-20.3-51.6-30c-31.8-18-64.1-35.2-96.4-52c-7.8-4-15.7-8-23.6-11.8l-37.1,0.4c-430.3,5.9-505.2,10.3-634.4,39.7
			c-539,116-894.3,345.1-1063.2,681.3c-86.6,171.8-110.1,279-110.1,480.2c0,323.1,113,578.6,343.6,769.5
			c95.4,79.3,311.3,180.6,440.5,205.6c245.3,47,456.7,19.1,675.3-88c116-57.3,160.1-89.6,257-189.4
			c104.3-105.7,185-218.8,167.4-233.5c-2.9-3-69-38.2-146.8-80.8l-141-74.9l-36.7,54.3c-204.2,308.3-635.9,389.1-951.6,179.1
			C2339.9-575,2253.2-945,2404.5-1259.3c42.6-88.1,196.8-246.7,295.2-306.9c336.3-202.6,751.8-270.2,1447.9-237.9
			C4220.4-1800.6,4296.4-1796.4,4365.7-1792.2z"/>
	</g>
</g>
</svg>
