<?xml version="1.0" encoding="utf-8"?>
<!-- Generator: Adobe Illustrator 24.0.1, SVG Export Plug-In . SVG Version: 6.00 Build 0)  -->
<svg version="1.1" id="Layer_1" xmlns="http://www.w3.org/2000/svg" xmlns:xlink="http://www.w3.org/1999/xlink" x="0px" y="0px"
	 viewBox="0 0 512 512" style="enable-background:new 0 0 512 512;" xml:space="preserve">
<style type="text/css">
	.st0{display:none;}
	.st1{display:inline;fill:#200A7F;stroke:#18E5EA;stroke-width:20;stroke-miterlimit:10;}
	.st2{display:inline;fill:#EF0B79;}
	.st3{display:inline;fill:#18E5EA;}
	.st4{display:inline;}
	.st5{fill:#E9F21C;}
	.st6{display:inline;fill:none;}
	.st7{display:inline;fill:#EF3A24;}
	.st8{font-family:'MyriadPro-Regular';}
	.st9{font-size:250px;}
	.st10{display:inline;fill:#FFFFFF;}
	.st11{opacity:0.12;fill:#ABABAB;enable-background:new    ;}
	.st12{fill:url(#SVGID_1_);}
	.st13{fill:url(#SVGID_2_);}
	.st14{display:none;opacity:8.000000e-02;fill:#EFEFEF;enable-background:new    ;}
	.st15{fill:none;}
	.st16{fill:#FFC107;}
	.st17{fill:#2196F3;}
	.st18{fill:#31F222;}
	.st19{fill:#ECEFF1;}
</style>
<g id="Layer_3" class="st0">
	<path class="st1" d="M401.1,212.2c5.1,15.3,7.9,31.7,7.9,48.8c0,85.3-69.2,154.5-154.5,154.5S100,346.3,100,261
		s69.2-154.5,154.5-154.5c51.2,0,96.6,24.9,124.7,63.3"/>
	<path class="st2" d="M333.4,255.2c0,4.2-3.3,7.7-7.4,7.7H174.9c-4.1,0-7.4-3.4-7.4-7.7l0,0c0-4.2,3.3-7.7,7.4-7.7H326
		C330.1,247.5,333.4,250.9,333.4,255.2L333.4,255.2z"/>
	<path class="st2" d="M333.4,284.8c0,4.2-3.3,7.6-7.4,7.6H174.9c-4.1,0-7.4-3.4-7.4-7.6l0,0c0-4.2,3.3-7.6,7.4-7.6H326
		C330.1,277.1,333.4,280.6,333.4,284.8L333.4,284.8z"/>
	<path class="st2" d="M333.4,313c0,4.2-3.3,7.7-7.4,7.7H174.9c-4.1,0-7.4-3.4-7.4-7.7l0,0c0-4.2,3.3-7.6,7.4-7.6H326
		C330.1,305.4,333.4,308.8,333.4,313L333.4,313z"/>
	<path class="st2" d="M333.4,338.4c0,4.2-3.3,7.7-7.4,7.7H174.9c-4.1,0-7.4-3.4-7.4-7.7l0,0c0-4.2,3.3-7.6,7.4-7.6H326
		C330.1,330.7,333.4,334.1,333.4,338.4L333.4,338.4z"/>
	<polygon class="st3" points="395,191.5 320.2,165.2 380.4,113.5 	"/>
	<g class="st4">
		<g>
			<g>
				<path class="st5" d="M241.5,239.2c-2.3,0-4.4-1.1-5.8-2.9l-18.8-24.8c-2.4-3.2-1.8-7.8,1.4-10.3c3.2-2.4,7.8-1.8,10.3,1.4
					l12.3,16.3l31-49.8c2.1-3.4,6.6-4.5,10.1-2.3c3.4,2.1,4.5,6.6,2.3,10.1l-36.7,58.9c-1.3,2-3.5,3.3-5.9,3.4
					C241.7,239.2,241.6,239.2,241.5,239.2z"/>
			</g>
		</g>
	</g>
</g>
<g id="Layer_2_2_" class="st0">
	<rect x="121" y="171.5" class="st6" width="298" height="251"/>
	<text transform="matrix(1 0 0 1 121 348.9979)" class="st7 st8 st9">24</text>
	<circle class="st10" cx="138.3" cy="91.8" r="17.3"/>
	<circle class="st10" cx="185.3" cy="91.8" r="17.3"/>
	<circle class="st10" cx="232.3" cy="91.8" r="17.3"/>
	<circle class="st10" cx="278.3" cy="91.8" r="17.3"/>
	<circle class="st10" cx="323.3" cy="91.8" r="17.3"/>
	<circle class="st10" cx="368.3" cy="91.8" r="17.3"/>
</g>
<path class="st11" d="M371.3,495.1H142c-73.7,0-133.5-59.8-133.5-133.5v-218C8.5,69.9,68.3,10.1,142,10.1h229.2
	c73.7,0,133.5,59.8,133.5,133.5v218C504.8,435.4,445,495.1,371.3,495.1z"/>
<g>
	
		<linearGradient id="SVGID_1_" gradientUnits="userSpaceOnUse" x1="261.722" y1="421.4348" x2="250.722" y2="-90.5652" gradientTransform="matrix(1 0 0 -1 0 431.2756)">
		<stop  offset="0" style="stop-color:#F69453"/>
		<stop  offset="0.5" style="stop-color:#F37521"/>
		<stop  offset="1" style="stop-color:#D4622A"/>
	</linearGradient>
	<path class="st12" d="M365.5,489.9h-218C73.8,489.9,14,430.1,14,356.4v-207C14,75.7,73.8,15.9,147.5,15.9h218
		c73.7,0,133.5,59.8,133.5,133.5v207C499,430.1,439.2,489.9,365.5,489.9z"/>
	
		<linearGradient id="SVGID_2_" gradientUnits="userSpaceOnUse" x1="261.722" y1="421.4348" x2="250.722" y2="-90.5652" gradientTransform="matrix(1 0 0 -1 0 431.2756)">
		<stop  offset="0" style="stop-color:#F69453"/>
		<stop  offset="0.5" style="stop-color:#F37521"/>
		<stop  offset="1" style="stop-color:#D4622A"/>
	</linearGradient>
	<path class="st13" d="M365.5,489.9h-218C73.8,489.9,14,430.1,14,356.4v-207C14,75.7,73.8,15.9,147.5,15.9h218
		c73.7,0,133.5,59.8,133.5,133.5v207C499,430.1,439.2,489.9,365.5,489.9z"/>
</g>
<path class="st14" d="M502,156.5v207c0,73.7-59.8,133.5-133.5,133.5h-218c-51.4,0-96.1-29.1-118.4-71.7c-3.3-11.7-5.1-24-5.1-36.8
	v-207C27,107.8,86.8,48,160.5,48h218c51.4,0,96.1,29.1,118.4,71.7C500.2,131.4,502,143.8,502,156.5z"/>
<path class="st14" d="M510,158.5v207c0,73.7-59.8,133.5-133.5,133.5h-218c-61,0-112.4-40.9-128.4-96.7c-3.3-11.7-5.1-24-5.1-36.8
	v-207C25,84.8,84.8,25,158.5,25h218c51.4,0,96.1,29.1,118.4,71.7C504.5,115.2,510,136.2,510,158.5z"/>
<image style="display:none;overflow:visible;enable-background:new    ;" width="696" height="428" xlink:href="C:\Users\win10\Downloads\macOSBigSur-696x428.png"  transform="matrix(0.75 0 0 0.75 -31 244.3898)">
</image>
<rect x="54" y="156.5" class="st15" width="587" height="199"/>
<title>001 - Accessibility</title>
<desc>Created with Sketch.</desc>
<path class="st16" d="M377.5,303.2l-19.2-8.2c-2-0.9-4.4-0.7-6.3,0.6c-1.9,1.2-3,3.3-3,5.5v79.7c0,2.2,1.1,4.3,3,5.5
	c1.1,0.7,2.4,1.1,3.7,1.1c0.9,0,1.8-0.2,2.6-0.5l19.2-8.2c6.9-3,11.4-9.4,11.4-16.3v-42.9C388.8,312.6,384.4,306.2,377.5,303.2z"/>
<path class="st17" d="M377.5,223.5l-19.2-8.2c-2-0.9-4.4-0.7-6.3,0.6c-1.9,1.2-3,3.3-3,5.5v79.7c0,2.2,1.1,4.3,3,5.5
	c1.1,0.7,2.4,1.1,3.7,1.1c0.9,0,1.8-0.2,2.6-0.5l19.2-8.2c6.9-3,11.4-9.4,11.4-16.3v-42.9C388.8,232.9,384.4,226.5,377.5,223.5z"/>
<path class="st18" d="M377.5,143.8l-19.2-8.2c-2-0.9-4.4-0.7-6.3,0.6c-1.9,1.2-3,3.3-3,5.5v79.7c0,2.2,1.1,4.3,3,5.5
	c1.1,0.7,2.4,1.1,3.7,1.1c0.9,0,1.8-0.2,2.6-0.5l19.2-8.2c6.9-3,11.4-9.4,11.4-16.3v-42.8C388.8,153.2,384.4,146.8,377.5,143.8z"/>
<path class="st19" d="M329.1,108.5H169.7c-18.3,0-33.2,14.9-33.2,33.2v239.1c0,18.3,14.9,33.2,33.2,33.2h159.4
	c18.3,0,33.2-14.9,33.2-33.2V141.7C362.3,123.4,347.4,108.5,329.1,108.5z"/>
<path d="M329.1,414H169.7c-18.3,0-33.2-14.9-33.2-33.2V141.7c0-18.3,14.9-33.2,33.2-33.2h159.4c18.3,0,33.2,14.9,33.2,33.2v239.1
	C362.3,399.1,347.4,414,329.1,414z M169.7,121.8c-11,0-19.9,8.9-19.9,19.9v239.1c0,11,8.9,19.9,19.9,19.9h159.4
	c11,0,19.9-8.9,19.9-19.9V141.7c0-11-8.9-19.9-19.9-19.9H169.7z"/>
<path d="M156.4,161.6h-26.6c-3.7,0-6.6-3-6.6-6.6c0-3.7,3-6.6,6.6-6.6h26.6c3.7,0,6.6,3,6.6,6.6C163,158.6,160,161.6,156.4,161.6z"
	/>
<path d="M156.4,214.8h-26.6c-3.7,0-6.6-3-6.6-6.6c0-3.7,3-6.6,6.6-6.6h26.6c3.7,0,6.6,3,6.6,6.6C163,211.8,160,214.8,156.4,214.8z"
	/>
<path d="M156.4,267.9h-26.6c-3.7,0-6.6-3-6.6-6.6c0-3.7,3-6.6,6.6-6.6h26.6c3.7,0,6.6,3,6.6,6.6C163,264.9,160,267.9,156.4,267.9z"
	/>
<path d="M156.4,321h-26.6c-3.7,0-6.6-3-6.6-6.6c0-3.7,3-6.6,6.6-6.6h26.6c3.7,0,6.6,3,6.6,6.6C163,318,160,321,156.4,321z"/>
<path d="M156.4,374.1h-26.6c-3.7,0-6.6-3-6.6-6.6c0-3.7,3-6.6,6.6-6.6h26.6c3.7,0,6.6,3,6.6,6.6C163,371.2,160,374.1,156.4,374.1z"
	/>
<path d="M355.6,387.4c-2.6,0-5-1.5-6.1-4c-1.4-3.4,0.1-7.3,3.5-8.7l19.2-8.2c2-0.8,3.3-2.5,3.3-4.1v-42.9c0-1.6-1.3-3.2-3.3-4.1
	l-19.2-8.2c-3.4-1.4-4.9-5.4-3.5-8.7s5.4-4.9,8.7-3.5l19.2,8.2c6.9,3,11.4,9.4,11.4,16.3v42.9c0,6.9-4.5,13.3-11.4,16.3l-19.2,8.2
	C357.4,387.3,356.5,387.4,355.6,387.4z"/>
<path d="M355.6,307.7c-2.6,0-5-1.5-6.1-4c-1.4-3.4,0.1-7.3,3.5-8.7l19.2-8.2c2-0.8,3.3-2.5,3.3-4.1v-42.9c0-1.6-1.3-3.2-3.3-4.1
	l-19.2-8.2c-3.4-1.4-4.9-5.4-3.5-8.7c1.4-3.4,5.4-4.9,8.7-3.5l19.2,8.2c6.9,3,11.4,9.4,11.4,16.3v42.9c0,6.9-4.5,13.3-11.4,16.3
	l-19.2,8.2C357.4,307.6,356.5,307.7,355.6,307.7z"/>
<path d="M355.6,228c-2.6,0-5-1.5-6.1-4c-1.4-3.4,0.1-7.3,3.5-8.7l19.2-8.2c2-0.9,3.3-2.5,3.3-4.1v-42.8c0-1.6-1.3-3.2-3.3-4.1
	l-19.2-8.2c-3.4-1.4-4.9-5.4-3.5-8.7c1.4-3.4,5.4-4.9,8.7-3.5l19.2,8.2c6.9,3,11.4,9.4,11.4,16.3V203c0,6.9-4.5,13.3-11.4,16.3
	l-19.2,8.2C357.4,227.9,356.5,228,355.6,228z"/>
<path d="M315.8,347.6h-66.4c-3.7,0-6.6-3-6.6-6.6c0-3.7,3-6.6,6.6-6.6h66.4c3.7,0,6.6,3,6.6,6.6
	C322.4,344.6,319.4,347.6,315.8,347.6z"/>
<path d="M315.8,374.1h-39.8c-3.7,0-6.6-3-6.6-6.6c0-3.7,3-6.6,6.6-6.6h39.8c3.7,0,6.6,3,6.6,6.6
	C322.4,371.2,319.4,374.1,315.8,374.1z"/>
</svg>
