<?xml version="1.0" encoding="utf-8"?>
<!-- Generator: Adobe Illustrator 24.0.1, SVG Export Plug-In . SVG Version: 6.00 Build 0)  -->
<svg version="1.1" id="Layer_1" xmlns="http://www.w3.org/2000/svg" xmlns:xlink="http://www.w3.org/1999/xlink" x="0px" y="0px"
	 viewBox="0 0 512 512" style="enable-background:new 0 0 512 512;" xml:space="preserve">
<style type="text/css">
	.st0{display:none;}
	.st1{display:inline;fill:#200A7F;stroke:#18E5EA;stroke-width:20;stroke-miterlimit:10;}
	.st2{display:inline;fill:#EF0B79;}
	.st3{display:inline;fill:#18E5EA;}
	.st4{display:inline;}
	.st5{fill:#E9F21C;}
	.st6{display:inline;fill:none;}
	.st7{display:inline;fill:#EF3A24;}
	.st8{font-family:'MyriadPro-Regular';}
	.st9{font-size:250px;}
	.st10{display:inline;fill:#FFFFFF;}
	.st11{opacity:0.12;fill:#ABABAB;enable-background:new    ;}
	.st12{fill:url(#SVGID_1_);}
	.st13{display:none;opacity:8.000000e-02;fill:#EFEFEF;enable-background:new    ;}
	.st14{fill:#DB380E;}
	.st15{fill:url(#SVGID_2_);}
	.st16{fill:url(#SVGID_3_);}
	.st17{fill:url(#SVGID_4_);}
	.st18{fill:url(#SVGID_5_);}
	.st19{fill:url(#SVGID_6_);}
	.st20{fill:url(#SVGID_7_);}
</style>
<g id="Layer_3" class="st0">
	<path class="st1" d="M401.1,212.2c5.1,15.3,7.9,31.7,7.9,48.8c0,85.3-69.2,154.5-154.5,154.5S100,346.3,100,261
		s69.2-154.5,154.5-154.5c51.2,0,96.6,24.9,124.7,63.3"/>
	<path class="st2" d="M333.4,255.2c0,4.2-3.3,7.7-7.4,7.7H174.9c-4.1,0-7.4-3.4-7.4-7.7l0,0c0-4.2,3.3-7.7,7.4-7.7H326
		C330.1,247.5,333.4,250.9,333.4,255.2L333.4,255.2z"/>
	<path class="st2" d="M333.4,284.8c0,4.2-3.3,7.6-7.4,7.6H174.9c-4.1,0-7.4-3.4-7.4-7.6l0,0c0-4.2,3.3-7.6,7.4-7.6H326
		C330.1,277.1,333.4,280.6,333.4,284.8L333.4,284.8z"/>
	<path class="st2" d="M333.4,313c0,4.2-3.3,7.7-7.4,7.7H174.9c-4.1,0-7.4-3.4-7.4-7.7l0,0c0-4.2,3.3-7.6,7.4-7.6H326
		C330.1,305.4,333.4,308.8,333.4,313L333.4,313z"/>
	<path class="st2" d="M333.4,338.4c0,4.2-3.3,7.7-7.4,7.7H174.9c-4.1,0-7.4-3.4-7.4-7.7l0,0c0-4.2,3.3-7.6,7.4-7.6H326
		C330.1,330.7,333.4,334.1,333.4,338.4L333.4,338.4z"/>
	<polygon class="st3" points="395,191.5 320.2,165.2 380.4,113.5 	"/>
	<g class="st4">
		<g>
			<g>
				<path class="st5" d="M241.5,239.2c-2.3,0-4.4-1.1-5.8-2.9l-18.8-24.8c-2.4-3.2-1.8-7.8,1.4-10.3c3.2-2.4,7.8-1.8,10.3,1.4
					l12.3,16.3l31-49.8c2.1-3.4,6.6-4.5,10.1-2.3c3.4,2.1,4.5,6.6,2.3,10.1l-36.7,58.9c-1.3,2-3.5,3.3-5.9,3.4
					C241.7,239.2,241.6,239.2,241.5,239.2z"/>
			</g>
		</g>
	</g>
</g>
<g id="Layer_2_2_" class="st0">
	<rect x="121" y="171.5" class="st6" width="298" height="251"/>
	<text transform="matrix(1 0 0 1 121 348.9979)" class="st7 st8 st9">24</text>
	<circle class="st10" cx="138.3" cy="91.8" r="17.3"/>
	<circle class="st10" cx="185.3" cy="91.8" r="17.3"/>
	<circle class="st10" cx="232.3" cy="91.8" r="17.3"/>
	<circle class="st10" cx="278.3" cy="91.8" r="17.3"/>
	<circle class="st10" cx="323.3" cy="91.8" r="17.3"/>
	<circle class="st10" cx="368.3" cy="91.8" r="17.3"/>
</g>
<path class="st11" d="M371.3,495.1H142c-73.7,0-133.5-59.8-133.5-133.5v-218C8.5,69.9,68.3,10.1,142,10.1h229.2
	c73.7,0,133.5,59.8,133.5,133.5v218C504.8,435.4,445,495.1,371.3,495.1z"/>
<linearGradient id="SVGID_1_" gradientUnits="userSpaceOnUse" x1="366.3873" y1="-54.5421" x2="94.3873" y2="706.4579">
	<stop  offset="0" style="stop-color:#EFF0F5"/>
	<stop  offset="0.5" style="stop-color:#DBDEE7"/>
	<stop  offset="1" style="stop-color:#C9CDDB"/>
</linearGradient>
<path class="st12" d="M365.5,489.9h-218C73.8,489.9,14,430.1,14,356.4v-207C14,75.7,73.8,15.9,147.5,15.9h218
	c73.7,0,133.5,59.8,133.5,133.5v207C499,430.1,439.2,489.9,365.5,489.9z"/>
<path class="st13" d="M502,156.5v207c0,73.7-59.8,133.5-133.5,133.5h-218c-51.4,0-96.1-29.1-118.4-71.7c-3.3-11.7-5.1-24-5.1-36.8
	v-207C27,107.8,86.8,48,160.5,48h218c51.4,0,96.1,29.1,118.4,71.7C500.2,131.4,502,143.8,502,156.5z"/>
<path class="st13" d="M510,158.5v207c0,73.7-59.8,133.5-133.5,133.5h-218c-61,0-112.4-40.9-128.4-96.7c-3.3-11.7-5.1-24-5.1-36.8
	v-207C25,84.8,84.8,25,158.5,25h218c51.4,0,96.1,29.1,118.4,71.7C504.5,115.2,510,136.2,510,158.5z"/>
<image style="display:none;overflow:visible;enable-background:new    ;" width="696" height="428" xlink:href="../../../Downloads/macOSBigSur-696x428.png"  transform="matrix(0.75 0 0 0.75 -31 244.3898)">
</image>
<g>
	<path class="st14" d="M244.6,139.5c-16.6,11.7-35.4,24.9-45.5,46.8c-17.5,38.2,35.8,79.9,38.1,81.6c0.5,0.4,1.2,0.6,1.8,0.6
		c0.7,0,1.3-0.2,1.9-0.7c1.1-0.9,1.4-2.4,0.7-3.6c-0.2-0.4-19.3-37.6-18.6-64.2c0.3-9.3,13.3-19.8,27-31
		c12.6-10.2,26.9-21.8,35.3-35.4c18.4-29.8-2-59.2-2.3-59.5c-0.8-1.1-2.3-1.5-3.6-1c-1.3,0.6-2,1.9-1.7,3.3c0,0.2,4,19.6-7,39.6
		C266.2,124.4,256.2,131.4,244.6,139.5z"/>
	<path class="st14" d="M314.6,152.7c1.2-0.9,1.5-2.5,0.8-3.8c-0.7-1.3-2.3-1.9-3.6-1.3c-2.8,1.1-69,26.6-69,57.4
		c0,21.3,9.1,32.5,15.7,40.7c2.6,3.2,4.8,6,5.6,8.4c2.1,6.8-2.9,19.2-4.9,23.4c-0.6,1.2-0.3,2.7,0.7,3.5c0.6,0.5,1.2,0.7,1.9,0.7
		c0.6,0,1.2-0.2,1.7-0.5c1.1-0.8,27.8-19.7,23-42.4c-1.8-8.6-6-15-9.8-20.5c-5.8-8.6-10-14.9-3.6-26.4
		C280.5,178.5,314.2,153,314.6,152.7z"/>
</g>
<g>
	<linearGradient id="SVGID_2_" gradientUnits="userSpaceOnUse" x1="141.5847" y1="287.243" x2="319.3633" y2="287.243">
		<stop  offset="0" style="stop-color:#2BC4F3"/>
		<stop  offset="0.5" style="stop-color:#00AEEE"/>
		<stop  offset="1" style="stop-color:#0095DA"/>
	</linearGradient>
	<path class="st15" d="M142.2,282.2c-1.1,3.4-0.6,6.8,1.5,9.8c7.2,10,32.6,15.5,71.6,15.5c0,0,0,0,0,0c5.3,0,10.9-0.1,16.6-0.3
		c62.4-2.2,85.5-21.7,86.4-22.5c1-0.9,1.3-2.4,0.7-3.6c-0.6-1.2-2-1.8-3.4-1.5c-22,6-63,8.1-91.4,8.1c-31.8,0-48-2.3-52-4
		c2-2.8,14.6-7.8,30.2-10.8c1.5-0.3,2.5-1.7,2.4-3.2c-0.1-1.5-1.4-2.7-2.9-2.7C192.7,267,146.9,267.8,142.2,282.2z"/>
	<linearGradient id="SVGID_3_" gradientUnits="userSpaceOnUse" x1="318.5838" y1="300.0806" x2="379.6153" y2="300.0806">
		<stop  offset="0" style="stop-color:#2BC4F3"/>
		<stop  offset="0.5" style="stop-color:#00AEEE"/>
		<stop  offset="1" style="stop-color:#0095DA"/>
	</linearGradient>
	<path class="st16" d="M350.8,262.2c-12.9,0-25.1,6.4-25.6,6.7c-1.2,0.6-1.8,2-1.5,3.3c0.3,1.3,1.5,2.2,2.9,2.2
		c0.3,0,27.4,0.2,29.9,15.7c2.2,13.4-25.7,35.1-36.6,42.3c-1.2,0.8-1.6,2.3-1.1,3.6c0.5,1.1,1.5,1.8,2.7,1.8c0.2,0,0.4,0,0.6-0.1
		c2.6-0.6,63.4-14,57-49.4C375.2,266.8,361.6,262.2,350.8,262.2z"/>
	<linearGradient id="SVGID_4_" gradientUnits="userSpaceOnUse" x1="166.7204" y1="325.2633" x2="309.1479" y2="325.2633">
		<stop  offset="0" style="stop-color:#2BC4F3"/>
		<stop  offset="0.5" style="stop-color:#00AEEE"/>
		<stop  offset="1" style="stop-color:#0095DA"/>
	</linearGradient>
	<path class="st17" d="M309.1,328.2c0.2-1.1-0.3-2.3-1.2-3L293.3,315c-0.7-0.5-1.6-0.7-2.4-0.4c-0.2,0-15.4,4-37.6,6.5
		c-8.8,1-18.6,1.5-28.5,1.5c-22.1,0-36.6-2.6-38.7-4.5c-0.3-0.5-0.2-0.8-0.1-0.9c0.4-1.1,2.4-2.3,3.8-2.8c1.5-0.5,2.2-2.1,1.8-3.6
		c-0.5-1.5-2-2.4-3.5-2c-14.6,3.5-21.8,8.5-21.3,14.7c0.9,11,26.4,16.7,48,18.1c3.1,0.2,6.5,0.3,10,0.3c0,0,0,0,0,0
		c35.8,0,81.8-11.2,82.2-11.4C308,330.2,308.9,329.3,309.1,328.2z"/>
	<linearGradient id="SVGID_5_" gradientUnits="userSpaceOnUse" x1="176.967" y1="363.5703" x2="303.5215" y2="363.5703">
		<stop  offset="0" style="stop-color:#2BC4F3"/>
		<stop  offset="0.5" style="stop-color:#00AEEE"/>
		<stop  offset="1" style="stop-color:#0095DA"/>
	</linearGradient>
	<path class="st18" d="M199.1,351.8c1.1-0.7,1.6-2.1,1.2-3.3c-0.4-1.3-1.6-2.1-2.9-2.1c-2,0.1-19.2,0.8-20.4,11.8
		c-0.4,3.3,0.6,6.3,2.8,8.9c6.2,7.3,22.9,11.7,51,13.3c3.3,0.2,6.7,0.3,10.1,0.3c35.8,0,59.9-11.2,60.9-11.7c1-0.5,1.6-1.4,1.7-2.5
		s-0.5-2.1-1.4-2.7l-18.4-11.3c-0.6-0.4-1.4-0.5-2.1-0.4c-0.1,0-11.8,2.5-29.5,4.9c-3.3,0.5-7.5,0.7-12.4,0.7
		c-17.6,0-37.3-2.9-41-4.8C198.5,352.7,198.6,352.2,199.1,351.8z"/>
	<linearGradient id="SVGID_6_" gradientUnits="userSpaceOnUse" x1="113.206" y1="393.1123" x2="361.8509" y2="393.1123">
		<stop  offset="0" style="stop-color:#2BC4F3"/>
		<stop  offset="0.5" style="stop-color:#00AEEE"/>
		<stop  offset="1" style="stop-color:#0095DA"/>
	</linearGradient>
	<path class="st19" d="M224.2,414.6c82-0.1,126-14.6,134.5-23.8c3-3.2,3.3-6.3,3.1-8.3c-0.6-4.9-5.1-8-5.6-8.3
		c-1.2-0.8-2.9-0.6-3.8,0.5c-1,1.1-1,2.7,0,3.8c0.5,0.7,0.8,1.8-0.7,3.3c-3.4,3.2-37.6,12.8-94.5,15.7c-7.8,0.4-16,0.6-24.3,0.6
		c-51,0-88.2-7-93.1-11c1.9-2.7,15.1-7,29.1-9.5c1.6-0.3,2.6-1.8,2.4-3.4c-0.2-1.6-1.7-2.7-3.3-2.5c-0.4,0.1-1.7,0.1-3.3,0.2
		c-23.1,1.4-49.9,4.6-51.3,16.5c-0.4,3.6,0.7,6.9,3.2,9.8C122.8,405.2,140.7,414.6,224.2,414.6C224.2,414.6,224.2,414.6,224.2,414.6
		z"/>
	<linearGradient id="SVGID_7_" gradientUnits="userSpaceOnUse" x1="164.3634" y1="412.6328" x2="376.5225" y2="412.6328">
		<stop  offset="0" style="stop-color:#2BC4F3"/>
		<stop  offset="0.5" style="stop-color:#00AEEE"/>
		<stop  offset="1" style="stop-color:#0095DA"/>
	</linearGradient>
	<path class="st20" d="M374.8,393.3c-1.2-0.5-2.5-0.3-3.4,0.7c-0.1,0.1-12.4,13-49.5,20.6c-14.2,2.8-40.8,4.3-79.2,4.3
		c-38.4,0-75-1.5-75.3-1.5c-1.5-0.1-2.8,1-3,2.5c-0.2,1.5,0.8,2.9,2.2,3.3c0.4,0.1,38.7,9.1,91.1,9.1c25.1,0,49.6-2,72.6-6.1
		c43.1-7.5,46.1-28.9,46.2-29.8C376.7,395.1,376,393.9,374.8,393.3z"/>
</g>
</svg>
