<?xml version="1.0" encoding="utf-8"?>
<!-- Generator: Adobe Illustrator 24.0.1, SVG Export Plug-In . SVG Version: 6.00 Build 0)  -->
<svg version="1.1" id="Layer_1" xmlns="http://www.w3.org/2000/svg" xmlns:xlink="http://www.w3.org/1999/xlink" x="0px" y="0px"
	 viewBox="0 0 512 512" style="enable-background:new 0 0 512 512;" xml:space="preserve">
<style type="text/css">
	.st0{display:none;}
	.st1{display:inline;fill:#200A7F;stroke:#18E5EA;stroke-width:20;stroke-miterlimit:10;}
	.st2{display:inline;fill:#EF0B79;}
	.st3{display:inline;fill:#18E5EA;}
	.st4{display:inline;}
	.st5{fill:#E9F21C;}
	.st6{display:inline;fill:none;}
	.st7{display:inline;fill:#EF3A24;}
	.st8{font-family:'MyriadPro-Regular';}
	.st9{font-size:250px;}
	.st10{display:inline;fill:#FFFFFF;}
	.st11{opacity:0.12;fill:#ABABAB;enable-background:new    ;}
	.st12{fill:url(#SVGID_1_);}
	.st13{display:none;opacity:8.000000e-02;fill:#EFEFEF;enable-background:new    ;}
	.st14{display:none;fill:#2E2E30;}
	.st15{fill:#FFFFFF;}
	.st16{fill:none;}
</style>
<g id="Layer_3" class="st0">
	<path class="st1" d="M401.1,212.2c5.1,15.3,7.9,31.7,7.9,48.8c0,85.3-69.2,154.5-154.5,154.5S100,346.3,100,261
		s69.2-154.5,154.5-154.5c51.2,0,96.6,24.9,124.7,63.3"/>
	<path class="st2" d="M333.4,255.2c0,4.2-3.3,7.7-7.4,7.7H174.9c-4.1,0-7.4-3.4-7.4-7.7l0,0c0-4.2,3.3-7.7,7.4-7.7H326
		C330.1,247.5,333.4,250.9,333.4,255.2L333.4,255.2z"/>
	<path class="st2" d="M333.4,284.8c0,4.2-3.3,7.6-7.4,7.6H174.9c-4.1,0-7.4-3.4-7.4-7.6l0,0c0-4.2,3.3-7.6,7.4-7.6H326
		C330.1,277.1,333.4,280.6,333.4,284.8L333.4,284.8z"/>
	<path class="st2" d="M333.4,313c0,4.2-3.3,7.7-7.4,7.7H174.9c-4.1,0-7.4-3.4-7.4-7.7l0,0c0-4.2,3.3-7.6,7.4-7.6H326
		C330.1,305.4,333.4,308.8,333.4,313L333.4,313z"/>
	<path class="st2" d="M333.4,338.4c0,4.2-3.3,7.7-7.4,7.7H174.9c-4.1,0-7.4-3.4-7.4-7.7l0,0c0-4.2,3.3-7.6,7.4-7.6H326
		C330.1,330.7,333.4,334.1,333.4,338.4L333.4,338.4z"/>
	<polygon class="st3" points="395,191.5 320.2,165.2 380.4,113.5 	"/>
	<g class="st4">
		<g>
			<g>
				<path class="st5" d="M241.5,239.2c-2.3,0-4.4-1.1-5.8-2.9l-18.8-24.8c-2.4-3.2-1.8-7.8,1.4-10.3c3.2-2.4,7.8-1.8,10.3,1.4
					l12.3,16.3l31-49.8c2.1-3.4,6.6-4.5,10.1-2.3c3.4,2.1,4.5,6.6,2.3,10.1l-36.7,58.9c-1.3,2-3.5,3.3-5.9,3.4
					C241.7,239.2,241.6,239.2,241.5,239.2z"/>
			</g>
		</g>
	</g>
</g>
<g id="Layer_2_2_" class="st0">
	<rect x="121" y="171.5" class="st6" width="298" height="251"/>
	<text transform="matrix(1 0 0 1 121 348.9979)" class="st7 st8 st9">24</text>
	<circle class="st10" cx="138.3" cy="91.8" r="17.3"/>
	<circle class="st10" cx="185.3" cy="91.8" r="17.3"/>
	<circle class="st10" cx="232.3" cy="91.8" r="17.3"/>
	<circle class="st10" cx="278.3" cy="91.8" r="17.3"/>
	<circle class="st10" cx="323.3" cy="91.8" r="17.3"/>
	<circle class="st10" cx="368.3" cy="91.8" r="17.3"/>
</g>
<path class="st11" d="M371.3,495.1H142c-73.7,0-133.5-59.8-133.5-133.5v-218C8.5,69.9,68.3,10.1,142,10.1h229.2
	c73.7,0,133.5,59.8,133.5,133.5v218C504.8,435.4,445,495.1,371.3,495.1z"/>
<linearGradient id="SVGID_1_" gradientUnits="userSpaceOnUse" x1="258.0093" y1="11.9211" x2="255.0093" y2="490.9211">
	<stop  offset="0" style="stop-color:#545454"/>
	<stop  offset="0.3894" style="stop-color:#232323"/>
	<stop  offset="0.6558" style="stop-color:#4C4C4C"/>
	<stop  offset="0.9896" style="stop-color:#353535"/>
</linearGradient>
<path class="st12" d="M365.5,489.9h-218C73.8,489.9,14,430.1,14,356.4v-207C14,75.7,73.8,15.9,147.5,15.9h218
	c73.7,0,133.5,59.8,133.5,133.5v207C499,430.1,439.2,489.9,365.5,489.9z"/>
<path class="st13" d="M502,156.5v207c0,73.7-59.8,133.5-133.5,133.5h-218c-51.4,0-96.1-29.1-118.4-71.7c-3.3-11.7-5.1-24-5.1-36.8
	v-207C27,107.8,86.8,48,160.5,48h218c51.4,0,96.1,29.1,118.4,71.7C500.2,131.4,502,143.8,502,156.5z"/>
<path class="st13" d="M510,158.5v207c0,73.7-59.8,133.5-133.5,133.5h-218c-61,0-112.4-40.9-128.4-96.7c-3.3-11.7-5.1-24-5.1-36.8
	v-207C25,84.8,84.8,25,158.5,25h218c51.4,0,96.1,29.1,118.4,71.7C504.5,115.2,510,136.2,510,158.5z"/>
<image style="display:none;overflow:visible;enable-background:new    ;" width="696" height="428" xlink:href="../../Downloads/macOSBigSur-696x428.png"  transform="matrix(0.75 0 0 0.75 -31 244.3898)">
</image>
<g>
	<circle id="Oval_3_" class="st14" cx="257.5" cy="265.7" r="200.1"/>
	<g id="Shape_3_" transform="translate(30.000000, 30.000000) rotate(8.000000) translate(-30.000000, -30.000000) ">
		<g>
			<path id="path-3_14_" class="st15" d="M286.6,124.4c0.5,0,1,0,1.5,0c1,0,2.6,0,3.6,0l3.6-14.4c1-4.6,2.1-4.1,2.6,0l1.5,14.4l0,0
				c1.5,0,3.6,0.5,5.1,0.5l0,0l5.1-13.9c1.5-4.1,2.6-4.1,2.6,0.5l-0.5,14.4c1.5,0.5,3.6,1,5.1,1l6.7-12.8c2.1-4.1,3.1-3.6,2.6,1
				l-2.1,14.4l0,0c1.5,0.5,3.6,1,5.1,2.1l0,0l7.7-12.3c2.6-3.6,3.6-3.1,2.6,1l-3.6,14.4c1.5,1,3.1,1.5,4.6,2.6l9.2-11.3
				c3.1-3.6,4.1-3.1,2.6,1.5l-5.1,13.3l0,0c1.5,1,3.1,2.1,4.1,3.1l0,0l10.8-9.8c3.1-3.1,4.1-2.6,2.1,1.5l-7.2,13.9
				c1.5,1,2.6,2.1,4.1,3.6l11.8-8.2c3.6-2.6,4.6-2.1,2.1,2.1l-8.2,11.8l0,0c1,1,2.6,2.6,3.6,4.1l0,0l12.8-7.2c4.1-2.1,4.6-1,1.5,2.1
				l-9.8,10.8c1,1.5,2.1,3.1,3.1,4.6l13.3-5.6c4.1-1.5,4.6-0.5,1.5,2.1l-10.8,9.8l0,0c1,1.5,1.5,3.1,2.6,4.6l13.9-4.1
				c4.1-1,5.1,0,1,2.6l-11.8,8.2c0.5,1.5,1.5,3.1,2.1,5.1l13.9-2.1c4.6-0.5,4.6,0.5,1,2.6l-12.3,6.7l0,0c0.5,1.5,1,3.6,1.5,5.1l0,0
				l14.4-0.5c4.6,0,4.6,1,0.5,2.6l-13.3,5.1c0.5,1.5,0.5,3.6,0.5,5.1l13.9,1.5c4.6,0.5,4.6,1.5,0,2.6l-13.9,3.6l0,0
				c0,1.5,0,3.6,0,5.1c0,0,0,0,0,0.5l0,0l13.9,2.6c4.6,1,4.6,2.1,0,2.6l-13.9,2.1c0,2.1-0.5,3.6-0.5,5.6l13.3,4.6
				c4.1,1.5,4.1,2.6-0.5,2.6h-13.9c-0.5,1.5-0.5,3.6-1,5.1l0,0l12.8,6.2c4.1,2.1,3.6,3.1-0.5,2.6l-13.9-1.5c-0.5,1.5-1,3.6-1.5,5.1
				l11.8,7.7c3.6,2.6,3.6,3.6-1,2.6l-13.3-3.1l0,0c-1,1.5-1.5,3.6-2.6,5.1l0,0l10.8,8.7c3.6,2.6,3.1,4.1-1.5,2.6l-13.9-6.7
				c-1,1.5-2.1,3.1-3.1,4.6l9.8,9.8c3.1,3.1,2.6,4.1-1.5,2.1l-12.3-6.2l0,0c-1,1.5-2.1,3.1-3.6,4.1l8.7,10.8
				c2.6,3.6,2.1,4.6-2.1,2.1l-11.8-7.7c-1.5,1.5-2.6,2.6-4.1,3.6l7.2,11.8c2.6,4.1,1.5,4.6-2.1,1.5l-10.8-8.7l0,0
				c-1.5,1-3.1,2.1-4.6,3.1l5.6,12.8c2.1,4.1,1,4.6-2.1,1.5l-9.2-10.3c-1.5,1-3.1,2.1-5.1,3.1l4.1,13.3c1.5,4.1,0.5,4.6-2.6,1
				l-8.2-11.3l0,0c-1.5,0.5-3.6,1.5-5.1,2.1l0,0l2.6,13.3c1,4.6-0.5,4.6-2.6,1l-6.7-10.8c-1.5,0.5-3.6,1-5.1,1.5l1,13.9
				c0.5,4.6-1,4.6-2.6,0.5l-5.6-12.8l0,0c-1.5,0.5-3.6,0.5-5.6,1l0,0l-1,13.9c0,4.6-1.5,4.6-2.6,0.5l-3.1-13.9c-2.1,0-3.6,0-5.6,0.5
				l-2.6,13.9c-1,4.6-2.1,4.6-2.6,0l-2.1-13.9l0,0c-2.1,0-3.6,0-5.6-0.5l0,0l-4.1,13.3c-1,4.1-2.6,4.1-2.6-0.5l-0.5-13.9
				c-2.1-0.5-3.6-0.5-5.1-1l-6.2,12.8c-1.5,4.1-3.1,4.1-2.6-0.5l1-13.9c-1.5-0.5-3.6-1-5.1-1.5l0,0l-7.2,12.3
				c-2.1,4.1-3.6,3.6-2.6-1l2.6-13.9c-1.5-0.5-3.1-1.5-5.1-2.1l-8.7,11.3c-2.6,3.6-3.6,3.1-2.6-1l4.6-13.3l0,0
				c-1.5-1-3.1-2.1-4.6-2.6l0,0l-9.8,10.3c-3.1,3.1-4.1,2.6-2.1-1.5l6.2-12.8c-1.5-1-3.1-2.1-4.1-3.6l-10.8,7.7
				c-3.6,3.1-4.6,2.1-2.1-1.5l7.2-12.3l0,0c-1.5-1-2.6-2.6-3.6-3.6l0,0l-11.8,7.7c-3.6,2.6-4.6,1.5-2.1-2.1l8.7-11.3
				c-1-1.5-2.1-2.6-3.1-4.1l-12.8,6.2c-4.1,2.1-4.6,1-1.5-2.1l10.3-10.3l0,0c-1-1.5-2.1-3.1-2.6-4.6l-13.3,4.6
				c-4.1,1.5-4.6,0.5-1-2.6l11.3-8.7c-1-1.5-1.5-3.1-2.1-4.6l-14.9,3.1c-4.6,1-5.1,0-1-2.6l12.3-7.2l0,0c-0.5-1.5-1-3.6-1.5-5.1l0,0
				l-14.4,1.5c-4.6,0.5-4.6-0.5-0.5-2.6l12.8-6.2c-0.5-1.5-0.5-3.6-1-5.1l-14.4-0.5c-4.6,0-4.6-1.5-0.5-2.6l13.9-4.6l0,0
				c0-1.5-0.5-3.6-0.5-5.1l0,0l-14.4-2.1c-4.6-0.5-4.6-2.1,0-2.6l14.4-2.6c0-1.5,0-3.6,0-5.1l-13.9-3.6c-4.1-1-4.1-2.6,0.5-2.6
				l14.4-1l0,0c0-1.5,0.5-3.6,1-5.1l0,0l-13.3-5.1c-4.1-1.5-4.1-2.6,0.5-2.6L184,206c0.5-1.5,1-3.6,1.5-5.1l-12.8-6.7
				c-4.1-2.1-3.6-3.1,1-2.6l14.4,2.6l0,0c0.5-1.5,1.5-3.1,2.1-4.6l0,0l-11.8-8.2c-3.6-2.6-3.1-3.6,1-2.6l13.9,4.1
				c1-1.5,1.5-3.1,2.6-4.6l-10.8-9.8c-3.6-3.1-2.6-4.1,1.5-2.1l13.3,5.6l0,0c1-1.5,2.1-2.6,3.1-4.1l0,0l-9.8-11.3
				c-3.1-3.6-2.1-4.1,1.5-2.1l12.8,7.2c1-1.5,2.6-2.6,3.6-4.1l-8.2-13.3c-2.6-3.6-1.5-4.6,2.1-2.1l11.8,8.7l0,0c1-1,2.6-2.1,4.1-3.1
				l-6.7-12.8c-2.1-4.1-1-4.6,2.1-1.5l10.8,10.3c1.5-1,3.1-2.1,4.1-3.1l-5.1-13.9c-1.5-4.1-0.5-4.6,2.6-1.5l9.2,11.3l0,0
				c1.5-1,3.1-1.5,4.6-2.1l0,0l-3.6-14.4c-1-4.6,0-5.1,2.6-1l7.7,12.3c1.5-0.5,3.1-1,4.6-1.5l-1.5-14.4c-0.5-4.6,0.5-4.6,2.6-0.5
				l6.2,13.3l0,0c1.5-0.5,3.6-1,5.1-1l0,0v-14.9c0-4.6,1-4.6,2.6-0.5l5.1,13.9c1.5,0,3.6-0.5,5.1-0.5l1.5-14.4
				c0.5-4.6,1.5-4.6,2.6,0L286.6,124.4L286.6,124.4z M288.2,320.4c48.8,0,88.3-39.5,88.3-88.3s-39.5-88.3-88.3-88.3
				s-88.8,39-88.8,87.8S239.4,320.4,288.2,320.4z"/>
		</g>
		<g>
			<path id="path-3_4_" class="st15" d="M286.6,124.4c0.5,0,1,0,1.5,0c1,0,2.6,0,3.6,0l3.6-14.4c1-4.6,2.1-4.1,2.6,0l1.5,14.4l0,0
				c1.5,0,3.6,0.5,5.1,0.5l0,0l5.1-13.9c1.5-4.1,2.6-4.1,2.6,0.5l-0.5,14.4c1.5,0.5,3.6,1,5.1,1l6.7-12.8c2.1-4.1,3.1-3.6,2.6,1
				l-2.1,14.4l0,0c1.5,0.5,3.6,1,5.1,2.1l0,0l7.7-12.3c2.6-3.6,3.6-3.1,2.6,1l-3.6,14.4c1.5,1,3.1,1.5,4.6,2.6l9.2-11.3
				c3.1-3.6,4.1-3.1,2.6,1.5l-5.1,13.3l0,0c1.5,1,3.1,2.1,4.1,3.1l0,0l10.8-9.8c3.1-3.1,4.1-2.6,2.1,1.5l-7.2,13.9
				c1.5,1,2.6,2.1,4.1,3.6l11.8-8.2c3.6-2.6,4.6-2.1,2.1,2.1l-8.2,11.8l0,0c1,1,2.6,2.6,3.6,4.1l0,0l12.8-7.2c4.1-2.1,4.6-1,1.5,2.1
				l-9.8,10.8c1,1.5,2.1,3.1,3.1,4.6l13.3-5.6c4.1-1.5,4.6-0.5,1.5,2.1l-10.8,9.8l0,0c1,1.5,1.5,3.1,2.6,4.6l13.9-4.1
				c4.1-1,5.1,0,1,2.6l-11.8,8.2c0.5,1.5,1.5,3.1,2.1,5.1l13.9-2.1c4.6-0.5,4.6,0.5,1,2.6l-12.3,6.7l0,0c0.5,1.5,1,3.6,1.5,5.1l0,0
				l14.4-0.5c4.6,0,4.6,1,0.5,2.6l-13.3,5.1c0.5,1.5,0.5,3.6,0.5,5.1l13.9,1.5c4.6,0.5,4.6,1.5,0,2.6l-13.9,3.6l0,0
				c0,1.5,0,3.6,0,5.1c0,0,0,0,0,0.5l0,0l13.9,2.6c4.6,1,4.6,2.1,0,2.6l-13.9,2.1c0,2.1-0.5,3.6-0.5,5.6l13.3,4.6
				c4.1,1.5,4.1,2.6-0.5,2.6h-13.9c-0.5,1.5-0.5,3.6-1,5.1l0,0l12.8,6.2c4.1,2.1,3.6,3.1-0.5,2.6l-13.9-1.5c-0.5,1.5-1,3.6-1.5,5.1
				l11.8,7.7c3.6,2.6,3.6,3.6-1,2.6l-13.3-3.1l0,0c-1,1.5-1.5,3.6-2.6,5.1l0,0l10.8,8.7c3.6,2.6,3.1,4.1-1.5,2.6l-13.9-6.7
				c-1,1.5-2.1,3.1-3.1,4.6l9.8,9.8c3.1,3.1,2.6,4.1-1.5,2.1l-12.3-6.2l0,0c-1,1.5-2.1,3.1-3.6,4.1l8.7,10.8
				c2.6,3.6,2.1,4.6-2.1,2.1l-11.8-7.7c-1.5,1.5-2.6,2.6-4.1,3.6l7.2,11.8c2.6,4.1,1.5,4.6-2.1,1.5l-10.8-8.7l0,0
				c-1.5,1-3.1,2.1-4.6,3.1l5.6,12.8c2.1,4.1,1,4.6-2.1,1.5l-9.2-10.3c-1.5,1-3.1,2.1-5.1,3.1l4.1,13.3c1.5,4.1,0.5,4.6-2.6,1
				l-8.2-11.3l0,0c-1.5,0.5-3.6,1.5-5.1,2.1l0,0l2.6,13.3c1,4.6-0.5,4.6-2.6,1l-6.7-10.8c-1.5,0.5-3.6,1-5.1,1.5l1,13.9
				c0.5,4.6-1,4.6-2.6,0.5l-5.6-12.8l0,0c-1.5,0.5-3.6,0.5-5.6,1l0,0l-1,13.9c0,4.6-1.5,4.6-2.6,0.5l-3.1-13.9c-2.1,0-3.6,0-5.6,0.5
				l-2.6,13.9c-1,4.6-2.1,4.6-2.6,0l-2.1-13.9l0,0c-2.1,0-3.6,0-5.6-0.5l0,0l-4.1,13.3c-1,4.1-2.6,4.1-2.6-0.5l-0.5-13.9
				c-2.1-0.5-3.6-0.5-5.1-1l-6.2,12.8c-1.5,4.1-3.1,4.1-2.6-0.5l1-13.9c-1.5-0.5-3.6-1-5.1-1.5l0,0l-7.2,12.3
				c-2.1,4.1-3.6,3.6-2.6-1l2.6-13.9c-1.5-0.5-3.1-1.5-5.1-2.1l-8.7,11.3c-2.6,3.6-3.6,3.1-2.6-1l4.6-13.3l0,0
				c-1.5-1-3.1-2.1-4.6-2.6l0,0l-9.8,10.3c-3.1,3.1-4.1,2.6-2.1-1.5l6.2-12.8c-1.5-1-3.1-2.1-4.1-3.6l-10.8,7.7
				c-3.6,3.1-4.6,2.1-2.1-1.5l7.2-12.3l0,0c-1.5-1-2.6-2.6-3.6-3.6l0,0l-11.8,7.7c-3.6,2.6-4.6,1.5-2.1-2.1l8.7-11.3
				c-1-1.5-2.1-2.6-3.1-4.1l-12.8,6.2c-4.1,2.1-4.6,1-1.5-2.1l10.3-10.3l0,0c-1-1.5-2.1-3.1-2.6-4.6l-13.3,4.6
				c-4.1,1.5-4.6,0.5-1-2.6l11.3-8.7c-1-1.5-1.5-3.1-2.1-4.6l-14.9,3.1c-4.6,1-5.1,0-1-2.6l12.3-7.2l0,0c-0.5-1.5-1-3.6-1.5-5.1l0,0
				l-14.4,1.5c-4.6,0.5-4.6-0.5-0.5-2.6l12.8-6.2c-0.5-1.5-0.5-3.6-1-5.1l-14.4-0.5c-4.6,0-4.6-1.5-0.5-2.6l13.9-4.6l0,0
				c0-1.5-0.5-3.6-0.5-5.1l0,0l-14.4-2.1c-4.6-0.5-4.6-2.1,0-2.6l14.4-2.6c0-1.5,0-3.6,0-5.1l-13.9-3.6c-4.1-1-4.1-2.6,0.5-2.6
				l14.4-1l0,0c0-1.5,0.5-3.6,1-5.1l0,0l-13.3-5.1c-4.1-1.5-4.1-2.6,0.5-2.6L184,206c0.5-1.5,1-3.6,1.5-5.1l-12.8-6.7
				c-4.1-2.1-3.6-3.1,1-2.6l14.4,2.6l0,0c0.5-1.5,1.5-3.1,2.1-4.6l0,0l-11.8-8.2c-3.6-2.6-3.1-3.6,1-2.6l13.9,4.1
				c1-1.5,1.5-3.1,2.6-4.6l-10.8-9.8c-3.6-3.1-2.6-4.1,1.5-2.1l13.3,5.6l0,0c1-1.5,2.1-2.6,3.1-4.1l0,0l-9.8-11.3
				c-3.1-3.6-2.1-4.1,1.5-2.1l12.8,7.2c1-1.5,2.6-2.6,3.6-4.1l-8.2-13.3c-2.6-3.6-1.5-4.6,2.1-2.1l11.8,8.7l0,0c1-1,2.6-2.1,4.1-3.1
				l-6.7-12.8c-2.1-4.1-1-4.6,2.1-1.5l10.8,10.3c1.5-1,3.1-2.1,4.1-3.1l-5.1-13.9c-1.5-4.1-0.5-4.6,2.6-1.5l9.2,11.3l0,0
				c1.5-1,3.1-1.5,4.6-2.1l0,0l-3.6-14.4c-1-4.6,0-5.1,2.6-1l7.7,12.3c1.5-0.5,3.1-1,4.6-1.5l-1.5-14.4c-0.5-4.6,0.5-4.6,2.6-0.5
				l6.2,13.3l0,0c1.5-0.5,3.6-1,5.1-1l0,0v-14.9c0-4.6,1-4.6,2.6-0.5l5.1,13.9c1.5,0,3.6-0.5,5.1-0.5l1.5-14.4
				c0.5-4.6,1.5-4.6,2.6,0L286.6,124.4L286.6,124.4z M288.2,320.4c48.8,0,88.3-39.5,88.3-88.3s-39.5-88.3-88.3-88.3
				s-88.8,39-88.8,87.8S239.4,320.4,288.2,320.4z"/>
		</g>
		<g>
			<path id="path-3_15_" class="st15" d="M286.6,124.4c0.5,0,1,0,1.5,0c1,0,2.6,0,3.6,0l3.6-14.4c1-4.6,2.1-4.1,2.6,0l1.5,14.4l0,0
				c1.5,0,3.6,0.5,5.1,0.5l0,0l5.1-13.9c1.5-4.1,2.6-4.1,2.6,0.5l-0.5,14.4c1.5,0.5,3.6,1,5.1,1l6.7-12.8c2.1-4.1,3.1-3.6,2.6,1
				l-2.1,14.4l0,0c1.5,0.5,3.6,1,5.1,2.1l0,0l7.7-12.3c2.6-3.6,3.6-3.1,2.6,1l-3.6,14.4c1.5,1,3.1,1.5,4.6,2.6l9.2-11.3
				c3.1-3.6,4.1-3.1,2.6,1.5l-5.1,13.3l0,0c1.5,1,3.1,2.1,4.1,3.1l0,0l10.8-9.8c3.1-3.1,4.1-2.6,2.1,1.5l-7.2,13.9
				c1.5,1,2.6,2.1,4.1,3.6l11.8-8.2c3.6-2.6,4.6-2.1,2.1,2.1l-8.2,11.8l0,0c1,1,2.6,2.6,3.6,4.1l0,0l12.8-7.2c4.1-2.1,4.6-1,1.5,2.1
				l-9.8,10.8c1,1.5,2.1,3.1,3.1,4.6l13.3-5.6c4.1-1.5,4.6-0.5,1.5,2.1l-10.8,9.8l0,0c1,1.5,1.5,3.1,2.6,4.6l13.9-4.1
				c4.1-1,5.1,0,1,2.6l-11.8,8.2c0.5,1.5,1.5,3.1,2.1,5.1l13.9-2.1c4.6-0.5,4.6,0.5,1,2.6l-12.3,6.7l0,0c0.5,1.5,1,3.6,1.5,5.1l0,0
				l14.4-0.5c4.6,0,4.6,1,0.5,2.6l-13.3,5.1c0.5,1.5,0.5,3.6,0.5,5.1l13.9,1.5c4.6,0.5,4.6,1.5,0,2.6l-13.9,3.6l0,0
				c0,1.5,0,3.6,0,5.1c0,0,0,0,0,0.5l0,0l13.9,2.6c4.6,1,4.6,2.1,0,2.6l-13.9,2.1c0,2.1-0.5,3.6-0.5,5.6l13.3,4.6
				c4.1,1.5,4.1,2.6-0.5,2.6h-13.9c-0.5,1.5-0.5,3.6-1,5.1l0,0l12.8,6.2c4.1,2.1,3.6,3.1-0.5,2.6l-13.9-1.5c-0.5,1.5-1,3.6-1.5,5.1
				l11.8,7.7c3.6,2.6,3.6,3.6-1,2.6l-13.3-3.1l0,0c-1,1.5-1.5,3.6-2.6,5.1l0,0l10.8,8.7c3.6,2.6,3.1,4.1-1.5,2.6l-13.9-6.7
				c-1,1.5-2.1,3.1-3.1,4.6l9.8,9.8c3.1,3.1,2.6,4.1-1.5,2.1l-12.3-6.2l0,0c-1,1.5-2.1,3.1-3.6,4.1l8.7,10.8
				c2.6,3.6,2.1,4.6-2.1,2.1l-11.8-7.7c-1.5,1.5-2.6,2.6-4.1,3.6l7.2,11.8c2.6,4.1,1.5,4.6-2.1,1.5l-10.8-8.7l0,0
				c-1.5,1-3.1,2.1-4.6,3.1l5.6,12.8c2.1,4.1,1,4.6-2.1,1.5l-9.2-10.3c-1.5,1-3.1,2.1-5.1,3.1l4.1,13.3c1.5,4.1,0.5,4.6-2.6,1
				l-8.2-11.3l0,0c-1.5,0.5-3.6,1.5-5.1,2.1l0,0l2.6,13.3c1,4.6-0.5,4.6-2.6,1l-6.7-10.8c-1.5,0.5-3.6,1-5.1,1.5l1,13.9
				c0.5,4.6-1,4.6-2.6,0.5l-5.6-12.8l0,0c-1.5,0.5-3.6,0.5-5.6,1l0,0l-1,13.9c0,4.6-1.5,4.6-2.6,0.5l-3.1-13.9c-2.1,0-3.6,0-5.6,0.5
				l-2.6,13.9c-1,4.6-2.1,4.6-2.6,0l-2.1-13.9l0,0c-2.1,0-3.6,0-5.6-0.5l0,0l-4.1,13.3c-1,4.1-2.6,4.1-2.6-0.5l-0.5-13.9
				c-2.1-0.5-3.6-0.5-5.1-1l-6.2,12.8c-1.5,4.1-3.1,4.1-2.6-0.5l1-13.9c-1.5-0.5-3.6-1-5.1-1.5l0,0l-7.2,12.3
				c-2.1,4.1-3.6,3.6-2.6-1l2.6-13.9c-1.5-0.5-3.1-1.5-5.1-2.1l-8.7,11.3c-2.6,3.6-3.6,3.1-2.6-1l4.6-13.3l0,0
				c-1.5-1-3.1-2.1-4.6-2.6l0,0l-9.8,10.3c-3.1,3.1-4.1,2.6-2.1-1.5l6.2-12.8c-1.5-1-3.1-2.1-4.1-3.6l-10.8,7.7
				c-3.6,3.1-4.6,2.1-2.1-1.5l7.2-12.3l0,0c-1.5-1-2.6-2.6-3.6-3.6l0,0l-11.8,7.7c-3.6,2.6-4.6,1.5-2.1-2.1l8.7-11.3
				c-1-1.5-2.1-2.6-3.1-4.1l-12.8,6.2c-4.1,2.1-4.6,1-1.5-2.1l10.3-10.3l0,0c-1-1.5-2.1-3.1-2.6-4.6l-13.3,4.6
				c-4.1,1.5-4.6,0.5-1-2.6l11.3-8.7c-1-1.5-1.5-3.1-2.1-4.6l-14.9,3.1c-4.6,1-5.1,0-1-2.6l12.3-7.2l0,0c-0.5-1.5-1-3.6-1.5-5.1l0,0
				l-14.4,1.5c-4.6,0.5-4.6-0.5-0.5-2.6l12.8-6.2c-0.5-1.5-0.5-3.6-1-5.1l-14.4-0.5c-4.6,0-4.6-1.5-0.5-2.6l13.9-4.6l0,0
				c0-1.5-0.5-3.6-0.5-5.1l0,0l-14.4-2.1c-4.6-0.5-4.6-2.1,0-2.6l14.4-2.6c0-1.5,0-3.6,0-5.1l-13.9-3.6c-4.1-1-4.1-2.6,0.5-2.6
				l14.4-1l0,0c0-1.5,0.5-3.6,1-5.1l0,0l-13.3-5.1c-4.1-1.5-4.1-2.6,0.5-2.6L184,206c0.5-1.5,1-3.6,1.5-5.1l-12.8-6.7
				c-4.1-2.1-3.6-3.1,1-2.6l14.4,2.6l0,0c0.5-1.5,1.5-3.1,2.1-4.6l0,0l-11.8-8.2c-3.6-2.6-3.1-3.6,1-2.6l13.9,4.1
				c1-1.5,1.5-3.1,2.6-4.6l-10.8-9.8c-3.6-3.1-2.6-4.1,1.5-2.1l13.3,5.6l0,0c1-1.5,2.1-2.6,3.1-4.1l0,0l-9.8-11.3
				c-3.1-3.6-2.1-4.1,1.5-2.1l12.8,7.2c1-1.5,2.6-2.6,3.6-4.1l-8.2-13.3c-2.6-3.6-1.5-4.6,2.1-2.1l11.8,8.7l0,0c1-1,2.6-2.1,4.1-3.1
				l-6.7-12.8c-2.1-4.1-1-4.6,2.1-1.5l10.8,10.3c1.5-1,3.1-2.1,4.1-3.1l-5.1-13.9c-1.5-4.1-0.5-4.6,2.6-1.5l9.2,11.3l0,0
				c1.5-1,3.1-1.5,4.6-2.1l0,0l-3.6-14.4c-1-4.6,0-5.1,2.6-1l7.7,12.3c1.5-0.5,3.1-1,4.6-1.5l-1.5-14.4c-0.5-4.6,0.5-4.6,2.6-0.5
				l6.2,13.3l0,0c1.5-0.5,3.6-1,5.1-1l0,0v-14.9c0-4.6,1-4.6,2.6-0.5l5.1,13.9c1.5,0,3.6-0.5,5.1-0.5l1.5-14.4
				c0.5-4.6,1.5-4.6,2.6,0L286.6,124.4L286.6,124.4z M288.2,320.4c48.8,0,88.3-39.5,88.3-88.3s-39.5-88.3-88.3-88.3
				s-88.8,39-88.8,87.8S239.4,320.4,288.2,320.4z"/>
		</g>
	</g>
	<g id="Shape_1_">
		<g>
			<path class="st16" d="M377.6,274.5h-98c-8.2,0-19,5.6-23.1,13.3L206.2,375c-5.6,9.2-1,20.5,9.8,25.7c15.9,8.7,57.5,8.2,89.3-1
				c24.6-8.7,45.7-24.1,62.1-43.6c21.6-27.2,28.2-54.9,28.2-63.1C395.6,283.7,388.4,274.5,377.6,274.5z"/>
			<circle class="st16" cx="257.5" cy="265.7" r="7.7"/>
			<path class="st15" d="M437.6,275c6.7-1,6.7-2.6,0-4.1l-19-3.6c0-0.5,0-1,0-1.5c0-2.6,0-5.1,0-7.7l18.5-4.6
				c6.7-1.5,6.2-3.6-0.5-4.1l-19-1.5c-0.5-3.1-0.5-5.6-1-8.7l18-6.7c6.2-2.6,6.2-4.1-0.5-4.1l-19,0.5c-0.5-3.1-1.5-5.6-2.1-8.7
				l16.9-8.7c6.2-3.1,5.1-4.6-1-3.6l-19,3.1c-1-2.6-2.1-5.6-3.1-8.2l15.9-10.8c5.6-4.1,4.6-5.6-1.5-3.6l-18.5,5.1
				c-1.5-2.6-2.6-5.1-4.1-7.7L413,173c5.1-4.6,4.1-6.2-2.1-3.6l-17.4,7.2c-1.5-2.6-3.6-5.1-5.1-7.2l12.8-14.4
				c4.6-5.1,3.6-6.2-2.6-3.1l-18,9.2c-2.1-2.1-3.6-4.6-5.6-6.7l11.3-15.9c4.1-5.6,2.6-6.7-3.1-3.1l-15.4,11.3
				c-2.1-2.1-4.1-4.1-6.7-5.6l9.2-16.9c3.1-6.2,1.5-7.2-3.1-2.6l-13.9,12.8c-2.6-1.5-4.6-3.6-7.2-5.1l7.2-18c2.6-6.2,1-7.2-3.6-2.1
				l-12.3,14.4c-2.6-1.5-5.1-2.6-7.7-4.1l4.6-18.5c1.5-6.7,0-7.2-3.6-1.5l-10.3,15.9c-2.6-1-5.6-2.1-8.2-3.1l2.6-19
				c1-6.7-0.5-7.2-3.6-1l-8.7,16.9c-2.6-1-5.6-1.5-8.7-2.1l0.5-19c0-6.7-1.5-7.2-4.1-0.5l-6.7,18c-3.1-0.5-5.6-1-8.7-1l-3.1-18.5
				c-0.5-6.7-2.6-6.7-4.1-0.5l-4.6,18.5c-2.1,0-4.1,0-6.2,0c-1,0-2.1,0-2.6,0l-4.1-19c-1.5-6.7-3.1-6.7-4.1,0l-2.1,19
				c-3.1,0-5.6,0.5-8.7,1l-6.7-18c-2.1-6.2-4.1-6.2-4.1,0.5l0.5,19c-3.1,0.5-5.6,1-8.7,2.1L208,91.3c-3.1-6.2-4.6-5.6-4.1,1l2.1,19
				c-2.6,1-5.6,2.1-8.2,3.1l-10.3-15.9c-3.6-5.6-5.1-5.1-3.6,1.5l4.6,18.5c-2.6,1-5.1,2.6-7.7,4.1l-12.3-14.9
				c-4.1-5.1-5.6-4.1-3.6,2.1l6.7,18c-2.6,1.5-5.1,3.1-7.2,4.6L150.8,119c-5.1-4.6-6.2-3.6-3.1,2.6l8.7,16.9
				c-2.1,2.1-4.6,3.6-6.7,5.6l-15.4-11.3c-5.6-4.1-6.7-2.6-3.1,2.6l10.8,15.9c-2.1,2.1-4.1,4.1-6.2,6.7l-16.4-9.8
				c-5.6-3.6-7.2-2.1-2.6,3.1l12.3,14.4l0,0c-1.5,2.1-3.6,4.6-5.1,7.2l-17.4-7.7c-6.2-2.6-7.2-1-2.1,3.6l14.4,12.8
				c-1.5,2.6-3.1,5.1-4.1,7.7l-18.5-5.1c-6.7-2.1-7.2,0-1.5,3.6l15.4,10.8c-1,2.6-2.6,5.1-3.6,8.2l-19-3.1c-6.7-1-7.2,0.5-1.5,3.6
				l16.9,9.2c-1,2.6-1.5,5.6-2.6,8.2l-19-0.5c-6.7,0-7.2,1.5-1,4.1l18,6.7c-0.5,3.1-1,5.6-1.5,8.7l-19,2.6c-6.7,0.5-6.7,2.1-0.5,4.1
				l18.5,5.1c0,3.1-0.5,5.6-0.5,8.7l-19,3.6c-6.7,1-6.7,3.1,0,4.1l19,2.6c0,3.1,0.5,5.6,0.5,8.7l-18.5,5.6c-6.7,2.1-6.2,3.6,0.5,4.1
				l19,0.5c0.5,3.1,1,5.6,1.5,8.7L81,310.4c-6.2,3.1-5.6,4.6,1,4.1l19-2.1c1,3.1,1.5,5.6,2.6,8.7l-16.4,9.8
				c-5.6,3.6-5.1,5.1,1.5,3.6l19-4.1c1,2.6,2.6,5.1,3.6,8.2l-14.9,11.8c-5.1,4.1-4.6,5.6,2.1,3.6l18-6.2c1.5,2.6,3.1,5.1,4.6,7.7
				l-12.3,12.3c-4.6,4.6-3.6,6.2,2.1,3.1l17.4-8.2c1.5,2.6,3.6,4.6,5.6,6.7L122,384.3c-4.1,5.1-3.1,6.7,2.6,3.1l15.9-10.3
				c2.1,2.1,4.1,4.1,6.2,6.2l-9.8,16.4c-3.6,5.6-2.1,6.7,3.1,2.6l14.9-12.3c2.1,2.1,4.6,3.6,7.2,5.6l-8.2,17.4
				c-3.1,6.2-1.5,7.2,3.1,2.1l13.3-13.9c2.6,1.5,5.1,3.1,7.7,4.6l-6.2,18c-2.1,6.2-0.5,7.2,3.6,2.1l11.8-15.4c2.6,1,5.1,2.6,8.2,3.6
				l-3.6,19c-1.5,6.7,0.5,7.2,3.6,1.5l9.8-16.4c2.6,1,5.6,2.1,8.2,2.6l-2.1,19.5c-0.5,6.7,1,7.2,4.1,1l7.7-17.4
				c3.1,0.5,5.6,1,8.7,1.5l1,19c0.5,6.7,2.1,6.7,4.1,0.5l5.1-18.5c3.1,0.5,6.2,0.5,8.7,0.5l3.1,19c1,6.7,2.6,6.7,4.1,0l3.6-19
				c3.1,0,5.6,0,8.7-0.5l5.1,18.5c2.1,6.7,3.6,6.2,4.1-0.5l1-19c3.1-0.5,5.6-1,8.7-1.5l7.2,17.4c2.6,6.2,4.1,5.6,4.1-1l-2.1-18
				c3.1-0.5,5.6-1.5,8.2-2.6l9.8,16.4c3.6,5.6,5.1,5.1,3.6-1.5l-3.6-19c2.6-1,5.6-2.1,8.2-3.6l11.3,15.4c4.1,5.6,5.6,4.6,3.6-2.1
				l-5.1-17.4c2.6-1.5,5.1-3.1,7.7-4.6l12.8,13.9c4.6,5.1,6.2,4.1,3.6-2.1l-7.7-17.4c2.6-1.5,4.6-3.6,7.2-5.1l14.9,12.3
				c5.1,4.1,6.7,3.1,3.1-2.6l-9.8-16.4c2.1-2.1,4.1-4.1,6.2-6.2l15.9,10.3c5.6,3.6,6.7,2.6,2.6-3.1L379.1,372
				c2.1-2.1,3.6-4.6,5.6-6.7l17.4,8.7c6.2,3.1,7.2,1.5,2.6-3.1L390.8,357c1.5-2.6,3.1-4.6,4.6-7.2l18,6.2c6.2,2.1,7.2,0.5,2.1-3.6
				l-14.9-11.8c1.5-2.6,2.6-5.1,4.1-8.2l18.5,4.1c6.7,1.5,7.2,0,1.5-3.6l-16.4-10.3c1-2.6,2.1-5.6,3.1-8.2l19,2.1
				c6.7,0.5,7.2-1,1-4.1l-17.4-8.2c0.5-3.1,1.5-5.6,2.1-8.7l19-0.5c6.7,0,7.2-2.1,0.5-4.1l-18-4.6c0.5-3.1,0.5-5.6,1-8.7L437.6,275z
				 M190.3,365.3c-5.1,9.2-18.5,10.3-26.7,5.6c-5.6-3.1-19-15.9-31.3-35.9c-11.3-20.5-17.4-43.6-17.4-68.8
				c0-42.1,18-79.5,47.2-105.7c9.2-5.1,22.1-4.1,27.2,4.6l50.8,87.2c4.1,7.2,4.1,21-0.5,28.2L190.3,365.3z M367.3,356.1
				c-16.4,19.5-37.5,34.9-62.1,43.6c-31.8,9.2-73.4,9.8-89.3,1c-10.8-5.1-14.9-16.4-9.8-25.7l50.3-87.2c4.1-7.2,14.9-13.3,23.1-13.3
				h98c10.8,0,18,9.2,18,18.5C395.6,301.1,388.9,329.4,367.3,356.1z M249.8,265.7c0-4.1,3.6-7.7,7.7-7.7c4.1,0,7.7,3.6,7.7,7.7
				s-3.6,7.7-7.7,7.7C253.4,273.4,249.8,269.8,249.8,265.7z M379.6,256.5H277c-8.7-0.5-19-7.7-23.1-15.4l-48.8-84.7
				c-5.1-9.2,0.5-19.5,8.7-24.1c5.6-3.1,23.6-8.7,47.2-8.7c67.2,1.5,122.7,50.3,135.5,113.9C398.1,248.3,388.9,256.5,379.6,256.5z"
				/>
		</g>
	</g>
</g>
</svg>
