<?xml version="1.0" encoding="utf-8"?>
<!-- Generator: Adobe Illustrator 24.0.1, SVG Export Plug-In . SVG Version: 6.00 Build 0)  -->
<svg version="1.1" id="Layer_1" xmlns="http://www.w3.org/2000/svg" xmlns:xlink="http://www.w3.org/1999/xlink" x="0px" y="0px"
	 viewBox="0 0 512 512" style="enable-background:new 0 0 512 512;" xml:space="preserve">
<style type="text/css">
	.st0{display:none;}
	.st1{display:inline;fill:#200A7F;stroke:#18E5EA;stroke-width:20;stroke-miterlimit:10;}
	.st2{display:inline;fill:#EF0B79;}
	.st3{display:inline;fill:#18E5EA;}
	.st4{display:inline;}
	.st5{fill:#E9F21C;}
	.st6{display:inline;fill:none;}
	.st7{display:inline;fill:#EF3A24;}
	.st8{font-family:'MyriadPro-Regular';}
	.st9{font-size:250px;}
	.st10{display:inline;fill:#FFFFFF;}
	.st11{opacity:0.12;fill:#ABABAB;enable-background:new    ;}
	.st12{fill:url(#SVGID_1_);}
	.st13{fill:url(#SVGID_2_);}
	.st14{display:none;opacity:8.000000e-02;fill:#EFEFEF;enable-background:new    ;}
	.st15{fill:none;}
	.st16{fill:#FFFFFF;}
</style>
<g id="Layer_3" class="st0">
	<path class="st1" d="M401.1,212.2c5.1,15.3,7.9,31.7,7.9,48.8c0,85.3-69.2,154.5-154.5,154.5S100,346.3,100,261
		s69.2-154.5,154.5-154.5c51.2,0,96.6,24.9,124.7,63.3"/>
	<path class="st2" d="M333.4,255.2c0,4.2-3.3,7.7-7.4,7.7H174.9c-4.1,0-7.4-3.4-7.4-7.7l0,0c0-4.2,3.3-7.7,7.4-7.7H326
		C330.1,247.5,333.4,250.9,333.4,255.2L333.4,255.2z"/>
	<path class="st2" d="M333.4,284.8c0,4.2-3.3,7.6-7.4,7.6H174.9c-4.1,0-7.4-3.4-7.4-7.6l0,0c0-4.2,3.3-7.6,7.4-7.6H326
		C330.1,277.1,333.4,280.6,333.4,284.8L333.4,284.8z"/>
	<path class="st2" d="M333.4,313c0,4.2-3.3,7.7-7.4,7.7H174.9c-4.1,0-7.4-3.4-7.4-7.7l0,0c0-4.2,3.3-7.6,7.4-7.6H326
		C330.1,305.4,333.4,308.8,333.4,313L333.4,313z"/>
	<path class="st2" d="M333.4,338.4c0,4.2-3.3,7.7-7.4,7.7H174.9c-4.1,0-7.4-3.4-7.4-7.7l0,0c0-4.2,3.3-7.6,7.4-7.6H326
		C330.1,330.7,333.4,334.1,333.4,338.4L333.4,338.4z"/>
	<polygon class="st3" points="395,191.5 320.2,165.2 380.4,113.5 	"/>
	<g class="st4">
		<g>
			<g>
				<path class="st5" d="M241.5,239.2c-2.3,0-4.4-1.1-5.8-2.9l-18.8-24.8c-2.4-3.2-1.8-7.8,1.4-10.3c3.2-2.4,7.8-1.8,10.3,1.4
					l12.3,16.3l31-49.8c2.1-3.4,6.6-4.5,10.1-2.3c3.4,2.1,4.5,6.6,2.3,10.1l-36.7,58.9c-1.3,2-3.5,3.3-5.9,3.4
					C241.7,239.2,241.6,239.2,241.5,239.2z"/>
			</g>
		</g>
	</g>
</g>
<g id="Layer_2_2_" class="st0">
	<rect x="121" y="171.5" class="st6" width="298" height="251"/>
	<text transform="matrix(1 0 0 1 121 348.9979)" class="st7 st8 st9">24</text>
	<circle class="st10" cx="138.3" cy="91.8" r="17.3"/>
	<circle class="st10" cx="185.3" cy="91.8" r="17.3"/>
	<circle class="st10" cx="232.3" cy="91.8" r="17.3"/>
	<circle class="st10" cx="278.3" cy="91.8" r="17.3"/>
	<circle class="st10" cx="323.3" cy="91.8" r="17.3"/>
	<circle class="st10" cx="368.3" cy="91.8" r="17.3"/>
</g>
<path class="st11" d="M371.3,495.1H142c-73.7,0-133.5-59.8-133.5-133.5v-218C8.5,69.9,68.3,10.1,142,10.1h229.2
	c73.7,0,133.5,59.8,133.5,133.5v218C504.8,435.4,445,495.1,371.3,495.1z"/>
<g>
	
		<linearGradient id="SVGID_1_" gradientUnits="userSpaceOnUse" x1="261.722" y1="91.8408" x2="250.722" y2="603.8408" gradientTransform="matrix(1 0 0 1 0 -82)">
		<stop  offset="0" style="stop-color:#89744C"/>
		<stop  offset="0.5" style="stop-color:#574109"/>
		<stop  offset="1" style="stop-color:#3A2600"/>
	</linearGradient>
	<path class="st12" d="M365.5,489.9h-218C73.8,489.9,14,430.1,14,356.4v-207C14,75.7,73.8,15.9,147.5,15.9h218
		c73.7,0,133.5,59.8,133.5,133.5v207C499,430.1,439.2,489.9,365.5,489.9z"/>
	
		<linearGradient id="SVGID_2_" gradientUnits="userSpaceOnUse" x1="261.722" y1="91.8408" x2="250.722" y2="603.8408" gradientTransform="matrix(1 0 0 1 0 -82)">
		<stop  offset="0" style="stop-color:#2BC4F3"/>
		<stop  offset="0.5" style="stop-color:#00AEEE"/>
		<stop  offset="1" style="stop-color:#0095DA"/>
	</linearGradient>
	<path class="st13" d="M365.5,489.9h-218C73.8,489.9,14,430.1,14,356.4v-207C14,75.7,73.8,15.9,147.5,15.9h218
		c73.7,0,133.5,59.8,133.5,133.5v207C499,430.1,439.2,489.9,365.5,489.9z"/>
</g>
<path class="st14" d="M502,156.5v207c0,73.7-59.8,133.5-133.5,133.5h-218c-51.4,0-96.1-29.1-118.4-71.7c-3.3-11.7-5.1-24-5.1-36.8
	v-207C27,107.8,86.8,48,160.5,48h218c51.4,0,96.1,29.1,118.4,71.7C500.2,131.4,502,143.8,502,156.5z"/>
<path class="st14" d="M510,158.5v207c0,73.7-59.8,133.5-133.5,133.5h-218c-61,0-112.4-40.9-128.4-96.7c-3.3-11.7-5.1-24-5.1-36.8
	v-207C25,84.8,84.8,25,158.5,25h218c51.4,0,96.1,29.1,118.4,71.7C504.5,115.2,510,136.2,510,158.5z"/>
<image style="display:none;overflow:visible;enable-background:new    ;" width="696" height="428" xlink:href="C:\Users\win10\Downloads\macOSBigSur-696x428.png"  transform="matrix(0.75 0 0 0.75 -31 244.3898)">
</image>
<rect x="54" y="156.5" class="st15" width="587" height="199"/>
<title>001 - Accessibility</title>
<desc>Created with Sketch.</desc>
<g id="Page-1">
	<g id="_x30_01---Accessibility">
		<path id="Shape" class="st16" d="M256,86.6c-93.6,0-169.4,75.8-169.4,169.4S162.4,425.4,256,425.4S425.4,349.6,425.4,256
			C425.3,162.5,349.5,86.7,256,86.6z M256,414.1c-87.3,0-158.1-70.8-158.1-158.1S168.7,97.9,256,97.9S414.1,168.7,414.1,256
			C414,343.3,343.3,414,256,414.1z"/>
		<path id="Shape_1_" class="st16" d="M256,109.2c-81.1,0-146.8,65.7-146.8,146.8S174.9,402.8,256,402.8S402.8,337.1,402.8,256
			C402.7,175,337,109.3,256,109.2z M256,391.5c-74.8,0-135.5-60.7-135.5-135.5S181.2,120.5,256,120.5S391.5,181.2,391.5,256
			C391.4,330.8,330.8,391.4,256,391.5z"/>
		<path id="Shape_2_" class="st16" d="M256,205.2c18.7,0,33.9-15.2,33.9-33.9s-15.2-33.9-33.9-33.9s-33.9,15.2-33.9,33.9
			C222.1,190,237.3,205.2,256,205.2z M256,148.7c12.5,0,22.6,10.1,22.6,22.6s-10.1,22.6-22.6,22.6s-22.6-10.1-22.6-22.6
			S243.5,148.7,256,148.7z"/>
		<path id="Shape_3_" class="st16" d="M334.6,210.9L334.6,210.9l-59.4,5.3c-2,0.2-4,0.3-6.1,0.3h-26.4c-2,0-4-0.1-6.1-0.3l-59.4-5.3
			c-9.3-0.7-17.5,6.2-18.2,15.6c-0.7,9.3,6.2,17.5,15.6,18.2l47.9,4.3c2.9,0.3,5.1,2.7,5.1,5.6v13c0,2.8-0.5,5.6-1.6,8.2L199,345.1
			c-3.8,8.6,0.1,18.6,8.6,22.4s18.6-0.1,22.4-8.6l25.9-63.3l26.1,63.5c3.9,8.3,13.7,12,22.2,8.3c8.4-3.7,12.3-13.5,8.8-22
			l-27.3-69.5c-1-2.6-1.6-5.4-1.6-8.2v-13c0-2.9,2.2-5.4,5.1-5.6l47.8-4.3c9.3-0.7,16.3-8.9,15.6-18.2
			C352.1,217.1,344,210.2,334.6,210.9L334.6,210.9z M336.3,233.4l-47.9,4.3c-8.7,0.8-15.4,8.1-15.4,16.9v13c0,4.2,0.8,8.4,2.3,12.4
			l27.4,69.7c1.3,2.8,0.1,6.2-2.7,7.5c-2.8,1.3-6.2,0.1-7.5-2.7l-26.1-63.3c-1.7-4.2-5.8-6.9-10.4-6.9s-8.6,2.7-10.4,6.9l-26,63.1
			c-0.8,1.9-2.6,3.2-4.7,3.4c-2.1,0.2-4.1-0.8-5.2-2.5s-1.2-4-0.2-5.8l27.3-69.5c1.5-3.9,2.3-8.1,2.3-12.4v-13
			c0-8.8-6.7-16.1-15.4-16.9l-48-4.3c-3.1-0.2-5.5-2.9-5.2-6c0.2-3.1,2.9-5.5,6-5.2l59.3,5.3c2.3,0.2,4.7,0.3,7.1,0.3h26.4
			c2.4,0,4.7-0.1,7.1-0.3l59.3-5.3c1.5-0.1,3,0.4,4.1,1.3c1.1,1,1.8,2.4,1.9,3.9c0.1,1.5-0.4,3-1.4,4.2
			C339.2,232.6,337.8,233.3,336.3,233.4z"/>
	</g>
</g>
</svg>
