<?xml version="1.0" encoding="utf-8"?>
<!-- Generator: Adobe Illustrator 24.0.1, SVG Export Plug-In . SVG Version: 6.00 Build 0)  -->
<svg version="1.1" id="Layer_1" xmlns="http://www.w3.org/2000/svg" xmlns:xlink="http://www.w3.org/1999/xlink" x="0px" y="0px"
	 viewBox="0 0 512 512" style="enable-background:new 0 0 512 512;" xml:space="preserve">
<style type="text/css">
	.st0{display:none;}
	.st1{display:inline;fill:#200A7F;stroke:#18E5EA;stroke-width:20;stroke-miterlimit:10;}
	.st2{display:inline;fill:#EF0B79;}
	.st3{display:inline;fill:#18E5EA;}
	.st4{display:inline;}
	.st5{fill:#E9F21C;}
	.st6{display:inline;fill:none;}
	.st7{display:inline;fill:#EF3A24;}
	.st8{font-family:'MyriadPro-Regular';}
	.st9{font-size:250px;}
	.st10{display:inline;fill:#FFFFFF;}
	.st11{opacity:0.12;fill:url(#SVGID_1_);enable-background:new    ;}
	.st12{fill:#FFFFFF;}
	.st13{display:none;opacity:8.000000e-02;fill:#EFEFEF;enable-background:new    ;}
	.st14{fill:url(#SVGID_2_);}
	.st15{fill:url(#SVGID_3_);}
	.st16{fill:url(#SVGID_4_);}
	.st17{fill:url(#SVGID_5_);}
	.st18{fill:url(#SVGID_6_);}
	.st19{fill:url(#SVGID_7_);}
	.st20{fill:url(#SVGID_8_);}
	.st21{fill:url(#SVGID_9_);}
	.st22{fill:url(#SVGID_10_);}
</style>
<g id="Layer_3" class="st0">
	<path class="st1" d="M401.1,212.2c5.1,15.3,7.9,31.7,7.9,48.8c0,85.3-69.2,154.5-154.5,154.5S100,346.3,100,261
		s69.2-154.5,154.5-154.5c51.2,0,96.6,24.9,124.7,63.3"/>
	<path class="st2" d="M333.4,255.2c0,4.2-3.3,7.7-7.4,7.7H174.9c-4.1,0-7.4-3.4-7.4-7.7l0,0c0-4.2,3.3-7.7,7.4-7.7H326
		C330.1,247.5,333.4,250.9,333.4,255.2L333.4,255.2z"/>
	<path class="st2" d="M333.4,284.8c0,4.2-3.3,7.6-7.4,7.6H174.9c-4.1,0-7.4-3.4-7.4-7.6l0,0c0-4.2,3.3-7.6,7.4-7.6H326
		C330.1,277.1,333.4,280.6,333.4,284.8L333.4,284.8z"/>
	<path class="st2" d="M333.4,313c0,4.2-3.3,7.7-7.4,7.7H174.9c-4.1,0-7.4-3.4-7.4-7.7l0,0c0-4.2,3.3-7.6,7.4-7.6H326
		C330.1,305.4,333.4,308.8,333.4,313L333.4,313z"/>
	<path class="st2" d="M333.4,338.4c0,4.2-3.3,7.7-7.4,7.7H174.9c-4.1,0-7.4-3.4-7.4-7.7l0,0c0-4.2,3.3-7.6,7.4-7.6H326
		C330.1,330.7,333.4,334.1,333.4,338.4L333.4,338.4z"/>
	<polygon class="st3" points="395,191.5 320.2,165.2 380.4,113.5 	"/>
	<g class="st4">
		<g>
			<g>
				<path class="st5" d="M241.5,239.2c-2.3,0-4.4-1.1-5.8-2.9l-18.8-24.8c-2.4-3.2-1.8-7.8,1.4-10.3c3.2-2.4,7.8-1.8,10.3,1.4
					l12.3,16.3l31-49.8c2.1-3.4,6.6-4.5,10.1-2.3c3.4,2.1,4.5,6.6,2.3,10.1l-36.7,58.9c-1.3,2-3.5,3.3-5.9,3.4
					C241.7,239.2,241.6,239.2,241.5,239.2z"/>
			</g>
		</g>
	</g>
</g>
<g id="Layer_2_2_" class="st0">
	<rect x="121" y="171.5" class="st6" width="298" height="251"/>
	<text transform="matrix(1 0 0 1 121 348.9979)" class="st7 st8 st9">24</text>
	<circle class="st10" cx="138.3" cy="91.8" r="17.3"/>
	<circle class="st10" cx="185.3" cy="91.8" r="17.3"/>
	<circle class="st10" cx="232.3" cy="91.8" r="17.3"/>
	<circle class="st10" cx="278.3" cy="91.8" r="17.3"/>
	<circle class="st10" cx="323.3" cy="91.8" r="17.3"/>
	<circle class="st10" cx="368.3" cy="91.8" r="17.3"/>
</g>
<linearGradient id="SVGID_1_" gradientUnits="userSpaceOnUse" x1="259.9693" y1="341.0706" x2="252.9693" y2="843.0707" gradientTransform="matrix(1 0 0 1 0 -330)">
	<stop  offset="0" style="stop-color:#707070"/>
	<stop  offset="0.5095" style="stop-color:#474747"/>
	<stop  offset="1" style="stop-color:#262626"/>
</linearGradient>
<path class="st11" d="M371.3,495.1H142c-73.7,0-133.5-59.8-133.5-133.5v-218C8.5,69.9,68.3,10.1,142,10.1h229.2
	c73.7,0,133.5,59.8,133.5,133.5v218C504.8,435.4,445,495.1,371.3,495.1z"/>
<path class="st12" d="M365.5,489.9h-218C73.8,489.9,14,430.1,14,356.4v-207C14,75.7,73.8,15.9,147.5,15.9h218
	c73.7,0,133.5,59.8,133.5,133.5v207C499,430.1,439.2,489.9,365.5,489.9z"/>
<path class="st13" d="M502,156.5v207c0,73.7-59.8,133.5-133.5,133.5h-218c-51.4,0-96.1-29.1-118.4-71.7c-3.3-11.7-5.1-24-5.1-36.8
	v-207C27,107.8,86.8,48,160.5,48h218c51.4,0,96.1,29.1,118.4,71.7C500.2,131.4,502,143.8,502,156.5z"/>
<path class="st13" d="M510,158.5v207c0,73.7-59.8,133.5-133.5,133.5h-218c-61,0-112.4-40.9-128.4-96.7c-3.3-11.7-5.1-24-5.1-36.8
	v-207C25,84.8,84.8,25,158.5,25h218c51.4,0,96.1,29.1,118.4,71.7C504.5,115.2,510,136.2,510,158.5z"/>
<image style="display:none;overflow:visible;enable-background:new    ;" width="696" height="428" xlink:href="../../Downloads/macOSBigSur-696x428.png"  transform="matrix(0.75 0 0 0.75 -31 244.3898)">
</image>
<g>
	<linearGradient id="SVGID_2_" gradientUnits="userSpaceOnUse" x1="323.8918" y1="142.5791" x2="410.95" y2="142.5791">
		<stop  offset="0" style="stop-color:#F37E5F"/>
		<stop  offset="0.5" style="stop-color:#EC1C24"/>
		<stop  offset="1" style="stop-color:#CF232A"/>
	</linearGradient>
	<path class="st14" d="M377,99.1h-43.9c-5.1,0-9.2,4.1-9.2,9.2s4.1,9.2,9.2,9.2H377c8.6,0,15.5,7,15.5,15.5v43.9
		c0,5.1,4.1,9.2,9.2,9.2c5.1,0,9.2-4.1,9.2-9.2V133C410.9,114.3,395.7,99.1,377,99.1z"/>
	<linearGradient id="SVGID_3_" gradientUnits="userSpaceOnUse" x1="97.05" y1="142.5791" x2="184.1082" y2="142.5791">
		<stop  offset="0" style="stop-color:#F37E5F"/>
		<stop  offset="0.5" style="stop-color:#EC1C24"/>
		<stop  offset="1" style="stop-color:#CF232A"/>
	</linearGradient>
	<path class="st15" d="M106.2,186.1c5.1,0,9.2-4.1,9.2-9.2V133c0-8.6,7-15.5,15.5-15.5h43.9c5.1,0,9.2-4.1,9.2-9.2s-4.1-9.2-9.2-9.2
		H131c-18.7,0-33.9,15.2-33.9,33.9v43.9C97.1,182,101.2,186.1,106.2,186.1z"/>
	<linearGradient id="SVGID_4_" gradientUnits="userSpaceOnUse" x1="97.05" y1="369.4209" x2="184.1082" y2="369.4209">
		<stop  offset="0" style="stop-color:#F37E5F"/>
		<stop  offset="0.5" style="stop-color:#EC1C24"/>
		<stop  offset="1" style="stop-color:#CF232A"/>
	</linearGradient>
	<path class="st16" d="M174.9,394.6H131c-8.6,0-15.5-7-15.5-15.5v-43.9c0-5.1-4.1-9.2-9.2-9.2s-9.2,4.1-9.2,9.2V379
		c0,18.7,15.2,33.9,33.9,33.9h43.9c5.1,0,9.2-4.1,9.2-9.2C184.1,398.7,180,394.6,174.9,394.6z"/>
	<linearGradient id="SVGID_5_" gradientUnits="userSpaceOnUse" x1="323.8918" y1="369.4209" x2="410.95" y2="369.4209">
		<stop  offset="0" style="stop-color:#F37E5F"/>
		<stop  offset="0.5" style="stop-color:#EC1C24"/>
		<stop  offset="1" style="stop-color:#CF232A"/>
	</linearGradient>
	<path class="st17" d="M401.8,325.9c-5.1,0-9.2,4.1-9.2,9.2V379c0,8.6-7,15.5-15.5,15.5h-43.9c-5.1,0-9.2,4.1-9.2,9.2
		c0,5.1,4.1,9.2,9.2,9.2H377c18.7,0,33.9-15.2,33.9-33.9v-43.9C410.9,330,406.8,325.9,401.8,325.9z"/>
	<linearGradient id="SVGID_6_" gradientUnits="userSpaceOnUse" x1="297.3102" y1="180.0865" x2="361.29" y2="180.0865">
		<stop  offset="0" style="stop-color:#F37E5F"/>
		<stop  offset="0.5" style="stop-color:#EC1C24"/>
		<stop  offset="1" style="stop-color:#CF232A"/>
	</linearGradient>
	<path class="st18" d="M306.5,166.5h29.2c4,0,7.2,3.2,7.2,7.2v29.2c0,5.1,4.1,9.2,9.2,9.2s9.2-4.1,9.2-9.2v-29.2
		c0-14.1-11.5-25.6-25.6-25.6h-29.2c-5.1,0-9.2,4.1-9.2,9.2C297.3,162.4,301.4,166.5,306.5,166.5z"/>
	<linearGradient id="SVGID_7_" gradientUnits="userSpaceOnUse" x1="146.71" y1="180.0865" x2="210.6898" y2="180.0865">
		<stop  offset="0" style="stop-color:#F37E5F"/>
		<stop  offset="0.5" style="stop-color:#EC1C24"/>
		<stop  offset="1" style="stop-color:#CF232A"/>
	</linearGradient>
	<path class="st19" d="M146.7,173.7v29.2c0,5.1,4.1,9.2,9.2,9.2c5.1,0,9.2-4.1,9.2-9.2v-29.2c0-4,3.2-7.2,7.2-7.2h29.2
		c5.1,0,9.2-4.1,9.2-9.2c0-5.1-4.1-9.2-9.2-9.2h-29.2C158.2,148.1,146.7,159.6,146.7,173.7z"/>
	<linearGradient id="SVGID_8_" gradientUnits="userSpaceOnUse" x1="146.71" y1="330.6873" x2="210.6898" y2="330.6873">
		<stop  offset="0" style="stop-color:#F37E5F"/>
		<stop  offset="0.5" style="stop-color:#EC1C24"/>
		<stop  offset="1" style="stop-color:#CF232A"/>
	</linearGradient>
	<path class="st20" d="M201.5,344.3h-29.2c-4,0-7.2-3.2-7.2-7.2v-29.2c0-5.1-4.1-9.2-9.2-9.2c-5.1,0-9.2,4.1-9.2,9.2v29.2
		c0,14.1,11.5,25.6,25.6,25.6h29.2c5.1,0,9.2-4.1,9.2-9.2S206.6,344.3,201.5,344.3z"/>
	<linearGradient id="SVGID_9_" gradientUnits="userSpaceOnUse" x1="297.3102" y1="330.6873" x2="361.29" y2="330.6873">
		<stop  offset="0" style="stop-color:#F37E5F"/>
		<stop  offset="0.5" style="stop-color:#EC1C24"/>
		<stop  offset="1" style="stop-color:#CF232A"/>
	</linearGradient>
	<path class="st21" d="M361.3,337.1v-29.2c0-5.1-4.1-9.2-9.2-9.2s-9.2,4.1-9.2,9.2v29.2c0,4-3.2,7.2-7.2,7.2h-29.2
		c-5.1,0-9.2,4.1-9.2,9.2s4.1,9.2,9.2,9.2h29.2C349.8,362.7,361.3,351.2,361.3,337.1z"/>
	<linearGradient id="SVGID_10_" gradientUnits="userSpaceOnUse" x1="97.6631" y1="256" x2="410.3369" y2="256">
		<stop  offset="0" style="stop-color:#F37E5F"/>
		<stop  offset="0.5" style="stop-color:#EC1C24"/>
		<stop  offset="1" style="stop-color:#CF232A"/>
	</linearGradient>
	<path class="st22" d="M97.7,256c0,5.1,4.1,9.2,9.2,9.2h294.3c5.1,0,9.2-4.1,9.2-9.2s-4.1-9.2-9.2-9.2H106.9
		C101.8,246.8,97.7,250.9,97.7,256z"/>
</g>
</svg>
