<?xml version="1.0" encoding="utf-8"?>
<!-- Generator: Adobe Illustrator 24.0.1, SVG Export Plug-In . SVG Version: 6.00 Build 0)  -->
<svg version="1.1" id="Layer_1" xmlns="http://www.w3.org/2000/svg" xmlns:xlink="http://www.w3.org/1999/xlink" x="0px" y="0px"
	 viewBox="0 0 512 512" style="enable-background:new 0 0 512 512;" xml:space="preserve">
<style type="text/css">
	.st0{display:none;}
	.st1{display:inline;fill:#200A7F;stroke:#18E5EA;stroke-width:20;stroke-miterlimit:10;}
	.st2{display:inline;fill:#EF0B79;}
	.st3{display:inline;fill:#18E5EA;}
	.st4{display:inline;}
	.st5{fill:#E9F21C;}
	.st6{display:inline;fill:none;}
	.st7{display:inline;fill:#EF3A24;}
	.st8{font-family:'MyriadPro-Regular';}
	.st9{font-size:250px;}
	.st10{display:inline;fill:#FFFFFF;}
	.st11{opacity:0.12;fill:url(#SVGID_1_);enable-background:new    ;}
	.st12{fill:url(#SVGID_2_);}
	.st13{display:none;opacity:8.000000e-02;fill:#EFEFEF;enable-background:new    ;}
	.st14{fill:#FFFFFF;}
</style>
<g id="Layer_3" class="st0">
	<path class="st1" d="M401.1,212.2c5.1,15.3,7.9,31.7,7.9,48.8c0,85.3-69.2,154.5-154.5,154.5S100,346.3,100,261
		s69.2-154.5,154.5-154.5c51.2,0,96.6,24.9,124.7,63.3"/>
	<path class="st2" d="M333.4,255.2c0,4.2-3.3,7.7-7.4,7.7H174.9c-4.1,0-7.4-3.4-7.4-7.7l0,0c0-4.2,3.3-7.7,7.4-7.7H326
		C330.1,247.5,333.4,250.9,333.4,255.2L333.4,255.2z"/>
	<path class="st2" d="M333.4,284.8c0,4.2-3.3,7.6-7.4,7.6H174.9c-4.1,0-7.4-3.4-7.4-7.6l0,0c0-4.2,3.3-7.6,7.4-7.6H326
		C330.1,277.1,333.4,280.6,333.4,284.8L333.4,284.8z"/>
	<path class="st2" d="M333.4,313c0,4.2-3.3,7.7-7.4,7.7H174.9c-4.1,0-7.4-3.4-7.4-7.7l0,0c0-4.2,3.3-7.6,7.4-7.6H326
		C330.1,305.4,333.4,308.8,333.4,313L333.4,313z"/>
	<path class="st2" d="M333.4,338.4c0,4.2-3.3,7.7-7.4,7.7H174.9c-4.1,0-7.4-3.4-7.4-7.7l0,0c0-4.2,3.3-7.6,7.4-7.6H326
		C330.1,330.7,333.4,334.1,333.4,338.4L333.4,338.4z"/>
	<polygon class="st3" points="395,191.5 320.2,165.2 380.4,113.5 	"/>
	<g class="st4">
		<g>
			<g>
				<path class="st5" d="M241.5,239.2c-2.3,0-4.4-1.1-5.8-2.9l-18.8-24.8c-2.4-3.2-1.8-7.8,1.4-10.3c3.2-2.4,7.8-1.8,10.3,1.4
					l12.3,16.3l31-49.8c2.1-3.4,6.6-4.5,10.1-2.3c3.4,2.1,4.5,6.6,2.3,10.1l-36.7,58.9c-1.3,2-3.5,3.3-5.9,3.4
					C241.7,239.2,241.6,239.2,241.5,239.2z"/>
			</g>
		</g>
	</g>
</g>
<g id="Layer_2_2_" class="st0">
	<rect x="121" y="171.5" class="st6" width="298" height="251"/>
	<text transform="matrix(1 0 0 1 121 348.9979)" class="st7 st8 st9">24</text>
	<circle class="st10" cx="138.3" cy="91.8" r="17.3"/>
	<circle class="st10" cx="185.3" cy="91.8" r="17.3"/>
	<circle class="st10" cx="232.3" cy="91.8" r="17.3"/>
	<circle class="st10" cx="278.3" cy="91.8" r="17.3"/>
	<circle class="st10" cx="323.3" cy="91.8" r="17.3"/>
	<circle class="st10" cx="368.3" cy="91.8" r="17.3"/>
</g>
<linearGradient id="SVGID_1_" gradientUnits="userSpaceOnUse" x1="259.9693" y1="170.8192" x2="252.9693" y2="-331.1809" gradientTransform="matrix(1 0 0 -1 0 181.8898)">
	<stop  offset="0" style="stop-color:#707070"/>
	<stop  offset="0.5095" style="stop-color:#474747"/>
	<stop  offset="1" style="stop-color:#262626"/>
</linearGradient>
<path class="st11" d="M371.3,495.1H142c-73.7,0-133.5-59.8-133.5-133.5v-218C8.5,69.9,68.3,10.1,142,10.1h229.2
	c73.7,0,133.5,59.8,133.5,133.5v218C504.8,435.4,445,495.1,371.3,495.1z"/>
<linearGradient id="SVGID_2_" gradientUnits="userSpaceOnUse" x1="249.2079" y1="169.1407" x2="263.7921" y2="-311.1612" gradientTransform="matrix(1 0 0 -1 0 181.8898)">
	<stop  offset="0" style="stop-color:#64C08A"/>
	<stop  offset="0.5" style="stop-color:#00A550"/>
	<stop  offset="1" style="stop-color:#00914C"/>
</linearGradient>
<path class="st12" d="M365.5,489.9h-218C73.8,489.9,14,430.1,14,356.4v-207C14,75.7,73.8,15.9,147.5,15.9h218
	c73.7,0,133.5,59.8,133.5,133.5v207C499,430.1,439.2,489.9,365.5,489.9z"/>
<path class="st13" d="M502,156.5v207c0,73.7-59.8,133.5-133.5,133.5h-218c-51.4,0-96.1-29.1-118.4-71.7c-3.3-11.7-5.1-24-5.1-36.8
	v-207C27,107.8,86.8,48,160.5,48h218c51.4,0,96.1,29.1,118.4,71.7C500.2,131.4,502,143.8,502,156.5z"/>
<path class="st13" d="M510,158.5v207c0,73.7-59.8,133.5-133.5,133.5h-218c-61,0-112.4-40.9-128.4-96.7c-3.3-11.7-5.1-24-5.1-36.8
	v-207C25,84.8,84.8,25,158.5,25h218c51.4,0,96.1,29.1,118.4,71.7C504.5,115.2,510,136.2,510,158.5z"/>
<image style="display:none;overflow:visible;enable-background:new    ;" width="696" height="428" xlink:href="../../../Downloads/macOSBigSur-696x428.png"  transform="matrix(0.75 0 0 0.75 -31 244.3898)">
</image>
<g>
	<path class="st14" d="M91,193.1V233c0,15.1,6.7,21.5,15.7,21.5c10,0,16.4-6.6,16.4-21.5v-39.9h8.8v39.3c0,20.7-10.9,29.2-25.5,29.2
		c-13.8,0-24.2-7.9-24.2-28.8v-39.7H91z"/>
	<path class="st14" d="M147,194c3.8-0.8,9.8-1.4,15.9-1.4c8.7,0,14.3,1.5,18.5,4.9c3.5,2.6,5.6,6.6,5.6,11.9
		c0,6.5-4.3,12.2-11.4,14.8v0.2c6.4,1.6,13.9,6.9,13.9,16.9c0,5.8-2.3,10.2-5.7,13.5c-4.7,4.3-12.3,6.3-23.3,6.3
		c-6,0-10.6-0.4-13.5-0.8V194z M155.7,221.6h7.9c9.2,0,14.6-4.8,14.6-11.3c0-7.9-6-11-14.8-11c-4,0-6.3,0.3-7.7,0.6V221.6z
		 M155.7,253.9c1.7,0.3,4.2,0.4,7.3,0.4c9,0,17.3-3.3,17.3-13.1c0-9.2-7.9-13-17.4-13h-7.2L155.7,253.9L155.7,253.9z"/>
	<path class="st14" d="M209.9,193.1V233c0,15.1,6.7,21.5,15.7,21.5c10,0,16.4-6.6,16.4-21.5v-39.9h8.8v39.3
		c0,20.7-10.9,29.2-25.5,29.2c-13.8,0-24.2-7.9-24.2-28.8v-39.7H209.9z"/>
	<path class="st14" d="M265.9,260.5v-67.4h9.5l21.6,34.1c5,7.9,8.9,15,12.1,21.9l0.2-0.1c-0.8-9-1-17.2-1-27.7v-28.2h8.2v67.4h-8.8
		l-21.4-34.2c-4.7-7.5-9.2-15.2-12.6-22.5l-0.3,0.1c0.5,8.5,0.7,16.6,0.7,27.8v28.8H265.9z"/>
	<path class="st14" d="M344.5,200.5H324v-7.4h49.9v7.4h-20.6v60h-8.8V200.5z"/>
	<path class="st14" d="M390.1,193.1V233c0,15.1,6.7,21.5,15.7,21.5c10,0,16.4-6.6,16.4-21.5v-39.9h8.8v39.3
		c0,20.7-10.9,29.2-25.5,29.2c-13.8,0-24.2-7.9-24.2-28.8v-39.7H390.1z"/>
</g>
<circle class="st14" cx="128.3" cy="302.1" r="6.2"/>
<circle class="st14" cx="162" cy="302.1" r="6.2"/>
<circle class="st14" cx="193.2" cy="302.1" r="6.2"/>
<circle class="st14" cx="222.3" cy="302.1" r="6.2"/>
<circle class="st14" cx="254.6" cy="302.1" r="6.2"/>
<circle class="st14" cx="288.3" cy="302.1" r="6.2"/>
<circle class="st14" cx="319.5" cy="302.1" r="6.2"/>
<circle class="st14" cx="348.7" cy="302.1" r="6.2"/>
<circle class="st14" cx="374.4" cy="302.1" r="6.2"/>
</svg>
