<?xml version="1.0" encoding="utf-8"?>
<!-- Generator: Adobe Illustrator 24.0.1, SVG Export Plug-In . SVG Version: 6.00 Build 0)  -->
<svg version="1.1" id="Layer_1" xmlns="http://www.w3.org/2000/svg" xmlns:xlink="http://www.w3.org/1999/xlink" x="0px" y="0px"
	 viewBox="0 0 512 512" style="enable-background:new 0 0 512 512;" xml:space="preserve">
<style type="text/css">
	.st0{opacity:0.12;fill:#ABABAB;enable-background:new    ;}
	.st1{fill:url(#SVGID_1_);}
	.st2{display:none;opacity:8.000000e-02;fill:#EFEFEF;enable-background:new    ;}
	.st3{opacity:0.96;}
	.st4{opacity:0.76;fill:url(#SVGID_2_);enable-background:new    ;}
	.st5{opacity:0.76;fill:url(#SVGID_3_);enable-background:new    ;}
	.st6{opacity:0.76;fill:url(#SVGID_4_);enable-background:new    ;}
	.st7{opacity:0.76;fill:url(#SVGID_5_);enable-background:new    ;}
	.st8{opacity:0.76;fill:url(#SVGID_6_);enable-background:new    ;}
	.st9{opacity:0.76;fill:url(#SVGID_7_);enable-background:new    ;}
	.st10{opacity:0.76;fill:url(#SVGID_8_);enable-background:new    ;}
	.st11{opacity:0.76;fill:url(#SVGID_9_);enable-background:new    ;}
</style>
<path class="st0" d="M371.3,495.1H142c-73.7,0-133.5-59.8-133.5-133.5v-218C8.5,69.9,68.3,10.1,142,10.1h229.2
	c73.7,0,133.5,59.8,133.5,133.5v218C504.8,435.4,445,495.1,371.3,495.1z"/>
<linearGradient id="SVGID_1_" gradientUnits="userSpaceOnUse" x1="14" y1="258.9898" x2="499" y2="258.9898" gradientTransform="matrix(1 0 0 -1 0 511.8898)">
	<stop  offset="0" style="stop-color:#F9F9F9"/>
	<stop  offset="0.9824" style="stop-color:#FFFFFF"/>
</linearGradient>
<path class="st1" d="M365.5,489.9h-218C73.8,489.9,14,430.1,14,356.4v-207C14,75.7,73.8,15.9,147.5,15.9h218
	c73.7,0,133.5,59.8,133.5,133.5v207C499,430.1,439.2,489.9,365.5,489.9z"/>
<path class="st2" d="M502,156.5v207c0,73.7-59.8,133.5-133.5,133.5h-218c-51.4,0-96.1-29.1-118.4-71.7c-3.3-11.7-5.1-24-5.1-36.8
	v-207C27,107.8,86.8,48,160.5,48h218c51.4,0,96.1,29.1,118.4,71.7C500.2,131.4,502,143.8,502,156.5z"/>
<path class="st2" d="M510,158.5v207c0,73.7-59.8,133.5-133.5,133.5h-218c-61,0-112.4-40.9-128.4-96.7c-3.3-11.7-5.1-24-5.1-36.8
	v-207C25,84.8,84.8,25,158.5,25h218c51.4,0,96.1,29.1,118.4,71.7C504.5,115.2,510,136.2,510,158.5z"/>
<image style="display:none;overflow:visible;enable-background:new    ;" width="696" height="428" xlink:href="../../Downloads/macOSBigSur-696x428.png"  transform="matrix(0.75 0 0 0.75 -31 244.3898)">
</image>
<g class="st3">
	
		<linearGradient id="SVGID_2_" gradientUnits="userSpaceOnUse" x1="256" y1="-62.5201" x2="256" y2="107.1169" gradientTransform="matrix(1 0 0 -1 0 181.8898)">
		<stop  offset="0" style="stop-color:#F5B650"/>
		<stop  offset="1" style="stop-color:#F5B650"/>
	</linearGradient>
	<path class="st4" d="M256,67.8L256,67.8c33.5,0,60.7,27.2,60.7,60.7v60.7c0,33.5-27.2,60.7-60.7,60.7l0,0
		c-33.5,0-60.7-27.2-60.7-60.7v-60.7C195.4,95,222.6,67.8,256,67.8z"/>
	
		<linearGradient id="SVGID_3_" gradientUnits="userSpaceOnUse" x1="256" y1="-107.4608" x2="256" y2="-273.1156" gradientTransform="matrix(1 0 0 -1 0 181.8898)">
		<stop  offset="0" style="stop-color:#76A5DC"/>
		<stop  offset="1" style="stop-color:#76A5DC"/>
	</linearGradient>
	<path class="st5" d="M256,280.2L256,280.2c33.5,0,60.7,27.2,60.7,60.7v60.7c0,33.5-27.2,60.7-60.7,60.7l0,0
		c-33.5,0-60.7-27.2-60.7-60.7v-60.7C195.4,307.4,222.6,280.2,256,280.2z"/>
	
		<linearGradient id="SVGID_4_" gradientUnits="userSpaceOnUse" x1="271.2" y1="-83.1102" x2="453.3" y2="-83.1102" gradientTransform="matrix(1 0 0 -1 0 181.8898)">
		<stop  offset="0" style="stop-color:#D4EC64"/>
		<stop  offset="1" style="stop-color:#D4EC64"/>
	</linearGradient>
	<path class="st6" d="M453.3,265L453.3,265c0,33.5-27.2,60.7-60.7,60.7h-60.7c-33.5,0-60.7-27.2-60.7-60.7l0,0
		c0-33.5,27.2-60.7,60.7-60.7h60.7C426,204.3,453.3,231.5,453.3,265z"/>
	
		<linearGradient id="SVGID_5_" gradientUnits="userSpaceOnUse" x1="238.7324" y1="-83.1102" x2="56.6324" y2="-83.1102" gradientTransform="matrix(1 0 0 -1 0 181.8898)">
		<stop  offset="0" style="stop-color:#EE6CA7"/>
		<stop  offset="1" style="stop-color:#EE6CA7"/>
	</linearGradient>
	<path class="st7" d="M240.9,265L240.9,265c0,33.5-27.2,60.7-60.7,60.7h-60.7c-33.5,0-60.7-27.2-60.7-60.7l0,0
		c0-33.5,27.2-60.7,60.7-60.7h60.7C213.6,204.3,240.9,231.5,240.9,265z"/>
	
		<linearGradient id="SVGID_6_" gradientUnits="userSpaceOnUse" x1="272.9827" y1="-63.8418" x2="391.5351" y2="49.8563" gradientTransform="matrix(1 0 0 -1 4.124105e-03 181.8898)">
		<stop  offset="0" style="stop-color:#EAE532"/>
		<stop  offset="1" style="stop-color:#EAE532"/>
	</linearGradient>
	<path class="st8" d="M395.5,125.6L395.5,125.6c23.7,23.7,23.7,62.1,0,85.8l-42.9,42.9c-23.7,23.7-62.1,23.7-85.8,0l0,0
		c-23.7-23.7-23.7-62.1,0-85.8l42.9-42.9C333.4,101.9,371.8,101.9,395.5,125.6z"/>
	
		<linearGradient id="SVGID_7_" gradientUnits="userSpaceOnUse" x1="241.0539" y1="-101.0007" x2="116.8886" y2="-219.2878" gradientTransform="matrix(1 0 0 -1 1.046437e-04 181.8815)">
		<stop  offset="0" style="stop-color:#AA7ADB"/>
		<stop  offset="1" style="stop-color:#AA7ADB"/>
	</linearGradient>
	<path class="st9" d="M245.4,275.7L245.4,275.7c23.7,23.7,23.7,62.1,0,85.8l-42.9,42.9c-23.7,23.7-62.1,23.7-85.8,0l0,0
		c-23.7-23.7-23.7-62.1,0-85.8l42.9-42.9C183.1,252,221.6,252,245.4,275.7z"/>
	
		<linearGradient id="SVGID_8_" gradientUnits="userSpaceOnUse" x1="273.2015" y1="-99.0255" x2="388.0753" y2="-216.4402" gradientTransform="matrix(1 0 0 -1 4.129431e-04 181.8956)">
		<stop  offset="0" style="stop-color:#7BD464"/>
		<stop  offset="1" style="stop-color:#7BD464"/>
	</linearGradient>
	<path class="st10" d="M395.5,404.5L395.5,404.5c-23.7,23.7-62.1,23.7-85.8,0l-42.9-42.9c-23.7-23.7-23.7-62.1,0-85.8l0,0
		c23.7-23.7,62.1-23.7,85.8,0l42.9,42.9C419.1,342.4,419.1,380.8,395.5,404.5z"/>
	
		<linearGradient id="SVGID_9_" gradientUnits="userSpaceOnUse" x1="237.9595" y1="-65.047" x2="121.7963" y2="51.0783" gradientTransform="matrix(1 0 0 -1 -7.238773e-03 181.8866)">
		<stop  offset="0" style="stop-color:#FC6852"/>
		<stop  offset="1" style="stop-color:#FC6852"/>
	</linearGradient>
	<path class="st11" d="M245.3,254.3L245.3,254.3c-23.7,23.7-62.1,23.7-85.8,0l-42.9-42.9c-23.7-23.7-23.7-62.1,0-85.8l0,0
		c23.7-23.7,62.1-23.7,85.8,0l42.9,42.9C269,192.2,269,230.6,245.3,254.3z"/>
</g>
</svg>
