<?xml version="1.0" encoding="utf-8"?>
<!-- Generator: Adobe Illustrator 24.0.1, SVG Export Plug-In . SVG Version: 6.00 Build 0)  -->
<svg version="1.1" id="Layer_1" xmlns="http://www.w3.org/2000/svg" xmlns:xlink="http://www.w3.org/1999/xlink" x="0px" y="0px"
	 viewBox="0 0 512 512" style="enable-background:new 0 0 512 512;" xml:space="preserve">
<style type="text/css">
	.st0{display:none;}
	.st1{display:inline;fill:#200A7F;stroke:#18E5EA;stroke-width:20;stroke-miterlimit:10;}
	.st2{display:inline;fill:#EF0B79;}
	.st3{display:inline;fill:#18E5EA;}
	.st4{display:inline;}
	.st5{fill:#E9F21C;}
	.st6{display:inline;fill:none;}
	.st7{display:inline;fill:#EF3A24;}
	.st8{font-family:'MyriadPro-Regular';}
	.st9{font-size:250px;}
	.st10{display:inline;fill:#FFFFFF;}
	.st11{opacity:0.67;fill:#0086FF;enable-background:new    ;}
	.st12{fill:#FFFFFF;}
	.st13{display:none;opacity:8.000000e-02;fill:#EFEFEF;enable-background:new    ;}
	.st14{fill:#0086FF;}
	.st15{fill-rule:evenodd;clip-rule:evenodd;fill:#0086FF;}
</style>
<g id="Layer_3" class="st0">
	<path class="st1" d="M401.1,212.2c5.1,15.3,7.9,31.7,7.9,48.8c0,85.3-69.2,154.5-154.5,154.5S100,346.3,100,261
		s69.2-154.5,154.5-154.5c51.2,0,96.6,24.9,124.7,63.3"/>
	<path class="st2" d="M333.4,255.2c0,4.2-3.3,7.7-7.4,7.7H174.9c-4.1,0-7.4-3.4-7.4-7.7l0,0c0-4.2,3.3-7.7,7.4-7.7H326
		C330.1,247.5,333.4,250.9,333.4,255.2L333.4,255.2z"/>
	<path class="st2" d="M333.4,284.8c0,4.2-3.3,7.6-7.4,7.6H174.9c-4.1,0-7.4-3.4-7.4-7.6l0,0c0-4.2,3.3-7.6,7.4-7.6H326
		C330.1,277.1,333.4,280.6,333.4,284.8L333.4,284.8z"/>
	<path class="st2" d="M333.4,313c0,4.2-3.3,7.7-7.4,7.7H174.9c-4.1,0-7.4-3.4-7.4-7.7l0,0c0-4.2,3.3-7.6,7.4-7.6H326
		C330.1,305.4,333.4,308.8,333.4,313L333.4,313z"/>
	<path class="st2" d="M333.4,338.4c0,4.2-3.3,7.7-7.4,7.7H174.9c-4.1,0-7.4-3.4-7.4-7.7l0,0c0-4.2,3.3-7.6,7.4-7.6H326
		C330.1,330.7,333.4,334.1,333.4,338.4L333.4,338.4z"/>
	<polygon class="st3" points="395,191.5 320.2,165.2 380.4,113.5 	"/>
	<g class="st4">
		<g>
			<g>
				<path class="st5" d="M241.5,239.2c-2.3,0-4.4-1.1-5.8-2.9l-18.8-24.8c-2.4-3.2-1.8-7.8,1.4-10.3c3.2-2.4,7.8-1.8,10.3,1.4
					l12.3,16.3l31-49.8c2.1-3.4,6.6-4.5,10.1-2.3c3.4,2.1,4.5,6.6,2.3,10.1l-36.7,58.9c-1.3,2-3.5,3.3-5.9,3.4
					C241.7,239.2,241.6,239.2,241.5,239.2z"/>
			</g>
		</g>
	</g>
</g>
<g id="Layer_2_2_" class="st0">
	<rect x="121" y="171.5" class="st6" width="298" height="251"/>
	<text transform="matrix(1 0 0 1 121 348.9979)" class="st7 st8 st9">24</text>
	<circle class="st10" cx="138.3" cy="91.8" r="17.3"/>
	<circle class="st10" cx="185.3" cy="91.8" r="17.3"/>
	<circle class="st10" cx="232.3" cy="91.8" r="17.3"/>
	<circle class="st10" cx="278.3" cy="91.8" r="17.3"/>
	<circle class="st10" cx="323.3" cy="91.8" r="17.3"/>
	<circle class="st10" cx="368.3" cy="91.8" r="17.3"/>
</g>
<path class="st11" d="M371.3,495.1H142c-73.7,0-133.5-59.8-133.5-133.5v-218C8.5,69.9,68.3,10.1,142,10.1h229.2
	c73.7,0,133.5,59.8,133.5,133.5v218C504.8,435.4,445,495.1,371.3,495.1z"/>
<path class="st12" d="M365.5,489.9h-218C73.8,489.9,14,430.1,14,356.4v-207C14,75.7,73.8,15.9,147.5,15.9h218
	c73.7,0,133.5,59.8,133.5,133.5v207C499,430.1,439.2,489.9,365.5,489.9z"/>
<path class="st13" d="M502,156.5v207c0,73.7-59.8,133.5-133.5,133.5h-218c-51.4,0-96.1-29.1-118.4-71.7c-3.3-11.7-5.1-24-5.1-36.8
	v-207C27,107.8,86.8,48,160.5,48h218c51.4,0,96.1,29.1,118.4,71.7C500.2,131.4,502,143.8,502,156.5z"/>
<path class="st13" d="M510,158.5v207c0,73.7-59.8,133.5-133.5,133.5h-218c-61,0-112.4-40.9-128.4-96.7c-3.3-11.7-5.1-24-5.1-36.8
	v-207C25,84.8,84.8,25,158.5,25h218c51.4,0,96.1,29.1,118.4,71.7C504.5,115.2,510,136.2,510,158.5z"/>
<g>
	<path class="st14" d="M199,433.3l-10.9-18.9c-4.4-7.2-7.2-11.9-9.9-16.9h-0.3c-2.4,5-4.8,9.5-9.3,17l-10.3,18.8h-12.7l26.2-43.3
		l-25.1-42.3h12.8l11.3,20.1c3.2,5.6,5.6,9.9,7.9,14.5h0.4c2.4-5.1,4.6-9,7.7-14.5l11.7-20.1h12.7l-26,41.7l26.7,43.9H199z"/>
	<path class="st14" d="M296.8,395.7c-0.6-11.9-1.4-26.3-1.3-37h-0.4c-2.9,10-6.5,20.7-10.8,32.5l-15.1,41.5h-8.4L247,392
		c-4.1-12.1-7.5-23.1-9.9-33.3h-0.3c-0.3,10.7-0.9,25-1.7,37.8l-2.3,36.7h-10.5l6-85.6h14.1l14.6,41.4c3.6,10.5,6.5,19.9,8.6,28.8
		h0.4c2.2-8.6,5.2-18,9-28.8l15.2-41.4h14.1l5.3,85.6H299L296.8,395.7z"/>
	<path class="st14" d="M326.8,347.7h11V424h36.6v9.3h-47.6V347.7z"/>
</g>
<path id="path2882" class="st14" d="M173.1,212.6l31.3-44.8c2.6-3.7,2.6-8.7,0-12.4l0,0c-4.3-6.2-13.6-6.2-17.8,0.1l-39,57.2
	c-2.5,3.7-2.5,8.5,0,12.1l41.2,61.2c4,6,12.6,6.4,17.3,0.9l0.1-0.1c3.2-3.7,3.4-9.1,0.6-13.1c-21-30.4-20.1-29.1-33.7-48.8
	C170.5,221.3,170.5,216.3,173.1,212.6z"/>
<path id="path2882_1_" class="st14" d="M297.1,286.9l0.1,0.1c4.6,5.5,13.2,5,17.3-0.9l41.2-61.2c2.5-3.7,2.5-8.5,0-12.1l-39-57.2
	c-4.3-6.3-13.5-6.3-17.8-0.1l0,0c-2.6,3.7-2.6,8.7,0,12.4l31.3,44.8c2.6,3.7,2.6,8.6,0,12.4l-33.8,48.6
	C293.7,277.8,293.9,283.1,297.1,286.9z"/>
<path id="rect2888" class="st15" d="M273.9,149.4L273.9,149.4c5.6,0,9.5,5.6,7.5,10.8L235.6,282c-1.2,3.1-4.2,5.2-7.5,5.2l0,0
	c-5.6,0-9.5-5.6-7.5-10.8l45.8-121.8C267.6,151.5,270.6,149.4,273.9,149.4z"/>
</svg>
