<?xml version="1.0" encoding="utf-8"?>
<!-- Generator: Adobe Illustrator 24.0.1, SVG Export Plug-In . SVG Version: 6.00 Build 0)  -->
<svg version="1.1" id="Layer_1" xmlns="http://www.w3.org/2000/svg" xmlns:xlink="http://www.w3.org/1999/xlink" x="0px" y="0px"
	 viewBox="0 0 512 512" style="enable-background:new 0 0 512 512;" xml:space="preserve">
<style type="text/css">
	.st0{display:none;}
	.st1{display:inline;fill:#200A7F;stroke:#18E5EA;stroke-width:20;stroke-miterlimit:10;}
	.st2{display:inline;fill:#EF0B79;}
	.st3{display:inline;fill:#18E5EA;}
	.st4{display:inline;}
	.st5{fill:#E9F21C;}
	.st6{display:inline;fill:none;}
	.st7{display:inline;fill:#EF3A24;}
	.st8{font-family:'MyriadPro-Regular';}
	.st9{font-size:250px;}
	.st10{display:inline;fill:#FFFFFF;}
	.st11{opacity:0.12;fill:#ABABAB;enable-background:new    ;}
	.st12{fill:url(#SVGID_1_);}
	.st13{display:none;opacity:8.000000e-02;fill:#EFEFEF;enable-background:new    ;}
	.st14{display:none;fill:#FFFFFF;}
	.st15{fill:#FFFFFF;}
	.st16{display:none;fill:#FFFFFF;stroke:#050505;stroke-width:4;stroke-miterlimit:10;}
	.st17{display:none;fill:none;stroke:#FFFAFA;stroke-width:4;stroke-miterlimit:10;}
	.st18{display:none;fill:#FFFFFF;stroke:#000000;stroke-width:4;stroke-miterlimit:10;}
	.st19{display:none;fill:#FFFFFF;stroke:#FFFAFA;stroke-width:4;stroke-miterlimit:10;}
</style>
<g id="Layer_3" class="st0">
	<path class="st1" d="M401.1,212.2c5.1,15.3,7.9,31.7,7.9,48.8c0,85.3-69.2,154.5-154.5,154.5S100,346.3,100,261
		s69.2-154.5,154.5-154.5c51.2,0,96.6,24.9,124.7,63.3"/>
	<path class="st2" d="M333.4,255.2c0,4.2-3.3,7.7-7.4,7.7H174.9c-4.1,0-7.4-3.4-7.4-7.7l0,0c0-4.2,3.3-7.7,7.4-7.7H326
		C330.1,247.5,333.4,250.9,333.4,255.2L333.4,255.2z"/>
	<path class="st2" d="M333.4,284.8c0,4.2-3.3,7.6-7.4,7.6H174.9c-4.1,0-7.4-3.4-7.4-7.6l0,0c0-4.2,3.3-7.6,7.4-7.6H326
		C330.1,277.1,333.4,280.6,333.4,284.8L333.4,284.8z"/>
	<path class="st2" d="M333.4,313c0,4.2-3.3,7.7-7.4,7.7H174.9c-4.1,0-7.4-3.4-7.4-7.7l0,0c0-4.2,3.3-7.6,7.4-7.6H326
		C330.1,305.4,333.4,308.8,333.4,313L333.4,313z"/>
	<path class="st2" d="M333.4,338.4c0,4.2-3.3,7.7-7.4,7.7H174.9c-4.1,0-7.4-3.4-7.4-7.7l0,0c0-4.2,3.3-7.6,7.4-7.6H326
		C330.1,330.7,333.4,334.1,333.4,338.4L333.4,338.4z"/>
	<polygon class="st3" points="395,191.5 320.2,165.2 380.4,113.5 	"/>
	<g class="st4">
		<g>
			<g>
				<path class="st5" d="M241.5,239.2c-2.3,0-4.4-1.1-5.8-2.9l-18.8-24.8c-2.4-3.2-1.8-7.8,1.4-10.3c3.2-2.4,7.8-1.8,10.3,1.4
					l12.3,16.3l31-49.8c2.1-3.4,6.6-4.5,10.1-2.3c3.4,2.1,4.5,6.6,2.3,10.1l-36.7,58.9c-1.3,2-3.5,3.3-5.9,3.4
					C241.7,239.2,241.6,239.2,241.5,239.2z"/>
			</g>
		</g>
	</g>
</g>
<g id="Layer_2_2_" class="st0">
	<rect x="121" y="171.5" class="st6" width="298" height="251"/>
	<text transform="matrix(1 0 0 1 121 348.9979)" class="st7 st8 st9">24</text>
	<circle class="st10" cx="138.3" cy="91.8" r="17.3"/>
	<circle class="st10" cx="185.3" cy="91.8" r="17.3"/>
	<circle class="st10" cx="232.3" cy="91.8" r="17.3"/>
	<circle class="st10" cx="278.3" cy="91.8" r="17.3"/>
	<circle class="st10" cx="323.3" cy="91.8" r="17.3"/>
	<circle class="st10" cx="368.3" cy="91.8" r="17.3"/>
</g>
<path class="st11" d="M371.3,495.1H142c-73.7,0-133.5-59.8-133.5-133.5v-218C8.5,69.9,68.3,10.1,142,10.1h229.2
	c73.7,0,133.5,59.8,133.5,133.5v218C504.8,435.4,445,495.1,371.3,495.1z"/>
<linearGradient id="SVGID_1_" gradientUnits="userSpaceOnUse" x1="256.5" y1="503.8842" x2="256.5" y2="13.8577" gradientTransform="matrix(1 0 0 -1 0 511.8898)">
	<stop  offset="0" style="stop-color:#B07EB7"/>
	<stop  offset="0.5" style="stop-color:#8C3D96"/>
	<stop  offset="1" style="stop-color:#762A90"/>
</linearGradient>
<path class="st12" d="M365.5,489.9h-218C73.8,489.9,14,430.1,14,356.4v-207C14,75.7,73.8,15.9,147.5,15.9h218
	c73.7,0,133.5,59.8,133.5,133.5v207C499,430.1,439.2,489.9,365.5,489.9z"/>
<path class="st13" d="M502,156.5v207c0,73.7-59.8,133.5-133.5,133.5h-218c-51.4,0-96.1-29.1-118.4-71.7c-3.3-11.7-5.1-24-5.1-36.8
	v-207C27,107.8,86.8,48,160.5,48h218c51.4,0,96.1,29.1,118.4,71.7C500.2,131.4,502,143.8,502,156.5z"/>
<path class="st13" d="M510,158.5v207c0,73.7-59.8,133.5-133.5,133.5h-218c-61,0-112.4-40.9-128.4-96.7c-3.3-11.7-5.1-24-5.1-36.8
	v-207C25,84.8,84.8,25,158.5,25h218c51.4,0,96.1,29.1,118.4,71.7C504.5,115.2,510,136.2,510,158.5z"/>
<image style="display:none;overflow:visible;enable-background:new    ;" width="696" height="428" xlink:href="../../Downloads/macOSBigSur-696x428.png"  transform="matrix(0.75 0 0 0.75 -31 244.3898)">
</image>
<path class="st14" d="M129,277.4c68.7,15.7,137.4,31.3,206.1,47"/>
<path class="st15" d="M260.2,80.9c-100.4,0-181.8,81.4-181.8,181.8c0,70.6,40.2,131.7,99,161.8l8.1-14.9
	c-53.4-27.3-89.9-82.9-89.9-147c0-91.1,73.9-165,165-165c91.1,0,165,73.9,165,165c0,58.1-30.1,109.2-75.5,138.6l8.7,14.2
	C408.9,383,442,326.7,442,262.6C442,162.3,360.6,80.9,260.2,80.9z"/>
<path class="st16" d="M425.6,262.6c0,58.1-30.1,109.2-75.5,138.6l-8.4-13.8l-8.4-13.7l-8.3-13.5l-1-1.6l-7.6-12.4l-11.3-18.4
	l-39.9-65l-37.1,68.4l-9.9,18.2l-6.6,12.2l-1.2,2.2l-7.8,14.4l-9.5,17.5l-7.5,13.9c-53.4-27.3-89.9-82.9-89.9-147
	c0-91.1,73.9-165,165-165C351.7,97.7,425.6,171.5,425.6,262.6z"/>
<path class="st15" d="M260.2,113.6c-82.3,0-149,66.7-149,149c0,58.1,33.3,108.5,81.9,133.1l9.5-17.5
	c-40.9-21.9-68.8-65.1-68.8-114.8c0-71.9,58.3-130.2,130.2-130.2s130.2,58.3,130.2,130.2c0,46.5-24.3,87.3-61,110.3l8.4,13.7
	c40.7-26.6,67.6-72.6,67.6-124.8C409.3,180.3,342.5,113.6,260.2,113.6z"/>
<path class="st17" d="M264.7,172.3c-52.3,0-94.6,42.4-94.6,94.7c0,35.4,19.4,66.2,48.2,82.5l9.9-18.2l37.1-68.4l39.9,65l11.3,18.4
	c25.9-16.9,43-46.1,43-79.3C359.4,214.7,317,172.3,264.7,172.3z"/>
<path class="st18" d="M394.2,263.4c0,46.5-24.3,87.3-61,110.3l-8.3-13.5l-1-1.6l-7.6-12.4l-11.3-18.4l-39.9-65l-37.1,68.4l-9.9,18.2
	l-6.6,12.2l-1.2,2.2l-7.8,14.4c-40.9-21.9-68.8-65.1-68.8-114.8c0-71.9,58.3-130.2,130.2-130.2S394.2,191.5,394.2,263.4z"/>
<path class="st15" d="M264.6,150.2c-62.8,0-113.7,50.9-113.7,113.7c0,43.2,24,80.7,59.5,100l1.2-2.2l6.2-11.5
	c-0.7-0.6-1.4-1.3-2-1.9l-0.6,1.1c-29.1-17-48.6-48.6-48.6-84.7c0-54.1,43.9-98,98-98c54.1,0,98,43.9,98,98
	c0,33.1-16.4,62.3-41.5,80.1l-0.5-0.8c-1.1,1.3-2.3,2.5-3.5,3.7l6.8,11.1l1,1.6c32-20.1,53.3-55.7,53.3-96.4
	C378.3,201.1,327.4,150.2,264.6,150.2z"/>
<path class="st19" d="M362.6,264.6c0,33.1-16.4,62.3-41.5,80.1l-54.8-89.5l-51.1,94.1c-29.1-17-48.6-48.6-48.6-84.7
	c0-54.1,43.9-98,98-98C318.8,166.6,362.6,210.5,362.6,264.6z"/>
</svg>
