<?xml version="1.0" encoding="utf-8"?>
<!-- Generator: Adobe Illustrator 24.0.1, SVG Export Plug-In . SVG Version: 6.00 Build 0)  -->
<svg version="1.1" id="Layer_1" xmlns="http://www.w3.org/2000/svg" xmlns:xlink="http://www.w3.org/1999/xlink" x="0px" y="0px"
	 viewBox="0 0 512 512" style="enable-background:new 0 0 512 512;" xml:space="preserve">
<style type="text/css">
	.st0{display:none;}
	.st1{display:inline;fill:#200A7F;stroke:#18E5EA;stroke-width:20;stroke-miterlimit:10;}
	.st2{display:inline;fill:#EF0B79;}
	.st3{display:inline;fill:#18E5EA;}
	.st4{display:inline;}
	.st5{fill:#E9F21C;}
	.st6{display:inline;fill:none;}
	.st7{display:inline;fill:#EF3A24;}
	.st8{font-family:'MyriadPro-Regular';}
	.st9{font-size:250px;}
	.st10{display:inline;fill:#FFFFFF;}
	.st11{opacity:0.12;fill:#ABABAB;enable-background:new    ;}
	.st12{fill:#231F20;}
	.st13{fill:#231F20;stroke:#FFFFFF;stroke-miterlimit:10;}
	.st14{display:none;opacity:8.000000e-02;fill:#EFEFEF;enable-background:new    ;}
	.st15{fill:none;}
	.st16{fill:#FFFFFF;}
	.st17{font-family:'SFProDisplay-Regular';}
	.st18{font-size:63.6146px;}
	.st19{fill-rule:evenodd;clip-rule:evenodd;fill:#FFFFFF;}
	.st20{fill-rule:evenodd;clip-rule:evenodd;fill:#FE9124;}
</style>
<g id="Layer_3" class="st0">
	<path class="st1" d="M401.1,212.2c5.1,15.3,7.9,31.7,7.9,48.8c0,85.3-69.2,154.5-154.5,154.5S100,346.3,100,261
		s69.2-154.5,154.5-154.5c51.2,0,96.6,24.9,124.7,63.3"/>
	<path class="st2" d="M333.4,255.2c0,4.2-3.3,7.7-7.4,7.7H174.9c-4.1,0-7.4-3.4-7.4-7.7l0,0c0-4.2,3.3-7.7,7.4-7.7H326
		C330.1,247.5,333.4,250.9,333.4,255.2L333.4,255.2z"/>
	<path class="st2" d="M333.4,284.8c0,4.2-3.3,7.6-7.4,7.6H174.9c-4.1,0-7.4-3.4-7.4-7.6l0,0c0-4.2,3.3-7.6,7.4-7.6H326
		C330.1,277.1,333.4,280.6,333.4,284.8L333.4,284.8z"/>
	<path class="st2" d="M333.4,313c0,4.2-3.3,7.7-7.4,7.7H174.9c-4.1,0-7.4-3.4-7.4-7.7l0,0c0-4.2,3.3-7.6,7.4-7.6H326
		C330.1,305.4,333.4,308.8,333.4,313L333.4,313z"/>
	<path class="st2" d="M333.4,338.4c0,4.2-3.3,7.7-7.4,7.7H174.9c-4.1,0-7.4-3.4-7.4-7.7l0,0c0-4.2,3.3-7.6,7.4-7.6H326
		C330.1,330.7,333.4,334.1,333.4,338.4L333.4,338.4z"/>
	<polygon class="st3" points="395,191.5 320.2,165.2 380.4,113.5 	"/>
	<g class="st4">
		<g>
			<g>
				<path class="st5" d="M241.5,239.2c-2.3,0-4.4-1.1-5.8-2.9l-18.8-24.8c-2.4-3.2-1.8-7.8,1.4-10.3c3.2-2.4,7.8-1.8,10.3,1.4
					l12.3,16.3l31-49.8c2.1-3.4,6.6-4.5,10.1-2.3c3.4,2.1,4.5,6.6,2.3,10.1l-36.7,58.9c-1.3,2-3.5,3.3-5.9,3.4
					C241.7,239.2,241.6,239.2,241.5,239.2z"/>
			</g>
		</g>
	</g>
</g>
<g id="Layer_2_2_" class="st0">
	<rect x="121" y="171.5" class="st6" width="298" height="251"/>
	<text transform="matrix(1 0 0 1 121 348.9979)" class="st7 st8 st9">24</text>
	<circle class="st10" cx="138.3" cy="91.8" r="17.3"/>
	<circle class="st10" cx="185.3" cy="91.8" r="17.3"/>
	<circle class="st10" cx="232.3" cy="91.8" r="17.3"/>
	<circle class="st10" cx="278.3" cy="91.8" r="17.3"/>
	<circle class="st10" cx="323.3" cy="91.8" r="17.3"/>
	<circle class="st10" cx="368.3" cy="91.8" r="17.3"/>
</g>
<path class="st11" d="M371.3,495.1H142c-73.7,0-133.5-59.8-133.5-133.5v-218C8.5,69.9,68.3,10.1,142,10.1h229.2
	c73.7,0,133.5,59.8,133.5,133.5v218C504.8,435.4,445,495.1,371.3,495.1z"/>
<g>
	<path class="st12" d="M365.5,489.9h-218C73.8,489.9,14,430.1,14,356.4v-207C14,75.7,73.8,15.9,147.5,15.9h218
		c73.7,0,133.5,59.8,133.5,133.5v207C499,430.1,439.2,489.9,365.5,489.9z"/>
	<path class="st13" d="M365.5,489.9h-218C73.8,489.9,14,430.1,14,356.4v-207C14,75.7,73.8,15.9,147.5,15.9h218
		c73.7,0,133.5,59.8,133.5,133.5v207C499,430.1,439.2,489.9,365.5,489.9z"/>
</g>
<path class="st14" d="M502,156.5v207c0,73.7-59.8,133.5-133.5,133.5h-218c-51.4,0-96.1-29.1-118.4-71.7c-3.3-11.7-5.1-24-5.1-36.8
	v-207C27,107.8,86.8,48,160.5,48h218c51.4,0,96.1,29.1,118.4,71.7C500.2,131.4,502,143.8,502,156.5z"/>
<path class="st14" d="M510,158.5v207c0,73.7-59.8,133.5-133.5,133.5h-218c-61,0-112.4-40.9-128.4-96.7c-3.3-11.7-5.1-24-5.1-36.8
	v-207C25,84.8,84.8,25,158.5,25h218c51.4,0,96.1,29.1,118.4,71.7C504.5,115.2,510,136.2,510,158.5z"/>
<image style="display:none;overflow:visible;enable-background:new    ;" width="696" height="428" xlink:href="C:\Users\win10\Downloads\macOSBigSur-696x428.png"  transform="matrix(0.75 0 0 0.75 -31 244.3898)">
</image>
<rect x="54" y="156.5" class="st15" width="587" height="199"/>
<title>001 - Accessibility</title>
<desc>Created with Sketch.</desc>
<g>
	<text transform="matrix(1 0 0 1 344.0732 117.4523)" class="st16 st17 st18">1</text>
	<text transform="matrix(1 0 0 1 412.5391 185.6115)" class="st16 st17 st18">2</text>
	<text transform="matrix(1 0 0 1 434.4746 281.0324)" class="st16 st17 st18">3</text>
	<text transform="matrix(1 0 0 1 406.625 376.4543)" class="st16 st17 st18">4</text>
	<text transform="matrix(1 0 0 1 334.7139 444.6135)" class="st16 st17 st18">5</text>
	<text transform="matrix(1 0 0 1 238.6719 471.8781)" class="st16 st17 st18">6</text>
	<text transform="matrix(1 0 0 1 145.6284 444.6135)" class="st16 st17 st18">7</text>
	<text transform="matrix(1 0 0 1 70.332 376.4543)" class="st16 st17 st18">8</text>
	<text transform="matrix(1 0 0 1 38.7407 281.0324)" class="st16 st17 st18">9</text>
	<text transform="matrix(1 0 0 1 59.394 190.1535)" class="st16 st17 st18">10</text>
	<text transform="matrix(1 0 0 1 132.9043 117.4523)" class="st16 st17 st18">11</text>
	<text transform="matrix(1 0 0 1 224.0894 85.6452)" class="st16 st17 st18">12</text>
	<path class="st19" d="M260,251.5L260,251.5c2.3-0.7,4.7,0.6,5.4,2.9c0,0.1,0.1,0.2,0.1,0.3L322.3,456c0.7,2.3-0.6,4.7-2.9,5.4
		c-0.1,0-0.2,0.1-0.3,0.1l0,0c-2.3,0.7-4.7-0.6-5.4-2.9c0-0.1-0.1-0.2-0.1-0.3l-56.8-201.3c-0.8-2.1,0.2-4.4,2.3-5.2
		C259.4,251.6,259.7,251.5,260,251.5z"/>
	<path class="st20" d="M314.1,51.6c1.2,0.3,2,1.5,1.8,2.7l-62.3,232.6c-0.3,1.2-1.5,2-2.7,1.8c-1.4,0-1.8-1.4-1.8-2.7l62.3-232.6
		c0-1.1,0.9-2,2.1-2C313.7,51.4,313.9,51.5,314.1,51.6z"/>
	<path class="st19" d="M121.9,216.5L121.9,216.5c0.5-2.3,2.8-3.8,5.2-3.3c0.1,0,0.2,0,0.3,0.1l131.8,35.4c2.3,0.5,3.8,2.8,3.3,5.2
		c0,0.1,0,0.2-0.1,0.3l0,0c-0.5,2.3-2.8,3.8-5.2,3.3c-0.1,0-0.2,0-0.3-0.1L125.1,222C122.8,221.1,121.5,218.8,121.9,216.5z"/>
	<circle class="st16" cx="260" cy="253.8" r="13.6"/>
</g>
</svg>
