<?xml version="1.0" encoding="utf-8"?>
<!-- Generator: Adobe Illustrator 24.0.1, SVG Export Plug-In . SVG Version: 6.00 Build 0)  -->
<svg version="1.1" id="Layer_1" xmlns="http://www.w3.org/2000/svg" xmlns:xlink="http://www.w3.org/1999/xlink" x="0px" y="0px"
	 viewBox="0 0 512 512" style="enable-background:new 0 0 512 512;" xml:space="preserve">
<style type="text/css">
	.st0{display:none;}
	.st1{display:inline;fill:#200A7F;stroke:#18E5EA;stroke-width:20;stroke-miterlimit:10;}
	.st2{display:inline;fill:#EF0B79;}
	.st3{display:inline;fill:#18E5EA;}
	.st4{display:inline;}
	.st5{fill:#E9F21C;}
	.st6{display:inline;fill:none;}
	.st7{display:inline;fill:#EF3A24;}
	.st8{font-family:'MyriadPro-Regular';}
	.st9{font-size:250px;}
	.st10{display:inline;fill:#FFFFFF;}
	.st11{display:none;fill:#FFFDFD;}
	.st12{display:none;opacity:8.000000e-02;fill:#EFEFEF;enable-background:new    ;}
	.st13{fill:url(#SVGID_1_);}
	.st14{fill-rule:evenodd;clip-rule:evenodd;fill:url(#SVGID_2_);}
	.st15{fill-rule:evenodd;clip-rule:evenodd;fill:#1AA6F7;}
	.st16{fill-rule:evenodd;clip-rule:evenodd;fill:#FFFFFF;}
	.st17{fill-rule:evenodd;clip-rule:evenodd;fill:url(#SVGID_3_);}
</style>
<g id="Layer_3" class="st0">
	<path class="st1" d="M401.1,212.2c5.1,15.3,7.9,31.7,7.9,48.8c0,85.3-69.2,154.5-154.5,154.5S100,346.3,100,261
		s69.2-154.5,154.5-154.5c51.2,0,96.6,24.9,124.7,63.3"/>
	<path class="st2" d="M333.4,255.2c0,4.2-3.3,7.7-7.4,7.7H174.9c-4.1,0-7.4-3.4-7.4-7.7l0,0c0-4.2,3.3-7.7,7.4-7.7H326
		C330.1,247.5,333.4,250.9,333.4,255.2L333.4,255.2z"/>
	<path class="st2" d="M333.4,284.8c0,4.2-3.3,7.6-7.4,7.6H174.9c-4.1,0-7.4-3.4-7.4-7.6l0,0c0-4.2,3.3-7.6,7.4-7.6H326
		C330.1,277.1,333.4,280.6,333.4,284.8L333.4,284.8z"/>
	<path class="st2" d="M333.4,313c0,4.2-3.3,7.7-7.4,7.7H174.9c-4.1,0-7.4-3.4-7.4-7.7l0,0c0-4.2,3.3-7.6,7.4-7.6H326
		C330.1,305.4,333.4,308.8,333.4,313L333.4,313z"/>
	<path class="st2" d="M333.4,338.4c0,4.2-3.3,7.7-7.4,7.7H174.9c-4.1,0-7.4-3.4-7.4-7.7l0,0c0-4.2,3.3-7.6,7.4-7.6H326
		C330.1,330.7,333.4,334.1,333.4,338.4L333.4,338.4z"/>
	<polygon class="st3" points="395,191.5 320.2,165.2 380.4,113.5 	"/>
	<g class="st4">
		<g>
			<g>
				<path class="st5" d="M241.5,239.2c-2.3,0-4.4-1.1-5.8-2.9l-18.8-24.8c-2.4-3.2-1.8-7.8,1.4-10.3c3.2-2.4,7.8-1.8,10.3,1.4
					l12.3,16.3l31-49.8c2.1-3.4,6.6-4.5,10.1-2.3c3.4,2.1,4.5,6.6,2.3,10.1l-36.7,58.9c-1.3,2-3.5,3.3-5.9,3.4
					C241.7,239.2,241.6,239.2,241.5,239.2z"/>
			</g>
		</g>
	</g>
</g>
<g id="Layer_2_2_" class="st0">
	<rect x="121" y="171.5" class="st6" width="298" height="251"/>
	<text transform="matrix(1 0 0 1 121 348.9979)" class="st7 st8 st9">24</text>
	<circle class="st10" cx="138.3" cy="91.8" r="17.3"/>
	<circle class="st10" cx="185.3" cy="91.8" r="17.3"/>
	<circle class="st10" cx="232.3" cy="91.8" r="17.3"/>
	<circle class="st10" cx="278.3" cy="91.8" r="17.3"/>
	<circle class="st10" cx="323.3" cy="91.8" r="17.3"/>
	<circle class="st10" cx="368.3" cy="91.8" r="17.3"/>
</g>
<path class="st11" d="M499,149.4v207c0,73.7-59.8,133.5-133.5,133.5h-218C73.8,489.9,14,430.1,14,356.4v-207c0-1.4,0-3.6,0.2-6.7
	l0,0c0.4-6.6,1.5-16.8,4.8-28.7c4.9-17.9,14.7-39.6,34.1-59c8.2-8.2,17.4-15.3,27.4-21.1C100.2,22.4,116.7,72,141.1,72L279,347.1
	c43.5,0,168.5-310.5,192.9-278.3C488.9,91.3,499,119.2,499,149.4z"/>
<path class="st12" d="M502,156.5v207c0,73.7-59.8,133.5-133.5,133.5h-218c-51.4,0-96.1-29.1-118.4-71.7c-3.3-11.7-5.1-24-5.1-36.8
	v-207C27,107.8,86.8,48,160.5,48h218c51.4,0,96.1,29.1,118.4,71.7C500.2,131.4,502,143.8,502,156.5z"/>
<path class="st12" d="M510,158.5v207c0,73.7-59.8,133.5-133.5,133.5h-218c-61,0-112.4-40.9-128.4-96.7c-3.3-11.7-5.1-24-5.1-36.8
	v-207C25,84.8,84.8,25,158.5,25h218c51.4,0,96.1,29.1,118.4,71.7C504.5,115.2,510,136.2,510,158.5z"/>
<image style="display:none;overflow:visible;enable-background:new    ;" width="696" height="428" xlink:href="C:\Users\win10\Downloads\macOSBigSur-696x428.png"  transform="matrix(0.75 0 0 0.75 -31 244.3898)">
</image>
<linearGradient id="SVGID_1_" gradientUnits="userSpaceOnUse" x1="145" y1="25.9898" x2="145" y2="25.9898" gradientTransform="matrix(1 0 0 -1 0 181.8898)">
	<stop  offset="0" style="stop-color:#7C76B7"/>
	<stop  offset="0.5" style="stop-color:#6561AB"/>
	<stop  offset="1" style="stop-color:#483F99"/>
</linearGradient>
<path class="st13" d="M145,155.9"/>
<g>
	
		<linearGradient id="SVGID_2_" gradientUnits="userSpaceOnUse" x1="14.1671" y1="472.6998" x2="13.8703" y2="520.0991" gradientTransform="matrix(1 0 0 1 0 -330)">
		<stop  offset="0" style="stop-color:#F37F7B"/>
		<stop  offset="0.5" style="stop-color:#ED3D57"/>
		<stop  offset="1" style="stop-color:#DD1E47"/>
	</linearGradient>
	<path class="st14" d="M14.2,142.7c-0.2,3-0.2,5.3-0.2,6.7v40.7"/>
	<path class="st15" d="M146.7,171.7c-10,11.9-22,23.6-36.1,34.5c-0.3,0.2-0.6,0.5-0.9,0.7c-13.9,10.6-54.8,3.6-81-8.2
		c-9-4.1-14.7-13.1-14.7-23v-26.2c0-1.4,0-3.6,0.2-6.7c0.2-3.3,0.6-7.5,1.3-12.4c0.7-4.9,1.8-10.4,3.5-16.3
		c4.9-17.9,14.7-39.6,34.1-59l0.1-0.1c4.7-4.7,11.1-7.2,17.7-7.2h81.5c5.9,0,11.6,2.1,16.1,5.8c8.7,7.2,15.5,11.6,20.6,13
		c1.2,0.4,2.3,0.5,3.4,0.5C197.5,67,189.9,120.6,146.7,171.7z"/>
	<path class="st15" d="M499,149.4v48.5c0,22.3-18.3,40.3-40.9,40.4H150.5c-19.7,0-36.1-13.8-40-32.1c-0.6-2.7-0.9-5.4-0.9-8.3v-91.1
		c0.2-22.2,18.4-40.2,40.9-40.4h307.6l0,0c8,0,15.5,4.2,19.8,10.9C491.3,98.2,499,122.9,499,149.4z"/>
	<path class="st16" d="M36.7,129.9h437.7c5.9,0,10.6,3.4,10.6,7.7l0,0v118.8c0,4.3-4.8,7.7-10.6,7.7l0,0H36.7
		c-5.9,0-10.6-3.4-10.6-7.7l0,0V137.6c-0.4-4,3.8-7.4,9.3-7.7C35.8,129.9,36.2,129.9,36.7,129.9z"/>
	
		<linearGradient id="SVGID_3_" gradientUnits="userSpaceOnUse" x1="256.5" y1="819.9" x2="256.5" y2="501.7973" gradientTransform="matrix(1 0 0 1 0 -330)">
		<stop  offset="0" style="stop-color:#1D77F2"/>
		<stop  offset="1" style="stop-color:#18C1FA"/>
	</linearGradient>
	<path class="st17" d="M499,178.8v177.6c0,73.7-59.8,133.5-133.5,133.5h-218C73.8,489.9,14,430.1,14,356.4V194.2
		c0-1.3,0.1-2.6,0.3-3.8c1.7-10.6,10.3-18.6,20.6-18.6h448.9C489.8,171.7,495.2,174.4,499,178.8z"/>
</g>
<path class="st16" d="M247.6,255.9h3.8l1.8-9h1.6l0.7,9.2c1.1,0,2.3,0.2,3.4,0.4l2.7-8.7l1.6,0.2l-0.4,9.2c1.1,0.2,2.3,0.5,3.4,0.9
	l3.6-8.3l1.3,0.4l-1.6,9c1.1,0.4,2.2,0.7,3.4,1.1l4.5-7.8l1.3,0.7l-2.5,8.7c1.1,0.4,2,1.1,3.1,1.6l5.4-7.4l1.3,0.7l-3.6,8.5
	c0.9,0.7,2,1.3,2.9,2l6.3-6.7l1.1,0.9l-4.5,8.1c0.9,0.7,1.8,1.6,2.7,2.2l7-5.8l1.1,1.1l-5.4,7.4l2.5,2.5l7.6-4.9l0.9,1.1l-6.1,6.7
	l2,2.7l8.1-4l0.9,1.3l-7,6.1c0.7,0.9,1.1,2,1.8,2.9l8.5-3.1l0.7,1.3l-7.6,5.2l1.3,3.4l8.7-2l0.4,1.3l-7.8,4c0.4,1.1,0.7,2.2,1.1,3.4
	l9-1.1l0.4,1.6l-8.5,3.1c0.2,1.1,0.4,2.2,0.7,3.6h9.2l0.2,1.6l-8.7,2.2c0,1.1,0.2,2.5,0.2,3.6l9,1.1v1.6l-9,1.1c0,1.1,0,2.3-0.2,3.4
	l8.7,2l-0.2,1.6l-9,0.2l-0.7,3.4l8.5,3.1l-0.2,1.3l-9-0.9c-0.2,1.1-0.7,2.2-0.9,3.4l8.1,4l-0.4,1.3l-9-2l-1.3,3.4l7.6,5.2l-0.7,1.3
	l-8.7-2.9c-0.4,0.9-1.1,2-1.6,2.9l7,5.8l-0.9,1.3l-8.1-4c-0.7,1-1.4,2-2.2,2.9l6.3,6.5l-0.9,1.1l-7.6-4.9c-0.7,0.9-1.5,1.8-2.5,2.5
	l5.4,7.4l-1.1,1.1l-7.2-5.8c-0.8,0.8-1.7,1.6-2.7,2.2l4.5,7.8l-1.1,0.9l-6.3-6.5c-0.9,0.7-2,1.3-2.9,2l3.6,8.5L285,381l-5.6-7.2
	c-1,0.6-2,1.1-3.1,1.6l2.7,8.7l-1.3,0.7L273,377c-1.1,0.5-2.2,0.8-3.4,1.1l1.6,9l-1.3,0.4l-3.8-8.3c-1.1,0.2-2.2,0.7-3.4,0.9
	l0.4,9.2l-1.6,0.2l-2.7-8.7c-1.1,0.2-2.2,0.2-3.6,0.4l-0.4,9.2h-1.6l-1.8-9h-3.8l-1.6,9h-0.9l-0.7-9.2c-1.2-0.1-2.4-0.2-3.6-0.4
	l-2.7,8.7l-1.6-0.2l0.4-9.2c-1.1-0.2-2.3-0.5-3.4-0.9l-3.6,8.3l-1.3-0.4l1.6-9c-1.1-0.4-2.2-0.7-3.4-1.1l-4.7,7.8l-1.3-0.7l2.5-8.7
	c-1.1-0.4-2-1.1-3.1-1.6l-5.4,7.4l-1.3-0.7l3.6-8.5c-0.9-0.7-2-1.3-2.9-2l-6.3,6.7l-1.1-0.9l4.5-8.1c-0.9-0.7-1.8-1.6-2.7-2.2
	l-7,5.8l-1.1-1.1l5.4-7.4c-0.8-0.9-1.6-1.7-2.5-2.5l-7.6,5.2l-0.9-1.1l6.3-6.7c-0.8-0.9-1.5-1.9-2.2-2.9l-8.1,4l-0.9-1.3l7-5.8
	c-0.7-0.9-1.1-2-1.8-3.1l-8.5,3.1l-0.7-1.3l7.6-5.2l-1.3-3.4l-8.7,2l-0.4-1.3l8.1-4.3c-0.4-1.1-0.7-2.2-1.1-3.4l-9,1.1l-0.4-1.6
	l8.5-3.1c-0.2-1.1-0.4-2.2-0.7-3.6h-9l-0.2-1.6l8.7-2.2c0-1.1-0.2-2.2-0.2-3.6l-9-1.1v-1.6l9-1.1c0-1.2,0-2.4,0.2-3.6l-8.7-2
	l0.2-1.6l9-0.2l0.7-3.4l-8.5-3.1l0.4-1.3l9,0.9c0.2-1.1,0.7-2.2,0.9-3.4l-8.1-4l0.4-1.3l8.7,2l1.3-3.4l-7.6-4.9l0.7-1.3l8.5,2.9
	c0.7-1.1,1.1-2,1.8-3.1l-7-5.8l0.9-1.3l8.1,4c0.7-0.9,1.3-2,2-2.9l-6.3-6.7l0.9-1.1l7.6,4.9c0.8-1,1.6-1.9,2.5-2.7l-5.4-7.4l1.1-1.1
	l7,5.8c0.8-0.8,1.7-1.6,2.7-2.2l-4.5-7.8l1.1-0.9l6.3,6.5c0.9-0.7,2-1.3,2.9-2l-3.6-8.3l1.3-0.7l5.6,7.2c1-0.6,2-1.1,3.1-1.6
	l-2.5-8.7l1.3-0.7l4.7,7.8c1.1-0.5,2.2-0.8,3.4-1.1l-1.6-9l1.3-0.4l3.8,8.3c1.1-0.2,2.2-0.7,3.4-0.9l-0.4-9.2l1.6-0.2l2.7,8.7
	c1.1-0.2,2.2-0.2,3.6-0.4l0.4-9.2h1.6L247.6,255.9z M249.8,268c-27.9,0-50.4,22.6-50.4,50.4s22.6,50.4,50.4,50.4
	s50.4-22.6,50.4-50.4C300.2,290.6,277.7,268,249.8,268z"/>
<path class="st16" d="M246.5,224.5h5.4l2.5-13.5h2.2l0.9,13.7c1.8,0.2,3.6,0.4,5.2,0.7l4-13.2l2.2,0.4l-0.7,13.9
	c1.8,0.4,3.4,0.7,4.9,1.1l5.6-12.8l2.2,0.7l-2.2,13.9c1.6,0.5,3.2,1.1,4.7,1.8l7.2-12.3l2,0.9l-3.8,13.7c1.6,0.7,3.1,1.6,4.5,2.2
	l8.5-11.4l2,1.1l-5.6,13.2c1.5,0.9,2.9,1.9,4.3,2.9l9.9-10.5l1.8,1.3l-7.2,12.6c1.3,1.1,2.7,2.2,3.8,3.4l11-9.2l1.6,1.6l-8.5,11.7
	c1.1,1.1,2.2,2.5,3.4,3.6l12.1-7.8l1.3,1.8l-9.9,10.8c1,1.3,2,2.6,2.9,4l13-6.5l1.3,1.8l-11,9.6c0.9,1.4,1.7,2.8,2.5,4.3l13.9-4.9
	l1.1,2l-12.1,8.3c0.7,1.6,1.3,2.9,2,4.5l14.3-3.4l0.7,2l-13,6.7l1.3,4.7l14.6-1.6l0.4,2.2l-13.7,5.2c0.2,1.6,0.7,3.1,0.9,4.7h14.8
	l0.2,2.2l-14.3,3.6c0.2,1.7,0.3,3.4,0.2,5.2l14.6,1.8v2.2l-14.6,1.8c0,1.6-0.2,3.1-0.2,4.7l14.3,3.4l-0.2,2.2l-14.8,0.2
	c-0.2,1.7-0.5,3.3-0.9,4.9l13.7,5.2l-0.4,2.2l-14.6-1.6l-1.3,4.7l13,6.5l-0.7,2l-14.1-3.1c-0.7,1.6-1.3,3.1-2,4.7l12.1,8.1l-0.9,2
	l-13.7-4.7c-0.7,1.5-1.5,2.9-2.5,4.3l11,9.4l-1.1,1.8l-13-6.3c-0.9,1.3-2,2.7-2.9,4l9.9,10.5l-1.3,1.8l-12.1-7.8
	c-1.1,1.3-2.2,2.5-3.4,3.8l8.5,11.4l-1.6,1.6l-11-9c-1.3,1.1-2.5,2.2-3.8,3.4l7,12.3l-1.8,1.3l-9.9-10.1c-1.3,0.9-2.7,2-4.3,2.9
	l5.6,12.8l-2,1.1l-8.5-11c-1.6,0.9-3.1,1.6-4.7,2.5l4,13.5l-2,0.9l-7.2-11.9c-1.5,0.7-3.1,1.3-4.7,1.8l2.5,13.7l-2.2,0.7l-5.6-12.6
	c-1.6,0.4-3.4,0.9-5.2,1.3l0.7,13.5l-2.2,0.4l-4-12.8l-5.4,0.7L257,426l-2.2,0.2l-2.5-13.2h-5.8l-2.5,13.2l-2.2-0.2l-0.9-13.5
	c-1.8-0.2-3.6-0.2-5.4-0.4l-3.8,12.8l-2.2-0.4l0.7-13.2c-1.8-0.4-3.6-0.7-5.4-1.1l-5.4,12.1l-2.2-0.7l2-13c-1.8-0.5-3.5-1.1-5.2-1.8
	l-6.5,11.2l-2-0.9l3.6-12.6c-1.7-0.7-3.4-1.5-4.9-2.5l-7.8,10.3l-2-1.1l4.9-11.9c-1.6-0.9-3.1-2-4.7-2.9l-8.7,9.4l-1.8-1.3l6.3-11.2
	c-1.6-1.1-2.9-2.2-4.5-3.6l-9.9,8.1l-1.6-1.6l7.4-10.3l-4-4l-10.5,7l-1.6-1.8l8.5-9.4c-1.1-1.6-2.2-2.9-3.4-4.5l-11.2,5.6l-1.3-1.8
	l9.4-8.3c-1.1-1.6-2-3.2-2.9-4.9l-11.9,4.3l-0.9-2l10.3-7c-0.8-1.8-1.6-3.5-2.2-5.4l-12.1,2.7l-0.7-2l11-5.6
	c-0.7-1.8-1.1-3.6-1.8-5.6l-12.3,1.3l-0.4-2.2l11.7-4.3c-0.4-1.8-0.7-3.8-1.1-5.6h-12.6l-0.2-2.2l12.1-3.1c-0.2-1.8-0.2-3.8-0.4-5.6
	l-12.3-1.6v-2.2l12.3-1.6c0-2,0.2-3.8,0.2-5.8l-12.1-2.9l0.2-2.2l12.6-0.2c0.2-1.8,0.7-3.8,0.9-5.6l-11.7-4.3l0.4-2.2l12.3,1.3
	c0.4-1.8,1.1-3.6,1.6-5.6l-11.2-5.6l0.9-2l12.1,2.7c0.7-1.8,1.6-3.6,2.2-5.2l-10.5-7l0.9-2l11.9,4.3c0.9-1.7,1.9-3.3,2.9-4.9
	l-9.6-8.1l1.1-1.8l11.4,5.6c1.1-1.6,2.2-3.1,3.4-4.5l-8.7-9.4l1.3-1.8l10.8,7c1.3-1.3,2.5-2.7,3.8-4l-7.6-10.3l1.6-1.6l10.1,8.1
	c1.3-1.1,2.9-2.5,4.3-3.6l-6.5-11.2l1.8-1.3l9,9.4c1.6-1.1,3.1-2,4.7-3.1l-5.2-12.1l2-1.1l8.1,10.3c1.6-0.9,3.4-1.6,4.9-2.5
	l-3.8-12.6l2-0.9l6.7,11.4c1.7-0.7,3.4-1.3,5.2-1.8l-2.2-13.2l2.2-0.7l5.4,12.1c1.7-0.5,3.4-0.9,5.2-1.1l-0.7-13.5l2.2-0.4l4,12.8
	l5.4-0.7l0.9-13.5l2.2-0.2L246.5,224.5z M191.7,378.7c6.1,5.8,15.9,3.4,20.2-4l24.2-42.6c4.7-8.4,4.5-18.7-0.4-26.9L210.8,263
	c-4.3-7.2-14.1-9.6-20.2-3.6c-32.6,31.9-33.3,84.2-1.4,116.8C190.1,377.1,190.9,377.9,191.7,378.7z M243.3,300.5
	c5,8.3,14,13.4,23.8,13.5H316c8.5,0,15.5-7.2,13.5-15.5c-11.1-44.5-56.3-71.6-100.8-60.4c-1.2,0.3-2.5,0.6-3.7,1
	c-8.1,2.5-11,12.1-6.7,19.5L243.3,300.5z M267.3,323.1c-9.7,0-18.6,5.1-23.5,13.5l-24.2,42.6c-3.8,6-2,14,4,17.9
	c1,0.6,2,1.1,3.1,1.4c44.2,12.3,90-13.6,102.3-57.8c0.2-0.7,0.4-1.5,0.6-2.2c2-8.1-4.9-15.5-13.5-15.5L267.3,323.1z M248.7,314.2
	c-2.5,0-4.5,2-4.5,4.5s2,4.5,4.5,4.5s4.5-2,4.5-4.5S251.2,314.2,248.7,314.2z"/>
</svg>
