<?xml version="1.0" encoding="utf-8"?>
<!-- Generator: Adobe Illustrator 24.0.1, SVG Export Plug-In . SVG Version: 6.00 Build 0)  -->
<svg version="1.1" id="Layer_1" xmlns="http://www.w3.org/2000/svg" xmlns:xlink="http://www.w3.org/1999/xlink" x="0px" y="0px"
	 viewBox="0 0 512 512" style="enable-background:new 0 0 512 512;" xml:space="preserve">
<style type="text/css">
	.st0{display:none;}
	.st1{display:inline;fill:#200A7F;stroke:#18E5EA;stroke-width:20;stroke-miterlimit:10;}
	.st2{display:inline;fill:#EF0B79;}
	.st3{display:inline;fill:#18E5EA;}
	.st4{display:inline;}
	.st5{fill:#E9F21C;}
	.st6{display:inline;fill:none;}
	.st7{display:inline;fill:#EF3A24;}
	.st8{font-family:'MyriadPro-Regular';}
	.st9{font-size:250px;}
	.st10{display:inline;fill:#FFFFFF;}
	.st11{fill:#FFFDFD;}
	.st12{display:none;opacity:8.000000e-02;fill:#EFEFEF;enable-background:new    ;}
	.st13{fill:url(#SVGID_1_);}
	.st14{fill-rule:evenodd;clip-rule:evenodd;fill:url(#SVGID_2_);}
	.st15{fill-rule:evenodd;clip-rule:evenodd;fill:#1AA6F7;}
	.st16{fill-rule:evenodd;clip-rule:evenodd;fill:#FFFFFF;}
	.st17{fill-rule:evenodd;clip-rule:evenodd;fill:url(#SVGID_3_);}
</style>
<g id="Layer_3" class="st0">
	<path class="st1" d="M401.1,212.2c5.1,15.3,7.9,31.7,7.9,48.8c0,85.3-69.2,154.5-154.5,154.5S100,346.3,100,261
		s69.2-154.5,154.5-154.5c51.2,0,96.6,24.9,124.7,63.3"/>
	<path class="st2" d="M333.4,255.2c0,4.2-3.3,7.7-7.4,7.7H174.9c-4.1,0-7.4-3.4-7.4-7.7l0,0c0-4.2,3.3-7.7,7.4-7.7H326
		C330.1,247.5,333.4,250.9,333.4,255.2L333.4,255.2z"/>
	<path class="st2" d="M333.4,284.8c0,4.2-3.3,7.6-7.4,7.6H174.9c-4.1,0-7.4-3.4-7.4-7.6l0,0c0-4.2,3.3-7.6,7.4-7.6H326
		C330.1,277.1,333.4,280.6,333.4,284.8L333.4,284.8z"/>
	<path class="st2" d="M333.4,313c0,4.2-3.3,7.7-7.4,7.7H174.9c-4.1,0-7.4-3.4-7.4-7.7l0,0c0-4.2,3.3-7.6,7.4-7.6H326
		C330.1,305.4,333.4,308.8,333.4,313L333.4,313z"/>
	<path class="st2" d="M333.4,338.4c0,4.2-3.3,7.7-7.4,7.7H174.9c-4.1,0-7.4-3.4-7.4-7.7l0,0c0-4.2,3.3-7.6,7.4-7.6H326
		C330.1,330.7,333.4,334.1,333.4,338.4L333.4,338.4z"/>
	<polygon class="st3" points="395,191.5 320.2,165.2 380.4,113.5 	"/>
	<g class="st4">
		<g>
			<g>
				<path class="st5" d="M241.5,239.2c-2.3,0-4.4-1.1-5.8-2.9l-18.8-24.8c-2.4-3.2-1.8-7.8,1.4-10.3c3.2-2.4,7.8-1.8,10.3,1.4
					l12.3,16.3l31-49.8c2.1-3.4,6.6-4.5,10.1-2.3c3.4,2.1,4.5,6.6,2.3,10.1l-36.7,58.9c-1.3,2-3.5,3.3-5.9,3.4
					C241.7,239.2,241.6,239.2,241.5,239.2z"/>
			</g>
		</g>
	</g>
</g>
<g id="Layer_2_2_" class="st0">
	<rect x="121" y="171.5" class="st6" width="298" height="251"/>
	<text transform="matrix(1 0 0 1 121 348.9979)" class="st7 st8 st9">24</text>
	<circle class="st10" cx="138.3" cy="91.8" r="17.3"/>
	<circle class="st10" cx="185.3" cy="91.8" r="17.3"/>
	<circle class="st10" cx="232.3" cy="91.8" r="17.3"/>
	<circle class="st10" cx="278.3" cy="91.8" r="17.3"/>
	<circle class="st10" cx="323.3" cy="91.8" r="17.3"/>
	<circle class="st10" cx="368.3" cy="91.8" r="17.3"/>
</g>
<path class="st11" d="M499,149.4v207c0,73.7-59.8,133.5-133.5,133.5h-218C73.8,489.9,14,430.1,14,356.4v-207c0-1.4,0-3.6,0.2-6.7
	l0,0c0.4-6.6,1.5-16.8,4.8-28.7c4.9-17.9,14.7-39.6,34.1-59c8.2-8.2,17.4-15.3,27.4-21.1C100.2,22.4,116.7,72,141.1,72L279,347.1
	c43.5,0,168.5-310.5,192.9-278.3C488.9,91.3,499,119.2,499,149.4z"/>
<path class="st12" d="M502,156.5v207c0,73.7-59.8,133.5-133.5,133.5h-218c-51.4,0-96.1-29.1-118.4-71.7c-3.3-11.7-5.1-24-5.1-36.8
	v-207C27,107.8,86.8,48,160.5,48h218c51.4,0,96.1,29.1,118.4,71.7C500.2,131.4,502,143.8,502,156.5z"/>
<path class="st12" d="M510,158.5v207c0,73.7-59.8,133.5-133.5,133.5h-218c-61,0-112.4-40.9-128.4-96.7c-3.3-11.7-5.1-24-5.1-36.8
	v-207C25,84.8,84.8,25,158.5,25h218c51.4,0,96.1,29.1,118.4,71.7C504.5,115.2,510,136.2,510,158.5z"/>
<image style="display:none;overflow:visible;enable-background:new    ;" width="696" height="428" xlink:href="C:\Users\win10\Downloads\macOSBigSur-696x428.png"  transform="matrix(0.75 0 0 0.75 -31 244.3898)">
</image>
<linearGradient id="SVGID_1_" gradientUnits="userSpaceOnUse" x1="145" y1="485.9" x2="145" y2="485.9" gradientTransform="matrix(1 0 0 1 0 -330)">
	<stop  offset="0" style="stop-color:#7C76B7"/>
	<stop  offset="0.5" style="stop-color:#6561AB"/>
	<stop  offset="1" style="stop-color:#483F99"/>
</linearGradient>
<path class="st13" d="M145,155.9"/>
<g>
	
		<linearGradient id="SVGID_2_" gradientUnits="userSpaceOnUse" x1="14.1671" y1="369.19" x2="13.8703" y2="321.7906" gradientTransform="matrix(1 0 0 -1 0 511.8898)">
		<stop  offset="0" style="stop-color:#F37F7B"/>
		<stop  offset="0.5" style="stop-color:#ED3D57"/>
		<stop  offset="1" style="stop-color:#DD1E47"/>
	</linearGradient>
	<path class="st14" d="M14.2,142.7c-0.2,3-0.2,5.3-0.2,6.7v40.7"/>
	<path class="st15" d="M146.7,171.7c-10,11.9-22,23.6-36.1,34.5c-0.3,0.2-0.6,0.5-0.9,0.7c-13.9,10.6-54.8,3.6-81-8.2
		c-9-4.1-14.7-13.1-14.7-23v-26.2c0-1.4,0-3.6,0.2-6.7c0.2-3.3,0.6-7.5,1.3-12.4c0.7-4.9,1.8-10.4,3.5-16.3
		c4.9-17.9,14.7-39.6,34.1-59c0,0,0.1-0.1,0.1-0.1c4.7-4.7,11.1-7.2,17.7-7.2h81.5c5.9,0,11.6,2.1,16.1,5.8
		c8.7,7.2,15.5,11.6,20.6,13c1.2,0.4,2.3,0.5,3.4,0.5C197.5,67,189.9,120.6,146.7,171.7z"/>
	<path class="st15" d="M499,149.4v48.5c0,22.3-18.3,40.3-40.9,40.4H150.5c-19.7,0-36.1-13.8-40-32.1c-0.6-2.7-0.9-5.4-0.9-8.3v-91.1
		c0.2-22.2,18.4-40.2,40.9-40.4h307.6l0,0c8,0,15.5,4.2,19.8,10.9C491.3,98.2,499,122.9,499,149.4z"/>
	<path class="st16" d="M36.7,129.9h437.7c5.9,0,10.6,3.4,10.6,7.7l0,0v118.8c0,4.3-4.8,7.7-10.6,7.7l0,0H36.7
		c-5.9,0-10.6-3.4-10.6-7.7l0,0V137.6c-0.4-4,3.8-7.4,9.3-7.7C35.8,129.9,36.2,129.9,36.7,129.9z"/>
	
		<linearGradient id="SVGID_3_" gradientUnits="userSpaceOnUse" x1="256.5" y1="21.9897" x2="256.5" y2="340.0925" gradientTransform="matrix(1 0 0 -1 0 511.8898)">
		<stop  offset="0" style="stop-color:#1D77F2"/>
		<stop  offset="1" style="stop-color:#18C1FA"/>
	</linearGradient>
	<path class="st17" d="M499,178.8v177.6c0,73.7-59.8,133.5-133.5,133.5h-218C73.8,489.9,14,430.1,14,356.4V194.2
		c0-1.3,0.1-2.6,0.3-3.8c1.7-10.6,10.3-18.6,20.6-18.6h448.9C489.8,171.7,495.2,174.4,499,178.8z"/>
</g>
<path class="st16" d="M325.2,253.7v-15.3c0-2.9,2.3-5.2,5.2-5.2h13c2.9,0,5.2,2.3,5.2,5.2v34.1l25.5,20.3c1.3,1.1,1.5,3,0.5,4.4
	c-0.5,0.8-1.4,1.2-2.3,1.3h-21.1v104c0,8.6-7,15.6-15.6,15.6H184.8c-8.6,0-15.6-7-15.6-15.6v-104h-21.1c-1.7,0.1-3.1-1.2-3.1-2.9
	c0-0.1,0-0.2,0-0.2c0-1,0.5-1.8,1.3-2.3l110.8-88.2c1.9-1.6,4.6-1.6,6.5,0L325.2,253.7z"/>
</svg>
